G04 #@! TF.GenerationSoftware,KiCad,Pcbnew,7.0.7*
G04 #@! TF.CreationDate,2023-09-24T19:29:38+02:00*
G04 #@! TF.ProjectId,ardumate,61726475-6d61-4746-952e-6b696361645f,rev?*
G04 #@! TF.SameCoordinates,Original*
G04 #@! TF.FileFunction,Legend,Bot*
G04 #@! TF.FilePolarity,Positive*
%FSLAX46Y46*%
G04 Gerber Fmt 4.6, Leading zero omitted, Abs format (unit mm)*
G04 Created by KiCad (PCBNEW 7.0.7) date 2023-09-24 19:29:38*
%MOMM*%
%LPD*%
G01*
G04 APERTURE LIST*
G04 Aperture macros list*
%AMRoundRect*
0 Rectangle with rounded corners*
0 $1 Rounding radius*
0 $2 $3 $4 $5 $6 $7 $8 $9 X,Y pos of 4 corners*
0 Add a 4 corners polygon primitive as box body*
4,1,4,$2,$3,$4,$5,$6,$7,$8,$9,$2,$3,0*
0 Add four circle primitives for the rounded corners*
1,1,$1+$1,$2,$3*
1,1,$1+$1,$4,$5*
1,1,$1+$1,$6,$7*
1,1,$1+$1,$8,$9*
0 Add four rect primitives between the rounded corners*
20,1,$1+$1,$2,$3,$4,$5,0*
20,1,$1+$1,$4,$5,$6,$7,0*
20,1,$1+$1,$6,$7,$8,$9,0*
20,1,$1+$1,$8,$9,$2,$3,0*%
G04 Aperture macros list end*
%ADD10C,0.200000*%
%ADD11C,0.150000*%
%ADD12C,0.120000*%
%ADD13C,1.500000*%
%ADD14C,2.000000*%
%ADD15C,1.524000*%
%ADD16R,1.524000X1.524000*%
%ADD17RoundRect,0.725000X0.975000X-0.725000X0.975000X0.725000X-0.975000X0.725000X-0.975000X-0.725000X0*%
%ADD18C,1.600000*%
%ADD19O,1.600000X1.600000*%
%ADD20R,1.600000X1.600000*%
%ADD21C,1.700000*%
%ADD22O,1.700000X1.700000*%
%ADD23R,1.700000X1.700000*%
%ADD24C,1.000000*%
%ADD25R,1.000000X1.000000*%
%ADD26O,1.000000X1.000000*%
%ADD27O,0.800000X0.800000*%
%ADD28O,1.150000X1.800000*%
%ADD29O,1.450000X2.000000*%
%ADD30C,3.000000*%
%ADD31RoundRect,0.237500X0.237500X-0.300000X0.237500X0.300000X-0.237500X0.300000X-0.237500X-0.300000X0*%
%ADD32RoundRect,0.237500X0.250000X0.237500X-0.250000X0.237500X-0.250000X-0.237500X0.250000X-0.237500X0*%
%ADD33RoundRect,0.237500X0.237500X-0.250000X0.237500X0.250000X-0.237500X0.250000X-0.237500X-0.250000X0*%
%ADD34C,1.100000*%
%ADD35R,1.500000X1.000000*%
%ADD36R,1.500000X0.700000*%
%ADD37R,2.800000X1.500000*%
%ADD38RoundRect,0.237500X-0.237500X0.250000X-0.237500X-0.250000X0.237500X-0.250000X0.237500X0.250000X0*%
%ADD39RoundRect,0.150000X0.150000X-0.825000X0.150000X0.825000X-0.150000X0.825000X-0.150000X-0.825000X0*%
%ADD40RoundRect,0.150000X-0.150000X0.650000X-0.150000X-0.650000X0.150000X-0.650000X0.150000X0.650000X0*%
G04 APERTURE END LIST*
D10*
X108700673Y-45979733D02*
X109462578Y-45979733D01*
X109081625Y-45598780D02*
X109081625Y-46360685D01*
X111462578Y-45979733D02*
X112224483Y-45979733D01*
D11*
X111696476Y-51016819D02*
X112172666Y-51016819D01*
X112172666Y-51016819D02*
X112220285Y-51493009D01*
X112220285Y-51493009D02*
X112172666Y-51445390D01*
X112172666Y-51445390D02*
X112077428Y-51397771D01*
X112077428Y-51397771D02*
X111839333Y-51397771D01*
X111839333Y-51397771D02*
X111744095Y-51445390D01*
X111744095Y-51445390D02*
X111696476Y-51493009D01*
X111696476Y-51493009D02*
X111648857Y-51588247D01*
X111648857Y-51588247D02*
X111648857Y-51826342D01*
X111648857Y-51826342D02*
X111696476Y-51921580D01*
X111696476Y-51921580D02*
X111744095Y-51969200D01*
X111744095Y-51969200D02*
X111839333Y-52016819D01*
X111839333Y-52016819D02*
X112077428Y-52016819D01*
X112077428Y-52016819D02*
X112172666Y-51969200D01*
X112172666Y-51969200D02*
X112220285Y-51921580D01*
X111363142Y-51016819D02*
X111029809Y-52016819D01*
X111029809Y-52016819D02*
X110696476Y-51016819D01*
D10*
X169699183Y-45603219D02*
X169365850Y-46603219D01*
X169365850Y-46603219D02*
X169032517Y-45603219D01*
X168365850Y-46079409D02*
X168222993Y-46127028D01*
X168222993Y-46127028D02*
X168175374Y-46174647D01*
X168175374Y-46174647D02*
X168127755Y-46269885D01*
X168127755Y-46269885D02*
X168127755Y-46412742D01*
X168127755Y-46412742D02*
X168175374Y-46507980D01*
X168175374Y-46507980D02*
X168222993Y-46555600D01*
X168222993Y-46555600D02*
X168318231Y-46603219D01*
X168318231Y-46603219D02*
X168699183Y-46603219D01*
X168699183Y-46603219D02*
X168699183Y-45603219D01*
X168699183Y-45603219D02*
X168365850Y-45603219D01*
X168365850Y-45603219D02*
X168270612Y-45650838D01*
X168270612Y-45650838D02*
X168222993Y-45698457D01*
X168222993Y-45698457D02*
X168175374Y-45793695D01*
X168175374Y-45793695D02*
X168175374Y-45888933D01*
X168175374Y-45888933D02*
X168222993Y-45984171D01*
X168222993Y-45984171D02*
X168270612Y-46031790D01*
X168270612Y-46031790D02*
X168365850Y-46079409D01*
X168365850Y-46079409D02*
X168699183Y-46079409D01*
X167699183Y-45603219D02*
X167699183Y-46412742D01*
X167699183Y-46412742D02*
X167651564Y-46507980D01*
X167651564Y-46507980D02*
X167603945Y-46555600D01*
X167603945Y-46555600D02*
X167508707Y-46603219D01*
X167508707Y-46603219D02*
X167318231Y-46603219D01*
X167318231Y-46603219D02*
X167222993Y-46555600D01*
X167222993Y-46555600D02*
X167175374Y-46507980D01*
X167175374Y-46507980D02*
X167127755Y-46412742D01*
X167127755Y-46412742D02*
X167127755Y-45603219D01*
X166699183Y-46555600D02*
X166556326Y-46603219D01*
X166556326Y-46603219D02*
X166318231Y-46603219D01*
X166318231Y-46603219D02*
X166222993Y-46555600D01*
X166222993Y-46555600D02*
X166175374Y-46507980D01*
X166175374Y-46507980D02*
X166127755Y-46412742D01*
X166127755Y-46412742D02*
X166127755Y-46317504D01*
X166127755Y-46317504D02*
X166175374Y-46222266D01*
X166175374Y-46222266D02*
X166222993Y-46174647D01*
X166222993Y-46174647D02*
X166318231Y-46127028D01*
X166318231Y-46127028D02*
X166508707Y-46079409D01*
X166508707Y-46079409D02*
X166603945Y-46031790D01*
X166603945Y-46031790D02*
X166651564Y-45984171D01*
X166651564Y-45984171D02*
X166699183Y-45888933D01*
X166699183Y-45888933D02*
X166699183Y-45793695D01*
X166699183Y-45793695D02*
X166651564Y-45698457D01*
X166651564Y-45698457D02*
X166603945Y-45650838D01*
X166603945Y-45650838D02*
X166508707Y-45603219D01*
X166508707Y-45603219D02*
X166270612Y-45603219D01*
X166270612Y-45603219D02*
X166127755Y-45650838D01*
X174525183Y-45603219D02*
X174191850Y-46603219D01*
X174191850Y-46603219D02*
X173858517Y-45603219D01*
X173191850Y-46079409D02*
X173048993Y-46127028D01*
X173048993Y-46127028D02*
X173001374Y-46174647D01*
X173001374Y-46174647D02*
X172953755Y-46269885D01*
X172953755Y-46269885D02*
X172953755Y-46412742D01*
X172953755Y-46412742D02*
X173001374Y-46507980D01*
X173001374Y-46507980D02*
X173048993Y-46555600D01*
X173048993Y-46555600D02*
X173144231Y-46603219D01*
X173144231Y-46603219D02*
X173525183Y-46603219D01*
X173525183Y-46603219D02*
X173525183Y-45603219D01*
X173525183Y-45603219D02*
X173191850Y-45603219D01*
X173191850Y-45603219D02*
X173096612Y-45650838D01*
X173096612Y-45650838D02*
X173048993Y-45698457D01*
X173048993Y-45698457D02*
X173001374Y-45793695D01*
X173001374Y-45793695D02*
X173001374Y-45888933D01*
X173001374Y-45888933D02*
X173048993Y-45984171D01*
X173048993Y-45984171D02*
X173096612Y-46031790D01*
X173096612Y-46031790D02*
X173191850Y-46079409D01*
X173191850Y-46079409D02*
X173525183Y-46079409D01*
X172572802Y-46317504D02*
X172096612Y-46317504D01*
X172668040Y-46603219D02*
X172334707Y-45603219D01*
X172334707Y-45603219D02*
X172001374Y-46603219D01*
X171810897Y-45603219D02*
X171239469Y-45603219D01*
X171525183Y-46603219D02*
X171525183Y-45603219D01*
D11*
X154860475Y-52794819D02*
X154241428Y-52794819D01*
X154241428Y-52794819D02*
X154574761Y-53175771D01*
X154574761Y-53175771D02*
X154431904Y-53175771D01*
X154431904Y-53175771D02*
X154336666Y-53223390D01*
X154336666Y-53223390D02*
X154289047Y-53271009D01*
X154289047Y-53271009D02*
X154241428Y-53366247D01*
X154241428Y-53366247D02*
X154241428Y-53604342D01*
X154241428Y-53604342D02*
X154289047Y-53699580D01*
X154289047Y-53699580D02*
X154336666Y-53747200D01*
X154336666Y-53747200D02*
X154431904Y-53794819D01*
X154431904Y-53794819D02*
X154717618Y-53794819D01*
X154717618Y-53794819D02*
X154812856Y-53747200D01*
X154812856Y-53747200D02*
X154860475Y-53699580D01*
X154050952Y-53890057D02*
X153289047Y-53890057D01*
X153146189Y-52794819D02*
X152527142Y-52794819D01*
X152527142Y-52794819D02*
X152860475Y-53175771D01*
X152860475Y-53175771D02*
X152717618Y-53175771D01*
X152717618Y-53175771D02*
X152622380Y-53223390D01*
X152622380Y-53223390D02*
X152574761Y-53271009D01*
X152574761Y-53271009D02*
X152527142Y-53366247D01*
X152527142Y-53366247D02*
X152527142Y-53604342D01*
X152527142Y-53604342D02*
X152574761Y-53699580D01*
X152574761Y-53699580D02*
X152622380Y-53747200D01*
X152622380Y-53747200D02*
X152717618Y-53794819D01*
X152717618Y-53794819D02*
X153003332Y-53794819D01*
X153003332Y-53794819D02*
X153098570Y-53747200D01*
X153098570Y-53747200D02*
X153146189Y-53699580D01*
X147942666Y-53826580D02*
X147990285Y-53874200D01*
X147990285Y-53874200D02*
X148133142Y-53921819D01*
X148133142Y-53921819D02*
X148228380Y-53921819D01*
X148228380Y-53921819D02*
X148371237Y-53874200D01*
X148371237Y-53874200D02*
X148466475Y-53778961D01*
X148466475Y-53778961D02*
X148514094Y-53683723D01*
X148514094Y-53683723D02*
X148561713Y-53493247D01*
X148561713Y-53493247D02*
X148561713Y-53350390D01*
X148561713Y-53350390D02*
X148514094Y-53159914D01*
X148514094Y-53159914D02*
X148466475Y-53064676D01*
X148466475Y-53064676D02*
X148371237Y-52969438D01*
X148371237Y-52969438D02*
X148228380Y-52921819D01*
X148228380Y-52921819D02*
X148133142Y-52921819D01*
X148133142Y-52921819D02*
X147990285Y-52969438D01*
X147990285Y-52969438D02*
X147942666Y-53017057D01*
X147180761Y-53398009D02*
X147037904Y-53445628D01*
X147037904Y-53445628D02*
X146990285Y-53493247D01*
X146990285Y-53493247D02*
X146942666Y-53588485D01*
X146942666Y-53588485D02*
X146942666Y-53731342D01*
X146942666Y-53731342D02*
X146990285Y-53826580D01*
X146990285Y-53826580D02*
X147037904Y-53874200D01*
X147037904Y-53874200D02*
X147133142Y-53921819D01*
X147133142Y-53921819D02*
X147514094Y-53921819D01*
X147514094Y-53921819D02*
X147514094Y-52921819D01*
X147514094Y-52921819D02*
X147180761Y-52921819D01*
X147180761Y-52921819D02*
X147085523Y-52969438D01*
X147085523Y-52969438D02*
X147037904Y-53017057D01*
X147037904Y-53017057D02*
X146990285Y-53112295D01*
X146990285Y-53112295D02*
X146990285Y-53207533D01*
X146990285Y-53207533D02*
X147037904Y-53302771D01*
X147037904Y-53302771D02*
X147085523Y-53350390D01*
X147085523Y-53350390D02*
X147180761Y-53398009D01*
X147180761Y-53398009D02*
X147514094Y-53398009D01*
X146561713Y-53017057D02*
X146514094Y-52969438D01*
X146514094Y-52969438D02*
X146418856Y-52921819D01*
X146418856Y-52921819D02*
X146180761Y-52921819D01*
X146180761Y-52921819D02*
X146085523Y-52969438D01*
X146085523Y-52969438D02*
X146037904Y-53017057D01*
X146037904Y-53017057D02*
X145990285Y-53112295D01*
X145990285Y-53112295D02*
X145990285Y-53207533D01*
X145990285Y-53207533D02*
X146037904Y-53350390D01*
X146037904Y-53350390D02*
X146609332Y-53921819D01*
X146609332Y-53921819D02*
X145990285Y-53921819D01*
X142628857Y-45571580D02*
X142676476Y-45619200D01*
X142676476Y-45619200D02*
X142819333Y-45666819D01*
X142819333Y-45666819D02*
X142914571Y-45666819D01*
X142914571Y-45666819D02*
X143057428Y-45619200D01*
X143057428Y-45619200D02*
X143152666Y-45523961D01*
X143152666Y-45523961D02*
X143200285Y-45428723D01*
X143200285Y-45428723D02*
X143247904Y-45238247D01*
X143247904Y-45238247D02*
X143247904Y-45095390D01*
X143247904Y-45095390D02*
X143200285Y-44904914D01*
X143200285Y-44904914D02*
X143152666Y-44809676D01*
X143152666Y-44809676D02*
X143057428Y-44714438D01*
X143057428Y-44714438D02*
X142914571Y-44666819D01*
X142914571Y-44666819D02*
X142819333Y-44666819D01*
X142819333Y-44666819D02*
X142676476Y-44714438D01*
X142676476Y-44714438D02*
X142628857Y-44762057D01*
X141676476Y-45666819D02*
X142247904Y-45666819D01*
X141962190Y-45666819D02*
X141962190Y-44666819D01*
X141962190Y-44666819D02*
X142057428Y-44809676D01*
X142057428Y-44809676D02*
X142152666Y-44904914D01*
X142152666Y-44904914D02*
X142247904Y-44952533D01*
X140771714Y-44666819D02*
X141247904Y-44666819D01*
X141247904Y-44666819D02*
X141295523Y-45143009D01*
X141295523Y-45143009D02*
X141247904Y-45095390D01*
X141247904Y-45095390D02*
X141152666Y-45047771D01*
X141152666Y-45047771D02*
X140914571Y-45047771D01*
X140914571Y-45047771D02*
X140819333Y-45095390D01*
X140819333Y-45095390D02*
X140771714Y-45143009D01*
X140771714Y-45143009D02*
X140724095Y-45238247D01*
X140724095Y-45238247D02*
X140724095Y-45476342D01*
X140724095Y-45476342D02*
X140771714Y-45571580D01*
X140771714Y-45571580D02*
X140819333Y-45619200D01*
X140819333Y-45619200D02*
X140914571Y-45666819D01*
X140914571Y-45666819D02*
X141152666Y-45666819D01*
X141152666Y-45666819D02*
X141247904Y-45619200D01*
X141247904Y-45619200D02*
X141295523Y-45571580D01*
X139612666Y-71922819D02*
X139945999Y-71446628D01*
X140184094Y-71922819D02*
X140184094Y-70922819D01*
X140184094Y-70922819D02*
X139803142Y-70922819D01*
X139803142Y-70922819D02*
X139707904Y-70970438D01*
X139707904Y-70970438D02*
X139660285Y-71018057D01*
X139660285Y-71018057D02*
X139612666Y-71113295D01*
X139612666Y-71113295D02*
X139612666Y-71256152D01*
X139612666Y-71256152D02*
X139660285Y-71351390D01*
X139660285Y-71351390D02*
X139707904Y-71399009D01*
X139707904Y-71399009D02*
X139803142Y-71446628D01*
X139803142Y-71446628D02*
X140184094Y-71446628D01*
X138660285Y-71922819D02*
X139231713Y-71922819D01*
X138945999Y-71922819D02*
X138945999Y-70922819D01*
X138945999Y-70922819D02*
X139041237Y-71065676D01*
X139041237Y-71065676D02*
X139136475Y-71160914D01*
X139136475Y-71160914D02*
X139231713Y-71208533D01*
X168314666Y-71574819D02*
X168647999Y-71098628D01*
X168886094Y-71574819D02*
X168886094Y-70574819D01*
X168886094Y-70574819D02*
X168505142Y-70574819D01*
X168505142Y-70574819D02*
X168409904Y-70622438D01*
X168409904Y-70622438D02*
X168362285Y-70670057D01*
X168362285Y-70670057D02*
X168314666Y-70765295D01*
X168314666Y-70765295D02*
X168314666Y-70908152D01*
X168314666Y-70908152D02*
X168362285Y-71003390D01*
X168362285Y-71003390D02*
X168409904Y-71051009D01*
X168409904Y-71051009D02*
X168505142Y-71098628D01*
X168505142Y-71098628D02*
X168886094Y-71098628D01*
X167981332Y-70574819D02*
X167314666Y-70574819D01*
X167314666Y-70574819D02*
X167743237Y-71574819D01*
X134307333Y-92672819D02*
X134307333Y-93387104D01*
X134307333Y-93387104D02*
X134354952Y-93529961D01*
X134354952Y-93529961D02*
X134450190Y-93625200D01*
X134450190Y-93625200D02*
X134593047Y-93672819D01*
X134593047Y-93672819D02*
X134688285Y-93672819D01*
X133402571Y-93006152D02*
X133402571Y-93672819D01*
X133640666Y-92625200D02*
X133878761Y-93339485D01*
X133878761Y-93339485D02*
X133259714Y-93339485D01*
X168314666Y-67510819D02*
X168647999Y-67034628D01*
X168886094Y-67510819D02*
X168886094Y-66510819D01*
X168886094Y-66510819D02*
X168505142Y-66510819D01*
X168505142Y-66510819D02*
X168409904Y-66558438D01*
X168409904Y-66558438D02*
X168362285Y-66606057D01*
X168362285Y-66606057D02*
X168314666Y-66701295D01*
X168314666Y-66701295D02*
X168314666Y-66844152D01*
X168314666Y-66844152D02*
X168362285Y-66939390D01*
X168362285Y-66939390D02*
X168409904Y-66987009D01*
X168409904Y-66987009D02*
X168505142Y-67034628D01*
X168505142Y-67034628D02*
X168886094Y-67034628D01*
X167743237Y-66939390D02*
X167838475Y-66891771D01*
X167838475Y-66891771D02*
X167886094Y-66844152D01*
X167886094Y-66844152D02*
X167933713Y-66748914D01*
X167933713Y-66748914D02*
X167933713Y-66701295D01*
X167933713Y-66701295D02*
X167886094Y-66606057D01*
X167886094Y-66606057D02*
X167838475Y-66558438D01*
X167838475Y-66558438D02*
X167743237Y-66510819D01*
X167743237Y-66510819D02*
X167552761Y-66510819D01*
X167552761Y-66510819D02*
X167457523Y-66558438D01*
X167457523Y-66558438D02*
X167409904Y-66606057D01*
X167409904Y-66606057D02*
X167362285Y-66701295D01*
X167362285Y-66701295D02*
X167362285Y-66748914D01*
X167362285Y-66748914D02*
X167409904Y-66844152D01*
X167409904Y-66844152D02*
X167457523Y-66891771D01*
X167457523Y-66891771D02*
X167552761Y-66939390D01*
X167552761Y-66939390D02*
X167743237Y-66939390D01*
X167743237Y-66939390D02*
X167838475Y-66987009D01*
X167838475Y-66987009D02*
X167886094Y-67034628D01*
X167886094Y-67034628D02*
X167933713Y-67129866D01*
X167933713Y-67129866D02*
X167933713Y-67320342D01*
X167933713Y-67320342D02*
X167886094Y-67415580D01*
X167886094Y-67415580D02*
X167838475Y-67463200D01*
X167838475Y-67463200D02*
X167743237Y-67510819D01*
X167743237Y-67510819D02*
X167552761Y-67510819D01*
X167552761Y-67510819D02*
X167457523Y-67463200D01*
X167457523Y-67463200D02*
X167409904Y-67415580D01*
X167409904Y-67415580D02*
X167362285Y-67320342D01*
X167362285Y-67320342D02*
X167362285Y-67129866D01*
X167362285Y-67129866D02*
X167409904Y-67034628D01*
X167409904Y-67034628D02*
X167457523Y-66987009D01*
X167457523Y-66987009D02*
X167552761Y-66939390D01*
X126372857Y-57858819D02*
X126706190Y-57382628D01*
X126944285Y-57858819D02*
X126944285Y-56858819D01*
X126944285Y-56858819D02*
X126563333Y-56858819D01*
X126563333Y-56858819D02*
X126468095Y-56906438D01*
X126468095Y-56906438D02*
X126420476Y-56954057D01*
X126420476Y-56954057D02*
X126372857Y-57049295D01*
X126372857Y-57049295D02*
X126372857Y-57192152D01*
X126372857Y-57192152D02*
X126420476Y-57287390D01*
X126420476Y-57287390D02*
X126468095Y-57335009D01*
X126468095Y-57335009D02*
X126563333Y-57382628D01*
X126563333Y-57382628D02*
X126944285Y-57382628D01*
X125991904Y-56954057D02*
X125944285Y-56906438D01*
X125944285Y-56906438D02*
X125849047Y-56858819D01*
X125849047Y-56858819D02*
X125610952Y-56858819D01*
X125610952Y-56858819D02*
X125515714Y-56906438D01*
X125515714Y-56906438D02*
X125468095Y-56954057D01*
X125468095Y-56954057D02*
X125420476Y-57049295D01*
X125420476Y-57049295D02*
X125420476Y-57144533D01*
X125420476Y-57144533D02*
X125468095Y-57287390D01*
X125468095Y-57287390D02*
X126039523Y-57858819D01*
X126039523Y-57858819D02*
X125420476Y-57858819D01*
X124801428Y-56858819D02*
X124706190Y-56858819D01*
X124706190Y-56858819D02*
X124610952Y-56906438D01*
X124610952Y-56906438D02*
X124563333Y-56954057D01*
X124563333Y-56954057D02*
X124515714Y-57049295D01*
X124515714Y-57049295D02*
X124468095Y-57239771D01*
X124468095Y-57239771D02*
X124468095Y-57477866D01*
X124468095Y-57477866D02*
X124515714Y-57668342D01*
X124515714Y-57668342D02*
X124563333Y-57763580D01*
X124563333Y-57763580D02*
X124610952Y-57811200D01*
X124610952Y-57811200D02*
X124706190Y-57858819D01*
X124706190Y-57858819D02*
X124801428Y-57858819D01*
X124801428Y-57858819D02*
X124896666Y-57811200D01*
X124896666Y-57811200D02*
X124944285Y-57763580D01*
X124944285Y-57763580D02*
X124991904Y-57668342D01*
X124991904Y-57668342D02*
X125039523Y-57477866D01*
X125039523Y-57477866D02*
X125039523Y-57239771D01*
X125039523Y-57239771D02*
X124991904Y-57049295D01*
X124991904Y-57049295D02*
X124944285Y-56954057D01*
X124944285Y-56954057D02*
X124896666Y-56906438D01*
X124896666Y-56906438D02*
X124801428Y-56858819D01*
X140620666Y-52175580D02*
X140668285Y-52223200D01*
X140668285Y-52223200D02*
X140811142Y-52270819D01*
X140811142Y-52270819D02*
X140906380Y-52270819D01*
X140906380Y-52270819D02*
X141049237Y-52223200D01*
X141049237Y-52223200D02*
X141144475Y-52127961D01*
X141144475Y-52127961D02*
X141192094Y-52032723D01*
X141192094Y-52032723D02*
X141239713Y-51842247D01*
X141239713Y-51842247D02*
X141239713Y-51699390D01*
X141239713Y-51699390D02*
X141192094Y-51508914D01*
X141192094Y-51508914D02*
X141144475Y-51413676D01*
X141144475Y-51413676D02*
X141049237Y-51318438D01*
X141049237Y-51318438D02*
X140906380Y-51270819D01*
X140906380Y-51270819D02*
X140811142Y-51270819D01*
X140811142Y-51270819D02*
X140668285Y-51318438D01*
X140668285Y-51318438D02*
X140620666Y-51366057D01*
X139858761Y-51747009D02*
X139715904Y-51794628D01*
X139715904Y-51794628D02*
X139668285Y-51842247D01*
X139668285Y-51842247D02*
X139620666Y-51937485D01*
X139620666Y-51937485D02*
X139620666Y-52080342D01*
X139620666Y-52080342D02*
X139668285Y-52175580D01*
X139668285Y-52175580D02*
X139715904Y-52223200D01*
X139715904Y-52223200D02*
X139811142Y-52270819D01*
X139811142Y-52270819D02*
X140192094Y-52270819D01*
X140192094Y-52270819D02*
X140192094Y-51270819D01*
X140192094Y-51270819D02*
X139858761Y-51270819D01*
X139858761Y-51270819D02*
X139763523Y-51318438D01*
X139763523Y-51318438D02*
X139715904Y-51366057D01*
X139715904Y-51366057D02*
X139668285Y-51461295D01*
X139668285Y-51461295D02*
X139668285Y-51556533D01*
X139668285Y-51556533D02*
X139715904Y-51651771D01*
X139715904Y-51651771D02*
X139763523Y-51699390D01*
X139763523Y-51699390D02*
X139858761Y-51747009D01*
X139858761Y-51747009D02*
X140192094Y-51747009D01*
X138763523Y-51604152D02*
X138763523Y-52270819D01*
X139001618Y-51223200D02*
X139239713Y-51937485D01*
X139239713Y-51937485D02*
X138620666Y-51937485D01*
X110116857Y-59890819D02*
X110450190Y-59414628D01*
X110688285Y-59890819D02*
X110688285Y-58890819D01*
X110688285Y-58890819D02*
X110307333Y-58890819D01*
X110307333Y-58890819D02*
X110212095Y-58938438D01*
X110212095Y-58938438D02*
X110164476Y-58986057D01*
X110164476Y-58986057D02*
X110116857Y-59081295D01*
X110116857Y-59081295D02*
X110116857Y-59224152D01*
X110116857Y-59224152D02*
X110164476Y-59319390D01*
X110164476Y-59319390D02*
X110212095Y-59367009D01*
X110212095Y-59367009D02*
X110307333Y-59414628D01*
X110307333Y-59414628D02*
X110688285Y-59414628D01*
X109735904Y-58986057D02*
X109688285Y-58938438D01*
X109688285Y-58938438D02*
X109593047Y-58890819D01*
X109593047Y-58890819D02*
X109354952Y-58890819D01*
X109354952Y-58890819D02*
X109259714Y-58938438D01*
X109259714Y-58938438D02*
X109212095Y-58986057D01*
X109212095Y-58986057D02*
X109164476Y-59081295D01*
X109164476Y-59081295D02*
X109164476Y-59176533D01*
X109164476Y-59176533D02*
X109212095Y-59319390D01*
X109212095Y-59319390D02*
X109783523Y-59890819D01*
X109783523Y-59890819D02*
X109164476Y-59890819D01*
X108212095Y-59890819D02*
X108783523Y-59890819D01*
X108497809Y-59890819D02*
X108497809Y-58890819D01*
X108497809Y-58890819D02*
X108593047Y-59033676D01*
X108593047Y-59033676D02*
X108688285Y-59128914D01*
X108688285Y-59128914D02*
X108783523Y-59176533D01*
X126372857Y-55572819D02*
X126706190Y-55096628D01*
X126944285Y-55572819D02*
X126944285Y-54572819D01*
X126944285Y-54572819D02*
X126563333Y-54572819D01*
X126563333Y-54572819D02*
X126468095Y-54620438D01*
X126468095Y-54620438D02*
X126420476Y-54668057D01*
X126420476Y-54668057D02*
X126372857Y-54763295D01*
X126372857Y-54763295D02*
X126372857Y-54906152D01*
X126372857Y-54906152D02*
X126420476Y-55001390D01*
X126420476Y-55001390D02*
X126468095Y-55049009D01*
X126468095Y-55049009D02*
X126563333Y-55096628D01*
X126563333Y-55096628D02*
X126944285Y-55096628D01*
X125420476Y-55572819D02*
X125991904Y-55572819D01*
X125706190Y-55572819D02*
X125706190Y-54572819D01*
X125706190Y-54572819D02*
X125801428Y-54715676D01*
X125801428Y-54715676D02*
X125896666Y-54810914D01*
X125896666Y-54810914D02*
X125991904Y-54858533D01*
X124944285Y-55572819D02*
X124753809Y-55572819D01*
X124753809Y-55572819D02*
X124658571Y-55525200D01*
X124658571Y-55525200D02*
X124610952Y-55477580D01*
X124610952Y-55477580D02*
X124515714Y-55334723D01*
X124515714Y-55334723D02*
X124468095Y-55144247D01*
X124468095Y-55144247D02*
X124468095Y-54763295D01*
X124468095Y-54763295D02*
X124515714Y-54668057D01*
X124515714Y-54668057D02*
X124563333Y-54620438D01*
X124563333Y-54620438D02*
X124658571Y-54572819D01*
X124658571Y-54572819D02*
X124849047Y-54572819D01*
X124849047Y-54572819D02*
X124944285Y-54620438D01*
X124944285Y-54620438D02*
X124991904Y-54668057D01*
X124991904Y-54668057D02*
X125039523Y-54763295D01*
X125039523Y-54763295D02*
X125039523Y-55001390D01*
X125039523Y-55001390D02*
X124991904Y-55096628D01*
X124991904Y-55096628D02*
X124944285Y-55144247D01*
X124944285Y-55144247D02*
X124849047Y-55191866D01*
X124849047Y-55191866D02*
X124658571Y-55191866D01*
X124658571Y-55191866D02*
X124563333Y-55144247D01*
X124563333Y-55144247D02*
X124515714Y-55096628D01*
X124515714Y-55096628D02*
X124468095Y-55001390D01*
X140366666Y-55096580D02*
X140414285Y-55144200D01*
X140414285Y-55144200D02*
X140557142Y-55191819D01*
X140557142Y-55191819D02*
X140652380Y-55191819D01*
X140652380Y-55191819D02*
X140795237Y-55144200D01*
X140795237Y-55144200D02*
X140890475Y-55048961D01*
X140890475Y-55048961D02*
X140938094Y-54953723D01*
X140938094Y-54953723D02*
X140985713Y-54763247D01*
X140985713Y-54763247D02*
X140985713Y-54620390D01*
X140985713Y-54620390D02*
X140938094Y-54429914D01*
X140938094Y-54429914D02*
X140890475Y-54334676D01*
X140890475Y-54334676D02*
X140795237Y-54239438D01*
X140795237Y-54239438D02*
X140652380Y-54191819D01*
X140652380Y-54191819D02*
X140557142Y-54191819D01*
X140557142Y-54191819D02*
X140414285Y-54239438D01*
X140414285Y-54239438D02*
X140366666Y-54287057D01*
X139604761Y-54668009D02*
X139461904Y-54715628D01*
X139461904Y-54715628D02*
X139414285Y-54763247D01*
X139414285Y-54763247D02*
X139366666Y-54858485D01*
X139366666Y-54858485D02*
X139366666Y-55001342D01*
X139366666Y-55001342D02*
X139414285Y-55096580D01*
X139414285Y-55096580D02*
X139461904Y-55144200D01*
X139461904Y-55144200D02*
X139557142Y-55191819D01*
X139557142Y-55191819D02*
X139938094Y-55191819D01*
X139938094Y-55191819D02*
X139938094Y-54191819D01*
X139938094Y-54191819D02*
X139604761Y-54191819D01*
X139604761Y-54191819D02*
X139509523Y-54239438D01*
X139509523Y-54239438D02*
X139461904Y-54287057D01*
X139461904Y-54287057D02*
X139414285Y-54382295D01*
X139414285Y-54382295D02*
X139414285Y-54477533D01*
X139414285Y-54477533D02*
X139461904Y-54572771D01*
X139461904Y-54572771D02*
X139509523Y-54620390D01*
X139509523Y-54620390D02*
X139604761Y-54668009D01*
X139604761Y-54668009D02*
X139938094Y-54668009D01*
X139033332Y-54191819D02*
X138414285Y-54191819D01*
X138414285Y-54191819D02*
X138747618Y-54572771D01*
X138747618Y-54572771D02*
X138604761Y-54572771D01*
X138604761Y-54572771D02*
X138509523Y-54620390D01*
X138509523Y-54620390D02*
X138461904Y-54668009D01*
X138461904Y-54668009D02*
X138414285Y-54763247D01*
X138414285Y-54763247D02*
X138414285Y-55001342D01*
X138414285Y-55001342D02*
X138461904Y-55096580D01*
X138461904Y-55096580D02*
X138509523Y-55144200D01*
X138509523Y-55144200D02*
X138604761Y-55191819D01*
X138604761Y-55191819D02*
X138890475Y-55191819D01*
X138890475Y-55191819D02*
X138985713Y-55144200D01*
X138985713Y-55144200D02*
X139033332Y-55096580D01*
X164591904Y-73368819D02*
X164591904Y-74178342D01*
X164591904Y-74178342D02*
X164544285Y-74273580D01*
X164544285Y-74273580D02*
X164496666Y-74321200D01*
X164496666Y-74321200D02*
X164401428Y-74368819D01*
X164401428Y-74368819D02*
X164210952Y-74368819D01*
X164210952Y-74368819D02*
X164115714Y-74321200D01*
X164115714Y-74321200D02*
X164068095Y-74273580D01*
X164068095Y-74273580D02*
X164020476Y-74178342D01*
X164020476Y-74178342D02*
X164020476Y-73368819D01*
X163068095Y-73368819D02*
X163544285Y-73368819D01*
X163544285Y-73368819D02*
X163591904Y-73845009D01*
X163591904Y-73845009D02*
X163544285Y-73797390D01*
X163544285Y-73797390D02*
X163449047Y-73749771D01*
X163449047Y-73749771D02*
X163210952Y-73749771D01*
X163210952Y-73749771D02*
X163115714Y-73797390D01*
X163115714Y-73797390D02*
X163068095Y-73845009D01*
X163068095Y-73845009D02*
X163020476Y-73940247D01*
X163020476Y-73940247D02*
X163020476Y-74178342D01*
X163020476Y-74178342D02*
X163068095Y-74273580D01*
X163068095Y-74273580D02*
X163115714Y-74321200D01*
X163115714Y-74321200D02*
X163210952Y-74368819D01*
X163210952Y-74368819D02*
X163449047Y-74368819D01*
X163449047Y-74368819D02*
X163544285Y-74321200D01*
X163544285Y-74321200D02*
X163591904Y-74273580D01*
X108203904Y-93942819D02*
X108203904Y-94752342D01*
X108203904Y-94752342D02*
X108156285Y-94847580D01*
X108156285Y-94847580D02*
X108108666Y-94895200D01*
X108108666Y-94895200D02*
X108013428Y-94942819D01*
X108013428Y-94942819D02*
X107822952Y-94942819D01*
X107822952Y-94942819D02*
X107727714Y-94895200D01*
X107727714Y-94895200D02*
X107680095Y-94847580D01*
X107680095Y-94847580D02*
X107632476Y-94752342D01*
X107632476Y-94752342D02*
X107632476Y-93942819D01*
X106727714Y-93942819D02*
X106918190Y-93942819D01*
X106918190Y-93942819D02*
X107013428Y-93990438D01*
X107013428Y-93990438D02*
X107061047Y-94038057D01*
X107061047Y-94038057D02*
X107156285Y-94180914D01*
X107156285Y-94180914D02*
X107203904Y-94371390D01*
X107203904Y-94371390D02*
X107203904Y-94752342D01*
X107203904Y-94752342D02*
X107156285Y-94847580D01*
X107156285Y-94847580D02*
X107108666Y-94895200D01*
X107108666Y-94895200D02*
X107013428Y-94942819D01*
X107013428Y-94942819D02*
X106822952Y-94942819D01*
X106822952Y-94942819D02*
X106727714Y-94895200D01*
X106727714Y-94895200D02*
X106680095Y-94847580D01*
X106680095Y-94847580D02*
X106632476Y-94752342D01*
X106632476Y-94752342D02*
X106632476Y-94514247D01*
X106632476Y-94514247D02*
X106680095Y-94419009D01*
X106680095Y-94419009D02*
X106727714Y-94371390D01*
X106727714Y-94371390D02*
X106822952Y-94323771D01*
X106822952Y-94323771D02*
X107013428Y-94323771D01*
X107013428Y-94323771D02*
X107108666Y-94371390D01*
X107108666Y-94371390D02*
X107156285Y-94419009D01*
X107156285Y-94419009D02*
X107203904Y-94514247D01*
D12*
X151826000Y-53213000D02*
G75*
G03*
X151826000Y-53213000I-950000J0D01*
G01*
X145476000Y-53467000D02*
G75*
G03*
X145476000Y-53467000I-950000J0D01*
G01*
X138936000Y-45358267D02*
X138936000Y-45065733D01*
X139956000Y-45358267D02*
X139956000Y-45065733D01*
X139700724Y-73420500D02*
X139191276Y-73420500D01*
X139700724Y-72375500D02*
X139191276Y-72375500D01*
X165847500Y-71374724D02*
X165847500Y-70865276D01*
X166892500Y-71374724D02*
X166892500Y-70865276D01*
X161119000Y-79848000D02*
X161119000Y-106688000D01*
X160699000Y-79848000D02*
X161119000Y-79848000D01*
X139199000Y-79848000D02*
X157099000Y-79848000D01*
X135879000Y-86018000D02*
X135879000Y-86718000D01*
X135879000Y-88418000D02*
X135879000Y-89218000D01*
X135879000Y-90918000D02*
X135879000Y-91718000D01*
X135879000Y-93418000D02*
X135879000Y-94218000D01*
X135879000Y-96018000D02*
X135879000Y-96718000D01*
X135879000Y-98418000D02*
X135879000Y-99218000D01*
X135879000Y-100918000D02*
X135879000Y-101718000D01*
X135879000Y-103418000D02*
X135879000Y-103618000D01*
X141499000Y-104388000D02*
X143799000Y-106688000D01*
X139199000Y-104388000D02*
X141499000Y-104388000D01*
X161119000Y-106688000D02*
X160699000Y-106688000D01*
X143799000Y-106688000D02*
X157099000Y-106688000D01*
X166892500Y-66801276D02*
X166892500Y-67310724D01*
X165847500Y-66801276D02*
X165847500Y-67310724D01*
X129183224Y-57926500D02*
X128673776Y-57926500D01*
X129183224Y-56881500D02*
X128673776Y-56881500D01*
X138154000Y-51816000D02*
G75*
G03*
X138154000Y-51816000I-950000J0D01*
G01*
X109728724Y-58434500D02*
X109219276Y-58434500D01*
X109728724Y-57389500D02*
X109219276Y-57389500D01*
X129183224Y-55640500D02*
X128673776Y-55640500D01*
X129183224Y-54595500D02*
X128673776Y-54595500D01*
X137856000Y-54483000D02*
G75*
G03*
X137856000Y-54483000I-950000J0D01*
G01*
X159238000Y-69088000D02*
X159238000Y-71038000D01*
X159238000Y-69088000D02*
X159238000Y-67138000D01*
X164358000Y-69088000D02*
X164358000Y-72538000D01*
X164358000Y-69088000D02*
X164358000Y-67138000D01*
X111945000Y-97351000D02*
X111685000Y-97351000D01*
X106755000Y-97351000D02*
X106755000Y-95676000D01*
X106495000Y-97351000D02*
X106755000Y-97351000D01*
X111945000Y-100076000D02*
X111945000Y-97351000D01*
X111945000Y-100076000D02*
X111945000Y-102801000D01*
X106495000Y-100076000D02*
X106495000Y-97351000D01*
X106495000Y-100076000D02*
X106495000Y-102801000D01*
X111945000Y-102801000D02*
X111685000Y-102801000D01*
X106495000Y-102801000D02*
X106755000Y-102801000D01*
%LPC*%
D13*
X150876000Y-53213000D03*
X167386000Y-81026000D03*
X172466000Y-59690000D03*
D14*
X113995200Y-119380000D03*
X109220000Y-119380000D03*
X154940000Y-116840000D03*
X154940000Y-112064800D03*
D15*
X174752000Y-102322000D03*
X174752000Y-99822000D03*
D16*
X174752000Y-97322000D03*
D17*
X172252000Y-94422000D03*
X172252000Y-105222000D03*
D18*
X118115000Y-76205000D03*
D19*
X120655000Y-76205000D03*
X123195000Y-76205000D03*
X125735000Y-76205000D03*
X128275000Y-76205000D03*
X130815000Y-76205000D03*
X133355000Y-76205000D03*
X135895000Y-76205000D03*
X138435000Y-76205000D03*
X140975000Y-76205000D03*
D20*
X143515000Y-76205000D03*
D19*
X146055000Y-76205000D03*
X148595000Y-76205000D03*
X151135000Y-76205000D03*
X153675000Y-76205000D03*
X156215000Y-76205000D03*
X158755000Y-76205000D03*
X161295000Y-76205000D03*
X163835000Y-76205000D03*
X166375000Y-76205000D03*
X166375000Y-60965000D03*
X163835000Y-60965000D03*
X161295000Y-60965000D03*
X158755000Y-60965000D03*
X156215000Y-60965000D03*
X153675000Y-60965000D03*
X151135000Y-60965000D03*
X148595000Y-60965000D03*
X146055000Y-60965000D03*
X143515000Y-60965000D03*
D20*
X140975000Y-60965000D03*
D19*
X138435000Y-60965000D03*
X135895000Y-60965000D03*
X133355000Y-60965000D03*
X130815000Y-60965000D03*
X128275000Y-60965000D03*
X125735000Y-60965000D03*
X123195000Y-60965000D03*
X120655000Y-60965000D03*
X118115000Y-60965000D03*
D21*
X121920000Y-98044000D03*
D22*
X121920000Y-95504000D03*
X124460000Y-98044000D03*
X124460000Y-95504000D03*
X127000000Y-98044000D03*
D23*
X127000000Y-95504000D03*
D13*
X148754000Y-68834000D03*
X143854000Y-68834000D03*
D21*
X109220000Y-43180000D03*
D22*
X111760000Y-43180000D03*
X114300000Y-43180000D03*
D14*
X163830000Y-116840000D03*
X163830000Y-112064800D03*
D13*
X171958000Y-81026000D03*
D14*
X124460000Y-119380000D03*
X129235200Y-119380000D03*
D21*
X172720000Y-64770000D03*
D23*
X172720000Y-67310000D03*
D22*
X172720000Y-69850000D03*
X172720000Y-72390000D03*
D24*
X143510000Y-86106000D03*
D25*
X143510000Y-87376000D03*
D26*
X143510000Y-88646000D03*
X143510000Y-89916000D03*
X143510000Y-91186000D03*
X143510000Y-92456000D03*
X143510000Y-93726000D03*
X143510000Y-94996000D03*
D14*
X154940000Y-121920000D03*
X154940000Y-126695200D03*
D13*
X163576000Y-81026000D03*
D14*
X163830000Y-121920000D03*
X163830000Y-126695200D03*
X119075200Y-109524800D03*
X119075200Y-114300000D03*
D21*
X114300000Y-51308000D03*
D23*
X114300000Y-53848000D03*
D27*
X159985000Y-45497000D03*
X154985000Y-45497000D03*
D28*
X161360000Y-42747000D03*
D29*
X161210000Y-46547000D03*
X153760000Y-46547000D03*
D28*
X153610000Y-42747000D03*
D23*
X172720000Y-43180000D03*
D22*
X170180000Y-43180000D03*
X167640000Y-43180000D03*
D21*
X109220000Y-48260000D03*
D23*
X111760000Y-48260000D03*
D14*
X119075200Y-124460000D03*
X119075200Y-129235200D03*
D30*
X104129840Y-87978945D03*
X104140000Y-49182985D03*
X172135800Y-49193145D03*
D16*
X104617520Y-76142545D03*
D15*
X104617520Y-73602545D03*
X104617520Y-71062545D03*
X104617520Y-68522545D03*
X104617520Y-65982545D03*
X104617520Y-63442545D03*
X104617520Y-60902545D03*
D13*
X144526000Y-53467000D03*
D31*
X139446000Y-46074500D03*
X139446000Y-44349500D03*
D32*
X140358500Y-72898000D03*
X138533500Y-72898000D03*
D33*
X166370000Y-72032500D03*
X166370000Y-70207500D03*
D34*
X138399000Y-81718000D03*
D18*
X138399000Y-102718000D03*
D35*
X135599000Y-100093000D03*
X135599000Y-97593000D03*
X135599000Y-95093000D03*
X135599000Y-92593000D03*
X135599000Y-90093000D03*
X135599000Y-87593000D03*
X135599000Y-85163000D03*
X135599000Y-83463000D03*
X135599000Y-102593000D03*
D36*
X135599000Y-82163000D03*
X135599000Y-80963000D03*
D37*
X158899000Y-79568000D03*
X137399000Y-79568000D03*
X137399000Y-104668000D03*
X158899000Y-106868000D03*
D38*
X166370000Y-66143500D03*
X166370000Y-67968500D03*
D32*
X129841000Y-57404000D03*
X128016000Y-57404000D03*
D13*
X137204000Y-51816000D03*
D32*
X110386500Y-57912000D03*
X108561500Y-57912000D03*
X129841000Y-55118000D03*
X128016000Y-55118000D03*
D13*
X136906000Y-54483000D03*
D39*
X163703000Y-71563000D03*
X162433000Y-71563000D03*
X161163000Y-71563000D03*
X159893000Y-71563000D03*
X159893000Y-66613000D03*
X161163000Y-66613000D03*
X162433000Y-66613000D03*
X163703000Y-66613000D03*
D40*
X107315000Y-96476000D03*
X108585000Y-96476000D03*
X109855000Y-96476000D03*
X111125000Y-96476000D03*
X111125000Y-103676000D03*
X109855000Y-103676000D03*
X108585000Y-103676000D03*
X107315000Y-103676000D03*
%LPD*%
M02*
