G04 #@! TF.GenerationSoftware,KiCad,Pcbnew,7.0.7*
G04 #@! TF.CreationDate,2023-09-24T19:29:38+02:00*
G04 #@! TF.ProjectId,ardumate,61726475-6d61-4746-952e-6b696361645f,rev?*
G04 #@! TF.SameCoordinates,Original*
G04 #@! TF.FileFunction,Legend,Top*
G04 #@! TF.FilePolarity,Positive*
%FSLAX46Y46*%
G04 Gerber Fmt 4.6, Leading zero omitted, Abs format (unit mm)*
G04 Created by KiCad (PCBNEW 7.0.7) date 2023-09-24 19:29:38*
%MOMM*%
%LPD*%
G01*
G04 APERTURE LIST*
G04 Aperture macros list*
%AMRoundRect*
0 Rectangle with rounded corners*
0 $1 Rounding radius*
0 $2 $3 $4 $5 $6 $7 $8 $9 X,Y pos of 4 corners*
0 Add a 4 corners polygon primitive as box body*
4,1,4,$2,$3,$4,$5,$6,$7,$8,$9,$2,$3,0*
0 Add four circle primitives for the rounded corners*
1,1,$1+$1,$2,$3*
1,1,$1+$1,$4,$5*
1,1,$1+$1,$6,$7*
1,1,$1+$1,$8,$9*
0 Add four rect primitives between the rounded corners*
20,1,$1+$1,$2,$3,$4,$5,0*
20,1,$1+$1,$4,$5,$6,$7,0*
20,1,$1+$1,$6,$7,$8,$9,0*
20,1,$1+$1,$8,$9,$2,$3,0*%
G04 Aperture macros list end*
%ADD10C,0.200000*%
%ADD11C,0.150000*%
%ADD12C,0.100000*%
%ADD13C,0.120000*%
%ADD14C,0.300000*%
%ADD15RoundRect,0.250000X0.412500X0.650000X-0.412500X0.650000X-0.412500X-0.650000X0.412500X-0.650000X0*%
%ADD16RoundRect,0.250000X-0.650000X0.412500X-0.650000X-0.412500X0.650000X-0.412500X0.650000X0.412500X0*%
%ADD17C,1.500000*%
%ADD18RoundRect,0.237500X-0.250000X-0.237500X0.250000X-0.237500X0.250000X0.237500X-0.250000X0.237500X0*%
%ADD19RoundRect,0.087500X0.187500X0.087500X-0.187500X0.087500X-0.187500X-0.087500X0.187500X-0.087500X0*%
%ADD20RoundRect,0.087500X0.087500X0.187500X-0.087500X0.187500X-0.087500X-0.187500X0.087500X-0.187500X0*%
%ADD21C,2.000000*%
%ADD22C,1.524000*%
%ADD23R,1.524000X1.524000*%
%ADD24RoundRect,0.725000X0.975000X-0.725000X0.975000X0.725000X-0.975000X0.725000X-0.975000X-0.725000X0*%
%ADD25RoundRect,0.237500X-0.237500X0.250000X-0.237500X-0.250000X0.237500X-0.250000X0.237500X0.250000X0*%
%ADD26RoundRect,0.237500X0.237500X-0.300000X0.237500X0.300000X-0.237500X0.300000X-0.237500X-0.300000X0*%
%ADD27RoundRect,0.237500X0.287500X0.237500X-0.287500X0.237500X-0.287500X-0.237500X0.287500X-0.237500X0*%
%ADD28RoundRect,0.100000X-0.712500X-0.100000X0.712500X-0.100000X0.712500X0.100000X-0.712500X0.100000X0*%
%ADD29C,1.600000*%
%ADD30O,1.600000X1.600000*%
%ADD31R,1.600000X1.600000*%
%ADD32RoundRect,0.237500X-0.287500X-0.237500X0.287500X-0.237500X0.287500X0.237500X-0.287500X0.237500X0*%
%ADD33C,1.700000*%
%ADD34O,1.700000X1.700000*%
%ADD35R,1.700000X1.700000*%
%ADD36RoundRect,0.237500X-0.300000X-0.237500X0.300000X-0.237500X0.300000X0.237500X-0.300000X0.237500X0*%
%ADD37RoundRect,0.237500X0.250000X0.237500X-0.250000X0.237500X-0.250000X-0.237500X0.250000X-0.237500X0*%
%ADD38R,1.750000X0.450000*%
%ADD39RoundRect,0.237500X0.237500X-0.250000X0.237500X0.250000X-0.237500X0.250000X-0.237500X-0.250000X0*%
%ADD40RoundRect,0.150000X-0.512500X-0.150000X0.512500X-0.150000X0.512500X0.150000X-0.512500X0.150000X0*%
%ADD41RoundRect,0.237500X-0.237500X0.300000X-0.237500X-0.300000X0.237500X-0.300000X0.237500X0.300000X0*%
%ADD42RoundRect,0.250000X0.650000X-0.412500X0.650000X0.412500X-0.650000X0.412500X-0.650000X-0.412500X0*%
%ADD43RoundRect,0.237500X0.300000X0.237500X-0.300000X0.237500X-0.300000X-0.237500X0.300000X-0.237500X0*%
%ADD44R,1.000000X0.750000*%
%ADD45C,1.000000*%
%ADD46R,1.000000X1.000000*%
%ADD47O,1.000000X1.000000*%
%ADD48RoundRect,0.250000X-0.625000X0.375000X-0.625000X-0.375000X0.625000X-0.375000X0.625000X0.375000X0*%
%ADD49R,1.500000X2.000000*%
%ADD50R,3.800000X2.000000*%
%ADD51RoundRect,0.150000X0.512500X0.150000X-0.512500X0.150000X-0.512500X-0.150000X0.512500X-0.150000X0*%
%ADD52O,0.800000X0.800000*%
%ADD53R,0.450000X1.300000*%
%ADD54O,1.150000X1.800000*%
%ADD55O,1.450000X2.000000*%
%ADD56C,3.000000*%
%ADD57C,1.100000*%
G04 APERTURE END LIST*
D10*
X155246101Y-129311980D02*
X155198482Y-129359600D01*
X155198482Y-129359600D02*
X155055625Y-129407219D01*
X155055625Y-129407219D02*
X154960387Y-129407219D01*
X154960387Y-129407219D02*
X154817530Y-129359600D01*
X154817530Y-129359600D02*
X154722292Y-129264361D01*
X154722292Y-129264361D02*
X154674673Y-129169123D01*
X154674673Y-129169123D02*
X154627054Y-128978647D01*
X154627054Y-128978647D02*
X154627054Y-128835790D01*
X154627054Y-128835790D02*
X154674673Y-128645314D01*
X154674673Y-128645314D02*
X154722292Y-128550076D01*
X154722292Y-128550076D02*
X154817530Y-128454838D01*
X154817530Y-128454838D02*
X154960387Y-128407219D01*
X154960387Y-128407219D02*
X155055625Y-128407219D01*
X155055625Y-128407219D02*
X155198482Y-128454838D01*
X155198482Y-128454838D02*
X155246101Y-128502457D01*
X163564673Y-129407219D02*
X163564673Y-128407219D01*
X163564673Y-128407219D02*
X163802768Y-128407219D01*
X163802768Y-128407219D02*
X163945625Y-128454838D01*
X163945625Y-128454838D02*
X164040863Y-128550076D01*
X164040863Y-128550076D02*
X164088482Y-128645314D01*
X164088482Y-128645314D02*
X164136101Y-128835790D01*
X164136101Y-128835790D02*
X164136101Y-128978647D01*
X164136101Y-128978647D02*
X164088482Y-129169123D01*
X164088482Y-129169123D02*
X164040863Y-129264361D01*
X164040863Y-129264361D02*
X163945625Y-129359600D01*
X163945625Y-129359600D02*
X163802768Y-129407219D01*
X163802768Y-129407219D02*
X163564673Y-129407219D01*
X174566054Y-72971600D02*
X174708911Y-73019219D01*
X174708911Y-73019219D02*
X174947006Y-73019219D01*
X174947006Y-73019219D02*
X175042244Y-72971600D01*
X175042244Y-72971600D02*
X175089863Y-72923980D01*
X175089863Y-72923980D02*
X175137482Y-72828742D01*
X175137482Y-72828742D02*
X175137482Y-72733504D01*
X175137482Y-72733504D02*
X175089863Y-72638266D01*
X175089863Y-72638266D02*
X175042244Y-72590647D01*
X175042244Y-72590647D02*
X174947006Y-72543028D01*
X174947006Y-72543028D02*
X174756530Y-72495409D01*
X174756530Y-72495409D02*
X174661292Y-72447790D01*
X174661292Y-72447790D02*
X174613673Y-72400171D01*
X174613673Y-72400171D02*
X174566054Y-72304933D01*
X174566054Y-72304933D02*
X174566054Y-72209695D01*
X174566054Y-72209695D02*
X174613673Y-72114457D01*
X174613673Y-72114457D02*
X174661292Y-72066838D01*
X174661292Y-72066838D02*
X174756530Y-72019219D01*
X174756530Y-72019219D02*
X174994625Y-72019219D01*
X174994625Y-72019219D02*
X175137482Y-72066838D01*
X175566054Y-73019219D02*
X175566054Y-72019219D01*
X175566054Y-72019219D02*
X175804149Y-72019219D01*
X175804149Y-72019219D02*
X175947006Y-72066838D01*
X175947006Y-72066838D02*
X176042244Y-72162076D01*
X176042244Y-72162076D02*
X176089863Y-72257314D01*
X176089863Y-72257314D02*
X176137482Y-72447790D01*
X176137482Y-72447790D02*
X176137482Y-72590647D01*
X176137482Y-72590647D02*
X176089863Y-72781123D01*
X176089863Y-72781123D02*
X176042244Y-72876361D01*
X176042244Y-72876361D02*
X175947006Y-72971600D01*
X175947006Y-72971600D02*
X175804149Y-73019219D01*
X175804149Y-73019219D02*
X175566054Y-73019219D01*
X176518435Y-72733504D02*
X176994625Y-72733504D01*
X176423197Y-73019219D02*
X176756530Y-72019219D01*
X176756530Y-72019219D02*
X177089863Y-73019219D01*
X138355101Y-131312219D02*
X138021768Y-130836028D01*
X137783673Y-131312219D02*
X137783673Y-130312219D01*
X137783673Y-130312219D02*
X138164625Y-130312219D01*
X138164625Y-130312219D02*
X138259863Y-130359838D01*
X138259863Y-130359838D02*
X138307482Y-130407457D01*
X138307482Y-130407457D02*
X138355101Y-130502695D01*
X138355101Y-130502695D02*
X138355101Y-130645552D01*
X138355101Y-130645552D02*
X138307482Y-130740790D01*
X138307482Y-130740790D02*
X138259863Y-130788409D01*
X138259863Y-130788409D02*
X138164625Y-130836028D01*
X138164625Y-130836028D02*
X137783673Y-130836028D01*
X138783673Y-130788409D02*
X139117006Y-130788409D01*
X139259863Y-131312219D02*
X138783673Y-131312219D01*
X138783673Y-131312219D02*
X138783673Y-130312219D01*
X138783673Y-130312219D02*
X139259863Y-130312219D01*
X139640816Y-131264600D02*
X139783673Y-131312219D01*
X139783673Y-131312219D02*
X140021768Y-131312219D01*
X140021768Y-131312219D02*
X140117006Y-131264600D01*
X140117006Y-131264600D02*
X140164625Y-131216980D01*
X140164625Y-131216980D02*
X140212244Y-131121742D01*
X140212244Y-131121742D02*
X140212244Y-131026504D01*
X140212244Y-131026504D02*
X140164625Y-130931266D01*
X140164625Y-130931266D02*
X140117006Y-130883647D01*
X140117006Y-130883647D02*
X140021768Y-130836028D01*
X140021768Y-130836028D02*
X139831292Y-130788409D01*
X139831292Y-130788409D02*
X139736054Y-130740790D01*
X139736054Y-130740790D02*
X139688435Y-130693171D01*
X139688435Y-130693171D02*
X139640816Y-130597933D01*
X139640816Y-130597933D02*
X139640816Y-130502695D01*
X139640816Y-130502695D02*
X139688435Y-130407457D01*
X139688435Y-130407457D02*
X139736054Y-130359838D01*
X139736054Y-130359838D02*
X139831292Y-130312219D01*
X139831292Y-130312219D02*
X140069387Y-130312219D01*
X140069387Y-130312219D02*
X140212244Y-130359838D01*
X140640816Y-130788409D02*
X140974149Y-130788409D01*
X141117006Y-131312219D02*
X140640816Y-131312219D01*
X140640816Y-131312219D02*
X140640816Y-130312219D01*
X140640816Y-130312219D02*
X141117006Y-130312219D01*
X141402721Y-130312219D02*
X141974149Y-130312219D01*
X141688435Y-131312219D02*
X141688435Y-130312219D01*
X108700673Y-45968266D02*
X109462578Y-45968266D01*
X109081625Y-46349219D02*
X109081625Y-45587314D01*
X111462578Y-45968266D02*
X112224483Y-45968266D01*
X174566054Y-70431600D02*
X174708911Y-70479219D01*
X174708911Y-70479219D02*
X174947006Y-70479219D01*
X174947006Y-70479219D02*
X175042244Y-70431600D01*
X175042244Y-70431600D02*
X175089863Y-70383980D01*
X175089863Y-70383980D02*
X175137482Y-70288742D01*
X175137482Y-70288742D02*
X175137482Y-70193504D01*
X175137482Y-70193504D02*
X175089863Y-70098266D01*
X175089863Y-70098266D02*
X175042244Y-70050647D01*
X175042244Y-70050647D02*
X174947006Y-70003028D01*
X174947006Y-70003028D02*
X174756530Y-69955409D01*
X174756530Y-69955409D02*
X174661292Y-69907790D01*
X174661292Y-69907790D02*
X174613673Y-69860171D01*
X174613673Y-69860171D02*
X174566054Y-69764933D01*
X174566054Y-69764933D02*
X174566054Y-69669695D01*
X174566054Y-69669695D02*
X174613673Y-69574457D01*
X174613673Y-69574457D02*
X174661292Y-69526838D01*
X174661292Y-69526838D02*
X174756530Y-69479219D01*
X174756530Y-69479219D02*
X174994625Y-69479219D01*
X174994625Y-69479219D02*
X175137482Y-69526838D01*
X176137482Y-70383980D02*
X176089863Y-70431600D01*
X176089863Y-70431600D02*
X175947006Y-70479219D01*
X175947006Y-70479219D02*
X175851768Y-70479219D01*
X175851768Y-70479219D02*
X175708911Y-70431600D01*
X175708911Y-70431600D02*
X175613673Y-70336361D01*
X175613673Y-70336361D02*
X175566054Y-70241123D01*
X175566054Y-70241123D02*
X175518435Y-70050647D01*
X175518435Y-70050647D02*
X175518435Y-69907790D01*
X175518435Y-69907790D02*
X175566054Y-69717314D01*
X175566054Y-69717314D02*
X175613673Y-69622076D01*
X175613673Y-69622076D02*
X175708911Y-69526838D01*
X175708911Y-69526838D02*
X175851768Y-69479219D01*
X175851768Y-69479219D02*
X175947006Y-69479219D01*
X175947006Y-69479219D02*
X176089863Y-69526838D01*
X176089863Y-69526838D02*
X176137482Y-69574457D01*
X177042244Y-70479219D02*
X176566054Y-70479219D01*
X176566054Y-70479219D02*
X176566054Y-69479219D01*
X175137482Y-66986838D02*
X175042244Y-66939219D01*
X175042244Y-66939219D02*
X174899387Y-66939219D01*
X174899387Y-66939219D02*
X174756530Y-66986838D01*
X174756530Y-66986838D02*
X174661292Y-67082076D01*
X174661292Y-67082076D02*
X174613673Y-67177314D01*
X174613673Y-67177314D02*
X174566054Y-67367790D01*
X174566054Y-67367790D02*
X174566054Y-67510647D01*
X174566054Y-67510647D02*
X174613673Y-67701123D01*
X174613673Y-67701123D02*
X174661292Y-67796361D01*
X174661292Y-67796361D02*
X174756530Y-67891600D01*
X174756530Y-67891600D02*
X174899387Y-67939219D01*
X174899387Y-67939219D02*
X174994625Y-67939219D01*
X174994625Y-67939219D02*
X175137482Y-67891600D01*
X175137482Y-67891600D02*
X175185101Y-67843980D01*
X175185101Y-67843980D02*
X175185101Y-67510647D01*
X175185101Y-67510647D02*
X174994625Y-67510647D01*
X175613673Y-67939219D02*
X175613673Y-66939219D01*
X175613673Y-66939219D02*
X176185101Y-67939219D01*
X176185101Y-67939219D02*
X176185101Y-66939219D01*
X176661292Y-67939219D02*
X176661292Y-66939219D01*
X176661292Y-66939219D02*
X176899387Y-66939219D01*
X176899387Y-66939219D02*
X177042244Y-66986838D01*
X177042244Y-66986838D02*
X177137482Y-67082076D01*
X177137482Y-67082076D02*
X177185101Y-67177314D01*
X177185101Y-67177314D02*
X177232720Y-67367790D01*
X177232720Y-67367790D02*
X177232720Y-67510647D01*
X177232720Y-67510647D02*
X177185101Y-67701123D01*
X177185101Y-67701123D02*
X177137482Y-67796361D01*
X177137482Y-67796361D02*
X177042244Y-67891600D01*
X177042244Y-67891600D02*
X176899387Y-67939219D01*
X176899387Y-67939219D02*
X176661292Y-67939219D01*
X116955673Y-99308219D02*
X116955673Y-98308219D01*
X118003291Y-99212980D02*
X117955672Y-99260600D01*
X117955672Y-99260600D02*
X117812815Y-99308219D01*
X117812815Y-99308219D02*
X117717577Y-99308219D01*
X117717577Y-99308219D02*
X117574720Y-99260600D01*
X117574720Y-99260600D02*
X117479482Y-99165361D01*
X117479482Y-99165361D02*
X117431863Y-99070123D01*
X117431863Y-99070123D02*
X117384244Y-98879647D01*
X117384244Y-98879647D02*
X117384244Y-98736790D01*
X117384244Y-98736790D02*
X117431863Y-98546314D01*
X117431863Y-98546314D02*
X117479482Y-98451076D01*
X117479482Y-98451076D02*
X117574720Y-98355838D01*
X117574720Y-98355838D02*
X117717577Y-98308219D01*
X117717577Y-98308219D02*
X117812815Y-98308219D01*
X117812815Y-98308219D02*
X117955672Y-98355838D01*
X117955672Y-98355838D02*
X118003291Y-98403457D01*
X118384244Y-99260600D02*
X118527101Y-99308219D01*
X118527101Y-99308219D02*
X118765196Y-99308219D01*
X118765196Y-99308219D02*
X118860434Y-99260600D01*
X118860434Y-99260600D02*
X118908053Y-99212980D01*
X118908053Y-99212980D02*
X118955672Y-99117742D01*
X118955672Y-99117742D02*
X118955672Y-99022504D01*
X118955672Y-99022504D02*
X118908053Y-98927266D01*
X118908053Y-98927266D02*
X118860434Y-98879647D01*
X118860434Y-98879647D02*
X118765196Y-98832028D01*
X118765196Y-98832028D02*
X118574720Y-98784409D01*
X118574720Y-98784409D02*
X118479482Y-98736790D01*
X118479482Y-98736790D02*
X118431863Y-98689171D01*
X118431863Y-98689171D02*
X118384244Y-98593933D01*
X118384244Y-98593933D02*
X118384244Y-98498695D01*
X118384244Y-98498695D02*
X118431863Y-98403457D01*
X118431863Y-98403457D02*
X118479482Y-98355838D01*
X118479482Y-98355838D02*
X118574720Y-98308219D01*
X118574720Y-98308219D02*
X118812815Y-98308219D01*
X118812815Y-98308219D02*
X118955672Y-98355838D01*
X119384244Y-99308219D02*
X119384244Y-98308219D01*
X119384244Y-98308219D02*
X119765196Y-98308219D01*
X119765196Y-98308219D02*
X119860434Y-98355838D01*
X119860434Y-98355838D02*
X119908053Y-98403457D01*
X119908053Y-98403457D02*
X119955672Y-98498695D01*
X119955672Y-98498695D02*
X119955672Y-98641552D01*
X119955672Y-98641552D02*
X119908053Y-98736790D01*
X119908053Y-98736790D02*
X119860434Y-98784409D01*
X119860434Y-98784409D02*
X119765196Y-98832028D01*
X119765196Y-98832028D02*
X119384244Y-98832028D01*
X166088816Y-45603219D02*
X166422149Y-46603219D01*
X166422149Y-46603219D02*
X166755482Y-45603219D01*
X167422149Y-46079409D02*
X167565006Y-46127028D01*
X167565006Y-46127028D02*
X167612625Y-46174647D01*
X167612625Y-46174647D02*
X167660244Y-46269885D01*
X167660244Y-46269885D02*
X167660244Y-46412742D01*
X167660244Y-46412742D02*
X167612625Y-46507980D01*
X167612625Y-46507980D02*
X167565006Y-46555600D01*
X167565006Y-46555600D02*
X167469768Y-46603219D01*
X167469768Y-46603219D02*
X167088816Y-46603219D01*
X167088816Y-46603219D02*
X167088816Y-45603219D01*
X167088816Y-45603219D02*
X167422149Y-45603219D01*
X167422149Y-45603219D02*
X167517387Y-45650838D01*
X167517387Y-45650838D02*
X167565006Y-45698457D01*
X167565006Y-45698457D02*
X167612625Y-45793695D01*
X167612625Y-45793695D02*
X167612625Y-45888933D01*
X167612625Y-45888933D02*
X167565006Y-45984171D01*
X167565006Y-45984171D02*
X167517387Y-46031790D01*
X167517387Y-46031790D02*
X167422149Y-46079409D01*
X167422149Y-46079409D02*
X167088816Y-46079409D01*
X168088816Y-45603219D02*
X168088816Y-46412742D01*
X168088816Y-46412742D02*
X168136435Y-46507980D01*
X168136435Y-46507980D02*
X168184054Y-46555600D01*
X168184054Y-46555600D02*
X168279292Y-46603219D01*
X168279292Y-46603219D02*
X168469768Y-46603219D01*
X168469768Y-46603219D02*
X168565006Y-46555600D01*
X168565006Y-46555600D02*
X168612625Y-46507980D01*
X168612625Y-46507980D02*
X168660244Y-46412742D01*
X168660244Y-46412742D02*
X168660244Y-45603219D01*
X169088816Y-46555600D02*
X169231673Y-46603219D01*
X169231673Y-46603219D02*
X169469768Y-46603219D01*
X169469768Y-46603219D02*
X169565006Y-46555600D01*
X169565006Y-46555600D02*
X169612625Y-46507980D01*
X169612625Y-46507980D02*
X169660244Y-46412742D01*
X169660244Y-46412742D02*
X169660244Y-46317504D01*
X169660244Y-46317504D02*
X169612625Y-46222266D01*
X169612625Y-46222266D02*
X169565006Y-46174647D01*
X169565006Y-46174647D02*
X169469768Y-46127028D01*
X169469768Y-46127028D02*
X169279292Y-46079409D01*
X169279292Y-46079409D02*
X169184054Y-46031790D01*
X169184054Y-46031790D02*
X169136435Y-45984171D01*
X169136435Y-45984171D02*
X169088816Y-45888933D01*
X169088816Y-45888933D02*
X169088816Y-45793695D01*
X169088816Y-45793695D02*
X169136435Y-45698457D01*
X169136435Y-45698457D02*
X169184054Y-45650838D01*
X169184054Y-45650838D02*
X169279292Y-45603219D01*
X169279292Y-45603219D02*
X169517387Y-45603219D01*
X169517387Y-45603219D02*
X169660244Y-45650838D01*
X174470816Y-64653219D02*
X174804149Y-65653219D01*
X174804149Y-65653219D02*
X175137482Y-64653219D01*
X176042244Y-65557980D02*
X175994625Y-65605600D01*
X175994625Y-65605600D02*
X175851768Y-65653219D01*
X175851768Y-65653219D02*
X175756530Y-65653219D01*
X175756530Y-65653219D02*
X175613673Y-65605600D01*
X175613673Y-65605600D02*
X175518435Y-65510361D01*
X175518435Y-65510361D02*
X175470816Y-65415123D01*
X175470816Y-65415123D02*
X175423197Y-65224647D01*
X175423197Y-65224647D02*
X175423197Y-65081790D01*
X175423197Y-65081790D02*
X175470816Y-64891314D01*
X175470816Y-64891314D02*
X175518435Y-64796076D01*
X175518435Y-64796076D02*
X175613673Y-64700838D01*
X175613673Y-64700838D02*
X175756530Y-64653219D01*
X175756530Y-64653219D02*
X175851768Y-64653219D01*
X175851768Y-64653219D02*
X175994625Y-64700838D01*
X175994625Y-64700838D02*
X176042244Y-64748457D01*
X177042244Y-65557980D02*
X176994625Y-65605600D01*
X176994625Y-65605600D02*
X176851768Y-65653219D01*
X176851768Y-65653219D02*
X176756530Y-65653219D01*
X176756530Y-65653219D02*
X176613673Y-65605600D01*
X176613673Y-65605600D02*
X176518435Y-65510361D01*
X176518435Y-65510361D02*
X176470816Y-65415123D01*
X176470816Y-65415123D02*
X176423197Y-65224647D01*
X176423197Y-65224647D02*
X176423197Y-65081790D01*
X176423197Y-65081790D02*
X176470816Y-64891314D01*
X176470816Y-64891314D02*
X176518435Y-64796076D01*
X176518435Y-64796076D02*
X176613673Y-64700838D01*
X176613673Y-64700838D02*
X176756530Y-64653219D01*
X176756530Y-64653219D02*
X176851768Y-64653219D01*
X176851768Y-64653219D02*
X176994625Y-64700838D01*
X176994625Y-64700838D02*
X177042244Y-64748457D01*
X168851006Y-99673409D02*
X168993863Y-99721028D01*
X168993863Y-99721028D02*
X169041482Y-99768647D01*
X169041482Y-99768647D02*
X169089101Y-99863885D01*
X169089101Y-99863885D02*
X169089101Y-100006742D01*
X169089101Y-100006742D02*
X169041482Y-100101980D01*
X169041482Y-100101980D02*
X168993863Y-100149600D01*
X168993863Y-100149600D02*
X168898625Y-100197219D01*
X168898625Y-100197219D02*
X168517673Y-100197219D01*
X168517673Y-100197219D02*
X168517673Y-99197219D01*
X168517673Y-99197219D02*
X168851006Y-99197219D01*
X168851006Y-99197219D02*
X168946244Y-99244838D01*
X168946244Y-99244838D02*
X168993863Y-99292457D01*
X168993863Y-99292457D02*
X169041482Y-99387695D01*
X169041482Y-99387695D02*
X169041482Y-99482933D01*
X169041482Y-99482933D02*
X168993863Y-99578171D01*
X168993863Y-99578171D02*
X168946244Y-99625790D01*
X168946244Y-99625790D02*
X168851006Y-99673409D01*
X168851006Y-99673409D02*
X168517673Y-99673409D01*
X169089101Y-97561980D02*
X169041482Y-97609600D01*
X169041482Y-97609600D02*
X168898625Y-97657219D01*
X168898625Y-97657219D02*
X168803387Y-97657219D01*
X168803387Y-97657219D02*
X168660530Y-97609600D01*
X168660530Y-97609600D02*
X168565292Y-97514361D01*
X168565292Y-97514361D02*
X168517673Y-97419123D01*
X168517673Y-97419123D02*
X168470054Y-97228647D01*
X168470054Y-97228647D02*
X168470054Y-97085790D01*
X168470054Y-97085790D02*
X168517673Y-96895314D01*
X168517673Y-96895314D02*
X168565292Y-96800076D01*
X168565292Y-96800076D02*
X168660530Y-96704838D01*
X168660530Y-96704838D02*
X168803387Y-96657219D01*
X168803387Y-96657219D02*
X168898625Y-96657219D01*
X168898625Y-96657219D02*
X169041482Y-96704838D01*
X169041482Y-96704838D02*
X169089101Y-96752457D01*
D11*
X111315523Y-51016819D02*
X110839333Y-51016819D01*
X110839333Y-51016819D02*
X110791714Y-51493009D01*
X110791714Y-51493009D02*
X110839333Y-51445390D01*
X110839333Y-51445390D02*
X110934571Y-51397771D01*
X110934571Y-51397771D02*
X111172666Y-51397771D01*
X111172666Y-51397771D02*
X111267904Y-51445390D01*
X111267904Y-51445390D02*
X111315523Y-51493009D01*
X111315523Y-51493009D02*
X111363142Y-51588247D01*
X111363142Y-51588247D02*
X111363142Y-51826342D01*
X111363142Y-51826342D02*
X111315523Y-51921580D01*
X111315523Y-51921580D02*
X111267904Y-51969200D01*
X111267904Y-51969200D02*
X111172666Y-52016819D01*
X111172666Y-52016819D02*
X110934571Y-52016819D01*
X110934571Y-52016819D02*
X110839333Y-51969200D01*
X110839333Y-51969200D02*
X110791714Y-51921580D01*
X111648857Y-51016819D02*
X111982190Y-52016819D01*
X111982190Y-52016819D02*
X112315523Y-51016819D01*
D10*
X163898006Y-119358409D02*
X164040863Y-119406028D01*
X164040863Y-119406028D02*
X164088482Y-119453647D01*
X164088482Y-119453647D02*
X164136101Y-119548885D01*
X164136101Y-119548885D02*
X164136101Y-119691742D01*
X164136101Y-119691742D02*
X164088482Y-119786980D01*
X164088482Y-119786980D02*
X164040863Y-119834600D01*
X164040863Y-119834600D02*
X163945625Y-119882219D01*
X163945625Y-119882219D02*
X163564673Y-119882219D01*
X163564673Y-119882219D02*
X163564673Y-118882219D01*
X163564673Y-118882219D02*
X163898006Y-118882219D01*
X163898006Y-118882219D02*
X163993244Y-118929838D01*
X163993244Y-118929838D02*
X164040863Y-118977457D01*
X164040863Y-118977457D02*
X164088482Y-119072695D01*
X164088482Y-119072695D02*
X164088482Y-119167933D01*
X164088482Y-119167933D02*
X164040863Y-119263171D01*
X164040863Y-119263171D02*
X163993244Y-119310790D01*
X163993244Y-119310790D02*
X163898006Y-119358409D01*
X163898006Y-119358409D02*
X163564673Y-119358409D01*
X105224006Y-43285409D02*
X105366863Y-43333028D01*
X105366863Y-43333028D02*
X105414482Y-43380647D01*
X105414482Y-43380647D02*
X105462101Y-43475885D01*
X105462101Y-43475885D02*
X105462101Y-43618742D01*
X105462101Y-43618742D02*
X105414482Y-43713980D01*
X105414482Y-43713980D02*
X105366863Y-43761600D01*
X105366863Y-43761600D02*
X105271625Y-43809219D01*
X105271625Y-43809219D02*
X104890673Y-43809219D01*
X104890673Y-43809219D02*
X104890673Y-42809219D01*
X104890673Y-42809219D02*
X105224006Y-42809219D01*
X105224006Y-42809219D02*
X105319244Y-42856838D01*
X105319244Y-42856838D02*
X105366863Y-42904457D01*
X105366863Y-42904457D02*
X105414482Y-42999695D01*
X105414482Y-42999695D02*
X105414482Y-43094933D01*
X105414482Y-43094933D02*
X105366863Y-43190171D01*
X105366863Y-43190171D02*
X105319244Y-43237790D01*
X105319244Y-43237790D02*
X105224006Y-43285409D01*
X105224006Y-43285409D02*
X104890673Y-43285409D01*
X105843054Y-43523504D02*
X106319244Y-43523504D01*
X105747816Y-43809219D02*
X106081149Y-42809219D01*
X106081149Y-42809219D02*
X106414482Y-43809219D01*
X106604959Y-42809219D02*
X107176387Y-42809219D01*
X106890673Y-43809219D02*
X106890673Y-42809219D01*
X171422816Y-45603219D02*
X171756149Y-46603219D01*
X171756149Y-46603219D02*
X172089482Y-45603219D01*
X172756149Y-46079409D02*
X172899006Y-46127028D01*
X172899006Y-46127028D02*
X172946625Y-46174647D01*
X172946625Y-46174647D02*
X172994244Y-46269885D01*
X172994244Y-46269885D02*
X172994244Y-46412742D01*
X172994244Y-46412742D02*
X172946625Y-46507980D01*
X172946625Y-46507980D02*
X172899006Y-46555600D01*
X172899006Y-46555600D02*
X172803768Y-46603219D01*
X172803768Y-46603219D02*
X172422816Y-46603219D01*
X172422816Y-46603219D02*
X172422816Y-45603219D01*
X172422816Y-45603219D02*
X172756149Y-45603219D01*
X172756149Y-45603219D02*
X172851387Y-45650838D01*
X172851387Y-45650838D02*
X172899006Y-45698457D01*
X172899006Y-45698457D02*
X172946625Y-45793695D01*
X172946625Y-45793695D02*
X172946625Y-45888933D01*
X172946625Y-45888933D02*
X172899006Y-45984171D01*
X172899006Y-45984171D02*
X172851387Y-46031790D01*
X172851387Y-46031790D02*
X172756149Y-46079409D01*
X172756149Y-46079409D02*
X172422816Y-46079409D01*
X173375197Y-46317504D02*
X173851387Y-46317504D01*
X173279959Y-46603219D02*
X173613292Y-45603219D01*
X173613292Y-45603219D02*
X173946625Y-46603219D01*
X174137102Y-45603219D02*
X174708530Y-45603219D01*
X174422816Y-46603219D02*
X174422816Y-45603219D01*
X154627054Y-119596504D02*
X155103244Y-119596504D01*
X154531816Y-119882219D02*
X154865149Y-118882219D01*
X154865149Y-118882219D02*
X155198482Y-119882219D01*
X168470054Y-102705504D02*
X168946244Y-102705504D01*
X168374816Y-102991219D02*
X168708149Y-101991219D01*
X168708149Y-101991219D02*
X169041482Y-102991219D01*
D11*
X125849142Y-51921580D02*
X125801523Y-51969200D01*
X125801523Y-51969200D02*
X125658666Y-52016819D01*
X125658666Y-52016819D02*
X125563428Y-52016819D01*
X125563428Y-52016819D02*
X125420571Y-51969200D01*
X125420571Y-51969200D02*
X125325333Y-51873961D01*
X125325333Y-51873961D02*
X125277714Y-51778723D01*
X125277714Y-51778723D02*
X125230095Y-51588247D01*
X125230095Y-51588247D02*
X125230095Y-51445390D01*
X125230095Y-51445390D02*
X125277714Y-51254914D01*
X125277714Y-51254914D02*
X125325333Y-51159676D01*
X125325333Y-51159676D02*
X125420571Y-51064438D01*
X125420571Y-51064438D02*
X125563428Y-51016819D01*
X125563428Y-51016819D02*
X125658666Y-51016819D01*
X125658666Y-51016819D02*
X125801523Y-51064438D01*
X125801523Y-51064438D02*
X125849142Y-51112057D01*
X126801523Y-52016819D02*
X126230095Y-52016819D01*
X126515809Y-52016819D02*
X126515809Y-51016819D01*
X126515809Y-51016819D02*
X126420571Y-51159676D01*
X126420571Y-51159676D02*
X126325333Y-51254914D01*
X126325333Y-51254914D02*
X126230095Y-51302533D01*
X127134857Y-51016819D02*
X127801523Y-51016819D01*
X127801523Y-51016819D02*
X127372952Y-52016819D01*
X116705142Y-48873580D02*
X116657523Y-48921200D01*
X116657523Y-48921200D02*
X116514666Y-48968819D01*
X116514666Y-48968819D02*
X116419428Y-48968819D01*
X116419428Y-48968819D02*
X116276571Y-48921200D01*
X116276571Y-48921200D02*
X116181333Y-48825961D01*
X116181333Y-48825961D02*
X116133714Y-48730723D01*
X116133714Y-48730723D02*
X116086095Y-48540247D01*
X116086095Y-48540247D02*
X116086095Y-48397390D01*
X116086095Y-48397390D02*
X116133714Y-48206914D01*
X116133714Y-48206914D02*
X116181333Y-48111676D01*
X116181333Y-48111676D02*
X116276571Y-48016438D01*
X116276571Y-48016438D02*
X116419428Y-47968819D01*
X116419428Y-47968819D02*
X116514666Y-47968819D01*
X116514666Y-47968819D02*
X116657523Y-48016438D01*
X116657523Y-48016438D02*
X116705142Y-48064057D01*
X117657523Y-48968819D02*
X117086095Y-48968819D01*
X117371809Y-48968819D02*
X117371809Y-47968819D01*
X117371809Y-47968819D02*
X117276571Y-48111676D01*
X117276571Y-48111676D02*
X117181333Y-48206914D01*
X117181333Y-48206914D02*
X117086095Y-48254533D01*
X118514666Y-48302152D02*
X118514666Y-48968819D01*
X118276571Y-47921200D02*
X118038476Y-48635485D01*
X118038476Y-48635485D02*
X118657523Y-48635485D01*
X166147905Y-79832819D02*
X166147905Y-78832819D01*
X166147905Y-78832819D02*
X166528857Y-78832819D01*
X166528857Y-78832819D02*
X166624095Y-78880438D01*
X166624095Y-78880438D02*
X166671714Y-78928057D01*
X166671714Y-78928057D02*
X166719333Y-79023295D01*
X166719333Y-79023295D02*
X166719333Y-79166152D01*
X166719333Y-79166152D02*
X166671714Y-79261390D01*
X166671714Y-79261390D02*
X166624095Y-79309009D01*
X166624095Y-79309009D02*
X166528857Y-79356628D01*
X166528857Y-79356628D02*
X166147905Y-79356628D01*
X167147905Y-79832819D02*
X167147905Y-78832819D01*
X167147905Y-78832819D02*
X167386000Y-78832819D01*
X167386000Y-78832819D02*
X167528857Y-78880438D01*
X167528857Y-78880438D02*
X167624095Y-78975676D01*
X167624095Y-78975676D02*
X167671714Y-79070914D01*
X167671714Y-79070914D02*
X167719333Y-79261390D01*
X167719333Y-79261390D02*
X167719333Y-79404247D01*
X167719333Y-79404247D02*
X167671714Y-79594723D01*
X167671714Y-79594723D02*
X167624095Y-79689961D01*
X167624095Y-79689961D02*
X167528857Y-79785200D01*
X167528857Y-79785200D02*
X167386000Y-79832819D01*
X167386000Y-79832819D02*
X167147905Y-79832819D01*
X168624095Y-78832819D02*
X168147905Y-78832819D01*
X168147905Y-78832819D02*
X168100286Y-79309009D01*
X168100286Y-79309009D02*
X168147905Y-79261390D01*
X168147905Y-79261390D02*
X168243143Y-79213771D01*
X168243143Y-79213771D02*
X168481238Y-79213771D01*
X168481238Y-79213771D02*
X168576476Y-79261390D01*
X168576476Y-79261390D02*
X168624095Y-79309009D01*
X168624095Y-79309009D02*
X168671714Y-79404247D01*
X168671714Y-79404247D02*
X168671714Y-79642342D01*
X168671714Y-79642342D02*
X168624095Y-79737580D01*
X168624095Y-79737580D02*
X168576476Y-79785200D01*
X168576476Y-79785200D02*
X168481238Y-79832819D01*
X168481238Y-79832819D02*
X168243143Y-79832819D01*
X168243143Y-79832819D02*
X168147905Y-79785200D01*
X168147905Y-79785200D02*
X168100286Y-79737580D01*
X171227905Y-58496819D02*
X171227905Y-57496819D01*
X171227905Y-57496819D02*
X171608857Y-57496819D01*
X171608857Y-57496819D02*
X171704095Y-57544438D01*
X171704095Y-57544438D02*
X171751714Y-57592057D01*
X171751714Y-57592057D02*
X171799333Y-57687295D01*
X171799333Y-57687295D02*
X171799333Y-57830152D01*
X171799333Y-57830152D02*
X171751714Y-57925390D01*
X171751714Y-57925390D02*
X171704095Y-57973009D01*
X171704095Y-57973009D02*
X171608857Y-58020628D01*
X171608857Y-58020628D02*
X171227905Y-58020628D01*
X172227905Y-58496819D02*
X172227905Y-57496819D01*
X172227905Y-57496819D02*
X172466000Y-57496819D01*
X172466000Y-57496819D02*
X172608857Y-57544438D01*
X172608857Y-57544438D02*
X172704095Y-57639676D01*
X172704095Y-57639676D02*
X172751714Y-57734914D01*
X172751714Y-57734914D02*
X172799333Y-57925390D01*
X172799333Y-57925390D02*
X172799333Y-58068247D01*
X172799333Y-58068247D02*
X172751714Y-58258723D01*
X172751714Y-58258723D02*
X172704095Y-58353961D01*
X172704095Y-58353961D02*
X172608857Y-58449200D01*
X172608857Y-58449200D02*
X172466000Y-58496819D01*
X172466000Y-58496819D02*
X172227905Y-58496819D01*
X173132667Y-57496819D02*
X173799333Y-57496819D01*
X173799333Y-57496819D02*
X173370762Y-58496819D01*
X160361333Y-103070819D02*
X160028000Y-102594628D01*
X159789905Y-103070819D02*
X159789905Y-102070819D01*
X159789905Y-102070819D02*
X160170857Y-102070819D01*
X160170857Y-102070819D02*
X160266095Y-102118438D01*
X160266095Y-102118438D02*
X160313714Y-102166057D01*
X160313714Y-102166057D02*
X160361333Y-102261295D01*
X160361333Y-102261295D02*
X160361333Y-102404152D01*
X160361333Y-102404152D02*
X160313714Y-102499390D01*
X160313714Y-102499390D02*
X160266095Y-102547009D01*
X160266095Y-102547009D02*
X160170857Y-102594628D01*
X160170857Y-102594628D02*
X159789905Y-102594628D01*
X160742286Y-102166057D02*
X160789905Y-102118438D01*
X160789905Y-102118438D02*
X160885143Y-102070819D01*
X160885143Y-102070819D02*
X161123238Y-102070819D01*
X161123238Y-102070819D02*
X161218476Y-102118438D01*
X161218476Y-102118438D02*
X161266095Y-102166057D01*
X161266095Y-102166057D02*
X161313714Y-102261295D01*
X161313714Y-102261295D02*
X161313714Y-102356533D01*
X161313714Y-102356533D02*
X161266095Y-102499390D01*
X161266095Y-102499390D02*
X160694667Y-103070819D01*
X160694667Y-103070819D02*
X161313714Y-103070819D01*
X162052095Y-89624819D02*
X162052095Y-90434342D01*
X162052095Y-90434342D02*
X162099714Y-90529580D01*
X162099714Y-90529580D02*
X162147333Y-90577200D01*
X162147333Y-90577200D02*
X162242571Y-90624819D01*
X162242571Y-90624819D02*
X162433047Y-90624819D01*
X162433047Y-90624819D02*
X162528285Y-90577200D01*
X162528285Y-90577200D02*
X162575904Y-90529580D01*
X162575904Y-90529580D02*
X162623523Y-90434342D01*
X162623523Y-90434342D02*
X162623523Y-89624819D01*
X163147333Y-90624819D02*
X163337809Y-90624819D01*
X163337809Y-90624819D02*
X163433047Y-90577200D01*
X163433047Y-90577200D02*
X163480666Y-90529580D01*
X163480666Y-90529580D02*
X163575904Y-90386723D01*
X163575904Y-90386723D02*
X163623523Y-90196247D01*
X163623523Y-90196247D02*
X163623523Y-89815295D01*
X163623523Y-89815295D02*
X163575904Y-89720057D01*
X163575904Y-89720057D02*
X163528285Y-89672438D01*
X163528285Y-89672438D02*
X163433047Y-89624819D01*
X163433047Y-89624819D02*
X163242571Y-89624819D01*
X163242571Y-89624819D02*
X163147333Y-89672438D01*
X163147333Y-89672438D02*
X163099714Y-89720057D01*
X163099714Y-89720057D02*
X163052095Y-89815295D01*
X163052095Y-89815295D02*
X163052095Y-90053390D01*
X163052095Y-90053390D02*
X163099714Y-90148628D01*
X163099714Y-90148628D02*
X163147333Y-90196247D01*
X163147333Y-90196247D02*
X163242571Y-90243866D01*
X163242571Y-90243866D02*
X163433047Y-90243866D01*
X163433047Y-90243866D02*
X163528285Y-90196247D01*
X163528285Y-90196247D02*
X163575904Y-90148628D01*
X163575904Y-90148628D02*
X163623523Y-90053390D01*
X110426667Y-121692200D02*
X110569524Y-121739819D01*
X110569524Y-121739819D02*
X110807619Y-121739819D01*
X110807619Y-121739819D02*
X110902857Y-121692200D01*
X110902857Y-121692200D02*
X110950476Y-121644580D01*
X110950476Y-121644580D02*
X110998095Y-121549342D01*
X110998095Y-121549342D02*
X110998095Y-121454104D01*
X110998095Y-121454104D02*
X110950476Y-121358866D01*
X110950476Y-121358866D02*
X110902857Y-121311247D01*
X110902857Y-121311247D02*
X110807619Y-121263628D01*
X110807619Y-121263628D02*
X110617143Y-121216009D01*
X110617143Y-121216009D02*
X110521905Y-121168390D01*
X110521905Y-121168390D02*
X110474286Y-121120771D01*
X110474286Y-121120771D02*
X110426667Y-121025533D01*
X110426667Y-121025533D02*
X110426667Y-120930295D01*
X110426667Y-120930295D02*
X110474286Y-120835057D01*
X110474286Y-120835057D02*
X110521905Y-120787438D01*
X110521905Y-120787438D02*
X110617143Y-120739819D01*
X110617143Y-120739819D02*
X110855238Y-120739819D01*
X110855238Y-120739819D02*
X110998095Y-120787438D01*
X111331429Y-120739819D02*
X111569524Y-121739819D01*
X111569524Y-121739819D02*
X111760000Y-121025533D01*
X111760000Y-121025533D02*
X111950476Y-121739819D01*
X111950476Y-121739819D02*
X112188572Y-120739819D01*
X112998095Y-121073152D02*
X112998095Y-121739819D01*
X112760000Y-120692200D02*
X112521905Y-121406485D01*
X112521905Y-121406485D02*
X113140952Y-121406485D01*
X153606667Y-114961200D02*
X153749524Y-115008819D01*
X153749524Y-115008819D02*
X153987619Y-115008819D01*
X153987619Y-115008819D02*
X154082857Y-114961200D01*
X154082857Y-114961200D02*
X154130476Y-114913580D01*
X154130476Y-114913580D02*
X154178095Y-114818342D01*
X154178095Y-114818342D02*
X154178095Y-114723104D01*
X154178095Y-114723104D02*
X154130476Y-114627866D01*
X154130476Y-114627866D02*
X154082857Y-114580247D01*
X154082857Y-114580247D02*
X153987619Y-114532628D01*
X153987619Y-114532628D02*
X153797143Y-114485009D01*
X153797143Y-114485009D02*
X153701905Y-114437390D01*
X153701905Y-114437390D02*
X153654286Y-114389771D01*
X153654286Y-114389771D02*
X153606667Y-114294533D01*
X153606667Y-114294533D02*
X153606667Y-114199295D01*
X153606667Y-114199295D02*
X153654286Y-114104057D01*
X153654286Y-114104057D02*
X153701905Y-114056438D01*
X153701905Y-114056438D02*
X153797143Y-114008819D01*
X153797143Y-114008819D02*
X154035238Y-114008819D01*
X154035238Y-114008819D02*
X154178095Y-114056438D01*
X154511429Y-114008819D02*
X154749524Y-115008819D01*
X154749524Y-115008819D02*
X154940000Y-114294533D01*
X154940000Y-114294533D02*
X155130476Y-115008819D01*
X155130476Y-115008819D02*
X155368572Y-114008819D01*
X155892381Y-114437390D02*
X155797143Y-114389771D01*
X155797143Y-114389771D02*
X155749524Y-114342152D01*
X155749524Y-114342152D02*
X155701905Y-114246914D01*
X155701905Y-114246914D02*
X155701905Y-114199295D01*
X155701905Y-114199295D02*
X155749524Y-114104057D01*
X155749524Y-114104057D02*
X155797143Y-114056438D01*
X155797143Y-114056438D02*
X155892381Y-114008819D01*
X155892381Y-114008819D02*
X156082857Y-114008819D01*
X156082857Y-114008819D02*
X156178095Y-114056438D01*
X156178095Y-114056438D02*
X156225714Y-114104057D01*
X156225714Y-114104057D02*
X156273333Y-114199295D01*
X156273333Y-114199295D02*
X156273333Y-114246914D01*
X156273333Y-114246914D02*
X156225714Y-114342152D01*
X156225714Y-114342152D02*
X156178095Y-114389771D01*
X156178095Y-114389771D02*
X156082857Y-114437390D01*
X156082857Y-114437390D02*
X155892381Y-114437390D01*
X155892381Y-114437390D02*
X155797143Y-114485009D01*
X155797143Y-114485009D02*
X155749524Y-114532628D01*
X155749524Y-114532628D02*
X155701905Y-114627866D01*
X155701905Y-114627866D02*
X155701905Y-114818342D01*
X155701905Y-114818342D02*
X155749524Y-114913580D01*
X155749524Y-114913580D02*
X155797143Y-114961200D01*
X155797143Y-114961200D02*
X155892381Y-115008819D01*
X155892381Y-115008819D02*
X156082857Y-115008819D01*
X156082857Y-115008819D02*
X156178095Y-114961200D01*
X156178095Y-114961200D02*
X156225714Y-114913580D01*
X156225714Y-114913580D02*
X156273333Y-114818342D01*
X156273333Y-114818342D02*
X156273333Y-114627866D01*
X156273333Y-114627866D02*
X156225714Y-114532628D01*
X156225714Y-114532628D02*
X156178095Y-114485009D01*
X156178095Y-114485009D02*
X156082857Y-114437390D01*
X154519333Y-55223580D02*
X154471714Y-55271200D01*
X154471714Y-55271200D02*
X154328857Y-55318819D01*
X154328857Y-55318819D02*
X154233619Y-55318819D01*
X154233619Y-55318819D02*
X154090762Y-55271200D01*
X154090762Y-55271200D02*
X153995524Y-55175961D01*
X153995524Y-55175961D02*
X153947905Y-55080723D01*
X153947905Y-55080723D02*
X153900286Y-54890247D01*
X153900286Y-54890247D02*
X153900286Y-54747390D01*
X153900286Y-54747390D02*
X153947905Y-54556914D01*
X153947905Y-54556914D02*
X153995524Y-54461676D01*
X153995524Y-54461676D02*
X154090762Y-54366438D01*
X154090762Y-54366438D02*
X154233619Y-54318819D01*
X154233619Y-54318819D02*
X154328857Y-54318819D01*
X154328857Y-54318819D02*
X154471714Y-54366438D01*
X154471714Y-54366438D02*
X154519333Y-54414057D01*
X155376476Y-54652152D02*
X155376476Y-55318819D01*
X155138381Y-54271200D02*
X154900286Y-54985485D01*
X154900286Y-54985485D02*
X155519333Y-54985485D01*
X127119142Y-90624819D02*
X126785809Y-90148628D01*
X126547714Y-90624819D02*
X126547714Y-89624819D01*
X126547714Y-89624819D02*
X126928666Y-89624819D01*
X126928666Y-89624819D02*
X127023904Y-89672438D01*
X127023904Y-89672438D02*
X127071523Y-89720057D01*
X127071523Y-89720057D02*
X127119142Y-89815295D01*
X127119142Y-89815295D02*
X127119142Y-89958152D01*
X127119142Y-89958152D02*
X127071523Y-90053390D01*
X127071523Y-90053390D02*
X127023904Y-90101009D01*
X127023904Y-90101009D02*
X126928666Y-90148628D01*
X126928666Y-90148628D02*
X126547714Y-90148628D01*
X128071523Y-90624819D02*
X127500095Y-90624819D01*
X127785809Y-90624819D02*
X127785809Y-89624819D01*
X127785809Y-89624819D02*
X127690571Y-89767676D01*
X127690571Y-89767676D02*
X127595333Y-89862914D01*
X127595333Y-89862914D02*
X127500095Y-89910533D01*
X128404857Y-89624819D02*
X129023904Y-89624819D01*
X129023904Y-89624819D02*
X128690571Y-90005771D01*
X128690571Y-90005771D02*
X128833428Y-90005771D01*
X128833428Y-90005771D02*
X128928666Y-90053390D01*
X128928666Y-90053390D02*
X128976285Y-90101009D01*
X128976285Y-90101009D02*
X129023904Y-90196247D01*
X129023904Y-90196247D02*
X129023904Y-90434342D01*
X129023904Y-90434342D02*
X128976285Y-90529580D01*
X128976285Y-90529580D02*
X128928666Y-90577200D01*
X128928666Y-90577200D02*
X128833428Y-90624819D01*
X128833428Y-90624819D02*
X128547714Y-90624819D01*
X128547714Y-90624819D02*
X128452476Y-90577200D01*
X128452476Y-90577200D02*
X128404857Y-90529580D01*
X151781048Y-85544819D02*
X151781048Y-84544819D01*
X152257238Y-85544819D02*
X152257238Y-84544819D01*
X152257238Y-84544819D02*
X152828666Y-85544819D01*
X152828666Y-85544819D02*
X152828666Y-84544819D01*
X153162000Y-84544819D02*
X153733428Y-84544819D01*
X153447714Y-85544819D02*
X153447714Y-84544819D01*
X154019143Y-84640057D02*
X154066762Y-84592438D01*
X154066762Y-84592438D02*
X154162000Y-84544819D01*
X154162000Y-84544819D02*
X154400095Y-84544819D01*
X154400095Y-84544819D02*
X154495333Y-84592438D01*
X154495333Y-84592438D02*
X154542952Y-84640057D01*
X154542952Y-84640057D02*
X154590571Y-84735295D01*
X154590571Y-84735295D02*
X154590571Y-84830533D01*
X154590571Y-84830533D02*
X154542952Y-84973390D01*
X154542952Y-84973390D02*
X153971524Y-85544819D01*
X153971524Y-85544819D02*
X154590571Y-85544819D01*
X170983009Y-101536285D02*
X170983009Y-101202952D01*
X171506819Y-101060095D02*
X171506819Y-101536285D01*
X171506819Y-101536285D02*
X170506819Y-101536285D01*
X170506819Y-101536285D02*
X170506819Y-101060095D01*
X171506819Y-100631523D02*
X170506819Y-100631523D01*
X170506819Y-100631523D02*
X171506819Y-100060095D01*
X171506819Y-100060095D02*
X170506819Y-100060095D01*
X171411580Y-99012476D02*
X171459200Y-99060095D01*
X171459200Y-99060095D02*
X171506819Y-99202952D01*
X171506819Y-99202952D02*
X171506819Y-99298190D01*
X171506819Y-99298190D02*
X171459200Y-99441047D01*
X171459200Y-99441047D02*
X171363961Y-99536285D01*
X171363961Y-99536285D02*
X171268723Y-99583904D01*
X171268723Y-99583904D02*
X171078247Y-99631523D01*
X171078247Y-99631523D02*
X170935390Y-99631523D01*
X170935390Y-99631523D02*
X170744914Y-99583904D01*
X170744914Y-99583904D02*
X170649676Y-99536285D01*
X170649676Y-99536285D02*
X170554438Y-99441047D01*
X170554438Y-99441047D02*
X170506819Y-99298190D01*
X170506819Y-99298190D02*
X170506819Y-99202952D01*
X170506819Y-99202952D02*
X170554438Y-99060095D01*
X170554438Y-99060095D02*
X170602057Y-99012476D01*
X171506819Y-98060095D02*
X171506819Y-98631523D01*
X171506819Y-98345809D02*
X170506819Y-98345809D01*
X170506819Y-98345809D02*
X170649676Y-98441047D01*
X170649676Y-98441047D02*
X170744914Y-98536285D01*
X170744914Y-98536285D02*
X170792533Y-98631523D01*
X166711333Y-96974819D02*
X166378000Y-96498628D01*
X166139905Y-96974819D02*
X166139905Y-95974819D01*
X166139905Y-95974819D02*
X166520857Y-95974819D01*
X166520857Y-95974819D02*
X166616095Y-96022438D01*
X166616095Y-96022438D02*
X166663714Y-96070057D01*
X166663714Y-96070057D02*
X166711333Y-96165295D01*
X166711333Y-96165295D02*
X166711333Y-96308152D01*
X166711333Y-96308152D02*
X166663714Y-96403390D01*
X166663714Y-96403390D02*
X166616095Y-96451009D01*
X166616095Y-96451009D02*
X166520857Y-96498628D01*
X166520857Y-96498628D02*
X166139905Y-96498628D01*
X167616095Y-95974819D02*
X167139905Y-95974819D01*
X167139905Y-95974819D02*
X167092286Y-96451009D01*
X167092286Y-96451009D02*
X167139905Y-96403390D01*
X167139905Y-96403390D02*
X167235143Y-96355771D01*
X167235143Y-96355771D02*
X167473238Y-96355771D01*
X167473238Y-96355771D02*
X167568476Y-96403390D01*
X167568476Y-96403390D02*
X167616095Y-96451009D01*
X167616095Y-96451009D02*
X167663714Y-96546247D01*
X167663714Y-96546247D02*
X167663714Y-96784342D01*
X167663714Y-96784342D02*
X167616095Y-96879580D01*
X167616095Y-96879580D02*
X167568476Y-96927200D01*
X167568476Y-96927200D02*
X167473238Y-96974819D01*
X167473238Y-96974819D02*
X167235143Y-96974819D01*
X167235143Y-96974819D02*
X167139905Y-96927200D01*
X167139905Y-96927200D02*
X167092286Y-96879580D01*
X140041333Y-57763580D02*
X139993714Y-57811200D01*
X139993714Y-57811200D02*
X139850857Y-57858819D01*
X139850857Y-57858819D02*
X139755619Y-57858819D01*
X139755619Y-57858819D02*
X139612762Y-57811200D01*
X139612762Y-57811200D02*
X139517524Y-57715961D01*
X139517524Y-57715961D02*
X139469905Y-57620723D01*
X139469905Y-57620723D02*
X139422286Y-57430247D01*
X139422286Y-57430247D02*
X139422286Y-57287390D01*
X139422286Y-57287390D02*
X139469905Y-57096914D01*
X139469905Y-57096914D02*
X139517524Y-57001676D01*
X139517524Y-57001676D02*
X139612762Y-56906438D01*
X139612762Y-56906438D02*
X139755619Y-56858819D01*
X139755619Y-56858819D02*
X139850857Y-56858819D01*
X139850857Y-56858819D02*
X139993714Y-56906438D01*
X139993714Y-56906438D02*
X140041333Y-56954057D01*
X140993714Y-57858819D02*
X140422286Y-57858819D01*
X140708000Y-57858819D02*
X140708000Y-56858819D01*
X140708000Y-56858819D02*
X140612762Y-57001676D01*
X140612762Y-57001676D02*
X140517524Y-57096914D01*
X140517524Y-57096914D02*
X140422286Y-57144533D01*
X142771905Y-112214819D02*
X142771905Y-111214819D01*
X142771905Y-111214819D02*
X143010000Y-111214819D01*
X143010000Y-111214819D02*
X143152857Y-111262438D01*
X143152857Y-111262438D02*
X143248095Y-111357676D01*
X143248095Y-111357676D02*
X143295714Y-111452914D01*
X143295714Y-111452914D02*
X143343333Y-111643390D01*
X143343333Y-111643390D02*
X143343333Y-111786247D01*
X143343333Y-111786247D02*
X143295714Y-111976723D01*
X143295714Y-111976723D02*
X143248095Y-112071961D01*
X143248095Y-112071961D02*
X143152857Y-112167200D01*
X143152857Y-112167200D02*
X143010000Y-112214819D01*
X143010000Y-112214819D02*
X142771905Y-112214819D01*
X144200476Y-111548152D02*
X144200476Y-112214819D01*
X143962381Y-111167200D02*
X143724286Y-111881485D01*
X143724286Y-111881485D02*
X144343333Y-111881485D01*
X147320095Y-97752819D02*
X147320095Y-98562342D01*
X147320095Y-98562342D02*
X147367714Y-98657580D01*
X147367714Y-98657580D02*
X147415333Y-98705200D01*
X147415333Y-98705200D02*
X147510571Y-98752819D01*
X147510571Y-98752819D02*
X147701047Y-98752819D01*
X147701047Y-98752819D02*
X147796285Y-98705200D01*
X147796285Y-98705200D02*
X147843904Y-98657580D01*
X147843904Y-98657580D02*
X147891523Y-98562342D01*
X147891523Y-98562342D02*
X147891523Y-97752819D01*
X148796285Y-98086152D02*
X148796285Y-98752819D01*
X148558190Y-97705200D02*
X148320095Y-98419485D01*
X148320095Y-98419485D02*
X148939142Y-98419485D01*
X114681095Y-75654819D02*
X114681095Y-76464342D01*
X114681095Y-76464342D02*
X114728714Y-76559580D01*
X114728714Y-76559580D02*
X114776333Y-76607200D01*
X114776333Y-76607200D02*
X114871571Y-76654819D01*
X114871571Y-76654819D02*
X115062047Y-76654819D01*
X115062047Y-76654819D02*
X115157285Y-76607200D01*
X115157285Y-76607200D02*
X115204904Y-76559580D01*
X115204904Y-76559580D02*
X115252523Y-76464342D01*
X115252523Y-76464342D02*
X115252523Y-75654819D01*
X116252523Y-76654819D02*
X115681095Y-76654819D01*
X115966809Y-76654819D02*
X115966809Y-75654819D01*
X115966809Y-75654819D02*
X115871571Y-75797676D01*
X115871571Y-75797676D02*
X115776333Y-75892914D01*
X115776333Y-75892914D02*
X115681095Y-75940533D01*
X131341905Y-44396819D02*
X131341905Y-43396819D01*
X131341905Y-43396819D02*
X131580000Y-43396819D01*
X131580000Y-43396819D02*
X131722857Y-43444438D01*
X131722857Y-43444438D02*
X131818095Y-43539676D01*
X131818095Y-43539676D02*
X131865714Y-43634914D01*
X131865714Y-43634914D02*
X131913333Y-43825390D01*
X131913333Y-43825390D02*
X131913333Y-43968247D01*
X131913333Y-43968247D02*
X131865714Y-44158723D01*
X131865714Y-44158723D02*
X131818095Y-44253961D01*
X131818095Y-44253961D02*
X131722857Y-44349200D01*
X131722857Y-44349200D02*
X131580000Y-44396819D01*
X131580000Y-44396819D02*
X131341905Y-44396819D01*
X132246667Y-43396819D02*
X132865714Y-43396819D01*
X132865714Y-43396819D02*
X132532381Y-43777771D01*
X132532381Y-43777771D02*
X132675238Y-43777771D01*
X132675238Y-43777771D02*
X132770476Y-43825390D01*
X132770476Y-43825390D02*
X132818095Y-43873009D01*
X132818095Y-43873009D02*
X132865714Y-43968247D01*
X132865714Y-43968247D02*
X132865714Y-44206342D01*
X132865714Y-44206342D02*
X132818095Y-44301580D01*
X132818095Y-44301580D02*
X132770476Y-44349200D01*
X132770476Y-44349200D02*
X132675238Y-44396819D01*
X132675238Y-44396819D02*
X132389524Y-44396819D01*
X132389524Y-44396819D02*
X132294286Y-44349200D01*
X132294286Y-44349200D02*
X132246667Y-44301580D01*
X137660142Y-95482580D02*
X137612523Y-95530200D01*
X137612523Y-95530200D02*
X137469666Y-95577819D01*
X137469666Y-95577819D02*
X137374428Y-95577819D01*
X137374428Y-95577819D02*
X137231571Y-95530200D01*
X137231571Y-95530200D02*
X137136333Y-95434961D01*
X137136333Y-95434961D02*
X137088714Y-95339723D01*
X137088714Y-95339723D02*
X137041095Y-95149247D01*
X137041095Y-95149247D02*
X137041095Y-95006390D01*
X137041095Y-95006390D02*
X137088714Y-94815914D01*
X137088714Y-94815914D02*
X137136333Y-94720676D01*
X137136333Y-94720676D02*
X137231571Y-94625438D01*
X137231571Y-94625438D02*
X137374428Y-94577819D01*
X137374428Y-94577819D02*
X137469666Y-94577819D01*
X137469666Y-94577819D02*
X137612523Y-94625438D01*
X137612523Y-94625438D02*
X137660142Y-94673057D01*
X138612523Y-95577819D02*
X138041095Y-95577819D01*
X138326809Y-95577819D02*
X138326809Y-94577819D01*
X138326809Y-94577819D02*
X138231571Y-94720676D01*
X138231571Y-94720676D02*
X138136333Y-94815914D01*
X138136333Y-94815914D02*
X138041095Y-94863533D01*
X138945857Y-94577819D02*
X139564904Y-94577819D01*
X139564904Y-94577819D02*
X139231571Y-94958771D01*
X139231571Y-94958771D02*
X139374428Y-94958771D01*
X139374428Y-94958771D02*
X139469666Y-95006390D01*
X139469666Y-95006390D02*
X139517285Y-95054009D01*
X139517285Y-95054009D02*
X139564904Y-95149247D01*
X139564904Y-95149247D02*
X139564904Y-95387342D01*
X139564904Y-95387342D02*
X139517285Y-95482580D01*
X139517285Y-95482580D02*
X139469666Y-95530200D01*
X139469666Y-95530200D02*
X139374428Y-95577819D01*
X139374428Y-95577819D02*
X139088714Y-95577819D01*
X139088714Y-95577819D02*
X138993476Y-95530200D01*
X138993476Y-95530200D02*
X138945857Y-95482580D01*
X133215142Y-112214819D02*
X132881809Y-111738628D01*
X132643714Y-112214819D02*
X132643714Y-111214819D01*
X132643714Y-111214819D02*
X133024666Y-111214819D01*
X133024666Y-111214819D02*
X133119904Y-111262438D01*
X133119904Y-111262438D02*
X133167523Y-111310057D01*
X133167523Y-111310057D02*
X133215142Y-111405295D01*
X133215142Y-111405295D02*
X133215142Y-111548152D01*
X133215142Y-111548152D02*
X133167523Y-111643390D01*
X133167523Y-111643390D02*
X133119904Y-111691009D01*
X133119904Y-111691009D02*
X133024666Y-111738628D01*
X133024666Y-111738628D02*
X132643714Y-111738628D01*
X133596095Y-111310057D02*
X133643714Y-111262438D01*
X133643714Y-111262438D02*
X133738952Y-111214819D01*
X133738952Y-111214819D02*
X133977047Y-111214819D01*
X133977047Y-111214819D02*
X134072285Y-111262438D01*
X134072285Y-111262438D02*
X134119904Y-111310057D01*
X134119904Y-111310057D02*
X134167523Y-111405295D01*
X134167523Y-111405295D02*
X134167523Y-111500533D01*
X134167523Y-111500533D02*
X134119904Y-111643390D01*
X134119904Y-111643390D02*
X133548476Y-112214819D01*
X133548476Y-112214819D02*
X134167523Y-112214819D01*
X134548476Y-111310057D02*
X134596095Y-111262438D01*
X134596095Y-111262438D02*
X134691333Y-111214819D01*
X134691333Y-111214819D02*
X134929428Y-111214819D01*
X134929428Y-111214819D02*
X135024666Y-111262438D01*
X135024666Y-111262438D02*
X135072285Y-111310057D01*
X135072285Y-111310057D02*
X135119904Y-111405295D01*
X135119904Y-111405295D02*
X135119904Y-111500533D01*
X135119904Y-111500533D02*
X135072285Y-111643390D01*
X135072285Y-111643390D02*
X134500857Y-112214819D01*
X134500857Y-112214819D02*
X135119904Y-112214819D01*
X142494095Y-45174819D02*
X142494095Y-45984342D01*
X142494095Y-45984342D02*
X142541714Y-46079580D01*
X142541714Y-46079580D02*
X142589333Y-46127200D01*
X142589333Y-46127200D02*
X142684571Y-46174819D01*
X142684571Y-46174819D02*
X142875047Y-46174819D01*
X142875047Y-46174819D02*
X142970285Y-46127200D01*
X142970285Y-46127200D02*
X143017904Y-46079580D01*
X143017904Y-46079580D02*
X143065523Y-45984342D01*
X143065523Y-45984342D02*
X143065523Y-45174819D01*
X143494095Y-45270057D02*
X143541714Y-45222438D01*
X143541714Y-45222438D02*
X143636952Y-45174819D01*
X143636952Y-45174819D02*
X143875047Y-45174819D01*
X143875047Y-45174819D02*
X143970285Y-45222438D01*
X143970285Y-45222438D02*
X144017904Y-45270057D01*
X144017904Y-45270057D02*
X144065523Y-45365295D01*
X144065523Y-45365295D02*
X144065523Y-45460533D01*
X144065523Y-45460533D02*
X144017904Y-45603390D01*
X144017904Y-45603390D02*
X143446476Y-46174819D01*
X143446476Y-46174819D02*
X144065523Y-46174819D01*
X166711333Y-106372819D02*
X166378000Y-105896628D01*
X166139905Y-106372819D02*
X166139905Y-105372819D01*
X166139905Y-105372819D02*
X166520857Y-105372819D01*
X166520857Y-105372819D02*
X166616095Y-105420438D01*
X166616095Y-105420438D02*
X166663714Y-105468057D01*
X166663714Y-105468057D02*
X166711333Y-105563295D01*
X166711333Y-105563295D02*
X166711333Y-105706152D01*
X166711333Y-105706152D02*
X166663714Y-105801390D01*
X166663714Y-105801390D02*
X166616095Y-105849009D01*
X166616095Y-105849009D02*
X166520857Y-105896628D01*
X166520857Y-105896628D02*
X166139905Y-105896628D01*
X167568476Y-105706152D02*
X167568476Y-106372819D01*
X167330381Y-105325200D02*
X167092286Y-106039485D01*
X167092286Y-106039485D02*
X167711333Y-106039485D01*
X119888095Y-43777819D02*
X119888095Y-44587342D01*
X119888095Y-44587342D02*
X119935714Y-44682580D01*
X119935714Y-44682580D02*
X119983333Y-44730200D01*
X119983333Y-44730200D02*
X120078571Y-44777819D01*
X120078571Y-44777819D02*
X120269047Y-44777819D01*
X120269047Y-44777819D02*
X120364285Y-44730200D01*
X120364285Y-44730200D02*
X120411904Y-44682580D01*
X120411904Y-44682580D02*
X120459523Y-44587342D01*
X120459523Y-44587342D02*
X120459523Y-43777819D01*
X121078571Y-44206390D02*
X120983333Y-44158771D01*
X120983333Y-44158771D02*
X120935714Y-44111152D01*
X120935714Y-44111152D02*
X120888095Y-44015914D01*
X120888095Y-44015914D02*
X120888095Y-43968295D01*
X120888095Y-43968295D02*
X120935714Y-43873057D01*
X120935714Y-43873057D02*
X120983333Y-43825438D01*
X120983333Y-43825438D02*
X121078571Y-43777819D01*
X121078571Y-43777819D02*
X121269047Y-43777819D01*
X121269047Y-43777819D02*
X121364285Y-43825438D01*
X121364285Y-43825438D02*
X121411904Y-43873057D01*
X121411904Y-43873057D02*
X121459523Y-43968295D01*
X121459523Y-43968295D02*
X121459523Y-44015914D01*
X121459523Y-44015914D02*
X121411904Y-44111152D01*
X121411904Y-44111152D02*
X121364285Y-44158771D01*
X121364285Y-44158771D02*
X121269047Y-44206390D01*
X121269047Y-44206390D02*
X121078571Y-44206390D01*
X121078571Y-44206390D02*
X120983333Y-44254009D01*
X120983333Y-44254009D02*
X120935714Y-44301628D01*
X120935714Y-44301628D02*
X120888095Y-44396866D01*
X120888095Y-44396866D02*
X120888095Y-44587342D01*
X120888095Y-44587342D02*
X120935714Y-44682580D01*
X120935714Y-44682580D02*
X120983333Y-44730200D01*
X120983333Y-44730200D02*
X121078571Y-44777819D01*
X121078571Y-44777819D02*
X121269047Y-44777819D01*
X121269047Y-44777819D02*
X121364285Y-44730200D01*
X121364285Y-44730200D02*
X121411904Y-44682580D01*
X121411904Y-44682580D02*
X121459523Y-44587342D01*
X121459523Y-44587342D02*
X121459523Y-44396866D01*
X121459523Y-44396866D02*
X121411904Y-44301628D01*
X121411904Y-44301628D02*
X121364285Y-44254009D01*
X121364285Y-44254009D02*
X121269047Y-44206390D01*
X145827809Y-68812628D02*
X145827809Y-69288819D01*
X145494476Y-68288819D02*
X145827809Y-68812628D01*
X145827809Y-68812628D02*
X146161142Y-68288819D01*
X146446857Y-68384057D02*
X146494476Y-68336438D01*
X146494476Y-68336438D02*
X146589714Y-68288819D01*
X146589714Y-68288819D02*
X146827809Y-68288819D01*
X146827809Y-68288819D02*
X146923047Y-68336438D01*
X146923047Y-68336438D02*
X146970666Y-68384057D01*
X146970666Y-68384057D02*
X147018285Y-68479295D01*
X147018285Y-68479295D02*
X147018285Y-68574533D01*
X147018285Y-68574533D02*
X146970666Y-68717390D01*
X146970666Y-68717390D02*
X146399238Y-69288819D01*
X146399238Y-69288819D02*
X147018285Y-69288819D01*
X131929333Y-55352819D02*
X131929333Y-54352819D01*
X131929333Y-54352819D02*
X132310285Y-54352819D01*
X132310285Y-54352819D02*
X132405523Y-54400438D01*
X132405523Y-54400438D02*
X132453142Y-54448057D01*
X132453142Y-54448057D02*
X132500761Y-54543295D01*
X132500761Y-54543295D02*
X132500761Y-54686152D01*
X132500761Y-54686152D02*
X132453142Y-54781390D01*
X132453142Y-54781390D02*
X132405523Y-54829009D01*
X132405523Y-54829009D02*
X132310285Y-54876628D01*
X132310285Y-54876628D02*
X131929333Y-54876628D01*
X132881714Y-55067104D02*
X133357904Y-55067104D01*
X132786476Y-55352819D02*
X133119809Y-54352819D01*
X133119809Y-54352819D02*
X133453142Y-55352819D01*
X133691238Y-54352819D02*
X134357904Y-54352819D01*
X134357904Y-54352819D02*
X133929333Y-55352819D01*
X139025333Y-80369580D02*
X138977714Y-80417200D01*
X138977714Y-80417200D02*
X138834857Y-80464819D01*
X138834857Y-80464819D02*
X138739619Y-80464819D01*
X138739619Y-80464819D02*
X138596762Y-80417200D01*
X138596762Y-80417200D02*
X138501524Y-80321961D01*
X138501524Y-80321961D02*
X138453905Y-80226723D01*
X138453905Y-80226723D02*
X138406286Y-80036247D01*
X138406286Y-80036247D02*
X138406286Y-79893390D01*
X138406286Y-79893390D02*
X138453905Y-79702914D01*
X138453905Y-79702914D02*
X138501524Y-79607676D01*
X138501524Y-79607676D02*
X138596762Y-79512438D01*
X138596762Y-79512438D02*
X138739619Y-79464819D01*
X138739619Y-79464819D02*
X138834857Y-79464819D01*
X138834857Y-79464819D02*
X138977714Y-79512438D01*
X138977714Y-79512438D02*
X139025333Y-79560057D01*
X139406286Y-79560057D02*
X139453905Y-79512438D01*
X139453905Y-79512438D02*
X139549143Y-79464819D01*
X139549143Y-79464819D02*
X139787238Y-79464819D01*
X139787238Y-79464819D02*
X139882476Y-79512438D01*
X139882476Y-79512438D02*
X139930095Y-79560057D01*
X139930095Y-79560057D02*
X139977714Y-79655295D01*
X139977714Y-79655295D02*
X139977714Y-79750533D01*
X139977714Y-79750533D02*
X139930095Y-79893390D01*
X139930095Y-79893390D02*
X139358667Y-80464819D01*
X139358667Y-80464819D02*
X139977714Y-80464819D01*
X168521142Y-87735580D02*
X168473523Y-87783200D01*
X168473523Y-87783200D02*
X168330666Y-87830819D01*
X168330666Y-87830819D02*
X168235428Y-87830819D01*
X168235428Y-87830819D02*
X168092571Y-87783200D01*
X168092571Y-87783200D02*
X167997333Y-87687961D01*
X167997333Y-87687961D02*
X167949714Y-87592723D01*
X167949714Y-87592723D02*
X167902095Y-87402247D01*
X167902095Y-87402247D02*
X167902095Y-87259390D01*
X167902095Y-87259390D02*
X167949714Y-87068914D01*
X167949714Y-87068914D02*
X167997333Y-86973676D01*
X167997333Y-86973676D02*
X168092571Y-86878438D01*
X168092571Y-86878438D02*
X168235428Y-86830819D01*
X168235428Y-86830819D02*
X168330666Y-86830819D01*
X168330666Y-86830819D02*
X168473523Y-86878438D01*
X168473523Y-86878438D02*
X168521142Y-86926057D01*
X168902095Y-86926057D02*
X168949714Y-86878438D01*
X168949714Y-86878438D02*
X169044952Y-86830819D01*
X169044952Y-86830819D02*
X169283047Y-86830819D01*
X169283047Y-86830819D02*
X169378285Y-86878438D01*
X169378285Y-86878438D02*
X169425904Y-86926057D01*
X169425904Y-86926057D02*
X169473523Y-87021295D01*
X169473523Y-87021295D02*
X169473523Y-87116533D01*
X169473523Y-87116533D02*
X169425904Y-87259390D01*
X169425904Y-87259390D02*
X168854476Y-87830819D01*
X168854476Y-87830819D02*
X169473523Y-87830819D01*
X170092571Y-86830819D02*
X170187809Y-86830819D01*
X170187809Y-86830819D02*
X170283047Y-86878438D01*
X170283047Y-86878438D02*
X170330666Y-86926057D01*
X170330666Y-86926057D02*
X170378285Y-87021295D01*
X170378285Y-87021295D02*
X170425904Y-87211771D01*
X170425904Y-87211771D02*
X170425904Y-87449866D01*
X170425904Y-87449866D02*
X170378285Y-87640342D01*
X170378285Y-87640342D02*
X170330666Y-87735580D01*
X170330666Y-87735580D02*
X170283047Y-87783200D01*
X170283047Y-87783200D02*
X170187809Y-87830819D01*
X170187809Y-87830819D02*
X170092571Y-87830819D01*
X170092571Y-87830819D02*
X169997333Y-87783200D01*
X169997333Y-87783200D02*
X169949714Y-87735580D01*
X169949714Y-87735580D02*
X169902095Y-87640342D01*
X169902095Y-87640342D02*
X169854476Y-87449866D01*
X169854476Y-87449866D02*
X169854476Y-87211771D01*
X169854476Y-87211771D02*
X169902095Y-87021295D01*
X169902095Y-87021295D02*
X169949714Y-86926057D01*
X169949714Y-86926057D02*
X169997333Y-86878438D01*
X169997333Y-86878438D02*
X170092571Y-86830819D01*
X130524642Y-96560819D02*
X130191309Y-96084628D01*
X129953214Y-96560819D02*
X129953214Y-95560819D01*
X129953214Y-95560819D02*
X130334166Y-95560819D01*
X130334166Y-95560819D02*
X130429404Y-95608438D01*
X130429404Y-95608438D02*
X130477023Y-95656057D01*
X130477023Y-95656057D02*
X130524642Y-95751295D01*
X130524642Y-95751295D02*
X130524642Y-95894152D01*
X130524642Y-95894152D02*
X130477023Y-95989390D01*
X130477023Y-95989390D02*
X130429404Y-96037009D01*
X130429404Y-96037009D02*
X130334166Y-96084628D01*
X130334166Y-96084628D02*
X129953214Y-96084628D01*
X131477023Y-96560819D02*
X130905595Y-96560819D01*
X131191309Y-96560819D02*
X131191309Y-95560819D01*
X131191309Y-95560819D02*
X131096071Y-95703676D01*
X131096071Y-95703676D02*
X131000833Y-95798914D01*
X131000833Y-95798914D02*
X130905595Y-95846533D01*
X132381785Y-95560819D02*
X131905595Y-95560819D01*
X131905595Y-95560819D02*
X131857976Y-96037009D01*
X131857976Y-96037009D02*
X131905595Y-95989390D01*
X131905595Y-95989390D02*
X132000833Y-95941771D01*
X132000833Y-95941771D02*
X132238928Y-95941771D01*
X132238928Y-95941771D02*
X132334166Y-95989390D01*
X132334166Y-95989390D02*
X132381785Y-96037009D01*
X132381785Y-96037009D02*
X132429404Y-96132247D01*
X132429404Y-96132247D02*
X132429404Y-96370342D01*
X132429404Y-96370342D02*
X132381785Y-96465580D01*
X132381785Y-96465580D02*
X132334166Y-96513200D01*
X132334166Y-96513200D02*
X132238928Y-96560819D01*
X132238928Y-96560819D02*
X132000833Y-96560819D01*
X132000833Y-96560819D02*
X131905595Y-96513200D01*
X131905595Y-96513200D02*
X131857976Y-96465580D01*
X128119333Y-55352819D02*
X128119333Y-54352819D01*
X128119333Y-54352819D02*
X128500285Y-54352819D01*
X128500285Y-54352819D02*
X128595523Y-54400438D01*
X128595523Y-54400438D02*
X128643142Y-54448057D01*
X128643142Y-54448057D02*
X128690761Y-54543295D01*
X128690761Y-54543295D02*
X128690761Y-54686152D01*
X128690761Y-54686152D02*
X128643142Y-54781390D01*
X128643142Y-54781390D02*
X128595523Y-54829009D01*
X128595523Y-54829009D02*
X128500285Y-54876628D01*
X128500285Y-54876628D02*
X128119333Y-54876628D01*
X129071714Y-55067104D02*
X129547904Y-55067104D01*
X128976476Y-55352819D02*
X129309809Y-54352819D01*
X129309809Y-54352819D02*
X129643142Y-55352819D01*
X130405047Y-54352819D02*
X130214571Y-54352819D01*
X130214571Y-54352819D02*
X130119333Y-54400438D01*
X130119333Y-54400438D02*
X130071714Y-54448057D01*
X130071714Y-54448057D02*
X129976476Y-54590914D01*
X129976476Y-54590914D02*
X129928857Y-54781390D01*
X129928857Y-54781390D02*
X129928857Y-55162342D01*
X129928857Y-55162342D02*
X129976476Y-55257580D01*
X129976476Y-55257580D02*
X130024095Y-55305200D01*
X130024095Y-55305200D02*
X130119333Y-55352819D01*
X130119333Y-55352819D02*
X130309809Y-55352819D01*
X130309809Y-55352819D02*
X130405047Y-55305200D01*
X130405047Y-55305200D02*
X130452666Y-55257580D01*
X130452666Y-55257580D02*
X130500285Y-55162342D01*
X130500285Y-55162342D02*
X130500285Y-54924247D01*
X130500285Y-54924247D02*
X130452666Y-54829009D01*
X130452666Y-54829009D02*
X130405047Y-54781390D01*
X130405047Y-54781390D02*
X130309809Y-54733771D01*
X130309809Y-54733771D02*
X130119333Y-54733771D01*
X130119333Y-54733771D02*
X130024095Y-54781390D01*
X130024095Y-54781390D02*
X129976476Y-54829009D01*
X129976476Y-54829009D02*
X129928857Y-54924247D01*
X163155333Y-47095580D02*
X163107714Y-47143200D01*
X163107714Y-47143200D02*
X162964857Y-47190819D01*
X162964857Y-47190819D02*
X162869619Y-47190819D01*
X162869619Y-47190819D02*
X162726762Y-47143200D01*
X162726762Y-47143200D02*
X162631524Y-47047961D01*
X162631524Y-47047961D02*
X162583905Y-46952723D01*
X162583905Y-46952723D02*
X162536286Y-46762247D01*
X162536286Y-46762247D02*
X162536286Y-46619390D01*
X162536286Y-46619390D02*
X162583905Y-46428914D01*
X162583905Y-46428914D02*
X162631524Y-46333676D01*
X162631524Y-46333676D02*
X162726762Y-46238438D01*
X162726762Y-46238438D02*
X162869619Y-46190819D01*
X162869619Y-46190819D02*
X162964857Y-46190819D01*
X162964857Y-46190819D02*
X163107714Y-46238438D01*
X163107714Y-46238438D02*
X163155333Y-46286057D01*
X164060095Y-46190819D02*
X163583905Y-46190819D01*
X163583905Y-46190819D02*
X163536286Y-46667009D01*
X163536286Y-46667009D02*
X163583905Y-46619390D01*
X163583905Y-46619390D02*
X163679143Y-46571771D01*
X163679143Y-46571771D02*
X163917238Y-46571771D01*
X163917238Y-46571771D02*
X164012476Y-46619390D01*
X164012476Y-46619390D02*
X164060095Y-46667009D01*
X164060095Y-46667009D02*
X164107714Y-46762247D01*
X164107714Y-46762247D02*
X164107714Y-47000342D01*
X164107714Y-47000342D02*
X164060095Y-47095580D01*
X164060095Y-47095580D02*
X164012476Y-47143200D01*
X164012476Y-47143200D02*
X163917238Y-47190819D01*
X163917238Y-47190819D02*
X163679143Y-47190819D01*
X163679143Y-47190819D02*
X163583905Y-47143200D01*
X163583905Y-47143200D02*
X163536286Y-47095580D01*
X117975142Y-57764819D02*
X117641809Y-57288628D01*
X117403714Y-57764819D02*
X117403714Y-56764819D01*
X117403714Y-56764819D02*
X117784666Y-56764819D01*
X117784666Y-56764819D02*
X117879904Y-56812438D01*
X117879904Y-56812438D02*
X117927523Y-56860057D01*
X117927523Y-56860057D02*
X117975142Y-56955295D01*
X117975142Y-56955295D02*
X117975142Y-57098152D01*
X117975142Y-57098152D02*
X117927523Y-57193390D01*
X117927523Y-57193390D02*
X117879904Y-57241009D01*
X117879904Y-57241009D02*
X117784666Y-57288628D01*
X117784666Y-57288628D02*
X117403714Y-57288628D01*
X118927523Y-57764819D02*
X118356095Y-57764819D01*
X118641809Y-57764819D02*
X118641809Y-56764819D01*
X118641809Y-56764819D02*
X118546571Y-56907676D01*
X118546571Y-56907676D02*
X118451333Y-57002914D01*
X118451333Y-57002914D02*
X118356095Y-57050533D01*
X119260857Y-56764819D02*
X119927523Y-56764819D01*
X119927523Y-56764819D02*
X119498952Y-57764819D01*
X159123142Y-93831580D02*
X159075523Y-93879200D01*
X159075523Y-93879200D02*
X158932666Y-93926819D01*
X158932666Y-93926819D02*
X158837428Y-93926819D01*
X158837428Y-93926819D02*
X158694571Y-93879200D01*
X158694571Y-93879200D02*
X158599333Y-93783961D01*
X158599333Y-93783961D02*
X158551714Y-93688723D01*
X158551714Y-93688723D02*
X158504095Y-93498247D01*
X158504095Y-93498247D02*
X158504095Y-93355390D01*
X158504095Y-93355390D02*
X158551714Y-93164914D01*
X158551714Y-93164914D02*
X158599333Y-93069676D01*
X158599333Y-93069676D02*
X158694571Y-92974438D01*
X158694571Y-92974438D02*
X158837428Y-92926819D01*
X158837428Y-92926819D02*
X158932666Y-92926819D01*
X158932666Y-92926819D02*
X159075523Y-92974438D01*
X159075523Y-92974438D02*
X159123142Y-93022057D01*
X160075523Y-93926819D02*
X159504095Y-93926819D01*
X159789809Y-93926819D02*
X159789809Y-92926819D01*
X159789809Y-92926819D02*
X159694571Y-93069676D01*
X159694571Y-93069676D02*
X159599333Y-93164914D01*
X159599333Y-93164914D02*
X159504095Y-93212533D01*
X160932666Y-92926819D02*
X160742190Y-92926819D01*
X160742190Y-92926819D02*
X160646952Y-92974438D01*
X160646952Y-92974438D02*
X160599333Y-93022057D01*
X160599333Y-93022057D02*
X160504095Y-93164914D01*
X160504095Y-93164914D02*
X160456476Y-93355390D01*
X160456476Y-93355390D02*
X160456476Y-93736342D01*
X160456476Y-93736342D02*
X160504095Y-93831580D01*
X160504095Y-93831580D02*
X160551714Y-93879200D01*
X160551714Y-93879200D02*
X160646952Y-93926819D01*
X160646952Y-93926819D02*
X160837428Y-93926819D01*
X160837428Y-93926819D02*
X160932666Y-93879200D01*
X160932666Y-93879200D02*
X160980285Y-93831580D01*
X160980285Y-93831580D02*
X161027904Y-93736342D01*
X161027904Y-93736342D02*
X161027904Y-93498247D01*
X161027904Y-93498247D02*
X160980285Y-93403009D01*
X160980285Y-93403009D02*
X160932666Y-93355390D01*
X160932666Y-93355390D02*
X160837428Y-93307771D01*
X160837428Y-93307771D02*
X160646952Y-93307771D01*
X160646952Y-93307771D02*
X160551714Y-93355390D01*
X160551714Y-93355390D02*
X160504095Y-93403009D01*
X160504095Y-93403009D02*
X160456476Y-93498247D01*
X148486905Y-44396819D02*
X148486905Y-43396819D01*
X148486905Y-43396819D02*
X148725000Y-43396819D01*
X148725000Y-43396819D02*
X148867857Y-43444438D01*
X148867857Y-43444438D02*
X148963095Y-43539676D01*
X148963095Y-43539676D02*
X149010714Y-43634914D01*
X149010714Y-43634914D02*
X149058333Y-43825390D01*
X149058333Y-43825390D02*
X149058333Y-43968247D01*
X149058333Y-43968247D02*
X149010714Y-44158723D01*
X149010714Y-44158723D02*
X148963095Y-44253961D01*
X148963095Y-44253961D02*
X148867857Y-44349200D01*
X148867857Y-44349200D02*
X148725000Y-44396819D01*
X148725000Y-44396819D02*
X148486905Y-44396819D01*
X150010714Y-44396819D02*
X149439286Y-44396819D01*
X149725000Y-44396819D02*
X149725000Y-43396819D01*
X149725000Y-43396819D02*
X149629762Y-43539676D01*
X149629762Y-43539676D02*
X149534524Y-43634914D01*
X149534524Y-43634914D02*
X149439286Y-43682533D01*
X162496667Y-114961200D02*
X162639524Y-115008819D01*
X162639524Y-115008819D02*
X162877619Y-115008819D01*
X162877619Y-115008819D02*
X162972857Y-114961200D01*
X162972857Y-114961200D02*
X163020476Y-114913580D01*
X163020476Y-114913580D02*
X163068095Y-114818342D01*
X163068095Y-114818342D02*
X163068095Y-114723104D01*
X163068095Y-114723104D02*
X163020476Y-114627866D01*
X163020476Y-114627866D02*
X162972857Y-114580247D01*
X162972857Y-114580247D02*
X162877619Y-114532628D01*
X162877619Y-114532628D02*
X162687143Y-114485009D01*
X162687143Y-114485009D02*
X162591905Y-114437390D01*
X162591905Y-114437390D02*
X162544286Y-114389771D01*
X162544286Y-114389771D02*
X162496667Y-114294533D01*
X162496667Y-114294533D02*
X162496667Y-114199295D01*
X162496667Y-114199295D02*
X162544286Y-114104057D01*
X162544286Y-114104057D02*
X162591905Y-114056438D01*
X162591905Y-114056438D02*
X162687143Y-114008819D01*
X162687143Y-114008819D02*
X162925238Y-114008819D01*
X162925238Y-114008819D02*
X163068095Y-114056438D01*
X163401429Y-114008819D02*
X163639524Y-115008819D01*
X163639524Y-115008819D02*
X163830000Y-114294533D01*
X163830000Y-114294533D02*
X164020476Y-115008819D01*
X164020476Y-115008819D02*
X164258572Y-114008819D01*
X164544286Y-114008819D02*
X165210952Y-114008819D01*
X165210952Y-114008819D02*
X164782381Y-115008819D01*
X170719905Y-79832819D02*
X170719905Y-78832819D01*
X170719905Y-78832819D02*
X171100857Y-78832819D01*
X171100857Y-78832819D02*
X171196095Y-78880438D01*
X171196095Y-78880438D02*
X171243714Y-78928057D01*
X171243714Y-78928057D02*
X171291333Y-79023295D01*
X171291333Y-79023295D02*
X171291333Y-79166152D01*
X171291333Y-79166152D02*
X171243714Y-79261390D01*
X171243714Y-79261390D02*
X171196095Y-79309009D01*
X171196095Y-79309009D02*
X171100857Y-79356628D01*
X171100857Y-79356628D02*
X170719905Y-79356628D01*
X171719905Y-79832819D02*
X171719905Y-78832819D01*
X171719905Y-78832819D02*
X171958000Y-78832819D01*
X171958000Y-78832819D02*
X172100857Y-78880438D01*
X172100857Y-78880438D02*
X172196095Y-78975676D01*
X172196095Y-78975676D02*
X172243714Y-79070914D01*
X172243714Y-79070914D02*
X172291333Y-79261390D01*
X172291333Y-79261390D02*
X172291333Y-79404247D01*
X172291333Y-79404247D02*
X172243714Y-79594723D01*
X172243714Y-79594723D02*
X172196095Y-79689961D01*
X172196095Y-79689961D02*
X172100857Y-79785200D01*
X172100857Y-79785200D02*
X171958000Y-79832819D01*
X171958000Y-79832819D02*
X171719905Y-79832819D01*
X173148476Y-78832819D02*
X172958000Y-78832819D01*
X172958000Y-78832819D02*
X172862762Y-78880438D01*
X172862762Y-78880438D02*
X172815143Y-78928057D01*
X172815143Y-78928057D02*
X172719905Y-79070914D01*
X172719905Y-79070914D02*
X172672286Y-79261390D01*
X172672286Y-79261390D02*
X172672286Y-79642342D01*
X172672286Y-79642342D02*
X172719905Y-79737580D01*
X172719905Y-79737580D02*
X172767524Y-79785200D01*
X172767524Y-79785200D02*
X172862762Y-79832819D01*
X172862762Y-79832819D02*
X173053238Y-79832819D01*
X173053238Y-79832819D02*
X173148476Y-79785200D01*
X173148476Y-79785200D02*
X173196095Y-79737580D01*
X173196095Y-79737580D02*
X173243714Y-79642342D01*
X173243714Y-79642342D02*
X173243714Y-79404247D01*
X173243714Y-79404247D02*
X173196095Y-79309009D01*
X173196095Y-79309009D02*
X173148476Y-79261390D01*
X173148476Y-79261390D02*
X173053238Y-79213771D01*
X173053238Y-79213771D02*
X172862762Y-79213771D01*
X172862762Y-79213771D02*
X172767524Y-79261390D01*
X172767524Y-79261390D02*
X172719905Y-79309009D01*
X172719905Y-79309009D02*
X172672286Y-79404247D01*
X135799142Y-51000819D02*
X135465809Y-50524628D01*
X135227714Y-51000819D02*
X135227714Y-50000819D01*
X135227714Y-50000819D02*
X135608666Y-50000819D01*
X135608666Y-50000819D02*
X135703904Y-50048438D01*
X135703904Y-50048438D02*
X135751523Y-50096057D01*
X135751523Y-50096057D02*
X135799142Y-50191295D01*
X135799142Y-50191295D02*
X135799142Y-50334152D01*
X135799142Y-50334152D02*
X135751523Y-50429390D01*
X135751523Y-50429390D02*
X135703904Y-50477009D01*
X135703904Y-50477009D02*
X135608666Y-50524628D01*
X135608666Y-50524628D02*
X135227714Y-50524628D01*
X136751523Y-51000819D02*
X136180095Y-51000819D01*
X136465809Y-51000819D02*
X136465809Y-50000819D01*
X136465809Y-50000819D02*
X136370571Y-50143676D01*
X136370571Y-50143676D02*
X136275333Y-50238914D01*
X136275333Y-50238914D02*
X136180095Y-50286533D01*
X137132476Y-50096057D02*
X137180095Y-50048438D01*
X137180095Y-50048438D02*
X137275333Y-50000819D01*
X137275333Y-50000819D02*
X137513428Y-50000819D01*
X137513428Y-50000819D02*
X137608666Y-50048438D01*
X137608666Y-50048438D02*
X137656285Y-50096057D01*
X137656285Y-50096057D02*
X137703904Y-50191295D01*
X137703904Y-50191295D02*
X137703904Y-50286533D01*
X137703904Y-50286533D02*
X137656285Y-50429390D01*
X137656285Y-50429390D02*
X137084857Y-51000819D01*
X137084857Y-51000819D02*
X137703904Y-51000819D01*
X125666667Y-121692200D02*
X125809524Y-121739819D01*
X125809524Y-121739819D02*
X126047619Y-121739819D01*
X126047619Y-121739819D02*
X126142857Y-121692200D01*
X126142857Y-121692200D02*
X126190476Y-121644580D01*
X126190476Y-121644580D02*
X126238095Y-121549342D01*
X126238095Y-121549342D02*
X126238095Y-121454104D01*
X126238095Y-121454104D02*
X126190476Y-121358866D01*
X126190476Y-121358866D02*
X126142857Y-121311247D01*
X126142857Y-121311247D02*
X126047619Y-121263628D01*
X126047619Y-121263628D02*
X125857143Y-121216009D01*
X125857143Y-121216009D02*
X125761905Y-121168390D01*
X125761905Y-121168390D02*
X125714286Y-121120771D01*
X125714286Y-121120771D02*
X125666667Y-121025533D01*
X125666667Y-121025533D02*
X125666667Y-120930295D01*
X125666667Y-120930295D02*
X125714286Y-120835057D01*
X125714286Y-120835057D02*
X125761905Y-120787438D01*
X125761905Y-120787438D02*
X125857143Y-120739819D01*
X125857143Y-120739819D02*
X126095238Y-120739819D01*
X126095238Y-120739819D02*
X126238095Y-120787438D01*
X126571429Y-120739819D02*
X126809524Y-121739819D01*
X126809524Y-121739819D02*
X127000000Y-121025533D01*
X127000000Y-121025533D02*
X127190476Y-121739819D01*
X127190476Y-121739819D02*
X127428572Y-120739819D01*
X128285714Y-120739819D02*
X127809524Y-120739819D01*
X127809524Y-120739819D02*
X127761905Y-121216009D01*
X127761905Y-121216009D02*
X127809524Y-121168390D01*
X127809524Y-121168390D02*
X127904762Y-121120771D01*
X127904762Y-121120771D02*
X128142857Y-121120771D01*
X128142857Y-121120771D02*
X128238095Y-121168390D01*
X128238095Y-121168390D02*
X128285714Y-121216009D01*
X128285714Y-121216009D02*
X128333333Y-121311247D01*
X128333333Y-121311247D02*
X128333333Y-121549342D01*
X128333333Y-121549342D02*
X128285714Y-121644580D01*
X128285714Y-121644580D02*
X128238095Y-121692200D01*
X128238095Y-121692200D02*
X128142857Y-121739819D01*
X128142857Y-121739819D02*
X127904762Y-121739819D01*
X127904762Y-121739819D02*
X127809524Y-121692200D01*
X127809524Y-121692200D02*
X127761905Y-121644580D01*
X142017905Y-83401819D02*
X142017905Y-84211342D01*
X142017905Y-84211342D02*
X142065524Y-84306580D01*
X142065524Y-84306580D02*
X142113143Y-84354200D01*
X142113143Y-84354200D02*
X142208381Y-84401819D01*
X142208381Y-84401819D02*
X142398857Y-84401819D01*
X142398857Y-84401819D02*
X142494095Y-84354200D01*
X142494095Y-84354200D02*
X142541714Y-84306580D01*
X142541714Y-84306580D02*
X142589333Y-84211342D01*
X142589333Y-84211342D02*
X142589333Y-83401819D01*
X143589333Y-84401819D02*
X143017905Y-84401819D01*
X143303619Y-84401819D02*
X143303619Y-83401819D01*
X143303619Y-83401819D02*
X143208381Y-83544676D01*
X143208381Y-83544676D02*
X143113143Y-83639914D01*
X143113143Y-83639914D02*
X143017905Y-83687533D01*
X144208381Y-83401819D02*
X144303619Y-83401819D01*
X144303619Y-83401819D02*
X144398857Y-83449438D01*
X144398857Y-83449438D02*
X144446476Y-83497057D01*
X144446476Y-83497057D02*
X144494095Y-83592295D01*
X144494095Y-83592295D02*
X144541714Y-83782771D01*
X144541714Y-83782771D02*
X144541714Y-84020866D01*
X144541714Y-84020866D02*
X144494095Y-84211342D01*
X144494095Y-84211342D02*
X144446476Y-84306580D01*
X144446476Y-84306580D02*
X144398857Y-84354200D01*
X144398857Y-84354200D02*
X144303619Y-84401819D01*
X144303619Y-84401819D02*
X144208381Y-84401819D01*
X144208381Y-84401819D02*
X144113143Y-84354200D01*
X144113143Y-84354200D02*
X144065524Y-84306580D01*
X144065524Y-84306580D02*
X144017905Y-84211342D01*
X144017905Y-84211342D02*
X143970286Y-84020866D01*
X143970286Y-84020866D02*
X143970286Y-83782771D01*
X143970286Y-83782771D02*
X144017905Y-83592295D01*
X144017905Y-83592295D02*
X144065524Y-83497057D01*
X144065524Y-83497057D02*
X144113143Y-83449438D01*
X144113143Y-83449438D02*
X144208381Y-83401819D01*
X133481333Y-50905580D02*
X133433714Y-50953200D01*
X133433714Y-50953200D02*
X133290857Y-51000819D01*
X133290857Y-51000819D02*
X133195619Y-51000819D01*
X133195619Y-51000819D02*
X133052762Y-50953200D01*
X133052762Y-50953200D02*
X132957524Y-50857961D01*
X132957524Y-50857961D02*
X132909905Y-50762723D01*
X132909905Y-50762723D02*
X132862286Y-50572247D01*
X132862286Y-50572247D02*
X132862286Y-50429390D01*
X132862286Y-50429390D02*
X132909905Y-50238914D01*
X132909905Y-50238914D02*
X132957524Y-50143676D01*
X132957524Y-50143676D02*
X133052762Y-50048438D01*
X133052762Y-50048438D02*
X133195619Y-50000819D01*
X133195619Y-50000819D02*
X133290857Y-50000819D01*
X133290857Y-50000819D02*
X133433714Y-50048438D01*
X133433714Y-50048438D02*
X133481333Y-50096057D01*
X134338476Y-50000819D02*
X134148000Y-50000819D01*
X134148000Y-50000819D02*
X134052762Y-50048438D01*
X134052762Y-50048438D02*
X134005143Y-50096057D01*
X134005143Y-50096057D02*
X133909905Y-50238914D01*
X133909905Y-50238914D02*
X133862286Y-50429390D01*
X133862286Y-50429390D02*
X133862286Y-50810342D01*
X133862286Y-50810342D02*
X133909905Y-50905580D01*
X133909905Y-50905580D02*
X133957524Y-50953200D01*
X133957524Y-50953200D02*
X134052762Y-51000819D01*
X134052762Y-51000819D02*
X134243238Y-51000819D01*
X134243238Y-51000819D02*
X134338476Y-50953200D01*
X134338476Y-50953200D02*
X134386095Y-50905580D01*
X134386095Y-50905580D02*
X134433714Y-50810342D01*
X134433714Y-50810342D02*
X134433714Y-50572247D01*
X134433714Y-50572247D02*
X134386095Y-50477009D01*
X134386095Y-50477009D02*
X134338476Y-50429390D01*
X134338476Y-50429390D02*
X134243238Y-50381771D01*
X134243238Y-50381771D02*
X134052762Y-50381771D01*
X134052762Y-50381771D02*
X133957524Y-50429390D01*
X133957524Y-50429390D02*
X133909905Y-50477009D01*
X133909905Y-50477009D02*
X133862286Y-50572247D01*
X153606667Y-124867200D02*
X153749524Y-124914819D01*
X153749524Y-124914819D02*
X153987619Y-124914819D01*
X153987619Y-124914819D02*
X154082857Y-124867200D01*
X154082857Y-124867200D02*
X154130476Y-124819580D01*
X154130476Y-124819580D02*
X154178095Y-124724342D01*
X154178095Y-124724342D02*
X154178095Y-124629104D01*
X154178095Y-124629104D02*
X154130476Y-124533866D01*
X154130476Y-124533866D02*
X154082857Y-124486247D01*
X154082857Y-124486247D02*
X153987619Y-124438628D01*
X153987619Y-124438628D02*
X153797143Y-124391009D01*
X153797143Y-124391009D02*
X153701905Y-124343390D01*
X153701905Y-124343390D02*
X153654286Y-124295771D01*
X153654286Y-124295771D02*
X153606667Y-124200533D01*
X153606667Y-124200533D02*
X153606667Y-124105295D01*
X153606667Y-124105295D02*
X153654286Y-124010057D01*
X153654286Y-124010057D02*
X153701905Y-123962438D01*
X153701905Y-123962438D02*
X153797143Y-123914819D01*
X153797143Y-123914819D02*
X154035238Y-123914819D01*
X154035238Y-123914819D02*
X154178095Y-123962438D01*
X154511429Y-123914819D02*
X154749524Y-124914819D01*
X154749524Y-124914819D02*
X154940000Y-124200533D01*
X154940000Y-124200533D02*
X155130476Y-124914819D01*
X155130476Y-124914819D02*
X155368572Y-123914819D01*
X155797143Y-124914819D02*
X155987619Y-124914819D01*
X155987619Y-124914819D02*
X156082857Y-124867200D01*
X156082857Y-124867200D02*
X156130476Y-124819580D01*
X156130476Y-124819580D02*
X156225714Y-124676723D01*
X156225714Y-124676723D02*
X156273333Y-124486247D01*
X156273333Y-124486247D02*
X156273333Y-124105295D01*
X156273333Y-124105295D02*
X156225714Y-124010057D01*
X156225714Y-124010057D02*
X156178095Y-123962438D01*
X156178095Y-123962438D02*
X156082857Y-123914819D01*
X156082857Y-123914819D02*
X155892381Y-123914819D01*
X155892381Y-123914819D02*
X155797143Y-123962438D01*
X155797143Y-123962438D02*
X155749524Y-124010057D01*
X155749524Y-124010057D02*
X155701905Y-124105295D01*
X155701905Y-124105295D02*
X155701905Y-124343390D01*
X155701905Y-124343390D02*
X155749524Y-124438628D01*
X155749524Y-124438628D02*
X155797143Y-124486247D01*
X155797143Y-124486247D02*
X155892381Y-124533866D01*
X155892381Y-124533866D02*
X156082857Y-124533866D01*
X156082857Y-124533866D02*
X156178095Y-124486247D01*
X156178095Y-124486247D02*
X156225714Y-124438628D01*
X156225714Y-124438628D02*
X156273333Y-124343390D01*
X159178666Y-50985009D02*
X158845333Y-50985009D01*
X158845333Y-51508819D02*
X158845333Y-50508819D01*
X158845333Y-50508819D02*
X159321523Y-50508819D01*
X160226285Y-51508819D02*
X159654857Y-51508819D01*
X159940571Y-51508819D02*
X159940571Y-50508819D01*
X159940571Y-50508819D02*
X159845333Y-50651676D01*
X159845333Y-50651676D02*
X159750095Y-50746914D01*
X159750095Y-50746914D02*
X159654857Y-50794533D01*
X151781048Y-89608819D02*
X151781048Y-88608819D01*
X152257238Y-89608819D02*
X152257238Y-88608819D01*
X152257238Y-88608819D02*
X152828666Y-89608819D01*
X152828666Y-89608819D02*
X152828666Y-88608819D01*
X153162000Y-88608819D02*
X153733428Y-88608819D01*
X153447714Y-89608819D02*
X153447714Y-88608819D01*
X154590571Y-89608819D02*
X154019143Y-89608819D01*
X154304857Y-89608819D02*
X154304857Y-88608819D01*
X154304857Y-88608819D02*
X154209619Y-88751676D01*
X154209619Y-88751676D02*
X154114381Y-88846914D01*
X154114381Y-88846914D02*
X154019143Y-88894533D01*
X162337905Y-79832819D02*
X162337905Y-78832819D01*
X162337905Y-78832819D02*
X162718857Y-78832819D01*
X162718857Y-78832819D02*
X162814095Y-78880438D01*
X162814095Y-78880438D02*
X162861714Y-78928057D01*
X162861714Y-78928057D02*
X162909333Y-79023295D01*
X162909333Y-79023295D02*
X162909333Y-79166152D01*
X162909333Y-79166152D02*
X162861714Y-79261390D01*
X162861714Y-79261390D02*
X162814095Y-79309009D01*
X162814095Y-79309009D02*
X162718857Y-79356628D01*
X162718857Y-79356628D02*
X162337905Y-79356628D01*
X163337905Y-79832819D02*
X163337905Y-78832819D01*
X163337905Y-78832819D02*
X163576000Y-78832819D01*
X163576000Y-78832819D02*
X163718857Y-78880438D01*
X163718857Y-78880438D02*
X163814095Y-78975676D01*
X163814095Y-78975676D02*
X163861714Y-79070914D01*
X163861714Y-79070914D02*
X163909333Y-79261390D01*
X163909333Y-79261390D02*
X163909333Y-79404247D01*
X163909333Y-79404247D02*
X163861714Y-79594723D01*
X163861714Y-79594723D02*
X163814095Y-79689961D01*
X163814095Y-79689961D02*
X163718857Y-79785200D01*
X163718857Y-79785200D02*
X163576000Y-79832819D01*
X163576000Y-79832819D02*
X163337905Y-79832819D01*
X164766476Y-79166152D02*
X164766476Y-79832819D01*
X164528381Y-78785200D02*
X164290286Y-79499485D01*
X164290286Y-79499485D02*
X164909333Y-79499485D01*
X127119142Y-84020819D02*
X126785809Y-83544628D01*
X126547714Y-84020819D02*
X126547714Y-83020819D01*
X126547714Y-83020819D02*
X126928666Y-83020819D01*
X126928666Y-83020819D02*
X127023904Y-83068438D01*
X127023904Y-83068438D02*
X127071523Y-83116057D01*
X127071523Y-83116057D02*
X127119142Y-83211295D01*
X127119142Y-83211295D02*
X127119142Y-83354152D01*
X127119142Y-83354152D02*
X127071523Y-83449390D01*
X127071523Y-83449390D02*
X127023904Y-83497009D01*
X127023904Y-83497009D02*
X126928666Y-83544628D01*
X126928666Y-83544628D02*
X126547714Y-83544628D01*
X128071523Y-84020819D02*
X127500095Y-84020819D01*
X127785809Y-84020819D02*
X127785809Y-83020819D01*
X127785809Y-83020819D02*
X127690571Y-83163676D01*
X127690571Y-83163676D02*
X127595333Y-83258914D01*
X127595333Y-83258914D02*
X127500095Y-83306533D01*
X128928666Y-83020819D02*
X128738190Y-83020819D01*
X128738190Y-83020819D02*
X128642952Y-83068438D01*
X128642952Y-83068438D02*
X128595333Y-83116057D01*
X128595333Y-83116057D02*
X128500095Y-83258914D01*
X128500095Y-83258914D02*
X128452476Y-83449390D01*
X128452476Y-83449390D02*
X128452476Y-83830342D01*
X128452476Y-83830342D02*
X128500095Y-83925580D01*
X128500095Y-83925580D02*
X128547714Y-83973200D01*
X128547714Y-83973200D02*
X128642952Y-84020819D01*
X128642952Y-84020819D02*
X128833428Y-84020819D01*
X128833428Y-84020819D02*
X128928666Y-83973200D01*
X128928666Y-83973200D02*
X128976285Y-83925580D01*
X128976285Y-83925580D02*
X129023904Y-83830342D01*
X129023904Y-83830342D02*
X129023904Y-83592247D01*
X129023904Y-83592247D02*
X128976285Y-83497009D01*
X128976285Y-83497009D02*
X128928666Y-83449390D01*
X128928666Y-83449390D02*
X128833428Y-83401771D01*
X128833428Y-83401771D02*
X128642952Y-83401771D01*
X128642952Y-83401771D02*
X128547714Y-83449390D01*
X128547714Y-83449390D02*
X128500095Y-83497009D01*
X128500095Y-83497009D02*
X128452476Y-83592247D01*
X164084095Y-53556819D02*
X164084095Y-54366342D01*
X164084095Y-54366342D02*
X164131714Y-54461580D01*
X164131714Y-54461580D02*
X164179333Y-54509200D01*
X164179333Y-54509200D02*
X164274571Y-54556819D01*
X164274571Y-54556819D02*
X164465047Y-54556819D01*
X164465047Y-54556819D02*
X164560285Y-54509200D01*
X164560285Y-54509200D02*
X164607904Y-54461580D01*
X164607904Y-54461580D02*
X164655523Y-54366342D01*
X164655523Y-54366342D02*
X164655523Y-53556819D01*
X165036476Y-53556819D02*
X165655523Y-53556819D01*
X165655523Y-53556819D02*
X165322190Y-53937771D01*
X165322190Y-53937771D02*
X165465047Y-53937771D01*
X165465047Y-53937771D02*
X165560285Y-53985390D01*
X165560285Y-53985390D02*
X165607904Y-54033009D01*
X165607904Y-54033009D02*
X165655523Y-54128247D01*
X165655523Y-54128247D02*
X165655523Y-54366342D01*
X165655523Y-54366342D02*
X165607904Y-54461580D01*
X165607904Y-54461580D02*
X165560285Y-54509200D01*
X165560285Y-54509200D02*
X165465047Y-54556819D01*
X165465047Y-54556819D02*
X165179333Y-54556819D01*
X165179333Y-54556819D02*
X165084095Y-54509200D01*
X165084095Y-54509200D02*
X165036476Y-54461580D01*
X130211142Y-51000819D02*
X129877809Y-50524628D01*
X129639714Y-51000819D02*
X129639714Y-50000819D01*
X129639714Y-50000819D02*
X130020666Y-50000819D01*
X130020666Y-50000819D02*
X130115904Y-50048438D01*
X130115904Y-50048438D02*
X130163523Y-50096057D01*
X130163523Y-50096057D02*
X130211142Y-50191295D01*
X130211142Y-50191295D02*
X130211142Y-50334152D01*
X130211142Y-50334152D02*
X130163523Y-50429390D01*
X130163523Y-50429390D02*
X130115904Y-50477009D01*
X130115904Y-50477009D02*
X130020666Y-50524628D01*
X130020666Y-50524628D02*
X129639714Y-50524628D01*
X131163523Y-51000819D02*
X130592095Y-51000819D01*
X130877809Y-51000819D02*
X130877809Y-50000819D01*
X130877809Y-50000819D02*
X130782571Y-50143676D01*
X130782571Y-50143676D02*
X130687333Y-50238914D01*
X130687333Y-50238914D02*
X130592095Y-50286533D01*
X132115904Y-51000819D02*
X131544476Y-51000819D01*
X131830190Y-51000819D02*
X131830190Y-50000819D01*
X131830190Y-50000819D02*
X131734952Y-50143676D01*
X131734952Y-50143676D02*
X131639714Y-50238914D01*
X131639714Y-50238914D02*
X131544476Y-50286533D01*
X162020476Y-124867200D02*
X162163333Y-124914819D01*
X162163333Y-124914819D02*
X162401428Y-124914819D01*
X162401428Y-124914819D02*
X162496666Y-124867200D01*
X162496666Y-124867200D02*
X162544285Y-124819580D01*
X162544285Y-124819580D02*
X162591904Y-124724342D01*
X162591904Y-124724342D02*
X162591904Y-124629104D01*
X162591904Y-124629104D02*
X162544285Y-124533866D01*
X162544285Y-124533866D02*
X162496666Y-124486247D01*
X162496666Y-124486247D02*
X162401428Y-124438628D01*
X162401428Y-124438628D02*
X162210952Y-124391009D01*
X162210952Y-124391009D02*
X162115714Y-124343390D01*
X162115714Y-124343390D02*
X162068095Y-124295771D01*
X162068095Y-124295771D02*
X162020476Y-124200533D01*
X162020476Y-124200533D02*
X162020476Y-124105295D01*
X162020476Y-124105295D02*
X162068095Y-124010057D01*
X162068095Y-124010057D02*
X162115714Y-123962438D01*
X162115714Y-123962438D02*
X162210952Y-123914819D01*
X162210952Y-123914819D02*
X162449047Y-123914819D01*
X162449047Y-123914819D02*
X162591904Y-123962438D01*
X162925238Y-123914819D02*
X163163333Y-124914819D01*
X163163333Y-124914819D02*
X163353809Y-124200533D01*
X163353809Y-124200533D02*
X163544285Y-124914819D01*
X163544285Y-124914819D02*
X163782381Y-123914819D01*
X164687142Y-124914819D02*
X164115714Y-124914819D01*
X164401428Y-124914819D02*
X164401428Y-123914819D01*
X164401428Y-123914819D02*
X164306190Y-124057676D01*
X164306190Y-124057676D02*
X164210952Y-124152914D01*
X164210952Y-124152914D02*
X164115714Y-124200533D01*
X165306190Y-123914819D02*
X165401428Y-123914819D01*
X165401428Y-123914819D02*
X165496666Y-123962438D01*
X165496666Y-123962438D02*
X165544285Y-124010057D01*
X165544285Y-124010057D02*
X165591904Y-124105295D01*
X165591904Y-124105295D02*
X165639523Y-124295771D01*
X165639523Y-124295771D02*
X165639523Y-124533866D01*
X165639523Y-124533866D02*
X165591904Y-124724342D01*
X165591904Y-124724342D02*
X165544285Y-124819580D01*
X165544285Y-124819580D02*
X165496666Y-124867200D01*
X165496666Y-124867200D02*
X165401428Y-124914819D01*
X165401428Y-124914819D02*
X165306190Y-124914819D01*
X165306190Y-124914819D02*
X165210952Y-124867200D01*
X165210952Y-124867200D02*
X165163333Y-124819580D01*
X165163333Y-124819580D02*
X165115714Y-124724342D01*
X165115714Y-124724342D02*
X165068095Y-124533866D01*
X165068095Y-124533866D02*
X165068095Y-124295771D01*
X165068095Y-124295771D02*
X165115714Y-124105295D01*
X165115714Y-124105295D02*
X165163333Y-124010057D01*
X165163333Y-124010057D02*
X165210952Y-123962438D01*
X165210952Y-123962438D02*
X165306190Y-123914819D01*
X138009333Y-90910580D02*
X137961714Y-90958200D01*
X137961714Y-90958200D02*
X137818857Y-91005819D01*
X137818857Y-91005819D02*
X137723619Y-91005819D01*
X137723619Y-91005819D02*
X137580762Y-90958200D01*
X137580762Y-90958200D02*
X137485524Y-90862961D01*
X137485524Y-90862961D02*
X137437905Y-90767723D01*
X137437905Y-90767723D02*
X137390286Y-90577247D01*
X137390286Y-90577247D02*
X137390286Y-90434390D01*
X137390286Y-90434390D02*
X137437905Y-90243914D01*
X137437905Y-90243914D02*
X137485524Y-90148676D01*
X137485524Y-90148676D02*
X137580762Y-90053438D01*
X137580762Y-90053438D02*
X137723619Y-90005819D01*
X137723619Y-90005819D02*
X137818857Y-90005819D01*
X137818857Y-90005819D02*
X137961714Y-90053438D01*
X137961714Y-90053438D02*
X138009333Y-90101057D01*
X138580762Y-90434390D02*
X138485524Y-90386771D01*
X138485524Y-90386771D02*
X138437905Y-90339152D01*
X138437905Y-90339152D02*
X138390286Y-90243914D01*
X138390286Y-90243914D02*
X138390286Y-90196295D01*
X138390286Y-90196295D02*
X138437905Y-90101057D01*
X138437905Y-90101057D02*
X138485524Y-90053438D01*
X138485524Y-90053438D02*
X138580762Y-90005819D01*
X138580762Y-90005819D02*
X138771238Y-90005819D01*
X138771238Y-90005819D02*
X138866476Y-90053438D01*
X138866476Y-90053438D02*
X138914095Y-90101057D01*
X138914095Y-90101057D02*
X138961714Y-90196295D01*
X138961714Y-90196295D02*
X138961714Y-90243914D01*
X138961714Y-90243914D02*
X138914095Y-90339152D01*
X138914095Y-90339152D02*
X138866476Y-90386771D01*
X138866476Y-90386771D02*
X138771238Y-90434390D01*
X138771238Y-90434390D02*
X138580762Y-90434390D01*
X138580762Y-90434390D02*
X138485524Y-90482009D01*
X138485524Y-90482009D02*
X138437905Y-90529628D01*
X138437905Y-90529628D02*
X138390286Y-90624866D01*
X138390286Y-90624866D02*
X138390286Y-90815342D01*
X138390286Y-90815342D02*
X138437905Y-90910580D01*
X138437905Y-90910580D02*
X138485524Y-90958200D01*
X138485524Y-90958200D02*
X138580762Y-91005819D01*
X138580762Y-91005819D02*
X138771238Y-91005819D01*
X138771238Y-91005819D02*
X138866476Y-90958200D01*
X138866476Y-90958200D02*
X138914095Y-90910580D01*
X138914095Y-90910580D02*
X138961714Y-90815342D01*
X138961714Y-90815342D02*
X138961714Y-90624866D01*
X138961714Y-90624866D02*
X138914095Y-90529628D01*
X138914095Y-90529628D02*
X138866476Y-90482009D01*
X138866476Y-90482009D02*
X138771238Y-90434390D01*
X142771905Y-114754819D02*
X142771905Y-113754819D01*
X142771905Y-113754819D02*
X143010000Y-113754819D01*
X143010000Y-113754819D02*
X143152857Y-113802438D01*
X143152857Y-113802438D02*
X143248095Y-113897676D01*
X143248095Y-113897676D02*
X143295714Y-113992914D01*
X143295714Y-113992914D02*
X143343333Y-114183390D01*
X143343333Y-114183390D02*
X143343333Y-114326247D01*
X143343333Y-114326247D02*
X143295714Y-114516723D01*
X143295714Y-114516723D02*
X143248095Y-114611961D01*
X143248095Y-114611961D02*
X143152857Y-114707200D01*
X143152857Y-114707200D02*
X143010000Y-114754819D01*
X143010000Y-114754819D02*
X142771905Y-114754819D01*
X144248095Y-113754819D02*
X143771905Y-113754819D01*
X143771905Y-113754819D02*
X143724286Y-114231009D01*
X143724286Y-114231009D02*
X143771905Y-114183390D01*
X143771905Y-114183390D02*
X143867143Y-114135771D01*
X143867143Y-114135771D02*
X144105238Y-114135771D01*
X144105238Y-114135771D02*
X144200476Y-114183390D01*
X144200476Y-114183390D02*
X144248095Y-114231009D01*
X144248095Y-114231009D02*
X144295714Y-114326247D01*
X144295714Y-114326247D02*
X144295714Y-114564342D01*
X144295714Y-114564342D02*
X144248095Y-114659580D01*
X144248095Y-114659580D02*
X144200476Y-114707200D01*
X144200476Y-114707200D02*
X144105238Y-114754819D01*
X144105238Y-114754819D02*
X143867143Y-114754819D01*
X143867143Y-114754819D02*
X143771905Y-114707200D01*
X143771905Y-114707200D02*
X143724286Y-114659580D01*
X150233142Y-80623580D02*
X150185523Y-80671200D01*
X150185523Y-80671200D02*
X150042666Y-80718819D01*
X150042666Y-80718819D02*
X149947428Y-80718819D01*
X149947428Y-80718819D02*
X149804571Y-80671200D01*
X149804571Y-80671200D02*
X149709333Y-80575961D01*
X149709333Y-80575961D02*
X149661714Y-80480723D01*
X149661714Y-80480723D02*
X149614095Y-80290247D01*
X149614095Y-80290247D02*
X149614095Y-80147390D01*
X149614095Y-80147390D02*
X149661714Y-79956914D01*
X149661714Y-79956914D02*
X149709333Y-79861676D01*
X149709333Y-79861676D02*
X149804571Y-79766438D01*
X149804571Y-79766438D02*
X149947428Y-79718819D01*
X149947428Y-79718819D02*
X150042666Y-79718819D01*
X150042666Y-79718819D02*
X150185523Y-79766438D01*
X150185523Y-79766438D02*
X150233142Y-79814057D01*
X151185523Y-80718819D02*
X150614095Y-80718819D01*
X150899809Y-80718819D02*
X150899809Y-79718819D01*
X150899809Y-79718819D02*
X150804571Y-79861676D01*
X150804571Y-79861676D02*
X150709333Y-79956914D01*
X150709333Y-79956914D02*
X150614095Y-80004533D01*
X152137904Y-80718819D02*
X151566476Y-80718819D01*
X151852190Y-80718819D02*
X151852190Y-79718819D01*
X151852190Y-79718819D02*
X151756952Y-79861676D01*
X151756952Y-79861676D02*
X151661714Y-79956914D01*
X151661714Y-79956914D02*
X151566476Y-80004533D01*
X117792667Y-112167200D02*
X117935524Y-112214819D01*
X117935524Y-112214819D02*
X118173619Y-112214819D01*
X118173619Y-112214819D02*
X118268857Y-112167200D01*
X118268857Y-112167200D02*
X118316476Y-112119580D01*
X118316476Y-112119580D02*
X118364095Y-112024342D01*
X118364095Y-112024342D02*
X118364095Y-111929104D01*
X118364095Y-111929104D02*
X118316476Y-111833866D01*
X118316476Y-111833866D02*
X118268857Y-111786247D01*
X118268857Y-111786247D02*
X118173619Y-111738628D01*
X118173619Y-111738628D02*
X117983143Y-111691009D01*
X117983143Y-111691009D02*
X117887905Y-111643390D01*
X117887905Y-111643390D02*
X117840286Y-111595771D01*
X117840286Y-111595771D02*
X117792667Y-111500533D01*
X117792667Y-111500533D02*
X117792667Y-111405295D01*
X117792667Y-111405295D02*
X117840286Y-111310057D01*
X117840286Y-111310057D02*
X117887905Y-111262438D01*
X117887905Y-111262438D02*
X117983143Y-111214819D01*
X117983143Y-111214819D02*
X118221238Y-111214819D01*
X118221238Y-111214819D02*
X118364095Y-111262438D01*
X118697429Y-111214819D02*
X118935524Y-112214819D01*
X118935524Y-112214819D02*
X119126000Y-111500533D01*
X119126000Y-111500533D02*
X119316476Y-112214819D01*
X119316476Y-112214819D02*
X119554572Y-111214819D01*
X119840286Y-111214819D02*
X120459333Y-111214819D01*
X120459333Y-111214819D02*
X120126000Y-111595771D01*
X120126000Y-111595771D02*
X120268857Y-111595771D01*
X120268857Y-111595771D02*
X120364095Y-111643390D01*
X120364095Y-111643390D02*
X120411714Y-111691009D01*
X120411714Y-111691009D02*
X120459333Y-111786247D01*
X120459333Y-111786247D02*
X120459333Y-112024342D01*
X120459333Y-112024342D02*
X120411714Y-112119580D01*
X120411714Y-112119580D02*
X120364095Y-112167200D01*
X120364095Y-112167200D02*
X120268857Y-112214819D01*
X120268857Y-112214819D02*
X119983143Y-112214819D01*
X119983143Y-112214819D02*
X119887905Y-112167200D01*
X119887905Y-112167200D02*
X119840286Y-112119580D01*
X154519333Y-58017580D02*
X154471714Y-58065200D01*
X154471714Y-58065200D02*
X154328857Y-58112819D01*
X154328857Y-58112819D02*
X154233619Y-58112819D01*
X154233619Y-58112819D02*
X154090762Y-58065200D01*
X154090762Y-58065200D02*
X153995524Y-57969961D01*
X153995524Y-57969961D02*
X153947905Y-57874723D01*
X153947905Y-57874723D02*
X153900286Y-57684247D01*
X153900286Y-57684247D02*
X153900286Y-57541390D01*
X153900286Y-57541390D02*
X153947905Y-57350914D01*
X153947905Y-57350914D02*
X153995524Y-57255676D01*
X153995524Y-57255676D02*
X154090762Y-57160438D01*
X154090762Y-57160438D02*
X154233619Y-57112819D01*
X154233619Y-57112819D02*
X154328857Y-57112819D01*
X154328857Y-57112819D02*
X154471714Y-57160438D01*
X154471714Y-57160438D02*
X154519333Y-57208057D01*
X154852667Y-57112819D02*
X155519333Y-57112819D01*
X155519333Y-57112819D02*
X155090762Y-58112819D01*
X162647333Y-94847580D02*
X162599714Y-94895200D01*
X162599714Y-94895200D02*
X162456857Y-94942819D01*
X162456857Y-94942819D02*
X162361619Y-94942819D01*
X162361619Y-94942819D02*
X162218762Y-94895200D01*
X162218762Y-94895200D02*
X162123524Y-94799961D01*
X162123524Y-94799961D02*
X162075905Y-94704723D01*
X162075905Y-94704723D02*
X162028286Y-94514247D01*
X162028286Y-94514247D02*
X162028286Y-94371390D01*
X162028286Y-94371390D02*
X162075905Y-94180914D01*
X162075905Y-94180914D02*
X162123524Y-94085676D01*
X162123524Y-94085676D02*
X162218762Y-93990438D01*
X162218762Y-93990438D02*
X162361619Y-93942819D01*
X162361619Y-93942819D02*
X162456857Y-93942819D01*
X162456857Y-93942819D02*
X162599714Y-93990438D01*
X162599714Y-93990438D02*
X162647333Y-94038057D01*
X163123524Y-94942819D02*
X163314000Y-94942819D01*
X163314000Y-94942819D02*
X163409238Y-94895200D01*
X163409238Y-94895200D02*
X163456857Y-94847580D01*
X163456857Y-94847580D02*
X163552095Y-94704723D01*
X163552095Y-94704723D02*
X163599714Y-94514247D01*
X163599714Y-94514247D02*
X163599714Y-94133295D01*
X163599714Y-94133295D02*
X163552095Y-94038057D01*
X163552095Y-94038057D02*
X163504476Y-93990438D01*
X163504476Y-93990438D02*
X163409238Y-93942819D01*
X163409238Y-93942819D02*
X163218762Y-93942819D01*
X163218762Y-93942819D02*
X163123524Y-93990438D01*
X163123524Y-93990438D02*
X163075905Y-94038057D01*
X163075905Y-94038057D02*
X163028286Y-94133295D01*
X163028286Y-94133295D02*
X163028286Y-94371390D01*
X163028286Y-94371390D02*
X163075905Y-94466628D01*
X163075905Y-94466628D02*
X163123524Y-94514247D01*
X163123524Y-94514247D02*
X163218762Y-94561866D01*
X163218762Y-94561866D02*
X163409238Y-94561866D01*
X163409238Y-94561866D02*
X163504476Y-94514247D01*
X163504476Y-94514247D02*
X163552095Y-94466628D01*
X163552095Y-94466628D02*
X163599714Y-94371390D01*
X150374833Y-96791819D02*
X150041500Y-96315628D01*
X149803405Y-96791819D02*
X149803405Y-95791819D01*
X149803405Y-95791819D02*
X150184357Y-95791819D01*
X150184357Y-95791819D02*
X150279595Y-95839438D01*
X150279595Y-95839438D02*
X150327214Y-95887057D01*
X150327214Y-95887057D02*
X150374833Y-95982295D01*
X150374833Y-95982295D02*
X150374833Y-96125152D01*
X150374833Y-96125152D02*
X150327214Y-96220390D01*
X150327214Y-96220390D02*
X150279595Y-96268009D01*
X150279595Y-96268009D02*
X150184357Y-96315628D01*
X150184357Y-96315628D02*
X149803405Y-96315628D01*
X151231976Y-95791819D02*
X151041500Y-95791819D01*
X151041500Y-95791819D02*
X150946262Y-95839438D01*
X150946262Y-95839438D02*
X150898643Y-95887057D01*
X150898643Y-95887057D02*
X150803405Y-96029914D01*
X150803405Y-96029914D02*
X150755786Y-96220390D01*
X150755786Y-96220390D02*
X150755786Y-96601342D01*
X150755786Y-96601342D02*
X150803405Y-96696580D01*
X150803405Y-96696580D02*
X150851024Y-96744200D01*
X150851024Y-96744200D02*
X150946262Y-96791819D01*
X150946262Y-96791819D02*
X151136738Y-96791819D01*
X151136738Y-96791819D02*
X151231976Y-96744200D01*
X151231976Y-96744200D02*
X151279595Y-96696580D01*
X151279595Y-96696580D02*
X151327214Y-96601342D01*
X151327214Y-96601342D02*
X151327214Y-96363247D01*
X151327214Y-96363247D02*
X151279595Y-96268009D01*
X151279595Y-96268009D02*
X151231976Y-96220390D01*
X151231976Y-96220390D02*
X151136738Y-96172771D01*
X151136738Y-96172771D02*
X150946262Y-96172771D01*
X150946262Y-96172771D02*
X150851024Y-96220390D01*
X150851024Y-96220390D02*
X150803405Y-96268009D01*
X150803405Y-96268009D02*
X150755786Y-96363247D01*
X160361333Y-100784819D02*
X160028000Y-100308628D01*
X159789905Y-100784819D02*
X159789905Y-99784819D01*
X159789905Y-99784819D02*
X160170857Y-99784819D01*
X160170857Y-99784819D02*
X160266095Y-99832438D01*
X160266095Y-99832438D02*
X160313714Y-99880057D01*
X160313714Y-99880057D02*
X160361333Y-99975295D01*
X160361333Y-99975295D02*
X160361333Y-100118152D01*
X160361333Y-100118152D02*
X160313714Y-100213390D01*
X160313714Y-100213390D02*
X160266095Y-100261009D01*
X160266095Y-100261009D02*
X160170857Y-100308628D01*
X160170857Y-100308628D02*
X159789905Y-100308628D01*
X160694667Y-99784819D02*
X161313714Y-99784819D01*
X161313714Y-99784819D02*
X160980381Y-100165771D01*
X160980381Y-100165771D02*
X161123238Y-100165771D01*
X161123238Y-100165771D02*
X161218476Y-100213390D01*
X161218476Y-100213390D02*
X161266095Y-100261009D01*
X161266095Y-100261009D02*
X161313714Y-100356247D01*
X161313714Y-100356247D02*
X161313714Y-100594342D01*
X161313714Y-100594342D02*
X161266095Y-100689580D01*
X161266095Y-100689580D02*
X161218476Y-100737200D01*
X161218476Y-100737200D02*
X161123238Y-100784819D01*
X161123238Y-100784819D02*
X160837524Y-100784819D01*
X160837524Y-100784819D02*
X160742286Y-100737200D01*
X160742286Y-100737200D02*
X160694667Y-100689580D01*
X127627142Y-48111580D02*
X127579523Y-48159200D01*
X127579523Y-48159200D02*
X127436666Y-48206819D01*
X127436666Y-48206819D02*
X127341428Y-48206819D01*
X127341428Y-48206819D02*
X127198571Y-48159200D01*
X127198571Y-48159200D02*
X127103333Y-48063961D01*
X127103333Y-48063961D02*
X127055714Y-47968723D01*
X127055714Y-47968723D02*
X127008095Y-47778247D01*
X127008095Y-47778247D02*
X127008095Y-47635390D01*
X127008095Y-47635390D02*
X127055714Y-47444914D01*
X127055714Y-47444914D02*
X127103333Y-47349676D01*
X127103333Y-47349676D02*
X127198571Y-47254438D01*
X127198571Y-47254438D02*
X127341428Y-47206819D01*
X127341428Y-47206819D02*
X127436666Y-47206819D01*
X127436666Y-47206819D02*
X127579523Y-47254438D01*
X127579523Y-47254438D02*
X127627142Y-47302057D01*
X128579523Y-48206819D02*
X128008095Y-48206819D01*
X128293809Y-48206819D02*
X128293809Y-47206819D01*
X128293809Y-47206819D02*
X128198571Y-47349676D01*
X128198571Y-47349676D02*
X128103333Y-47444914D01*
X128103333Y-47444914D02*
X128008095Y-47492533D01*
X129150952Y-47635390D02*
X129055714Y-47587771D01*
X129055714Y-47587771D02*
X129008095Y-47540152D01*
X129008095Y-47540152D02*
X128960476Y-47444914D01*
X128960476Y-47444914D02*
X128960476Y-47397295D01*
X128960476Y-47397295D02*
X129008095Y-47302057D01*
X129008095Y-47302057D02*
X129055714Y-47254438D01*
X129055714Y-47254438D02*
X129150952Y-47206819D01*
X129150952Y-47206819D02*
X129341428Y-47206819D01*
X129341428Y-47206819D02*
X129436666Y-47254438D01*
X129436666Y-47254438D02*
X129484285Y-47302057D01*
X129484285Y-47302057D02*
X129531904Y-47397295D01*
X129531904Y-47397295D02*
X129531904Y-47444914D01*
X129531904Y-47444914D02*
X129484285Y-47540152D01*
X129484285Y-47540152D02*
X129436666Y-47587771D01*
X129436666Y-47587771D02*
X129341428Y-47635390D01*
X129341428Y-47635390D02*
X129150952Y-47635390D01*
X129150952Y-47635390D02*
X129055714Y-47683009D01*
X129055714Y-47683009D02*
X129008095Y-47730628D01*
X129008095Y-47730628D02*
X128960476Y-47825866D01*
X128960476Y-47825866D02*
X128960476Y-48016342D01*
X128960476Y-48016342D02*
X129008095Y-48111580D01*
X129008095Y-48111580D02*
X129055714Y-48159200D01*
X129055714Y-48159200D02*
X129150952Y-48206819D01*
X129150952Y-48206819D02*
X129341428Y-48206819D01*
X129341428Y-48206819D02*
X129436666Y-48159200D01*
X129436666Y-48159200D02*
X129484285Y-48111580D01*
X129484285Y-48111580D02*
X129531904Y-48016342D01*
X129531904Y-48016342D02*
X129531904Y-47825866D01*
X129531904Y-47825866D02*
X129484285Y-47730628D01*
X129484285Y-47730628D02*
X129436666Y-47683009D01*
X129436666Y-47683009D02*
X129341428Y-47635390D01*
X121412095Y-54078319D02*
X121412095Y-54887842D01*
X121412095Y-54887842D02*
X121459714Y-54983080D01*
X121459714Y-54983080D02*
X121507333Y-55030700D01*
X121507333Y-55030700D02*
X121602571Y-55078319D01*
X121602571Y-55078319D02*
X121793047Y-55078319D01*
X121793047Y-55078319D02*
X121888285Y-55030700D01*
X121888285Y-55030700D02*
X121935904Y-54983080D01*
X121935904Y-54983080D02*
X121983523Y-54887842D01*
X121983523Y-54887842D02*
X121983523Y-54078319D01*
X122364476Y-54078319D02*
X123031142Y-54078319D01*
X123031142Y-54078319D02*
X122602571Y-55078319D01*
X139850905Y-44396819D02*
X139850905Y-43396819D01*
X139850905Y-43396819D02*
X140089000Y-43396819D01*
X140089000Y-43396819D02*
X140231857Y-43444438D01*
X140231857Y-43444438D02*
X140327095Y-43539676D01*
X140327095Y-43539676D02*
X140374714Y-43634914D01*
X140374714Y-43634914D02*
X140422333Y-43825390D01*
X140422333Y-43825390D02*
X140422333Y-43968247D01*
X140422333Y-43968247D02*
X140374714Y-44158723D01*
X140374714Y-44158723D02*
X140327095Y-44253961D01*
X140327095Y-44253961D02*
X140231857Y-44349200D01*
X140231857Y-44349200D02*
X140089000Y-44396819D01*
X140089000Y-44396819D02*
X139850905Y-44396819D01*
X140803286Y-43492057D02*
X140850905Y-43444438D01*
X140850905Y-43444438D02*
X140946143Y-43396819D01*
X140946143Y-43396819D02*
X141184238Y-43396819D01*
X141184238Y-43396819D02*
X141279476Y-43444438D01*
X141279476Y-43444438D02*
X141327095Y-43492057D01*
X141327095Y-43492057D02*
X141374714Y-43587295D01*
X141374714Y-43587295D02*
X141374714Y-43682533D01*
X141374714Y-43682533D02*
X141327095Y-43825390D01*
X141327095Y-43825390D02*
X140755667Y-44396819D01*
X140755667Y-44396819D02*
X141374714Y-44396819D01*
X145121333Y-57763580D02*
X145073714Y-57811200D01*
X145073714Y-57811200D02*
X144930857Y-57858819D01*
X144930857Y-57858819D02*
X144835619Y-57858819D01*
X144835619Y-57858819D02*
X144692762Y-57811200D01*
X144692762Y-57811200D02*
X144597524Y-57715961D01*
X144597524Y-57715961D02*
X144549905Y-57620723D01*
X144549905Y-57620723D02*
X144502286Y-57430247D01*
X144502286Y-57430247D02*
X144502286Y-57287390D01*
X144502286Y-57287390D02*
X144549905Y-57096914D01*
X144549905Y-57096914D02*
X144597524Y-57001676D01*
X144597524Y-57001676D02*
X144692762Y-56906438D01*
X144692762Y-56906438D02*
X144835619Y-56858819D01*
X144835619Y-56858819D02*
X144930857Y-56858819D01*
X144930857Y-56858819D02*
X145073714Y-56906438D01*
X145073714Y-56906438D02*
X145121333Y-56954057D01*
X145454667Y-56858819D02*
X146073714Y-56858819D01*
X146073714Y-56858819D02*
X145740381Y-57239771D01*
X145740381Y-57239771D02*
X145883238Y-57239771D01*
X145883238Y-57239771D02*
X145978476Y-57287390D01*
X145978476Y-57287390D02*
X146026095Y-57335009D01*
X146026095Y-57335009D02*
X146073714Y-57430247D01*
X146073714Y-57430247D02*
X146073714Y-57668342D01*
X146073714Y-57668342D02*
X146026095Y-57763580D01*
X146026095Y-57763580D02*
X145978476Y-57811200D01*
X145978476Y-57811200D02*
X145883238Y-57858819D01*
X145883238Y-57858819D02*
X145597524Y-57858819D01*
X145597524Y-57858819D02*
X145502286Y-57811200D01*
X145502286Y-57811200D02*
X145454667Y-57763580D01*
X143121142Y-80623580D02*
X143073523Y-80671200D01*
X143073523Y-80671200D02*
X142930666Y-80718819D01*
X142930666Y-80718819D02*
X142835428Y-80718819D01*
X142835428Y-80718819D02*
X142692571Y-80671200D01*
X142692571Y-80671200D02*
X142597333Y-80575961D01*
X142597333Y-80575961D02*
X142549714Y-80480723D01*
X142549714Y-80480723D02*
X142502095Y-80290247D01*
X142502095Y-80290247D02*
X142502095Y-80147390D01*
X142502095Y-80147390D02*
X142549714Y-79956914D01*
X142549714Y-79956914D02*
X142597333Y-79861676D01*
X142597333Y-79861676D02*
X142692571Y-79766438D01*
X142692571Y-79766438D02*
X142835428Y-79718819D01*
X142835428Y-79718819D02*
X142930666Y-79718819D01*
X142930666Y-79718819D02*
X143073523Y-79766438D01*
X143073523Y-79766438D02*
X143121142Y-79814057D01*
X144073523Y-80718819D02*
X143502095Y-80718819D01*
X143787809Y-80718819D02*
X143787809Y-79718819D01*
X143787809Y-79718819D02*
X143692571Y-79861676D01*
X143692571Y-79861676D02*
X143597333Y-79956914D01*
X143597333Y-79956914D02*
X143502095Y-80004533D01*
X144454476Y-79814057D02*
X144502095Y-79766438D01*
X144502095Y-79766438D02*
X144597333Y-79718819D01*
X144597333Y-79718819D02*
X144835428Y-79718819D01*
X144835428Y-79718819D02*
X144930666Y-79766438D01*
X144930666Y-79766438D02*
X144978285Y-79814057D01*
X144978285Y-79814057D02*
X145025904Y-79909295D01*
X145025904Y-79909295D02*
X145025904Y-80004533D01*
X145025904Y-80004533D02*
X144978285Y-80147390D01*
X144978285Y-80147390D02*
X144406857Y-80718819D01*
X144406857Y-80718819D02*
X145025904Y-80718819D01*
X127119142Y-85544819D02*
X126785809Y-85068628D01*
X126547714Y-85544819D02*
X126547714Y-84544819D01*
X126547714Y-84544819D02*
X126928666Y-84544819D01*
X126928666Y-84544819D02*
X127023904Y-84592438D01*
X127023904Y-84592438D02*
X127071523Y-84640057D01*
X127071523Y-84640057D02*
X127119142Y-84735295D01*
X127119142Y-84735295D02*
X127119142Y-84878152D01*
X127119142Y-84878152D02*
X127071523Y-84973390D01*
X127071523Y-84973390D02*
X127023904Y-85021009D01*
X127023904Y-85021009D02*
X126928666Y-85068628D01*
X126928666Y-85068628D02*
X126547714Y-85068628D01*
X128071523Y-85544819D02*
X127500095Y-85544819D01*
X127785809Y-85544819D02*
X127785809Y-84544819D01*
X127785809Y-84544819D02*
X127690571Y-84687676D01*
X127690571Y-84687676D02*
X127595333Y-84782914D01*
X127595333Y-84782914D02*
X127500095Y-84830533D01*
X128928666Y-84878152D02*
X128928666Y-85544819D01*
X128690571Y-84497200D02*
X128452476Y-85211485D01*
X128452476Y-85211485D02*
X129071523Y-85211485D01*
X133215142Y-114754819D02*
X132881809Y-114278628D01*
X132643714Y-114754819D02*
X132643714Y-113754819D01*
X132643714Y-113754819D02*
X133024666Y-113754819D01*
X133024666Y-113754819D02*
X133119904Y-113802438D01*
X133119904Y-113802438D02*
X133167523Y-113850057D01*
X133167523Y-113850057D02*
X133215142Y-113945295D01*
X133215142Y-113945295D02*
X133215142Y-114088152D01*
X133215142Y-114088152D02*
X133167523Y-114183390D01*
X133167523Y-114183390D02*
X133119904Y-114231009D01*
X133119904Y-114231009D02*
X133024666Y-114278628D01*
X133024666Y-114278628D02*
X132643714Y-114278628D01*
X133596095Y-113850057D02*
X133643714Y-113802438D01*
X133643714Y-113802438D02*
X133738952Y-113754819D01*
X133738952Y-113754819D02*
X133977047Y-113754819D01*
X133977047Y-113754819D02*
X134072285Y-113802438D01*
X134072285Y-113802438D02*
X134119904Y-113850057D01*
X134119904Y-113850057D02*
X134167523Y-113945295D01*
X134167523Y-113945295D02*
X134167523Y-114040533D01*
X134167523Y-114040533D02*
X134119904Y-114183390D01*
X134119904Y-114183390D02*
X133548476Y-114754819D01*
X133548476Y-114754819D02*
X134167523Y-114754819D01*
X134500857Y-113754819D02*
X135119904Y-113754819D01*
X135119904Y-113754819D02*
X134786571Y-114135771D01*
X134786571Y-114135771D02*
X134929428Y-114135771D01*
X134929428Y-114135771D02*
X135024666Y-114183390D01*
X135024666Y-114183390D02*
X135072285Y-114231009D01*
X135072285Y-114231009D02*
X135119904Y-114326247D01*
X135119904Y-114326247D02*
X135119904Y-114564342D01*
X135119904Y-114564342D02*
X135072285Y-114659580D01*
X135072285Y-114659580D02*
X135024666Y-114707200D01*
X135024666Y-114707200D02*
X134929428Y-114754819D01*
X134929428Y-114754819D02*
X134643714Y-114754819D01*
X134643714Y-114754819D02*
X134548476Y-114707200D01*
X134548476Y-114707200D02*
X134500857Y-114659580D01*
X161917142Y-108563580D02*
X161869523Y-108611200D01*
X161869523Y-108611200D02*
X161726666Y-108658819D01*
X161726666Y-108658819D02*
X161631428Y-108658819D01*
X161631428Y-108658819D02*
X161488571Y-108611200D01*
X161488571Y-108611200D02*
X161393333Y-108515961D01*
X161393333Y-108515961D02*
X161345714Y-108420723D01*
X161345714Y-108420723D02*
X161298095Y-108230247D01*
X161298095Y-108230247D02*
X161298095Y-108087390D01*
X161298095Y-108087390D02*
X161345714Y-107896914D01*
X161345714Y-107896914D02*
X161393333Y-107801676D01*
X161393333Y-107801676D02*
X161488571Y-107706438D01*
X161488571Y-107706438D02*
X161631428Y-107658819D01*
X161631428Y-107658819D02*
X161726666Y-107658819D01*
X161726666Y-107658819D02*
X161869523Y-107706438D01*
X161869523Y-107706438D02*
X161917142Y-107754057D01*
X162869523Y-108658819D02*
X162298095Y-108658819D01*
X162583809Y-108658819D02*
X162583809Y-107658819D01*
X162583809Y-107658819D02*
X162488571Y-107801676D01*
X162488571Y-107801676D02*
X162393333Y-107896914D01*
X162393333Y-107896914D02*
X162298095Y-107944533D01*
X163488571Y-107658819D02*
X163583809Y-107658819D01*
X163583809Y-107658819D02*
X163679047Y-107706438D01*
X163679047Y-107706438D02*
X163726666Y-107754057D01*
X163726666Y-107754057D02*
X163774285Y-107849295D01*
X163774285Y-107849295D02*
X163821904Y-108039771D01*
X163821904Y-108039771D02*
X163821904Y-108277866D01*
X163821904Y-108277866D02*
X163774285Y-108468342D01*
X163774285Y-108468342D02*
X163726666Y-108563580D01*
X163726666Y-108563580D02*
X163679047Y-108611200D01*
X163679047Y-108611200D02*
X163583809Y-108658819D01*
X163583809Y-108658819D02*
X163488571Y-108658819D01*
X163488571Y-108658819D02*
X163393333Y-108611200D01*
X163393333Y-108611200D02*
X163345714Y-108563580D01*
X163345714Y-108563580D02*
X163298095Y-108468342D01*
X163298095Y-108468342D02*
X163250476Y-108277866D01*
X163250476Y-108277866D02*
X163250476Y-108039771D01*
X163250476Y-108039771D02*
X163298095Y-107849295D01*
X163298095Y-107849295D02*
X163345714Y-107754057D01*
X163345714Y-107754057D02*
X163393333Y-107706438D01*
X163393333Y-107706438D02*
X163488571Y-107658819D01*
X117792667Y-127407200D02*
X117935524Y-127454819D01*
X117935524Y-127454819D02*
X118173619Y-127454819D01*
X118173619Y-127454819D02*
X118268857Y-127407200D01*
X118268857Y-127407200D02*
X118316476Y-127359580D01*
X118316476Y-127359580D02*
X118364095Y-127264342D01*
X118364095Y-127264342D02*
X118364095Y-127169104D01*
X118364095Y-127169104D02*
X118316476Y-127073866D01*
X118316476Y-127073866D02*
X118268857Y-127026247D01*
X118268857Y-127026247D02*
X118173619Y-126978628D01*
X118173619Y-126978628D02*
X117983143Y-126931009D01*
X117983143Y-126931009D02*
X117887905Y-126883390D01*
X117887905Y-126883390D02*
X117840286Y-126835771D01*
X117840286Y-126835771D02*
X117792667Y-126740533D01*
X117792667Y-126740533D02*
X117792667Y-126645295D01*
X117792667Y-126645295D02*
X117840286Y-126550057D01*
X117840286Y-126550057D02*
X117887905Y-126502438D01*
X117887905Y-126502438D02*
X117983143Y-126454819D01*
X117983143Y-126454819D02*
X118221238Y-126454819D01*
X118221238Y-126454819D02*
X118364095Y-126502438D01*
X118697429Y-126454819D02*
X118935524Y-127454819D01*
X118935524Y-127454819D02*
X119126000Y-126740533D01*
X119126000Y-126740533D02*
X119316476Y-127454819D01*
X119316476Y-127454819D02*
X119554572Y-126454819D01*
X120364095Y-126454819D02*
X120173619Y-126454819D01*
X120173619Y-126454819D02*
X120078381Y-126502438D01*
X120078381Y-126502438D02*
X120030762Y-126550057D01*
X120030762Y-126550057D02*
X119935524Y-126692914D01*
X119935524Y-126692914D02*
X119887905Y-126883390D01*
X119887905Y-126883390D02*
X119887905Y-127264342D01*
X119887905Y-127264342D02*
X119935524Y-127359580D01*
X119935524Y-127359580D02*
X119983143Y-127407200D01*
X119983143Y-127407200D02*
X120078381Y-127454819D01*
X120078381Y-127454819D02*
X120268857Y-127454819D01*
X120268857Y-127454819D02*
X120364095Y-127407200D01*
X120364095Y-127407200D02*
X120411714Y-127359580D01*
X120411714Y-127359580D02*
X120459333Y-127264342D01*
X120459333Y-127264342D02*
X120459333Y-127026247D01*
X120459333Y-127026247D02*
X120411714Y-126931009D01*
X120411714Y-126931009D02*
X120364095Y-126883390D01*
X120364095Y-126883390D02*
X120268857Y-126835771D01*
X120268857Y-126835771D02*
X120078381Y-126835771D01*
X120078381Y-126835771D02*
X119983143Y-126883390D01*
X119983143Y-126883390D02*
X119935524Y-126931009D01*
X119935524Y-126931009D02*
X119887905Y-127026247D01*
X104309586Y-78111964D02*
X104309586Y-78826249D01*
X104309586Y-78826249D02*
X104261967Y-78969106D01*
X104261967Y-78969106D02*
X104166729Y-79064345D01*
X104166729Y-79064345D02*
X104023872Y-79111964D01*
X104023872Y-79111964D02*
X103928634Y-79111964D01*
X104690539Y-78111964D02*
X105309586Y-78111964D01*
X105309586Y-78111964D02*
X104976253Y-78492916D01*
X104976253Y-78492916D02*
X105119110Y-78492916D01*
X105119110Y-78492916D02*
X105214348Y-78540535D01*
X105214348Y-78540535D02*
X105261967Y-78588154D01*
X105261967Y-78588154D02*
X105309586Y-78683392D01*
X105309586Y-78683392D02*
X105309586Y-78921487D01*
X105309586Y-78921487D02*
X105261967Y-79016725D01*
X105261967Y-79016725D02*
X105214348Y-79064345D01*
X105214348Y-79064345D02*
X105119110Y-79111964D01*
X105119110Y-79111964D02*
X104833396Y-79111964D01*
X104833396Y-79111964D02*
X104738158Y-79064345D01*
X104738158Y-79064345D02*
X104690539Y-79016725D01*
D12*
X106203491Y-68740945D02*
X106289206Y-68769516D01*
X106289206Y-68769516D02*
X106432063Y-68769516D01*
X106432063Y-68769516D02*
X106489206Y-68740945D01*
X106489206Y-68740945D02*
X106517777Y-68712373D01*
X106517777Y-68712373D02*
X106546348Y-68655230D01*
X106546348Y-68655230D02*
X106546348Y-68598087D01*
X106546348Y-68598087D02*
X106517777Y-68540945D01*
X106517777Y-68540945D02*
X106489206Y-68512373D01*
X106489206Y-68512373D02*
X106432063Y-68483802D01*
X106432063Y-68483802D02*
X106317777Y-68455230D01*
X106317777Y-68455230D02*
X106260634Y-68426659D01*
X106260634Y-68426659D02*
X106232063Y-68398087D01*
X106232063Y-68398087D02*
X106203491Y-68340945D01*
X106203491Y-68340945D02*
X106203491Y-68283802D01*
X106203491Y-68283802D02*
X106232063Y-68226659D01*
X106232063Y-68226659D02*
X106260634Y-68198087D01*
X106260634Y-68198087D02*
X106317777Y-68169516D01*
X106317777Y-68169516D02*
X106460634Y-68169516D01*
X106460634Y-68169516D02*
X106546348Y-68198087D01*
X106803492Y-68769516D02*
X106803492Y-68169516D01*
X106803492Y-68169516D02*
X106946349Y-68169516D01*
X106946349Y-68169516D02*
X107032063Y-68198087D01*
X107032063Y-68198087D02*
X107089206Y-68255230D01*
X107089206Y-68255230D02*
X107117777Y-68312373D01*
X107117777Y-68312373D02*
X107146349Y-68426659D01*
X107146349Y-68426659D02*
X107146349Y-68512373D01*
X107146349Y-68512373D02*
X107117777Y-68626659D01*
X107117777Y-68626659D02*
X107089206Y-68683802D01*
X107089206Y-68683802D02*
X107032063Y-68740945D01*
X107032063Y-68740945D02*
X106946349Y-68769516D01*
X106946349Y-68769516D02*
X106803492Y-68769516D01*
X107374920Y-68598087D02*
X107660635Y-68598087D01*
X107317777Y-68769516D02*
X107517777Y-68169516D01*
X107517777Y-68169516D02*
X107717777Y-68769516D01*
X108346349Y-68140945D02*
X107832063Y-68912373D01*
X108546349Y-68769516D02*
X108546349Y-68169516D01*
X108546349Y-68169516D02*
X108746349Y-68598087D01*
X108746349Y-68598087D02*
X108946349Y-68169516D01*
X108946349Y-68169516D02*
X108946349Y-68769516D01*
X109346348Y-68169516D02*
X109460634Y-68169516D01*
X109460634Y-68169516D02*
X109517777Y-68198087D01*
X109517777Y-68198087D02*
X109574920Y-68255230D01*
X109574920Y-68255230D02*
X109603491Y-68369516D01*
X109603491Y-68369516D02*
X109603491Y-68569516D01*
X109603491Y-68569516D02*
X109574920Y-68683802D01*
X109574920Y-68683802D02*
X109517777Y-68740945D01*
X109517777Y-68740945D02*
X109460634Y-68769516D01*
X109460634Y-68769516D02*
X109346348Y-68769516D01*
X109346348Y-68769516D02*
X109289206Y-68740945D01*
X109289206Y-68740945D02*
X109232063Y-68683802D01*
X109232063Y-68683802D02*
X109203491Y-68569516D01*
X109203491Y-68569516D02*
X109203491Y-68369516D01*
X109203491Y-68369516D02*
X109232063Y-68255230D01*
X109232063Y-68255230D02*
X109289206Y-68198087D01*
X109289206Y-68198087D02*
X109346348Y-68169516D01*
X109832062Y-68740945D02*
X109917777Y-68769516D01*
X109917777Y-68769516D02*
X110060634Y-68769516D01*
X110060634Y-68769516D02*
X110117777Y-68740945D01*
X110117777Y-68740945D02*
X110146348Y-68712373D01*
X110146348Y-68712373D02*
X110174919Y-68655230D01*
X110174919Y-68655230D02*
X110174919Y-68598087D01*
X110174919Y-68598087D02*
X110146348Y-68540945D01*
X110146348Y-68540945D02*
X110117777Y-68512373D01*
X110117777Y-68512373D02*
X110060634Y-68483802D01*
X110060634Y-68483802D02*
X109946348Y-68455230D01*
X109946348Y-68455230D02*
X109889205Y-68426659D01*
X109889205Y-68426659D02*
X109860634Y-68398087D01*
X109860634Y-68398087D02*
X109832062Y-68340945D01*
X109832062Y-68340945D02*
X109832062Y-68283802D01*
X109832062Y-68283802D02*
X109860634Y-68226659D01*
X109860634Y-68226659D02*
X109889205Y-68198087D01*
X109889205Y-68198087D02*
X109946348Y-68169516D01*
X109946348Y-68169516D02*
X110089205Y-68169516D01*
X110089205Y-68169516D02*
X110174919Y-68198087D01*
X110432063Y-68769516D02*
X110432063Y-68169516D01*
X106546348Y-75945087D02*
X106489206Y-75916516D01*
X106489206Y-75916516D02*
X106403491Y-75916516D01*
X106403491Y-75916516D02*
X106317777Y-75945087D01*
X106317777Y-75945087D02*
X106260634Y-76002230D01*
X106260634Y-76002230D02*
X106232063Y-76059373D01*
X106232063Y-76059373D02*
X106203491Y-76173659D01*
X106203491Y-76173659D02*
X106203491Y-76259373D01*
X106203491Y-76259373D02*
X106232063Y-76373659D01*
X106232063Y-76373659D02*
X106260634Y-76430802D01*
X106260634Y-76430802D02*
X106317777Y-76487945D01*
X106317777Y-76487945D02*
X106403491Y-76516516D01*
X106403491Y-76516516D02*
X106460634Y-76516516D01*
X106460634Y-76516516D02*
X106546348Y-76487945D01*
X106546348Y-76487945D02*
X106574920Y-76459373D01*
X106574920Y-76459373D02*
X106574920Y-76259373D01*
X106574920Y-76259373D02*
X106460634Y-76259373D01*
X106832063Y-76516516D02*
X106832063Y-75916516D01*
X106832063Y-75916516D02*
X107174920Y-76516516D01*
X107174920Y-76516516D02*
X107174920Y-75916516D01*
X107460634Y-76516516D02*
X107460634Y-75916516D01*
X107460634Y-75916516D02*
X107603491Y-75916516D01*
X107603491Y-75916516D02*
X107689205Y-75945087D01*
X107689205Y-75945087D02*
X107746348Y-76002230D01*
X107746348Y-76002230D02*
X107774919Y-76059373D01*
X107774919Y-76059373D02*
X107803491Y-76173659D01*
X107803491Y-76173659D02*
X107803491Y-76259373D01*
X107803491Y-76259373D02*
X107774919Y-76373659D01*
X107774919Y-76373659D02*
X107746348Y-76430802D01*
X107746348Y-76430802D02*
X107689205Y-76487945D01*
X107689205Y-76487945D02*
X107603491Y-76516516D01*
X107603491Y-76516516D02*
X107460634Y-76516516D01*
X106203491Y-71407945D02*
X106289206Y-71436516D01*
X106289206Y-71436516D02*
X106432063Y-71436516D01*
X106432063Y-71436516D02*
X106489206Y-71407945D01*
X106489206Y-71407945D02*
X106517777Y-71379373D01*
X106517777Y-71379373D02*
X106546348Y-71322230D01*
X106546348Y-71322230D02*
X106546348Y-71265087D01*
X106546348Y-71265087D02*
X106517777Y-71207945D01*
X106517777Y-71207945D02*
X106489206Y-71179373D01*
X106489206Y-71179373D02*
X106432063Y-71150802D01*
X106432063Y-71150802D02*
X106317777Y-71122230D01*
X106317777Y-71122230D02*
X106260634Y-71093659D01*
X106260634Y-71093659D02*
X106232063Y-71065087D01*
X106232063Y-71065087D02*
X106203491Y-71007945D01*
X106203491Y-71007945D02*
X106203491Y-70950802D01*
X106203491Y-70950802D02*
X106232063Y-70893659D01*
X106232063Y-70893659D02*
X106260634Y-70865087D01*
X106260634Y-70865087D02*
X106317777Y-70836516D01*
X106317777Y-70836516D02*
X106460634Y-70836516D01*
X106460634Y-70836516D02*
X106546348Y-70865087D01*
X107146349Y-71379373D02*
X107117777Y-71407945D01*
X107117777Y-71407945D02*
X107032063Y-71436516D01*
X107032063Y-71436516D02*
X106974920Y-71436516D01*
X106974920Y-71436516D02*
X106889206Y-71407945D01*
X106889206Y-71407945D02*
X106832063Y-71350802D01*
X106832063Y-71350802D02*
X106803492Y-71293659D01*
X106803492Y-71293659D02*
X106774920Y-71179373D01*
X106774920Y-71179373D02*
X106774920Y-71093659D01*
X106774920Y-71093659D02*
X106803492Y-70979373D01*
X106803492Y-70979373D02*
X106832063Y-70922230D01*
X106832063Y-70922230D02*
X106889206Y-70865087D01*
X106889206Y-70865087D02*
X106974920Y-70836516D01*
X106974920Y-70836516D02*
X107032063Y-70836516D01*
X107032063Y-70836516D02*
X107117777Y-70865087D01*
X107117777Y-70865087D02*
X107146349Y-70893659D01*
X107689206Y-71436516D02*
X107403492Y-71436516D01*
X107403492Y-71436516D02*
X107403492Y-70836516D01*
X108317777Y-70807945D02*
X107803491Y-71579373D01*
X108489205Y-71407945D02*
X108574920Y-71436516D01*
X108574920Y-71436516D02*
X108717777Y-71436516D01*
X108717777Y-71436516D02*
X108774920Y-71407945D01*
X108774920Y-71407945D02*
X108803491Y-71379373D01*
X108803491Y-71379373D02*
X108832062Y-71322230D01*
X108832062Y-71322230D02*
X108832062Y-71265087D01*
X108832062Y-71265087D02*
X108803491Y-71207945D01*
X108803491Y-71207945D02*
X108774920Y-71179373D01*
X108774920Y-71179373D02*
X108717777Y-71150802D01*
X108717777Y-71150802D02*
X108603491Y-71122230D01*
X108603491Y-71122230D02*
X108546348Y-71093659D01*
X108546348Y-71093659D02*
X108517777Y-71065087D01*
X108517777Y-71065087D02*
X108489205Y-71007945D01*
X108489205Y-71007945D02*
X108489205Y-70950802D01*
X108489205Y-70950802D02*
X108517777Y-70893659D01*
X108517777Y-70893659D02*
X108546348Y-70865087D01*
X108546348Y-70865087D02*
X108603491Y-70836516D01*
X108603491Y-70836516D02*
X108746348Y-70836516D01*
X108746348Y-70836516D02*
X108832062Y-70865087D01*
X109432063Y-71379373D02*
X109403491Y-71407945D01*
X109403491Y-71407945D02*
X109317777Y-71436516D01*
X109317777Y-71436516D02*
X109260634Y-71436516D01*
X109260634Y-71436516D02*
X109174920Y-71407945D01*
X109174920Y-71407945D02*
X109117777Y-71350802D01*
X109117777Y-71350802D02*
X109089206Y-71293659D01*
X109089206Y-71293659D02*
X109060634Y-71179373D01*
X109060634Y-71179373D02*
X109060634Y-71093659D01*
X109060634Y-71093659D02*
X109089206Y-70979373D01*
X109089206Y-70979373D02*
X109117777Y-70922230D01*
X109117777Y-70922230D02*
X109174920Y-70865087D01*
X109174920Y-70865087D02*
X109260634Y-70836516D01*
X109260634Y-70836516D02*
X109317777Y-70836516D01*
X109317777Y-70836516D02*
X109403491Y-70865087D01*
X109403491Y-70865087D02*
X109432063Y-70893659D01*
X109689206Y-71436516D02*
X109689206Y-70836516D01*
X110032063Y-71436516D02*
X109774920Y-71093659D01*
X110032063Y-70836516D02*
X109689206Y-71179373D01*
X106146348Y-73249516D02*
X106346348Y-73849516D01*
X106346348Y-73849516D02*
X106546348Y-73249516D01*
X107089206Y-73792373D02*
X107060634Y-73820945D01*
X107060634Y-73820945D02*
X106974920Y-73849516D01*
X106974920Y-73849516D02*
X106917777Y-73849516D01*
X106917777Y-73849516D02*
X106832063Y-73820945D01*
X106832063Y-73820945D02*
X106774920Y-73763802D01*
X106774920Y-73763802D02*
X106746349Y-73706659D01*
X106746349Y-73706659D02*
X106717777Y-73592373D01*
X106717777Y-73592373D02*
X106717777Y-73506659D01*
X106717777Y-73506659D02*
X106746349Y-73392373D01*
X106746349Y-73392373D02*
X106774920Y-73335230D01*
X106774920Y-73335230D02*
X106832063Y-73278087D01*
X106832063Y-73278087D02*
X106917777Y-73249516D01*
X106917777Y-73249516D02*
X106974920Y-73249516D01*
X106974920Y-73249516D02*
X107060634Y-73278087D01*
X107060634Y-73278087D02*
X107089206Y-73306659D01*
X107689206Y-73792373D02*
X107660634Y-73820945D01*
X107660634Y-73820945D02*
X107574920Y-73849516D01*
X107574920Y-73849516D02*
X107517777Y-73849516D01*
X107517777Y-73849516D02*
X107432063Y-73820945D01*
X107432063Y-73820945D02*
X107374920Y-73763802D01*
X107374920Y-73763802D02*
X107346349Y-73706659D01*
X107346349Y-73706659D02*
X107317777Y-73592373D01*
X107317777Y-73592373D02*
X107317777Y-73506659D01*
X107317777Y-73506659D02*
X107346349Y-73392373D01*
X107346349Y-73392373D02*
X107374920Y-73335230D01*
X107374920Y-73335230D02*
X107432063Y-73278087D01*
X107432063Y-73278087D02*
X107517777Y-73249516D01*
X107517777Y-73249516D02*
X107574920Y-73249516D01*
X107574920Y-73249516D02*
X107660634Y-73278087D01*
X107660634Y-73278087D02*
X107689206Y-73306659D01*
X106574920Y-66356516D02*
X106374920Y-66070802D01*
X106232063Y-66356516D02*
X106232063Y-65756516D01*
X106232063Y-65756516D02*
X106460634Y-65756516D01*
X106460634Y-65756516D02*
X106517777Y-65785087D01*
X106517777Y-65785087D02*
X106546348Y-65813659D01*
X106546348Y-65813659D02*
X106574920Y-65870802D01*
X106574920Y-65870802D02*
X106574920Y-65956516D01*
X106574920Y-65956516D02*
X106546348Y-66013659D01*
X106546348Y-66013659D02*
X106517777Y-66042230D01*
X106517777Y-66042230D02*
X106460634Y-66070802D01*
X106460634Y-66070802D02*
X106232063Y-66070802D01*
X106803491Y-66327945D02*
X106889206Y-66356516D01*
X106889206Y-66356516D02*
X107032063Y-66356516D01*
X107032063Y-66356516D02*
X107089206Y-66327945D01*
X107089206Y-66327945D02*
X107117777Y-66299373D01*
X107117777Y-66299373D02*
X107146348Y-66242230D01*
X107146348Y-66242230D02*
X107146348Y-66185087D01*
X107146348Y-66185087D02*
X107117777Y-66127945D01*
X107117777Y-66127945D02*
X107089206Y-66099373D01*
X107089206Y-66099373D02*
X107032063Y-66070802D01*
X107032063Y-66070802D02*
X106917777Y-66042230D01*
X106917777Y-66042230D02*
X106860634Y-66013659D01*
X106860634Y-66013659D02*
X106832063Y-65985087D01*
X106832063Y-65985087D02*
X106803491Y-65927945D01*
X106803491Y-65927945D02*
X106803491Y-65870802D01*
X106803491Y-65870802D02*
X106832063Y-65813659D01*
X106832063Y-65813659D02*
X106860634Y-65785087D01*
X106860634Y-65785087D02*
X106917777Y-65756516D01*
X106917777Y-65756516D02*
X107060634Y-65756516D01*
X107060634Y-65756516D02*
X107146348Y-65785087D01*
X107317777Y-65756516D02*
X107660635Y-65756516D01*
X107489206Y-66356516D02*
X107489206Y-65756516D01*
X106232063Y-63689516D02*
X106232063Y-63089516D01*
X106232063Y-63089516D02*
X106374920Y-63089516D01*
X106374920Y-63089516D02*
X106460634Y-63118087D01*
X106460634Y-63118087D02*
X106517777Y-63175230D01*
X106517777Y-63175230D02*
X106546348Y-63232373D01*
X106546348Y-63232373D02*
X106574920Y-63346659D01*
X106574920Y-63346659D02*
X106574920Y-63432373D01*
X106574920Y-63432373D02*
X106546348Y-63546659D01*
X106546348Y-63546659D02*
X106517777Y-63603802D01*
X106517777Y-63603802D02*
X106460634Y-63660945D01*
X106460634Y-63660945D02*
X106374920Y-63689516D01*
X106374920Y-63689516D02*
X106232063Y-63689516D01*
X107174920Y-63632373D02*
X107146348Y-63660945D01*
X107146348Y-63660945D02*
X107060634Y-63689516D01*
X107060634Y-63689516D02*
X107003491Y-63689516D01*
X107003491Y-63689516D02*
X106917777Y-63660945D01*
X106917777Y-63660945D02*
X106860634Y-63603802D01*
X106860634Y-63603802D02*
X106832063Y-63546659D01*
X106832063Y-63546659D02*
X106803491Y-63432373D01*
X106803491Y-63432373D02*
X106803491Y-63346659D01*
X106803491Y-63346659D02*
X106832063Y-63232373D01*
X106832063Y-63232373D02*
X106860634Y-63175230D01*
X106860634Y-63175230D02*
X106917777Y-63118087D01*
X106917777Y-63118087D02*
X107003491Y-63089516D01*
X107003491Y-63089516D02*
X107060634Y-63089516D01*
X107060634Y-63089516D02*
X107146348Y-63118087D01*
X107146348Y-63118087D02*
X107174920Y-63146659D01*
X106574920Y-61219373D02*
X106546348Y-61247945D01*
X106546348Y-61247945D02*
X106460634Y-61276516D01*
X106460634Y-61276516D02*
X106403491Y-61276516D01*
X106403491Y-61276516D02*
X106317777Y-61247945D01*
X106317777Y-61247945D02*
X106260634Y-61190802D01*
X106260634Y-61190802D02*
X106232063Y-61133659D01*
X106232063Y-61133659D02*
X106203491Y-61019373D01*
X106203491Y-61019373D02*
X106203491Y-60933659D01*
X106203491Y-60933659D02*
X106232063Y-60819373D01*
X106232063Y-60819373D02*
X106260634Y-60762230D01*
X106260634Y-60762230D02*
X106317777Y-60705087D01*
X106317777Y-60705087D02*
X106403491Y-60676516D01*
X106403491Y-60676516D02*
X106460634Y-60676516D01*
X106460634Y-60676516D02*
X106546348Y-60705087D01*
X106546348Y-60705087D02*
X106574920Y-60733659D01*
X106803491Y-61247945D02*
X106889206Y-61276516D01*
X106889206Y-61276516D02*
X107032063Y-61276516D01*
X107032063Y-61276516D02*
X107089206Y-61247945D01*
X107089206Y-61247945D02*
X107117777Y-61219373D01*
X107117777Y-61219373D02*
X107146348Y-61162230D01*
X107146348Y-61162230D02*
X107146348Y-61105087D01*
X107146348Y-61105087D02*
X107117777Y-61047945D01*
X107117777Y-61047945D02*
X107089206Y-61019373D01*
X107089206Y-61019373D02*
X107032063Y-60990802D01*
X107032063Y-60990802D02*
X106917777Y-60962230D01*
X106917777Y-60962230D02*
X106860634Y-60933659D01*
X106860634Y-60933659D02*
X106832063Y-60905087D01*
X106832063Y-60905087D02*
X106803491Y-60847945D01*
X106803491Y-60847945D02*
X106803491Y-60790802D01*
X106803491Y-60790802D02*
X106832063Y-60733659D01*
X106832063Y-60733659D02*
X106860634Y-60705087D01*
X106860634Y-60705087D02*
X106917777Y-60676516D01*
X106917777Y-60676516D02*
X107060634Y-60676516D01*
X107060634Y-60676516D02*
X107146348Y-60705087D01*
D13*
X124155252Y-41508000D02*
X122732748Y-41508000D01*
X124155252Y-43328000D02*
X122732748Y-43328000D01*
X123042000Y-50850748D02*
X123042000Y-52273252D01*
X124862000Y-50850748D02*
X124862000Y-52273252D01*
X116438000Y-50850748D02*
X116438000Y-52273252D01*
X118258000Y-50850748D02*
X118258000Y-52273252D01*
X168336000Y-81026000D02*
G75*
G03*
X168336000Y-81026000I-950000J0D01*
G01*
X173416000Y-59690000D02*
G75*
G03*
X173416000Y-59690000I-950000J0D01*
G01*
X163321276Y-102093500D02*
X163830724Y-102093500D01*
X163321276Y-103138500D02*
X163830724Y-103138500D01*
X163154000Y-86020000D02*
X163154000Y-86195000D01*
X162479000Y-89240000D02*
X163154000Y-89240000D01*
X162479000Y-86020000D02*
X163154000Y-86020000D01*
X160609000Y-89240000D02*
X159934000Y-89240000D01*
X160609000Y-86020000D02*
X159934000Y-86020000D01*
X159934000Y-89240000D02*
X159934000Y-89065000D01*
X159934000Y-86020000D02*
X159934000Y-86195000D01*
X158953252Y-55774000D02*
X157530748Y-55774000D01*
X158953252Y-53954000D02*
X157530748Y-53954000D01*
X130809276Y-89647500D02*
X131318724Y-89647500D01*
X130809276Y-90692500D02*
X131318724Y-90692500D01*
X157160000Y-85090000D02*
G75*
G03*
X157160000Y-85090000I-950000J0D01*
G01*
X169752000Y-93472000D02*
X169752000Y-95222000D01*
X169752000Y-95222000D02*
X170302000Y-95222000D01*
X169752000Y-104422000D02*
X170302000Y-104422000D01*
X169752000Y-106172000D02*
X169752000Y-104422000D01*
X169752000Y-106172000D02*
X170302000Y-106172000D01*
X170302000Y-93472000D02*
X169752000Y-93472000D01*
X172252000Y-103522000D02*
X172252000Y-96122000D01*
X174202000Y-106172000D02*
X177352000Y-106172000D01*
X177352000Y-93472000D02*
X174202000Y-93472000D01*
X177352000Y-106172000D02*
X177352000Y-93472000D01*
X167400500Y-98805276D02*
X167400500Y-99314724D01*
X166355500Y-98805276D02*
X166355500Y-99314724D01*
X137915000Y-57550267D02*
X137915000Y-57257733D01*
X138935000Y-57550267D02*
X138935000Y-57257733D01*
X142489000Y-112445000D02*
X142489000Y-110975000D01*
X142489000Y-110975000D02*
X140029000Y-110975000D01*
X140029000Y-112445000D02*
X142489000Y-112445000D01*
X150622000Y-99228000D02*
X147697000Y-99228000D01*
X150622000Y-99228000D02*
X152122000Y-99228000D01*
X150622000Y-102448000D02*
X149122000Y-102448000D01*
X150622000Y-102448000D02*
X152122000Y-102448000D01*
X116785000Y-75045000D02*
X167705000Y-75045000D01*
X167705000Y-75045000D02*
X167705000Y-62125000D01*
X116785000Y-69585000D02*
X116785000Y-75045000D01*
X116785000Y-62125000D02*
X116785000Y-67585000D01*
X167705000Y-62125000D02*
X116785000Y-62125000D01*
X116785000Y-69585000D02*
G75*
G03*
X116785000Y-67585000I0J1000000D01*
G01*
X130420000Y-41683000D02*
X130420000Y-43153000D01*
X130420000Y-43153000D02*
X132880000Y-43153000D01*
X132880000Y-41683000D02*
X130420000Y-41683000D01*
X120590000Y-99374000D02*
X120590000Y-98044000D01*
X121920000Y-99374000D02*
X120590000Y-99374000D01*
X138283733Y-93089000D02*
X138576267Y-93089000D01*
X138283733Y-94109000D02*
X138576267Y-94109000D01*
X137228724Y-112282500D02*
X136719276Y-112282500D01*
X137228724Y-111237500D02*
X136719276Y-111237500D01*
D11*
X141695000Y-44425000D02*
X141695000Y-45000000D01*
X141695000Y-44425000D02*
X147445000Y-44425000D01*
X141695000Y-45000000D02*
X140095000Y-45000000D01*
X141695000Y-55075000D02*
X141695000Y-54425000D01*
X141695000Y-55075000D02*
X147445000Y-55075000D01*
X147445000Y-44425000D02*
X147445000Y-45075000D01*
X147445000Y-55075000D02*
X147445000Y-54425000D01*
D13*
X166355500Y-103632724D02*
X166355500Y-103123276D01*
X167400500Y-103632724D02*
X167400500Y-103123276D01*
X123952000Y-43906000D02*
X122152000Y-43906000D01*
X123952000Y-43906000D02*
X124752000Y-43906000D01*
X123952000Y-47026000D02*
X123152000Y-47026000D01*
X123952000Y-47026000D02*
X124752000Y-47026000D01*
X149429000Y-71359000D02*
X143179000Y-71359000D01*
X149429000Y-66309000D02*
X143179000Y-66309000D01*
X149429000Y-71359000D02*
G75*
G03*
X149429000Y-66309000I0J2525000D01*
G01*
X143179000Y-66309000D02*
G75*
G03*
X143179000Y-71359000I0J-2525000D01*
G01*
X134296000Y-56896000D02*
G75*
G03*
X134296000Y-56896000I-1200000J0D01*
G01*
X141480000Y-80117733D02*
X141480000Y-80410267D01*
X140460000Y-80117733D02*
X140460000Y-80410267D01*
X165460000Y-87833252D02*
X165460000Y-86410748D01*
X167280000Y-87833252D02*
X167280000Y-86410748D01*
X130912776Y-97013500D02*
X131422224Y-97013500D01*
X130912776Y-98058500D02*
X131422224Y-98058500D01*
X130486000Y-56896000D02*
G75*
G03*
X130486000Y-56896000I-1200000J0D01*
G01*
X164590000Y-47390267D02*
X164590000Y-47097733D01*
X165610000Y-47390267D02*
X165610000Y-47097733D01*
X107890000Y-44510000D02*
X107890000Y-43180000D01*
X109220000Y-44510000D02*
X107890000Y-44510000D01*
X118872724Y-56402500D02*
X118363276Y-56402500D01*
X118872724Y-55357500D02*
X118363276Y-55357500D01*
X160166267Y-92204000D02*
X159873733Y-92204000D01*
X160166267Y-91184000D02*
X159873733Y-91184000D01*
X150758000Y-43153000D02*
X150758000Y-41683000D01*
X150758000Y-41683000D02*
X148298000Y-41683000D01*
X148298000Y-43153000D02*
X150758000Y-43153000D01*
X172908000Y-81026000D02*
G75*
G03*
X172908000Y-81026000I-950000J0D01*
G01*
X136202500Y-47751276D02*
X136202500Y-48260724D01*
X135157500Y-47751276D02*
X135157500Y-48260724D01*
X142450000Y-128000000D02*
X142450000Y-126000000D01*
X141450000Y-129300000D02*
X141000000Y-129750000D01*
X141450000Y-124700000D02*
X141000000Y-124250000D01*
X141000000Y-129750000D02*
X138400000Y-129750000D01*
X141000000Y-124250000D02*
X138400000Y-124250000D01*
X137950000Y-129300000D02*
X138400000Y-129750000D01*
X137950000Y-124700000D02*
X138400000Y-124250000D01*
X136950000Y-128000000D02*
X136950000Y-126000000D01*
X171390000Y-63440000D02*
X172720000Y-63440000D01*
X171390000Y-64770000D02*
X171390000Y-63440000D01*
X142400000Y-85346000D02*
X143510000Y-85346000D01*
X142400000Y-86106000D02*
X142400000Y-85346000D01*
X134158000Y-47859733D02*
X134158000Y-48152267D01*
X133138000Y-47859733D02*
X133138000Y-48152267D01*
X128269276Y-41895500D02*
X128778724Y-41895500D01*
X128269276Y-42940500D02*
X128778724Y-42940500D01*
X160422000Y-50451936D02*
X160422000Y-51656064D01*
X158602000Y-50451936D02*
X158602000Y-51656064D01*
X157160000Y-89154000D02*
G75*
G03*
X157160000Y-89154000I-950000J0D01*
G01*
X145655724Y-42940500D02*
X145146276Y-42940500D01*
X145655724Y-41895500D02*
X145146276Y-41895500D01*
X164526000Y-81026000D02*
G75*
G03*
X164526000Y-81026000I-950000J0D01*
G01*
X130809276Y-83043500D02*
X131318724Y-83043500D01*
X130809276Y-84088500D02*
X131318724Y-84088500D01*
X168510000Y-49748000D02*
X168510000Y-55758000D01*
X161690000Y-51998000D02*
X161690000Y-55758000D01*
X168510000Y-55758000D02*
X167250000Y-55758000D01*
X161690000Y-55758000D02*
X162950000Y-55758000D01*
X132138500Y-47751276D02*
X132138500Y-48260724D01*
X131093500Y-47751276D02*
X131093500Y-48260724D01*
X138283733Y-91438000D02*
X138576267Y-91438000D01*
X138283733Y-92458000D02*
X138576267Y-92458000D01*
X142489000Y-115035000D02*
X142489000Y-113565000D01*
X142489000Y-113565000D02*
X140029000Y-113565000D01*
X140029000Y-115035000D02*
X142489000Y-115035000D01*
X149100000Y-80117733D02*
X149100000Y-80410267D01*
X148080000Y-80117733D02*
X148080000Y-80410267D01*
X158953252Y-58314000D02*
X157530748Y-58314000D01*
X158953252Y-56494000D02*
X157530748Y-56494000D01*
X162304000Y-97174267D02*
X162304000Y-96881733D01*
X163324000Y-97174267D02*
X163324000Y-96881733D01*
X150876724Y-98312500D02*
X150367276Y-98312500D01*
X150876724Y-97267500D02*
X150367276Y-97267500D01*
X163424776Y-99553500D02*
X163934224Y-99553500D01*
X163424776Y-100598500D02*
X163934224Y-100598500D01*
X128123733Y-45718000D02*
X128416267Y-45718000D01*
X128123733Y-46738000D02*
X128416267Y-46738000D01*
X120650000Y-53783500D02*
X122450000Y-53783500D01*
X120650000Y-53783500D02*
X119850000Y-53783500D01*
X120650000Y-50663500D02*
X121450000Y-50663500D01*
X120650000Y-50663500D02*
X119850000Y-50663500D01*
X142122000Y-43153000D02*
X142122000Y-41683000D01*
X142122000Y-41683000D02*
X139662000Y-41683000D01*
X139662000Y-43153000D02*
X142122000Y-43153000D01*
X112970000Y-49978000D02*
X114300000Y-49978000D01*
X112970000Y-51308000D02*
X112970000Y-49978000D01*
D11*
X161635000Y-45347000D02*
X161635000Y-43947000D01*
X161635000Y-41547000D02*
X161635000Y-41397000D01*
X161635000Y-41397000D02*
X161335000Y-41397000D01*
X161335000Y-41397000D02*
X161335000Y-40947000D01*
X159285000Y-47522000D02*
X159285000Y-47097000D01*
X159285000Y-47097000D02*
X160285000Y-47097000D01*
X158560000Y-47522000D02*
X159285000Y-47522000D01*
X155685000Y-47097000D02*
X154685000Y-47097000D01*
X153635000Y-41397000D02*
X153335000Y-41397000D01*
X153635000Y-40947000D02*
X153635000Y-41397000D01*
X153335000Y-43947000D02*
X153335000Y-45347000D01*
X153335000Y-41397000D02*
X153335000Y-41547000D01*
D13*
X137160724Y-42940500D02*
X136651276Y-42940500D01*
X137160724Y-41895500D02*
X136651276Y-41895500D01*
X143000000Y-57550267D02*
X143000000Y-57257733D01*
X144020000Y-57550267D02*
X144020000Y-57257733D01*
X174050000Y-41850000D02*
X174050000Y-43180000D01*
X172720000Y-41850000D02*
X174050000Y-41850000D01*
X171450000Y-41850000D02*
X166310000Y-41850000D01*
X171450000Y-41850000D02*
X171450000Y-44510000D01*
X166310000Y-41850000D02*
X166310000Y-44510000D01*
X171450000Y-44510000D02*
X166310000Y-44510000D01*
X107890000Y-49590000D02*
X107890000Y-48260000D01*
X109220000Y-49590000D02*
X107890000Y-49590000D01*
X146560000Y-80117733D02*
X146560000Y-80410267D01*
X145540000Y-80117733D02*
X145540000Y-80410267D01*
X130809276Y-84567500D02*
X131318724Y-84567500D01*
X130809276Y-85612500D02*
X131318724Y-85612500D01*
X137228724Y-114792500D02*
X136719276Y-114792500D01*
X137228724Y-113747500D02*
X136719276Y-113747500D01*
X163070000Y-105517733D02*
X163070000Y-105810267D01*
X162050000Y-105517733D02*
X162050000Y-105810267D01*
D10*
X102137920Y-47180000D02*
X102137920Y-51479145D01*
X102137920Y-85680855D02*
X102137920Y-89980000D01*
X102137920Y-89980000D02*
X106547920Y-89980000D01*
X106547920Y-47180000D02*
X102137920Y-47180000D01*
X170047920Y-89980000D02*
X174137920Y-89980000D01*
X174137920Y-47180000D02*
X169727920Y-47180000D01*
X174137920Y-51479145D02*
X174137920Y-47180000D01*
X174137920Y-89980000D02*
X174137920Y-85680855D01*
X105637920Y-49180000D02*
G75*
G03*
X105637920Y-49180000I-1500000J0D01*
G01*
X105637920Y-87980000D02*
G75*
G03*
X105637920Y-87980000I-1500000J0D01*
G01*
X173637920Y-49180000D02*
G75*
G03*
X173637920Y-49180000I-1500000J0D01*
G01*
%LPC*%
D14*
X103067320Y-135947209D02*
X104019701Y-135947209D01*
X102876844Y-136518638D02*
X103543510Y-134518638D01*
X103543510Y-134518638D02*
X104210177Y-136518638D01*
X104876844Y-136518638D02*
X104876844Y-135185304D01*
X104876844Y-135566257D02*
X104972082Y-135375780D01*
X104972082Y-135375780D02*
X105067320Y-135280542D01*
X105067320Y-135280542D02*
X105257796Y-135185304D01*
X105257796Y-135185304D02*
X105448273Y-135185304D01*
X106972082Y-136518638D02*
X106972082Y-134518638D01*
X106972082Y-136423400D02*
X106781606Y-136518638D01*
X106781606Y-136518638D02*
X106400653Y-136518638D01*
X106400653Y-136518638D02*
X106210177Y-136423400D01*
X106210177Y-136423400D02*
X106114939Y-136328161D01*
X106114939Y-136328161D02*
X106019701Y-136137685D01*
X106019701Y-136137685D02*
X106019701Y-135566257D01*
X106019701Y-135566257D02*
X106114939Y-135375780D01*
X106114939Y-135375780D02*
X106210177Y-135280542D01*
X106210177Y-135280542D02*
X106400653Y-135185304D01*
X106400653Y-135185304D02*
X106781606Y-135185304D01*
X106781606Y-135185304D02*
X106972082Y-135280542D01*
X108781606Y-135185304D02*
X108781606Y-136518638D01*
X107924463Y-135185304D02*
X107924463Y-136232923D01*
X107924463Y-136232923D02*
X108019701Y-136423400D01*
X108019701Y-136423400D02*
X108210177Y-136518638D01*
X108210177Y-136518638D02*
X108495892Y-136518638D01*
X108495892Y-136518638D02*
X108686368Y-136423400D01*
X108686368Y-136423400D02*
X108781606Y-136328161D01*
X109733987Y-136518638D02*
X109733987Y-135185304D01*
X109733987Y-135375780D02*
X109829225Y-135280542D01*
X109829225Y-135280542D02*
X110019701Y-135185304D01*
X110019701Y-135185304D02*
X110305416Y-135185304D01*
X110305416Y-135185304D02*
X110495892Y-135280542D01*
X110495892Y-135280542D02*
X110591130Y-135471019D01*
X110591130Y-135471019D02*
X110591130Y-136518638D01*
X110591130Y-135471019D02*
X110686368Y-135280542D01*
X110686368Y-135280542D02*
X110876844Y-135185304D01*
X110876844Y-135185304D02*
X111162558Y-135185304D01*
X111162558Y-135185304D02*
X111353035Y-135280542D01*
X111353035Y-135280542D02*
X111448273Y-135471019D01*
X111448273Y-135471019D02*
X111448273Y-136518638D01*
X113257797Y-136518638D02*
X113257797Y-135471019D01*
X113257797Y-135471019D02*
X113162559Y-135280542D01*
X113162559Y-135280542D02*
X112972083Y-135185304D01*
X112972083Y-135185304D02*
X112591130Y-135185304D01*
X112591130Y-135185304D02*
X112400654Y-135280542D01*
X113257797Y-136423400D02*
X113067321Y-136518638D01*
X113067321Y-136518638D02*
X112591130Y-136518638D01*
X112591130Y-136518638D02*
X112400654Y-136423400D01*
X112400654Y-136423400D02*
X112305416Y-136232923D01*
X112305416Y-136232923D02*
X112305416Y-136042447D01*
X112305416Y-136042447D02*
X112400654Y-135851971D01*
X112400654Y-135851971D02*
X112591130Y-135756733D01*
X112591130Y-135756733D02*
X113067321Y-135756733D01*
X113067321Y-135756733D02*
X113257797Y-135661495D01*
X113924464Y-135185304D02*
X114686368Y-135185304D01*
X114210178Y-134518638D02*
X114210178Y-136232923D01*
X114210178Y-136232923D02*
X114305416Y-136423400D01*
X114305416Y-136423400D02*
X114495892Y-136518638D01*
X114495892Y-136518638D02*
X114686368Y-136518638D01*
X116114940Y-136423400D02*
X115924464Y-136518638D01*
X115924464Y-136518638D02*
X115543511Y-136518638D01*
X115543511Y-136518638D02*
X115353035Y-136423400D01*
X115353035Y-136423400D02*
X115257797Y-136232923D01*
X115257797Y-136232923D02*
X115257797Y-135471019D01*
X115257797Y-135471019D02*
X115353035Y-135280542D01*
X115353035Y-135280542D02*
X115543511Y-135185304D01*
X115543511Y-135185304D02*
X115924464Y-135185304D01*
X115924464Y-135185304D02*
X116114940Y-135280542D01*
X116114940Y-135280542D02*
X116210178Y-135471019D01*
X116210178Y-135471019D02*
X116210178Y-135661495D01*
X116210178Y-135661495D02*
X115257797Y-135851971D01*
X118400655Y-135185304D02*
X118876845Y-136518638D01*
X118876845Y-136518638D02*
X119353036Y-135185304D01*
X121162560Y-136518638D02*
X120019703Y-136518638D01*
X120591131Y-136518638D02*
X120591131Y-134518638D01*
X120591131Y-134518638D02*
X120400655Y-134804352D01*
X120400655Y-134804352D02*
X120210179Y-134994828D01*
X120210179Y-134994828D02*
X120019703Y-135090066D01*
X122019703Y-136328161D02*
X122114941Y-136423400D01*
X122114941Y-136423400D02*
X122019703Y-136518638D01*
X122019703Y-136518638D02*
X121924465Y-136423400D01*
X121924465Y-136423400D02*
X122019703Y-136328161D01*
X122019703Y-136328161D02*
X122019703Y-136518638D01*
X123353036Y-134518638D02*
X123543513Y-134518638D01*
X123543513Y-134518638D02*
X123733989Y-134613876D01*
X123733989Y-134613876D02*
X123829227Y-134709114D01*
X123829227Y-134709114D02*
X123924465Y-134899590D01*
X123924465Y-134899590D02*
X124019703Y-135280542D01*
X124019703Y-135280542D02*
X124019703Y-135756733D01*
X124019703Y-135756733D02*
X123924465Y-136137685D01*
X123924465Y-136137685D02*
X123829227Y-136328161D01*
X123829227Y-136328161D02*
X123733989Y-136423400D01*
X123733989Y-136423400D02*
X123543513Y-136518638D01*
X123543513Y-136518638D02*
X123353036Y-136518638D01*
X123353036Y-136518638D02*
X123162560Y-136423400D01*
X123162560Y-136423400D02*
X123067322Y-136328161D01*
X123067322Y-136328161D02*
X122972084Y-136137685D01*
X122972084Y-136137685D02*
X122876846Y-135756733D01*
X122876846Y-135756733D02*
X122876846Y-135280542D01*
X122876846Y-135280542D02*
X122972084Y-134899590D01*
X122972084Y-134899590D02*
X123067322Y-134709114D01*
X123067322Y-134709114D02*
X123162560Y-134613876D01*
X123162560Y-134613876D02*
X123353036Y-134518638D01*
X152287653Y-136309971D02*
X152216225Y-136381400D01*
X152216225Y-136381400D02*
X152001939Y-136452828D01*
X152001939Y-136452828D02*
X151859082Y-136452828D01*
X151859082Y-136452828D02*
X151644796Y-136381400D01*
X151644796Y-136381400D02*
X151501939Y-136238542D01*
X151501939Y-136238542D02*
X151430510Y-136095685D01*
X151430510Y-136095685D02*
X151359082Y-135809971D01*
X151359082Y-135809971D02*
X151359082Y-135595685D01*
X151359082Y-135595685D02*
X151430510Y-135309971D01*
X151430510Y-135309971D02*
X151501939Y-135167114D01*
X151501939Y-135167114D02*
X151644796Y-135024257D01*
X151644796Y-135024257D02*
X151859082Y-134952828D01*
X151859082Y-134952828D02*
X152001939Y-134952828D01*
X152001939Y-134952828D02*
X152216225Y-135024257D01*
X152216225Y-135024257D02*
X152287653Y-135095685D01*
X153144796Y-136452828D02*
X153001939Y-136381400D01*
X153001939Y-136381400D02*
X152930510Y-136309971D01*
X152930510Y-136309971D02*
X152859082Y-136167114D01*
X152859082Y-136167114D02*
X152859082Y-135738542D01*
X152859082Y-135738542D02*
X152930510Y-135595685D01*
X152930510Y-135595685D02*
X153001939Y-135524257D01*
X153001939Y-135524257D02*
X153144796Y-135452828D01*
X153144796Y-135452828D02*
X153359082Y-135452828D01*
X153359082Y-135452828D02*
X153501939Y-135524257D01*
X153501939Y-135524257D02*
X153573368Y-135595685D01*
X153573368Y-135595685D02*
X153644796Y-135738542D01*
X153644796Y-135738542D02*
X153644796Y-136167114D01*
X153644796Y-136167114D02*
X153573368Y-136309971D01*
X153573368Y-136309971D02*
X153501939Y-136381400D01*
X153501939Y-136381400D02*
X153359082Y-136452828D01*
X153359082Y-136452828D02*
X153144796Y-136452828D01*
X154216225Y-136381400D02*
X154430511Y-136452828D01*
X154430511Y-136452828D02*
X154787653Y-136452828D01*
X154787653Y-136452828D02*
X154930511Y-136381400D01*
X154930511Y-136381400D02*
X155001939Y-136309971D01*
X155001939Y-136309971D02*
X155073368Y-136167114D01*
X155073368Y-136167114D02*
X155073368Y-136024257D01*
X155073368Y-136024257D02*
X155001939Y-135881400D01*
X155001939Y-135881400D02*
X154930511Y-135809971D01*
X154930511Y-135809971D02*
X154787653Y-135738542D01*
X154787653Y-135738542D02*
X154501939Y-135667114D01*
X154501939Y-135667114D02*
X154359082Y-135595685D01*
X154359082Y-135595685D02*
X154287653Y-135524257D01*
X154287653Y-135524257D02*
X154216225Y-135381400D01*
X154216225Y-135381400D02*
X154216225Y-135238542D01*
X154216225Y-135238542D02*
X154287653Y-135095685D01*
X154287653Y-135095685D02*
X154359082Y-135024257D01*
X154359082Y-135024257D02*
X154501939Y-134952828D01*
X154501939Y-134952828D02*
X154859082Y-134952828D01*
X154859082Y-134952828D02*
X155073368Y-135024257D01*
X156359082Y-136452828D02*
X156359082Y-135667114D01*
X156359082Y-135667114D02*
X156287653Y-135524257D01*
X156287653Y-135524257D02*
X156144796Y-135452828D01*
X156144796Y-135452828D02*
X155859082Y-135452828D01*
X155859082Y-135452828D02*
X155716224Y-135524257D01*
X156359082Y-136381400D02*
X156216224Y-136452828D01*
X156216224Y-136452828D02*
X155859082Y-136452828D01*
X155859082Y-136452828D02*
X155716224Y-136381400D01*
X155716224Y-136381400D02*
X155644796Y-136238542D01*
X155644796Y-136238542D02*
X155644796Y-136095685D01*
X155644796Y-136095685D02*
X155716224Y-135952828D01*
X155716224Y-135952828D02*
X155859082Y-135881400D01*
X155859082Y-135881400D02*
X156216224Y-135881400D01*
X156216224Y-135881400D02*
X156359082Y-135809971D01*
X157073367Y-136452828D02*
X157073367Y-135452828D01*
X157073367Y-134952828D02*
X157001939Y-135024257D01*
X157001939Y-135024257D02*
X157073367Y-135095685D01*
X157073367Y-135095685D02*
X157144796Y-135024257D01*
X157144796Y-135024257D02*
X157073367Y-134952828D01*
X157073367Y-134952828D02*
X157073367Y-135095685D01*
X158001939Y-136452828D02*
X157859082Y-136381400D01*
X157859082Y-136381400D02*
X157787653Y-136238542D01*
X157787653Y-136238542D02*
X157787653Y-134952828D01*
X159144796Y-136381400D02*
X159001939Y-136452828D01*
X159001939Y-136452828D02*
X158716225Y-136452828D01*
X158716225Y-136452828D02*
X158573367Y-136381400D01*
X158573367Y-136381400D02*
X158501939Y-136238542D01*
X158501939Y-136238542D02*
X158501939Y-135667114D01*
X158501939Y-135667114D02*
X158573367Y-135524257D01*
X158573367Y-135524257D02*
X158716225Y-135452828D01*
X158716225Y-135452828D02*
X159001939Y-135452828D01*
X159001939Y-135452828D02*
X159144796Y-135524257D01*
X159144796Y-135524257D02*
X159216225Y-135667114D01*
X159216225Y-135667114D02*
X159216225Y-135809971D01*
X159216225Y-135809971D02*
X158501939Y-135952828D01*
X159859081Y-136452828D02*
X159859081Y-135452828D01*
X159859081Y-135738542D02*
X159930510Y-135595685D01*
X159930510Y-135595685D02*
X160001939Y-135524257D01*
X160001939Y-135524257D02*
X160144796Y-135452828D01*
X160144796Y-135452828D02*
X160287653Y-135452828D01*
X161859081Y-135095685D02*
X161930509Y-135024257D01*
X161930509Y-135024257D02*
X162073367Y-134952828D01*
X162073367Y-134952828D02*
X162430509Y-134952828D01*
X162430509Y-134952828D02*
X162573367Y-135024257D01*
X162573367Y-135024257D02*
X162644795Y-135095685D01*
X162644795Y-135095685D02*
X162716224Y-135238542D01*
X162716224Y-135238542D02*
X162716224Y-135381400D01*
X162716224Y-135381400D02*
X162644795Y-135595685D01*
X162644795Y-135595685D02*
X161787652Y-136452828D01*
X161787652Y-136452828D02*
X162716224Y-136452828D01*
X163216223Y-134952828D02*
X164144795Y-134952828D01*
X164144795Y-134952828D02*
X163644795Y-135524257D01*
X163644795Y-135524257D02*
X163859080Y-135524257D01*
X163859080Y-135524257D02*
X164001938Y-135595685D01*
X164001938Y-135595685D02*
X164073366Y-135667114D01*
X164073366Y-135667114D02*
X164144795Y-135809971D01*
X164144795Y-135809971D02*
X164144795Y-136167114D01*
X164144795Y-136167114D02*
X164073366Y-136309971D01*
X164073366Y-136309971D02*
X164001938Y-136381400D01*
X164001938Y-136381400D02*
X163859080Y-136452828D01*
X163859080Y-136452828D02*
X163430509Y-136452828D01*
X163430509Y-136452828D02*
X163287652Y-136381400D01*
X163287652Y-136381400D02*
X163216223Y-136309971D01*
X164787651Y-136309971D02*
X164859080Y-136381400D01*
X164859080Y-136381400D02*
X164787651Y-136452828D01*
X164787651Y-136452828D02*
X164716223Y-136381400D01*
X164716223Y-136381400D02*
X164787651Y-136309971D01*
X164787651Y-136309971D02*
X164787651Y-136452828D01*
X165787652Y-134952828D02*
X165930509Y-134952828D01*
X165930509Y-134952828D02*
X166073366Y-135024257D01*
X166073366Y-135024257D02*
X166144795Y-135095685D01*
X166144795Y-135095685D02*
X166216223Y-135238542D01*
X166216223Y-135238542D02*
X166287652Y-135524257D01*
X166287652Y-135524257D02*
X166287652Y-135881400D01*
X166287652Y-135881400D02*
X166216223Y-136167114D01*
X166216223Y-136167114D02*
X166144795Y-136309971D01*
X166144795Y-136309971D02*
X166073366Y-136381400D01*
X166073366Y-136381400D02*
X165930509Y-136452828D01*
X165930509Y-136452828D02*
X165787652Y-136452828D01*
X165787652Y-136452828D02*
X165644795Y-136381400D01*
X165644795Y-136381400D02*
X165573366Y-136309971D01*
X165573366Y-136309971D02*
X165501937Y-136167114D01*
X165501937Y-136167114D02*
X165430509Y-135881400D01*
X165430509Y-135881400D02*
X165430509Y-135524257D01*
X165430509Y-135524257D02*
X165501937Y-135238542D01*
X165501937Y-135238542D02*
X165573366Y-135095685D01*
X165573366Y-135095685D02*
X165644795Y-135024257D01*
X165644795Y-135024257D02*
X165787652Y-134952828D01*
X167001937Y-136452828D02*
X167287651Y-136452828D01*
X167287651Y-136452828D02*
X167430508Y-136381400D01*
X167430508Y-136381400D02*
X167501937Y-136309971D01*
X167501937Y-136309971D02*
X167644794Y-136095685D01*
X167644794Y-136095685D02*
X167716223Y-135809971D01*
X167716223Y-135809971D02*
X167716223Y-135238542D01*
X167716223Y-135238542D02*
X167644794Y-135095685D01*
X167644794Y-135095685D02*
X167573366Y-135024257D01*
X167573366Y-135024257D02*
X167430508Y-134952828D01*
X167430508Y-134952828D02*
X167144794Y-134952828D01*
X167144794Y-134952828D02*
X167001937Y-135024257D01*
X167001937Y-135024257D02*
X166930508Y-135095685D01*
X166930508Y-135095685D02*
X166859080Y-135238542D01*
X166859080Y-135238542D02*
X166859080Y-135595685D01*
X166859080Y-135595685D02*
X166930508Y-135738542D01*
X166930508Y-135738542D02*
X167001937Y-135809971D01*
X167001937Y-135809971D02*
X167144794Y-135881400D01*
X167144794Y-135881400D02*
X167430508Y-135881400D01*
X167430508Y-135881400D02*
X167573366Y-135809971D01*
X167573366Y-135809971D02*
X167644794Y-135738542D01*
X167644794Y-135738542D02*
X167716223Y-135595685D01*
X168359079Y-136309971D02*
X168430508Y-136381400D01*
X168430508Y-136381400D02*
X168359079Y-136452828D01*
X168359079Y-136452828D02*
X168287651Y-136381400D01*
X168287651Y-136381400D02*
X168359079Y-136309971D01*
X168359079Y-136309971D02*
X168359079Y-136452828D01*
X169001937Y-135095685D02*
X169073365Y-135024257D01*
X169073365Y-135024257D02*
X169216223Y-134952828D01*
X169216223Y-134952828D02*
X169573365Y-134952828D01*
X169573365Y-134952828D02*
X169716223Y-135024257D01*
X169716223Y-135024257D02*
X169787651Y-135095685D01*
X169787651Y-135095685D02*
X169859080Y-135238542D01*
X169859080Y-135238542D02*
X169859080Y-135381400D01*
X169859080Y-135381400D02*
X169787651Y-135595685D01*
X169787651Y-135595685D02*
X168930508Y-136452828D01*
X168930508Y-136452828D02*
X169859080Y-136452828D01*
X170787651Y-134952828D02*
X170930508Y-134952828D01*
X170930508Y-134952828D02*
X171073365Y-135024257D01*
X171073365Y-135024257D02*
X171144794Y-135095685D01*
X171144794Y-135095685D02*
X171216222Y-135238542D01*
X171216222Y-135238542D02*
X171287651Y-135524257D01*
X171287651Y-135524257D02*
X171287651Y-135881400D01*
X171287651Y-135881400D02*
X171216222Y-136167114D01*
X171216222Y-136167114D02*
X171144794Y-136309971D01*
X171144794Y-136309971D02*
X171073365Y-136381400D01*
X171073365Y-136381400D02*
X170930508Y-136452828D01*
X170930508Y-136452828D02*
X170787651Y-136452828D01*
X170787651Y-136452828D02*
X170644794Y-136381400D01*
X170644794Y-136381400D02*
X170573365Y-136309971D01*
X170573365Y-136309971D02*
X170501936Y-136167114D01*
X170501936Y-136167114D02*
X170430508Y-135881400D01*
X170430508Y-135881400D02*
X170430508Y-135524257D01*
X170430508Y-135524257D02*
X170501936Y-135238542D01*
X170501936Y-135238542D02*
X170573365Y-135095685D01*
X170573365Y-135095685D02*
X170644794Y-135024257D01*
X170644794Y-135024257D02*
X170787651Y-134952828D01*
X171859079Y-135095685D02*
X171930507Y-135024257D01*
X171930507Y-135024257D02*
X172073365Y-134952828D01*
X172073365Y-134952828D02*
X172430507Y-134952828D01*
X172430507Y-134952828D02*
X172573365Y-135024257D01*
X172573365Y-135024257D02*
X172644793Y-135095685D01*
X172644793Y-135095685D02*
X172716222Y-135238542D01*
X172716222Y-135238542D02*
X172716222Y-135381400D01*
X172716222Y-135381400D02*
X172644793Y-135595685D01*
X172644793Y-135595685D02*
X171787650Y-136452828D01*
X171787650Y-136452828D02*
X172716222Y-136452828D01*
X173216221Y-134952828D02*
X174144793Y-134952828D01*
X174144793Y-134952828D02*
X173644793Y-135524257D01*
X173644793Y-135524257D02*
X173859078Y-135524257D01*
X173859078Y-135524257D02*
X174001936Y-135595685D01*
X174001936Y-135595685D02*
X174073364Y-135667114D01*
X174073364Y-135667114D02*
X174144793Y-135809971D01*
X174144793Y-135809971D02*
X174144793Y-136167114D01*
X174144793Y-136167114D02*
X174073364Y-136309971D01*
X174073364Y-136309971D02*
X174001936Y-136381400D01*
X174001936Y-136381400D02*
X173859078Y-136452828D01*
X173859078Y-136452828D02*
X173430507Y-136452828D01*
X173430507Y-136452828D02*
X173287650Y-136381400D01*
X173287650Y-136381400D02*
X173216221Y-136309971D01*
D15*
X125006500Y-42418000D03*
X121881500Y-42418000D03*
D16*
X123952000Y-49999500D03*
X123952000Y-53124500D03*
X117348000Y-49999500D03*
X117348000Y-53124500D03*
D17*
X167386000Y-81026000D03*
X172466000Y-59690000D03*
D18*
X162663500Y-102616000D03*
X164488500Y-102616000D03*
D19*
X162769000Y-88630000D03*
X162769000Y-88130000D03*
X162769000Y-87630000D03*
X162769000Y-87130000D03*
X162769000Y-86630000D03*
D20*
X162044000Y-86405000D03*
X161544000Y-86405000D03*
X161044000Y-86405000D03*
D19*
X160319000Y-86630000D03*
X160319000Y-87130000D03*
X160319000Y-87630000D03*
X160319000Y-88130000D03*
X160319000Y-88630000D03*
D20*
X161044000Y-88855000D03*
X161544000Y-88855000D03*
X162044000Y-88855000D03*
D21*
X113995200Y-119380000D03*
X109220000Y-119380000D03*
X154940000Y-116840000D03*
X154940000Y-112064800D03*
D15*
X159804500Y-54864000D03*
X156679500Y-54864000D03*
D18*
X130151500Y-90170000D03*
X131976500Y-90170000D03*
D17*
X156210000Y-85090000D03*
D22*
X174752000Y-102322000D03*
X174752000Y-99822000D03*
D23*
X174752000Y-97322000D03*
D24*
X172252000Y-94422000D03*
X172252000Y-105222000D03*
D25*
X166878000Y-98147500D03*
X166878000Y-99972500D03*
D26*
X138425000Y-58266500D03*
X138425000Y-56541500D03*
D27*
X141704000Y-111710000D03*
X139954000Y-111710000D03*
D28*
X148509500Y-99863000D03*
X148509500Y-100513000D03*
X148509500Y-101163000D03*
X148509500Y-101813000D03*
X152734500Y-101813000D03*
X152734500Y-101163000D03*
X152734500Y-100513000D03*
X152734500Y-99863000D03*
D29*
X118115000Y-76205000D03*
D30*
X120655000Y-76205000D03*
X123195000Y-76205000D03*
X125735000Y-76205000D03*
X128275000Y-76205000D03*
X130815000Y-76205000D03*
X133355000Y-76205000D03*
X135895000Y-76205000D03*
X138435000Y-76205000D03*
X140975000Y-76205000D03*
D31*
X143515000Y-76205000D03*
D30*
X146055000Y-76205000D03*
X148595000Y-76205000D03*
X151135000Y-76205000D03*
X153675000Y-76205000D03*
X156215000Y-76205000D03*
X158755000Y-76205000D03*
X161295000Y-76205000D03*
X163835000Y-76205000D03*
X166375000Y-76205000D03*
X166375000Y-60965000D03*
X163835000Y-60965000D03*
X161295000Y-60965000D03*
X158755000Y-60965000D03*
X156215000Y-60965000D03*
X153675000Y-60965000D03*
X151135000Y-60965000D03*
X148595000Y-60965000D03*
X146055000Y-60965000D03*
X143515000Y-60965000D03*
D31*
X140975000Y-60965000D03*
D30*
X138435000Y-60965000D03*
X135895000Y-60965000D03*
X133355000Y-60965000D03*
X130815000Y-60965000D03*
X128275000Y-60965000D03*
X125735000Y-60965000D03*
X123195000Y-60965000D03*
X120655000Y-60965000D03*
X118115000Y-60965000D03*
D32*
X131205000Y-42418000D03*
X132955000Y-42418000D03*
D33*
X121920000Y-98044000D03*
D34*
X121920000Y-95504000D03*
X124460000Y-98044000D03*
X124460000Y-95504000D03*
X127000000Y-98044000D03*
D35*
X127000000Y-95504000D03*
D36*
X137567500Y-93599000D03*
X139292500Y-93599000D03*
D37*
X137886500Y-111760000D03*
X136061500Y-111760000D03*
D38*
X140970000Y-45525000D03*
X140970000Y-46175000D03*
X140970000Y-46825000D03*
X140970000Y-47475000D03*
X140970000Y-48125000D03*
X140970000Y-48775000D03*
X140970000Y-49425000D03*
X140970000Y-50075000D03*
X140970000Y-50725000D03*
X140970000Y-51375000D03*
X140970000Y-52025000D03*
X140970000Y-52675000D03*
X140970000Y-53325000D03*
X140970000Y-53975000D03*
X148170000Y-53975000D03*
X148170000Y-53325000D03*
X148170000Y-52675000D03*
X148170000Y-52025000D03*
X148170000Y-51375000D03*
X148170000Y-50725000D03*
X148170000Y-50075000D03*
X148170000Y-49425000D03*
X148170000Y-48775000D03*
X148170000Y-48125000D03*
X148170000Y-47475000D03*
X148170000Y-46825000D03*
X148170000Y-46175000D03*
X148170000Y-45525000D03*
D39*
X166878000Y-104290500D03*
X166878000Y-102465500D03*
D40*
X122814500Y-44516000D03*
X122814500Y-45466000D03*
X122814500Y-46416000D03*
X125089500Y-46416000D03*
X125089500Y-44516000D03*
D17*
X148754000Y-68834000D03*
X143854000Y-68834000D03*
D21*
X133096000Y-56896000D03*
D41*
X140970000Y-79401500D03*
X140970000Y-81126500D03*
D42*
X166370000Y-88684500D03*
X166370000Y-85559500D03*
D18*
X130255000Y-97536000D03*
X132080000Y-97536000D03*
D21*
X129286000Y-56896000D03*
D26*
X165100000Y-48106500D03*
X165100000Y-46381500D03*
D33*
X109220000Y-43180000D03*
D34*
X111760000Y-43180000D03*
X114300000Y-43180000D03*
D37*
X119530500Y-55880000D03*
X117705500Y-55880000D03*
D43*
X160882500Y-91694000D03*
X159157500Y-91694000D03*
D27*
X149973000Y-42418000D03*
X148223000Y-42418000D03*
D21*
X163830000Y-116840000D03*
X163830000Y-112064800D03*
D17*
X171958000Y-81026000D03*
D25*
X135680000Y-47093500D03*
X135680000Y-48918500D03*
D44*
X142700000Y-128875000D03*
X136700000Y-128875000D03*
X142700000Y-125125000D03*
X136700000Y-125125000D03*
D21*
X124460000Y-119380000D03*
X129235200Y-119380000D03*
D33*
X172720000Y-64770000D03*
D35*
X172720000Y-67310000D03*
D34*
X172720000Y-69850000D03*
X172720000Y-72390000D03*
D45*
X143510000Y-86106000D03*
D46*
X143510000Y-87376000D03*
D47*
X143510000Y-88646000D03*
X143510000Y-89916000D03*
X143510000Y-91186000D03*
X143510000Y-92456000D03*
X143510000Y-93726000D03*
X143510000Y-94996000D03*
D41*
X133648000Y-47143500D03*
X133648000Y-48868500D03*
D18*
X127611500Y-42418000D03*
X129436500Y-42418000D03*
D21*
X154940000Y-121920000D03*
X154940000Y-126695200D03*
D48*
X159512000Y-49654000D03*
X159512000Y-52454000D03*
D17*
X156210000Y-89154000D03*
D37*
X146313500Y-42418000D03*
X144488500Y-42418000D03*
D17*
X163576000Y-81026000D03*
D18*
X130151500Y-83566000D03*
X131976500Y-83566000D03*
D49*
X167400000Y-50698000D03*
X165100000Y-50698000D03*
D50*
X165100000Y-56998000D03*
D49*
X162800000Y-50698000D03*
D25*
X131616000Y-47093500D03*
X131616000Y-48918500D03*
D21*
X163830000Y-121920000D03*
X163830000Y-126695200D03*
D36*
X137567500Y-91948000D03*
X139292500Y-91948000D03*
D27*
X141704000Y-114300000D03*
X139954000Y-114300000D03*
D41*
X148590000Y-79401500D03*
X148590000Y-81126500D03*
D21*
X119075200Y-109524800D03*
X119075200Y-114300000D03*
D15*
X159804500Y-57404000D03*
X156679500Y-57404000D03*
D26*
X162814000Y-97890500D03*
X162814000Y-96165500D03*
D37*
X151534500Y-97790000D03*
X149709500Y-97790000D03*
D18*
X162767000Y-100076000D03*
X164592000Y-100076000D03*
D36*
X127407500Y-46228000D03*
X129132500Y-46228000D03*
D51*
X121787500Y-53173500D03*
X121787500Y-52223500D03*
X121787500Y-51273500D03*
X119512500Y-51273500D03*
X119512500Y-53173500D03*
D27*
X141337000Y-42418000D03*
X139587000Y-42418000D03*
D33*
X114300000Y-51308000D03*
D35*
X114300000Y-53848000D03*
D52*
X159985000Y-45497000D03*
X154985000Y-45497000D03*
D53*
X158785000Y-46597000D03*
X158135000Y-46597000D03*
X157485000Y-46597000D03*
X156835000Y-46597000D03*
X156185000Y-46597000D03*
D54*
X161360000Y-42747000D03*
D55*
X161210000Y-46547000D03*
X153760000Y-46547000D03*
D54*
X153610000Y-42747000D03*
D37*
X137818500Y-42418000D03*
X135993500Y-42418000D03*
D26*
X143510000Y-58266500D03*
X143510000Y-56541500D03*
D35*
X172720000Y-43180000D03*
D34*
X170180000Y-43180000D03*
X167640000Y-43180000D03*
D33*
X109220000Y-48260000D03*
D35*
X111760000Y-48260000D03*
D41*
X146050000Y-79401500D03*
X146050000Y-81126500D03*
D18*
X130151500Y-85090000D03*
X131976500Y-85090000D03*
D37*
X137886500Y-114270000D03*
X136061500Y-114270000D03*
D41*
X162560000Y-104801500D03*
X162560000Y-106526500D03*
D21*
X119075200Y-124460000D03*
X119075200Y-129235200D03*
D56*
X104129840Y-87978945D03*
X104140000Y-49182985D03*
X172135800Y-49193145D03*
D23*
X104617520Y-76142545D03*
D22*
X104617520Y-73602545D03*
X104617520Y-71062545D03*
X104617520Y-68522545D03*
X104617520Y-65982545D03*
X104617520Y-63442545D03*
X104617520Y-60902545D03*
D57*
X138399000Y-81718000D03*
D29*
X138399000Y-102718000D03*
%LPD*%
M02*
