M48
; DRILL file {KiCad 7.0.7} date Sun Sep 24 19:30:15 2023
; FORMAT={-:-/ absolute / metric / decimal}
; #@! TF.CreationDate,2023-09-24T19:30:15+02:00
; #@! TF.GenerationSoftware,Kicad,Pcbnew,7.0.7
; #@! TF.FileFunction,Plated,1,2,PTH
FMAT,2
METRIC
; #@! TA.AperFunction,Plated,PTH,ViaDrill
T1C0.400
; #@! TA.AperFunction,Plated,PTH,ComponentDrill
T2C0.550
; #@! TA.AperFunction,Plated,PTH,ComponentDrill
T3C0.650
; #@! TA.AperFunction,Plated,PTH,ComponentDrill
T4C0.700
; #@! TA.AperFunction,Plated,PTH,ComponentDrill
T5C0.762
; #@! TA.AperFunction,Plated,PTH,ComponentDrill
T6C0.800
; #@! TA.AperFunction,Plated,PTH,ComponentDrill
T7C0.850
; #@! TA.AperFunction,Plated,PTH,ComponentDrill
T8C1.000
; #@! TA.AperFunction,Plated,PTH,ComponentDrill
T9C1.100
; #@! TA.AperFunction,Plated,PTH,ComponentDrill
T10C2.100
%
G90
G05
T1
X101.6Y-43.18
X101.6Y-45.72
X101.6Y-48.26
X101.6Y-50.8
X101.6Y-53.34
X101.6Y-55.88
X101.6Y-58.42
X101.6Y-60.96
X101.6Y-63.5
X101.6Y-66.04
X101.6Y-68.58
X101.6Y-71.12
X101.6Y-73.66
X101.6Y-76.2
X101.6Y-78.74
X101.6Y-81.28
X101.6Y-83.82
X101.6Y-86.36
X101.6Y-88.9
X101.6Y-91.44
X101.6Y-93.98
X101.6Y-96.52
X101.6Y-99.06
X101.6Y-101.6
X101.6Y-104.14
X101.6Y-106.68
X101.6Y-109.22
X101.6Y-111.76
X101.6Y-114.3
X101.6Y-116.84
X101.6Y-119.38
X101.6Y-121.92
X101.6Y-124.46
X101.6Y-127.0
X101.6Y-129.54
X101.6Y-132.08
X101.6Y-134.62
X101.6Y-137.922
X104.14Y-43.18
X104.14Y-45.72
X104.14Y-53.34
X104.14Y-55.88
X104.14Y-137.922
X105.918Y-82.55
X105.918Y-93.98
X106.68Y-45.72
X106.68Y-53.34
X106.68Y-55.88
X106.68Y-137.922
X106.807Y-108.839
X107.442Y-72.39
X107.569Y-92.075
X107.95Y-100.076
X108.204Y-51.562
X108.204Y-54.61
X109.22Y-137.922
X111.76Y-53.848
X111.76Y-137.922
X113.03Y-102.108
X113.538Y-57.404
X113.665Y-108.712
X114.3Y-48.413
X114.3Y-49.683
X114.3Y-137.922
X115.824Y-48.413
X115.824Y-49.683
X115.824Y-51.207
X115.951Y-132.207
X116.84Y-91.567
X116.84Y-137.922
X117.094Y-42.164
X117.348Y-48.413
X117.348Y-49.999
X117.348Y-51.207
X117.348Y-53.124
X117.348Y-83.058
X117.348Y-86.868
X117.856Y-95.885
X118.11Y-71.374
X118.11Y-73.406
X118.618Y-45.212
X118.745Y-89.535
X119.126Y-119.253
X119.38Y-42.164
X119.38Y-48.413
X119.38Y-49.683
X119.38Y-51.207
X119.38Y-137.922
X120.396Y-81.915
X120.65Y-71.374
X120.65Y-73.406
X121.158Y-45.466
X121.412Y-48.921
X121.666Y-51.207
X121.92Y-42.418
X121.92Y-55.88
X121.92Y-137.922
X122.174Y-47.498
X122.174Y-50.038
X122.682Y-83.058
X122.682Y-86.868
X122.682Y-91.186
X123.285Y-100.33
X123.444Y-42.418
X123.785Y-51.273
X123.952Y-48.413
X123.952Y-49.999
X123.952Y-52.832
X124.079Y-113.411
X124.46Y-55.88
X124.46Y-137.922
X125.222Y-42.418
X125.476Y-48.413
X125.476Y-49.683
X125.476Y-50.953
X125.476Y-105.029
X125.857Y-86.233
X125.984Y-127.635
X126.365Y-52.832
X126.746Y-44.958
X127.0Y-48.413
X127.0Y-49.683
X127.0Y-50.953
X127.0Y-68.58
X127.0Y-92.964
X127.0Y-101.346
X127.0Y-137.922
X127.508Y-88.773
X128.397Y-93.853
X128.524Y-91.567
X128.905Y-49.657
X129.032Y-46.228
X129.286Y-88.392
X129.54Y-68.58
X129.54Y-71.12
X129.54Y-137.922
X130.255Y-100.584
X130.302Y-106.934
X131.064Y-124.968
X131.572Y-54.102
X131.616Y-51.606
X131.826Y-92.583
X131.976Y-90.17
X132.038Y-83.627
X132.08Y-71.12
X132.08Y-73.279
X132.08Y-97.536
X132.08Y-137.922
X132.207Y-68.58
X132.588Y-121.92
X132.588Y-132.207
X133.35Y-109.728
X133.355Y-85.09
X134.112Y-51.562
X134.62Y-71.12
X134.62Y-137.922
X135.001Y-43.561
X135.509Y-87.63
X135.599Y-90.093
X135.599Y-92.593
X135.599Y-97.593
X135.599Y-100.093
X136.144Y-108.839
X136.906Y-54.483
X137.16Y-137.922
X137.204Y-51.816
X137.414Y-79.502
X137.414Y-104.648
X137.922Y-88.519
X138.049Y-85.598
X138.43Y-46.99
X138.684Y-49.53
X139.065Y-67.183
X139.446Y-44.323
X139.573Y-118.872
X139.7Y-127.0
X139.7Y-137.922
X140.843Y-106.934
X140.97Y-58.42
X142.113Y-44.196
X142.24Y-137.922
X143.51Y-49.53
X143.51Y-51.054
X143.51Y-73.66
X143.51Y-78.486
X144.018Y-99.822
X144.488Y-44.45
X144.526Y-53.467
X144.78Y-137.922
X145.288Y-105.156
X145.669Y-83.693
X145.796Y-51.054
X145.923Y-47.498
X146.304Y-67.564
X146.431Y-118.872
X146.558Y-95.504
X146.685Y-90.932
X146.812Y-127.0
X146.939Y-132.461
X147.32Y-137.922
X148.082Y-57.404
X148.59Y-104.14
X149.709Y-97.79
X149.86Y-137.922
X149.987Y-51.562
X150.114Y-112.268
X150.241Y-49.657
X150.368Y-57.404
X150.368Y-73.66
X150.495Y-45.593
X150.876Y-53.213
X151.534Y-97.79
X152.4Y-137.922
X152.463Y-49.593
X152.654Y-57.404
X154.178Y-63.246
X154.936Y-99.064
X154.94Y-137.922
X155.067Y-107.823
X155.194Y-48.514
X155.702Y-42.672
X155.956Y-81.534
X155.956Y-99.314
X156.718Y-54.864
X156.718Y-57.404
X157.226Y-42.672
X157.226Y-91.694
X157.226Y-93.726
X157.48Y-137.922
X157.988Y-67.183
X157.988Y-69.596
X157.988Y-72.39
X158.115Y-103.251
X158.242Y-82.042
X158.496Y-87.122
X158.75Y-42.672
X158.75Y-95.631
X158.877Y-106.807
X159.004Y-79.502
X159.008Y-89.158
X159.385Y-119.126
X159.512Y-52.454
X159.766Y-132.334
X160.02Y-97.409
X160.02Y-137.922
X162.052Y-57.912
X162.306Y-53.594
X162.306Y-54.864
X162.306Y-90.17
X162.56Y-137.922
X163.322Y-85.344
X164.084Y-53.594
X164.084Y-54.864
X164.084Y-56.896
X164.592Y-93.218
X164.719Y-105.664
X164.846Y-97.917
X165.1Y-44.196
X165.1Y-48.26
X165.1Y-50.8
X165.1Y-52.578
X165.1Y-137.922
X165.227Y-64.516
X166.116Y-53.594
X166.116Y-54.864
X166.116Y-56.896
X166.624Y-94.488
X166.624Y-108.204
X167.386Y-50.8
X167.64Y-48.26
X167.64Y-137.922
X167.894Y-53.594
X167.894Y-54.864
X167.894Y-57.912
X167.894Y-70.104
X167.894Y-83.312
X168.402Y-74.422
X168.402Y-90.424
X168.783Y-104.267
X168.91Y-68.326
X169.291Y-114.554
X169.418Y-125.349
X169.545Y-119.38
X170.18Y-72.136
X170.18Y-97.155
X170.18Y-137.922
X172.466Y-52.324
X172.466Y-54.864
X172.72Y-137.922
X175.26Y-43.18
X175.26Y-45.72
X175.26Y-48.26
X175.26Y-50.8
X175.26Y-53.34
X175.26Y-55.88
X175.26Y-58.42
X175.26Y-60.96
X175.26Y-63.5
X175.26Y-67.31
X175.26Y-68.58
X175.26Y-71.12
X175.26Y-73.66
X175.26Y-76.2
X175.26Y-78.74
X175.26Y-81.28
X175.26Y-83.82
X175.26Y-86.36
X175.26Y-88.9
X175.26Y-91.44
X175.26Y-109.22
X175.26Y-111.76
X175.26Y-114.3
X175.26Y-116.84
X175.26Y-119.38
X175.26Y-121.92
X175.26Y-124.46
X175.26Y-127.0
X175.26Y-129.54
X175.26Y-132.08
X175.26Y-134.62
X175.26Y-137.16
T3
X143.51Y-86.106
X143.51Y-87.376
X143.51Y-88.646
X143.51Y-89.916
X143.51Y-91.186
X143.51Y-92.456
X143.51Y-93.726
X143.51Y-94.996
T4
X163.576Y-81.026
X167.386Y-81.026
X171.958Y-81.026
X172.466Y-59.69
T5
X104.618Y-60.903
X104.618Y-63.443
X104.618Y-65.983
X104.618Y-68.523
X104.618Y-71.063
X104.618Y-73.603
X104.618Y-76.143
T6
X118.115Y-60.965
X118.115Y-76.205
X120.655Y-60.965
X120.655Y-76.205
X123.195Y-60.965
X123.195Y-76.205
X125.735Y-60.965
X125.735Y-76.205
X128.275Y-60.965
X128.275Y-76.205
X130.815Y-60.965
X130.815Y-76.205
X133.355Y-60.965
X133.355Y-76.205
X135.895Y-60.965
X135.895Y-76.205
X138.435Y-60.965
X138.435Y-76.205
X140.975Y-60.965
X140.975Y-76.205
X143.515Y-60.965
X143.515Y-76.205
X143.854Y-68.834
X146.055Y-60.965
X146.055Y-76.205
X148.595Y-60.965
X148.595Y-76.205
X148.754Y-68.834
X151.135Y-60.965
X151.135Y-76.205
X153.675Y-60.965
X153.675Y-76.205
X156.215Y-60.965
X156.215Y-76.205
X158.755Y-60.965
X158.755Y-76.205
X161.295Y-60.965
X161.295Y-76.205
X163.835Y-60.965
X163.835Y-76.205
X166.375Y-60.965
X166.375Y-76.205
T8
X109.22Y-43.18
X109.22Y-48.26
X111.76Y-43.18
X111.76Y-48.26
X114.3Y-43.18
X114.3Y-51.308
X114.3Y-53.848
X121.92Y-95.504
X121.92Y-98.044
X124.46Y-95.504
X124.46Y-98.044
X127.0Y-95.504
X127.0Y-98.044
X167.64Y-43.18
X170.18Y-43.18
X172.72Y-43.18
X172.72Y-64.77
X172.72Y-67.31
X172.72Y-69.85
X172.72Y-72.39
X174.752Y-97.322
X174.752Y-99.822
X174.752Y-102.322
T9
X109.22Y-119.38
X113.995Y-119.38
X119.075Y-109.525
X119.075Y-114.3
X119.075Y-124.46
X119.075Y-129.235
X124.46Y-119.38
X129.235Y-119.38
X154.94Y-112.065
X154.94Y-116.84
X154.94Y-121.92
X154.94Y-126.695
X163.83Y-112.065
X163.83Y-116.84
X163.83Y-121.92
X163.83Y-126.695
T2
X153.61Y-43.072G85X153.61Y-42.422
G05
X161.36Y-43.072G85X161.36Y-42.422
G05
T7
X153.76Y-46.822G85X153.76Y-46.272
G05
X161.21Y-46.822G85X161.21Y-46.272
G05
T10
X172.002Y-94.422G85X172.502Y-94.422
G05
X172.002Y-105.222G85X172.502Y-105.222
G05
T0
M30
