G04 #@! TF.GenerationSoftware,KiCad,Pcbnew,7.0.7*
G04 #@! TF.CreationDate,2023-09-24T19:29:38+02:00*
G04 #@! TF.ProjectId,ardumate,61726475-6d61-4746-952e-6b696361645f,rev?*
G04 #@! TF.SameCoordinates,Original*
G04 #@! TF.FileFunction,Soldermask,Top*
G04 #@! TF.FilePolarity,Negative*
%FSLAX46Y46*%
G04 Gerber Fmt 4.6, Leading zero omitted, Abs format (unit mm)*
G04 Created by KiCad (PCBNEW 7.0.7) date 2023-09-24 19:29:38*
%MOMM*%
%LPD*%
G01*
G04 APERTURE LIST*
G04 Aperture macros list*
%AMRoundRect*
0 Rectangle with rounded corners*
0 $1 Rounding radius*
0 $2 $3 $4 $5 $6 $7 $8 $9 X,Y pos of 4 corners*
0 Add a 4 corners polygon primitive as box body*
4,1,4,$2,$3,$4,$5,$6,$7,$8,$9,$2,$3,0*
0 Add four circle primitives for the rounded corners*
1,1,$1+$1,$2,$3*
1,1,$1+$1,$4,$5*
1,1,$1+$1,$6,$7*
1,1,$1+$1,$8,$9*
0 Add four rect primitives between the rounded corners*
20,1,$1+$1,$2,$3,$4,$5,0*
20,1,$1+$1,$4,$5,$6,$7,0*
20,1,$1+$1,$6,$7,$8,$9,0*
20,1,$1+$1,$8,$9,$2,$3,0*%
G04 Aperture macros list end*
%ADD10C,0.300000*%
%ADD11RoundRect,0.250000X0.412500X0.650000X-0.412500X0.650000X-0.412500X-0.650000X0.412500X-0.650000X0*%
%ADD12RoundRect,0.250000X-0.650000X0.412500X-0.650000X-0.412500X0.650000X-0.412500X0.650000X0.412500X0*%
%ADD13C,1.500000*%
%ADD14RoundRect,0.237500X-0.250000X-0.237500X0.250000X-0.237500X0.250000X0.237500X-0.250000X0.237500X0*%
%ADD15RoundRect,0.087500X0.187500X0.087500X-0.187500X0.087500X-0.187500X-0.087500X0.187500X-0.087500X0*%
%ADD16RoundRect,0.087500X0.087500X0.187500X-0.087500X0.187500X-0.087500X-0.187500X0.087500X-0.187500X0*%
%ADD17C,2.000000*%
%ADD18C,1.524000*%
%ADD19R,1.524000X1.524000*%
%ADD20RoundRect,0.725000X0.975000X-0.725000X0.975000X0.725000X-0.975000X0.725000X-0.975000X-0.725000X0*%
%ADD21RoundRect,0.237500X-0.237500X0.250000X-0.237500X-0.250000X0.237500X-0.250000X0.237500X0.250000X0*%
%ADD22RoundRect,0.237500X0.237500X-0.300000X0.237500X0.300000X-0.237500X0.300000X-0.237500X-0.300000X0*%
%ADD23RoundRect,0.237500X0.287500X0.237500X-0.287500X0.237500X-0.287500X-0.237500X0.287500X-0.237500X0*%
%ADD24RoundRect,0.100000X-0.712500X-0.100000X0.712500X-0.100000X0.712500X0.100000X-0.712500X0.100000X0*%
%ADD25C,1.600000*%
%ADD26O,1.600000X1.600000*%
%ADD27R,1.600000X1.600000*%
%ADD28RoundRect,0.237500X-0.287500X-0.237500X0.287500X-0.237500X0.287500X0.237500X-0.287500X0.237500X0*%
%ADD29C,1.700000*%
%ADD30O,1.700000X1.700000*%
%ADD31R,1.700000X1.700000*%
%ADD32RoundRect,0.237500X-0.300000X-0.237500X0.300000X-0.237500X0.300000X0.237500X-0.300000X0.237500X0*%
%ADD33RoundRect,0.237500X0.250000X0.237500X-0.250000X0.237500X-0.250000X-0.237500X0.250000X-0.237500X0*%
%ADD34R,1.750000X0.450000*%
%ADD35RoundRect,0.237500X0.237500X-0.250000X0.237500X0.250000X-0.237500X0.250000X-0.237500X-0.250000X0*%
%ADD36RoundRect,0.150000X-0.512500X-0.150000X0.512500X-0.150000X0.512500X0.150000X-0.512500X0.150000X0*%
%ADD37RoundRect,0.237500X-0.237500X0.300000X-0.237500X-0.300000X0.237500X-0.300000X0.237500X0.300000X0*%
%ADD38RoundRect,0.250000X0.650000X-0.412500X0.650000X0.412500X-0.650000X0.412500X-0.650000X-0.412500X0*%
%ADD39RoundRect,0.237500X0.300000X0.237500X-0.300000X0.237500X-0.300000X-0.237500X0.300000X-0.237500X0*%
%ADD40R,1.000000X0.750000*%
%ADD41C,1.000000*%
%ADD42R,1.000000X1.000000*%
%ADD43O,1.000000X1.000000*%
%ADD44RoundRect,0.250000X-0.625000X0.375000X-0.625000X-0.375000X0.625000X-0.375000X0.625000X0.375000X0*%
%ADD45R,1.500000X2.000000*%
%ADD46R,3.800000X2.000000*%
%ADD47RoundRect,0.150000X0.512500X0.150000X-0.512500X0.150000X-0.512500X-0.150000X0.512500X-0.150000X0*%
%ADD48O,0.800000X0.800000*%
%ADD49R,0.450000X1.300000*%
%ADD50O,1.150000X1.800000*%
%ADD51O,1.450000X2.000000*%
%ADD52C,3.000000*%
%ADD53C,1.100000*%
G04 APERTURE END LIST*
D10*
X103067320Y-135947209D02*
X104019701Y-135947209D01*
X102876844Y-136518638D02*
X103543510Y-134518638D01*
X103543510Y-134518638D02*
X104210177Y-136518638D01*
X104876844Y-136518638D02*
X104876844Y-135185304D01*
X104876844Y-135566257D02*
X104972082Y-135375780D01*
X104972082Y-135375780D02*
X105067320Y-135280542D01*
X105067320Y-135280542D02*
X105257796Y-135185304D01*
X105257796Y-135185304D02*
X105448273Y-135185304D01*
X106972082Y-136518638D02*
X106972082Y-134518638D01*
X106972082Y-136423400D02*
X106781606Y-136518638D01*
X106781606Y-136518638D02*
X106400653Y-136518638D01*
X106400653Y-136518638D02*
X106210177Y-136423400D01*
X106210177Y-136423400D02*
X106114939Y-136328161D01*
X106114939Y-136328161D02*
X106019701Y-136137685D01*
X106019701Y-136137685D02*
X106019701Y-135566257D01*
X106019701Y-135566257D02*
X106114939Y-135375780D01*
X106114939Y-135375780D02*
X106210177Y-135280542D01*
X106210177Y-135280542D02*
X106400653Y-135185304D01*
X106400653Y-135185304D02*
X106781606Y-135185304D01*
X106781606Y-135185304D02*
X106972082Y-135280542D01*
X108781606Y-135185304D02*
X108781606Y-136518638D01*
X107924463Y-135185304D02*
X107924463Y-136232923D01*
X107924463Y-136232923D02*
X108019701Y-136423400D01*
X108019701Y-136423400D02*
X108210177Y-136518638D01*
X108210177Y-136518638D02*
X108495892Y-136518638D01*
X108495892Y-136518638D02*
X108686368Y-136423400D01*
X108686368Y-136423400D02*
X108781606Y-136328161D01*
X109733987Y-136518638D02*
X109733987Y-135185304D01*
X109733987Y-135375780D02*
X109829225Y-135280542D01*
X109829225Y-135280542D02*
X110019701Y-135185304D01*
X110019701Y-135185304D02*
X110305416Y-135185304D01*
X110305416Y-135185304D02*
X110495892Y-135280542D01*
X110495892Y-135280542D02*
X110591130Y-135471019D01*
X110591130Y-135471019D02*
X110591130Y-136518638D01*
X110591130Y-135471019D02*
X110686368Y-135280542D01*
X110686368Y-135280542D02*
X110876844Y-135185304D01*
X110876844Y-135185304D02*
X111162558Y-135185304D01*
X111162558Y-135185304D02*
X111353035Y-135280542D01*
X111353035Y-135280542D02*
X111448273Y-135471019D01*
X111448273Y-135471019D02*
X111448273Y-136518638D01*
X113257797Y-136518638D02*
X113257797Y-135471019D01*
X113257797Y-135471019D02*
X113162559Y-135280542D01*
X113162559Y-135280542D02*
X112972083Y-135185304D01*
X112972083Y-135185304D02*
X112591130Y-135185304D01*
X112591130Y-135185304D02*
X112400654Y-135280542D01*
X113257797Y-136423400D02*
X113067321Y-136518638D01*
X113067321Y-136518638D02*
X112591130Y-136518638D01*
X112591130Y-136518638D02*
X112400654Y-136423400D01*
X112400654Y-136423400D02*
X112305416Y-136232923D01*
X112305416Y-136232923D02*
X112305416Y-136042447D01*
X112305416Y-136042447D02*
X112400654Y-135851971D01*
X112400654Y-135851971D02*
X112591130Y-135756733D01*
X112591130Y-135756733D02*
X113067321Y-135756733D01*
X113067321Y-135756733D02*
X113257797Y-135661495D01*
X113924464Y-135185304D02*
X114686368Y-135185304D01*
X114210178Y-134518638D02*
X114210178Y-136232923D01*
X114210178Y-136232923D02*
X114305416Y-136423400D01*
X114305416Y-136423400D02*
X114495892Y-136518638D01*
X114495892Y-136518638D02*
X114686368Y-136518638D01*
X116114940Y-136423400D02*
X115924464Y-136518638D01*
X115924464Y-136518638D02*
X115543511Y-136518638D01*
X115543511Y-136518638D02*
X115353035Y-136423400D01*
X115353035Y-136423400D02*
X115257797Y-136232923D01*
X115257797Y-136232923D02*
X115257797Y-135471019D01*
X115257797Y-135471019D02*
X115353035Y-135280542D01*
X115353035Y-135280542D02*
X115543511Y-135185304D01*
X115543511Y-135185304D02*
X115924464Y-135185304D01*
X115924464Y-135185304D02*
X116114940Y-135280542D01*
X116114940Y-135280542D02*
X116210178Y-135471019D01*
X116210178Y-135471019D02*
X116210178Y-135661495D01*
X116210178Y-135661495D02*
X115257797Y-135851971D01*
X118400655Y-135185304D02*
X118876845Y-136518638D01*
X118876845Y-136518638D02*
X119353036Y-135185304D01*
X121162560Y-136518638D02*
X120019703Y-136518638D01*
X120591131Y-136518638D02*
X120591131Y-134518638D01*
X120591131Y-134518638D02*
X120400655Y-134804352D01*
X120400655Y-134804352D02*
X120210179Y-134994828D01*
X120210179Y-134994828D02*
X120019703Y-135090066D01*
X122019703Y-136328161D02*
X122114941Y-136423400D01*
X122114941Y-136423400D02*
X122019703Y-136518638D01*
X122019703Y-136518638D02*
X121924465Y-136423400D01*
X121924465Y-136423400D02*
X122019703Y-136328161D01*
X122019703Y-136328161D02*
X122019703Y-136518638D01*
X123353036Y-134518638D02*
X123543513Y-134518638D01*
X123543513Y-134518638D02*
X123733989Y-134613876D01*
X123733989Y-134613876D02*
X123829227Y-134709114D01*
X123829227Y-134709114D02*
X123924465Y-134899590D01*
X123924465Y-134899590D02*
X124019703Y-135280542D01*
X124019703Y-135280542D02*
X124019703Y-135756733D01*
X124019703Y-135756733D02*
X123924465Y-136137685D01*
X123924465Y-136137685D02*
X123829227Y-136328161D01*
X123829227Y-136328161D02*
X123733989Y-136423400D01*
X123733989Y-136423400D02*
X123543513Y-136518638D01*
X123543513Y-136518638D02*
X123353036Y-136518638D01*
X123353036Y-136518638D02*
X123162560Y-136423400D01*
X123162560Y-136423400D02*
X123067322Y-136328161D01*
X123067322Y-136328161D02*
X122972084Y-136137685D01*
X122972084Y-136137685D02*
X122876846Y-135756733D01*
X122876846Y-135756733D02*
X122876846Y-135280542D01*
X122876846Y-135280542D02*
X122972084Y-134899590D01*
X122972084Y-134899590D02*
X123067322Y-134709114D01*
X123067322Y-134709114D02*
X123162560Y-134613876D01*
X123162560Y-134613876D02*
X123353036Y-134518638D01*
X152287653Y-136309971D02*
X152216225Y-136381400D01*
X152216225Y-136381400D02*
X152001939Y-136452828D01*
X152001939Y-136452828D02*
X151859082Y-136452828D01*
X151859082Y-136452828D02*
X151644796Y-136381400D01*
X151644796Y-136381400D02*
X151501939Y-136238542D01*
X151501939Y-136238542D02*
X151430510Y-136095685D01*
X151430510Y-136095685D02*
X151359082Y-135809971D01*
X151359082Y-135809971D02*
X151359082Y-135595685D01*
X151359082Y-135595685D02*
X151430510Y-135309971D01*
X151430510Y-135309971D02*
X151501939Y-135167114D01*
X151501939Y-135167114D02*
X151644796Y-135024257D01*
X151644796Y-135024257D02*
X151859082Y-134952828D01*
X151859082Y-134952828D02*
X152001939Y-134952828D01*
X152001939Y-134952828D02*
X152216225Y-135024257D01*
X152216225Y-135024257D02*
X152287653Y-135095685D01*
X153144796Y-136452828D02*
X153001939Y-136381400D01*
X153001939Y-136381400D02*
X152930510Y-136309971D01*
X152930510Y-136309971D02*
X152859082Y-136167114D01*
X152859082Y-136167114D02*
X152859082Y-135738542D01*
X152859082Y-135738542D02*
X152930510Y-135595685D01*
X152930510Y-135595685D02*
X153001939Y-135524257D01*
X153001939Y-135524257D02*
X153144796Y-135452828D01*
X153144796Y-135452828D02*
X153359082Y-135452828D01*
X153359082Y-135452828D02*
X153501939Y-135524257D01*
X153501939Y-135524257D02*
X153573368Y-135595685D01*
X153573368Y-135595685D02*
X153644796Y-135738542D01*
X153644796Y-135738542D02*
X153644796Y-136167114D01*
X153644796Y-136167114D02*
X153573368Y-136309971D01*
X153573368Y-136309971D02*
X153501939Y-136381400D01*
X153501939Y-136381400D02*
X153359082Y-136452828D01*
X153359082Y-136452828D02*
X153144796Y-136452828D01*
X154216225Y-136381400D02*
X154430511Y-136452828D01*
X154430511Y-136452828D02*
X154787653Y-136452828D01*
X154787653Y-136452828D02*
X154930511Y-136381400D01*
X154930511Y-136381400D02*
X155001939Y-136309971D01*
X155001939Y-136309971D02*
X155073368Y-136167114D01*
X155073368Y-136167114D02*
X155073368Y-136024257D01*
X155073368Y-136024257D02*
X155001939Y-135881400D01*
X155001939Y-135881400D02*
X154930511Y-135809971D01*
X154930511Y-135809971D02*
X154787653Y-135738542D01*
X154787653Y-135738542D02*
X154501939Y-135667114D01*
X154501939Y-135667114D02*
X154359082Y-135595685D01*
X154359082Y-135595685D02*
X154287653Y-135524257D01*
X154287653Y-135524257D02*
X154216225Y-135381400D01*
X154216225Y-135381400D02*
X154216225Y-135238542D01*
X154216225Y-135238542D02*
X154287653Y-135095685D01*
X154287653Y-135095685D02*
X154359082Y-135024257D01*
X154359082Y-135024257D02*
X154501939Y-134952828D01*
X154501939Y-134952828D02*
X154859082Y-134952828D01*
X154859082Y-134952828D02*
X155073368Y-135024257D01*
X156359082Y-136452828D02*
X156359082Y-135667114D01*
X156359082Y-135667114D02*
X156287653Y-135524257D01*
X156287653Y-135524257D02*
X156144796Y-135452828D01*
X156144796Y-135452828D02*
X155859082Y-135452828D01*
X155859082Y-135452828D02*
X155716224Y-135524257D01*
X156359082Y-136381400D02*
X156216224Y-136452828D01*
X156216224Y-136452828D02*
X155859082Y-136452828D01*
X155859082Y-136452828D02*
X155716224Y-136381400D01*
X155716224Y-136381400D02*
X155644796Y-136238542D01*
X155644796Y-136238542D02*
X155644796Y-136095685D01*
X155644796Y-136095685D02*
X155716224Y-135952828D01*
X155716224Y-135952828D02*
X155859082Y-135881400D01*
X155859082Y-135881400D02*
X156216224Y-135881400D01*
X156216224Y-135881400D02*
X156359082Y-135809971D01*
X157073367Y-136452828D02*
X157073367Y-135452828D01*
X157073367Y-134952828D02*
X157001939Y-135024257D01*
X157001939Y-135024257D02*
X157073367Y-135095685D01*
X157073367Y-135095685D02*
X157144796Y-135024257D01*
X157144796Y-135024257D02*
X157073367Y-134952828D01*
X157073367Y-134952828D02*
X157073367Y-135095685D01*
X158001939Y-136452828D02*
X157859082Y-136381400D01*
X157859082Y-136381400D02*
X157787653Y-136238542D01*
X157787653Y-136238542D02*
X157787653Y-134952828D01*
X159144796Y-136381400D02*
X159001939Y-136452828D01*
X159001939Y-136452828D02*
X158716225Y-136452828D01*
X158716225Y-136452828D02*
X158573367Y-136381400D01*
X158573367Y-136381400D02*
X158501939Y-136238542D01*
X158501939Y-136238542D02*
X158501939Y-135667114D01*
X158501939Y-135667114D02*
X158573367Y-135524257D01*
X158573367Y-135524257D02*
X158716225Y-135452828D01*
X158716225Y-135452828D02*
X159001939Y-135452828D01*
X159001939Y-135452828D02*
X159144796Y-135524257D01*
X159144796Y-135524257D02*
X159216225Y-135667114D01*
X159216225Y-135667114D02*
X159216225Y-135809971D01*
X159216225Y-135809971D02*
X158501939Y-135952828D01*
X159859081Y-136452828D02*
X159859081Y-135452828D01*
X159859081Y-135738542D02*
X159930510Y-135595685D01*
X159930510Y-135595685D02*
X160001939Y-135524257D01*
X160001939Y-135524257D02*
X160144796Y-135452828D01*
X160144796Y-135452828D02*
X160287653Y-135452828D01*
X161859081Y-135095685D02*
X161930509Y-135024257D01*
X161930509Y-135024257D02*
X162073367Y-134952828D01*
X162073367Y-134952828D02*
X162430509Y-134952828D01*
X162430509Y-134952828D02*
X162573367Y-135024257D01*
X162573367Y-135024257D02*
X162644795Y-135095685D01*
X162644795Y-135095685D02*
X162716224Y-135238542D01*
X162716224Y-135238542D02*
X162716224Y-135381400D01*
X162716224Y-135381400D02*
X162644795Y-135595685D01*
X162644795Y-135595685D02*
X161787652Y-136452828D01*
X161787652Y-136452828D02*
X162716224Y-136452828D01*
X163216223Y-134952828D02*
X164144795Y-134952828D01*
X164144795Y-134952828D02*
X163644795Y-135524257D01*
X163644795Y-135524257D02*
X163859080Y-135524257D01*
X163859080Y-135524257D02*
X164001938Y-135595685D01*
X164001938Y-135595685D02*
X164073366Y-135667114D01*
X164073366Y-135667114D02*
X164144795Y-135809971D01*
X164144795Y-135809971D02*
X164144795Y-136167114D01*
X164144795Y-136167114D02*
X164073366Y-136309971D01*
X164073366Y-136309971D02*
X164001938Y-136381400D01*
X164001938Y-136381400D02*
X163859080Y-136452828D01*
X163859080Y-136452828D02*
X163430509Y-136452828D01*
X163430509Y-136452828D02*
X163287652Y-136381400D01*
X163287652Y-136381400D02*
X163216223Y-136309971D01*
X164787651Y-136309971D02*
X164859080Y-136381400D01*
X164859080Y-136381400D02*
X164787651Y-136452828D01*
X164787651Y-136452828D02*
X164716223Y-136381400D01*
X164716223Y-136381400D02*
X164787651Y-136309971D01*
X164787651Y-136309971D02*
X164787651Y-136452828D01*
X165787652Y-134952828D02*
X165930509Y-134952828D01*
X165930509Y-134952828D02*
X166073366Y-135024257D01*
X166073366Y-135024257D02*
X166144795Y-135095685D01*
X166144795Y-135095685D02*
X166216223Y-135238542D01*
X166216223Y-135238542D02*
X166287652Y-135524257D01*
X166287652Y-135524257D02*
X166287652Y-135881400D01*
X166287652Y-135881400D02*
X166216223Y-136167114D01*
X166216223Y-136167114D02*
X166144795Y-136309971D01*
X166144795Y-136309971D02*
X166073366Y-136381400D01*
X166073366Y-136381400D02*
X165930509Y-136452828D01*
X165930509Y-136452828D02*
X165787652Y-136452828D01*
X165787652Y-136452828D02*
X165644795Y-136381400D01*
X165644795Y-136381400D02*
X165573366Y-136309971D01*
X165573366Y-136309971D02*
X165501937Y-136167114D01*
X165501937Y-136167114D02*
X165430509Y-135881400D01*
X165430509Y-135881400D02*
X165430509Y-135524257D01*
X165430509Y-135524257D02*
X165501937Y-135238542D01*
X165501937Y-135238542D02*
X165573366Y-135095685D01*
X165573366Y-135095685D02*
X165644795Y-135024257D01*
X165644795Y-135024257D02*
X165787652Y-134952828D01*
X167001937Y-136452828D02*
X167287651Y-136452828D01*
X167287651Y-136452828D02*
X167430508Y-136381400D01*
X167430508Y-136381400D02*
X167501937Y-136309971D01*
X167501937Y-136309971D02*
X167644794Y-136095685D01*
X167644794Y-136095685D02*
X167716223Y-135809971D01*
X167716223Y-135809971D02*
X167716223Y-135238542D01*
X167716223Y-135238542D02*
X167644794Y-135095685D01*
X167644794Y-135095685D02*
X167573366Y-135024257D01*
X167573366Y-135024257D02*
X167430508Y-134952828D01*
X167430508Y-134952828D02*
X167144794Y-134952828D01*
X167144794Y-134952828D02*
X167001937Y-135024257D01*
X167001937Y-135024257D02*
X166930508Y-135095685D01*
X166930508Y-135095685D02*
X166859080Y-135238542D01*
X166859080Y-135238542D02*
X166859080Y-135595685D01*
X166859080Y-135595685D02*
X166930508Y-135738542D01*
X166930508Y-135738542D02*
X167001937Y-135809971D01*
X167001937Y-135809971D02*
X167144794Y-135881400D01*
X167144794Y-135881400D02*
X167430508Y-135881400D01*
X167430508Y-135881400D02*
X167573366Y-135809971D01*
X167573366Y-135809971D02*
X167644794Y-135738542D01*
X167644794Y-135738542D02*
X167716223Y-135595685D01*
X168359079Y-136309971D02*
X168430508Y-136381400D01*
X168430508Y-136381400D02*
X168359079Y-136452828D01*
X168359079Y-136452828D02*
X168287651Y-136381400D01*
X168287651Y-136381400D02*
X168359079Y-136309971D01*
X168359079Y-136309971D02*
X168359079Y-136452828D01*
X169001937Y-135095685D02*
X169073365Y-135024257D01*
X169073365Y-135024257D02*
X169216223Y-134952828D01*
X169216223Y-134952828D02*
X169573365Y-134952828D01*
X169573365Y-134952828D02*
X169716223Y-135024257D01*
X169716223Y-135024257D02*
X169787651Y-135095685D01*
X169787651Y-135095685D02*
X169859080Y-135238542D01*
X169859080Y-135238542D02*
X169859080Y-135381400D01*
X169859080Y-135381400D02*
X169787651Y-135595685D01*
X169787651Y-135595685D02*
X168930508Y-136452828D01*
X168930508Y-136452828D02*
X169859080Y-136452828D01*
X170787651Y-134952828D02*
X170930508Y-134952828D01*
X170930508Y-134952828D02*
X171073365Y-135024257D01*
X171073365Y-135024257D02*
X171144794Y-135095685D01*
X171144794Y-135095685D02*
X171216222Y-135238542D01*
X171216222Y-135238542D02*
X171287651Y-135524257D01*
X171287651Y-135524257D02*
X171287651Y-135881400D01*
X171287651Y-135881400D02*
X171216222Y-136167114D01*
X171216222Y-136167114D02*
X171144794Y-136309971D01*
X171144794Y-136309971D02*
X171073365Y-136381400D01*
X171073365Y-136381400D02*
X170930508Y-136452828D01*
X170930508Y-136452828D02*
X170787651Y-136452828D01*
X170787651Y-136452828D02*
X170644794Y-136381400D01*
X170644794Y-136381400D02*
X170573365Y-136309971D01*
X170573365Y-136309971D02*
X170501936Y-136167114D01*
X170501936Y-136167114D02*
X170430508Y-135881400D01*
X170430508Y-135881400D02*
X170430508Y-135524257D01*
X170430508Y-135524257D02*
X170501936Y-135238542D01*
X170501936Y-135238542D02*
X170573365Y-135095685D01*
X170573365Y-135095685D02*
X170644794Y-135024257D01*
X170644794Y-135024257D02*
X170787651Y-134952828D01*
X171859079Y-135095685D02*
X171930507Y-135024257D01*
X171930507Y-135024257D02*
X172073365Y-134952828D01*
X172073365Y-134952828D02*
X172430507Y-134952828D01*
X172430507Y-134952828D02*
X172573365Y-135024257D01*
X172573365Y-135024257D02*
X172644793Y-135095685D01*
X172644793Y-135095685D02*
X172716222Y-135238542D01*
X172716222Y-135238542D02*
X172716222Y-135381400D01*
X172716222Y-135381400D02*
X172644793Y-135595685D01*
X172644793Y-135595685D02*
X171787650Y-136452828D01*
X171787650Y-136452828D02*
X172716222Y-136452828D01*
X173216221Y-134952828D02*
X174144793Y-134952828D01*
X174144793Y-134952828D02*
X173644793Y-135524257D01*
X173644793Y-135524257D02*
X173859078Y-135524257D01*
X173859078Y-135524257D02*
X174001936Y-135595685D01*
X174001936Y-135595685D02*
X174073364Y-135667114D01*
X174073364Y-135667114D02*
X174144793Y-135809971D01*
X174144793Y-135809971D02*
X174144793Y-136167114D01*
X174144793Y-136167114D02*
X174073364Y-136309971D01*
X174073364Y-136309971D02*
X174001936Y-136381400D01*
X174001936Y-136381400D02*
X173859078Y-136452828D01*
X173859078Y-136452828D02*
X173430507Y-136452828D01*
X173430507Y-136452828D02*
X173287650Y-136381400D01*
X173287650Y-136381400D02*
X173216221Y-136309971D01*
D11*
X125006500Y-42418000D03*
X121881500Y-42418000D03*
D12*
X123952000Y-49999500D03*
X123952000Y-53124500D03*
X117348000Y-49999500D03*
X117348000Y-53124500D03*
D13*
X167386000Y-81026000D03*
X172466000Y-59690000D03*
D14*
X162663500Y-102616000D03*
X164488500Y-102616000D03*
D15*
X162769000Y-88630000D03*
X162769000Y-88130000D03*
X162769000Y-87630000D03*
X162769000Y-87130000D03*
X162769000Y-86630000D03*
D16*
X162044000Y-86405000D03*
X161544000Y-86405000D03*
X161044000Y-86405000D03*
D15*
X160319000Y-86630000D03*
X160319000Y-87130000D03*
X160319000Y-87630000D03*
X160319000Y-88130000D03*
X160319000Y-88630000D03*
D16*
X161044000Y-88855000D03*
X161544000Y-88855000D03*
X162044000Y-88855000D03*
D17*
X113995200Y-119380000D03*
X109220000Y-119380000D03*
X154940000Y-116840000D03*
X154940000Y-112064800D03*
D11*
X159804500Y-54864000D03*
X156679500Y-54864000D03*
D14*
X130151500Y-90170000D03*
X131976500Y-90170000D03*
D13*
X156210000Y-85090000D03*
D18*
X174752000Y-102322000D03*
X174752000Y-99822000D03*
D19*
X174752000Y-97322000D03*
D20*
X172252000Y-94422000D03*
X172252000Y-105222000D03*
D21*
X166878000Y-98147500D03*
X166878000Y-99972500D03*
D22*
X138425000Y-58266500D03*
X138425000Y-56541500D03*
D23*
X141704000Y-111710000D03*
X139954000Y-111710000D03*
D24*
X148509500Y-99863000D03*
X148509500Y-100513000D03*
X148509500Y-101163000D03*
X148509500Y-101813000D03*
X152734500Y-101813000D03*
X152734500Y-101163000D03*
X152734500Y-100513000D03*
X152734500Y-99863000D03*
D25*
X118115000Y-76205000D03*
D26*
X120655000Y-76205000D03*
X123195000Y-76205000D03*
X125735000Y-76205000D03*
X128275000Y-76205000D03*
X130815000Y-76205000D03*
X133355000Y-76205000D03*
X135895000Y-76205000D03*
X138435000Y-76205000D03*
X140975000Y-76205000D03*
D27*
X143515000Y-76205000D03*
D26*
X146055000Y-76205000D03*
X148595000Y-76205000D03*
X151135000Y-76205000D03*
X153675000Y-76205000D03*
X156215000Y-76205000D03*
X158755000Y-76205000D03*
X161295000Y-76205000D03*
X163835000Y-76205000D03*
X166375000Y-76205000D03*
X166375000Y-60965000D03*
X163835000Y-60965000D03*
X161295000Y-60965000D03*
X158755000Y-60965000D03*
X156215000Y-60965000D03*
X153675000Y-60965000D03*
X151135000Y-60965000D03*
X148595000Y-60965000D03*
X146055000Y-60965000D03*
X143515000Y-60965000D03*
D27*
X140975000Y-60965000D03*
D26*
X138435000Y-60965000D03*
X135895000Y-60965000D03*
X133355000Y-60965000D03*
X130815000Y-60965000D03*
X128275000Y-60965000D03*
X125735000Y-60965000D03*
X123195000Y-60965000D03*
X120655000Y-60965000D03*
X118115000Y-60965000D03*
D28*
X131205000Y-42418000D03*
X132955000Y-42418000D03*
D29*
X121920000Y-98044000D03*
D30*
X121920000Y-95504000D03*
X124460000Y-98044000D03*
X124460000Y-95504000D03*
X127000000Y-98044000D03*
D31*
X127000000Y-95504000D03*
D32*
X137567500Y-93599000D03*
X139292500Y-93599000D03*
D33*
X137886500Y-111760000D03*
X136061500Y-111760000D03*
D34*
X140970000Y-45525000D03*
X140970000Y-46175000D03*
X140970000Y-46825000D03*
X140970000Y-47475000D03*
X140970000Y-48125000D03*
X140970000Y-48775000D03*
X140970000Y-49425000D03*
X140970000Y-50075000D03*
X140970000Y-50725000D03*
X140970000Y-51375000D03*
X140970000Y-52025000D03*
X140970000Y-52675000D03*
X140970000Y-53325000D03*
X140970000Y-53975000D03*
X148170000Y-53975000D03*
X148170000Y-53325000D03*
X148170000Y-52675000D03*
X148170000Y-52025000D03*
X148170000Y-51375000D03*
X148170000Y-50725000D03*
X148170000Y-50075000D03*
X148170000Y-49425000D03*
X148170000Y-48775000D03*
X148170000Y-48125000D03*
X148170000Y-47475000D03*
X148170000Y-46825000D03*
X148170000Y-46175000D03*
X148170000Y-45525000D03*
D35*
X166878000Y-104290500D03*
X166878000Y-102465500D03*
D36*
X122814500Y-44516000D03*
X122814500Y-45466000D03*
X122814500Y-46416000D03*
X125089500Y-46416000D03*
X125089500Y-44516000D03*
D13*
X148754000Y-68834000D03*
X143854000Y-68834000D03*
D17*
X133096000Y-56896000D03*
D37*
X140970000Y-79401500D03*
X140970000Y-81126500D03*
D38*
X166370000Y-88684500D03*
X166370000Y-85559500D03*
D14*
X130255000Y-97536000D03*
X132080000Y-97536000D03*
D17*
X129286000Y-56896000D03*
D22*
X165100000Y-48106500D03*
X165100000Y-46381500D03*
D29*
X109220000Y-43180000D03*
D30*
X111760000Y-43180000D03*
X114300000Y-43180000D03*
D33*
X119530500Y-55880000D03*
X117705500Y-55880000D03*
D39*
X160882500Y-91694000D03*
X159157500Y-91694000D03*
D23*
X149973000Y-42418000D03*
X148223000Y-42418000D03*
D17*
X163830000Y-116840000D03*
X163830000Y-112064800D03*
D13*
X171958000Y-81026000D03*
D21*
X135680000Y-47093500D03*
X135680000Y-48918500D03*
D40*
X142700000Y-128875000D03*
X136700000Y-128875000D03*
X142700000Y-125125000D03*
X136700000Y-125125000D03*
D17*
X124460000Y-119380000D03*
X129235200Y-119380000D03*
D29*
X172720000Y-64770000D03*
D31*
X172720000Y-67310000D03*
D30*
X172720000Y-69850000D03*
X172720000Y-72390000D03*
D41*
X143510000Y-86106000D03*
D42*
X143510000Y-87376000D03*
D43*
X143510000Y-88646000D03*
X143510000Y-89916000D03*
X143510000Y-91186000D03*
X143510000Y-92456000D03*
X143510000Y-93726000D03*
X143510000Y-94996000D03*
D37*
X133648000Y-47143500D03*
X133648000Y-48868500D03*
D14*
X127611500Y-42418000D03*
X129436500Y-42418000D03*
D17*
X154940000Y-121920000D03*
X154940000Y-126695200D03*
D44*
X159512000Y-49654000D03*
X159512000Y-52454000D03*
D13*
X156210000Y-89154000D03*
D33*
X146313500Y-42418000D03*
X144488500Y-42418000D03*
D13*
X163576000Y-81026000D03*
D14*
X130151500Y-83566000D03*
X131976500Y-83566000D03*
D45*
X167400000Y-50698000D03*
X165100000Y-50698000D03*
D46*
X165100000Y-56998000D03*
D45*
X162800000Y-50698000D03*
D21*
X131616000Y-47093500D03*
X131616000Y-48918500D03*
D17*
X163830000Y-121920000D03*
X163830000Y-126695200D03*
D32*
X137567500Y-91948000D03*
X139292500Y-91948000D03*
D23*
X141704000Y-114300000D03*
X139954000Y-114300000D03*
D37*
X148590000Y-79401500D03*
X148590000Y-81126500D03*
D17*
X119075200Y-109524800D03*
X119075200Y-114300000D03*
D11*
X159804500Y-57404000D03*
X156679500Y-57404000D03*
D22*
X162814000Y-97890500D03*
X162814000Y-96165500D03*
D33*
X151534500Y-97790000D03*
X149709500Y-97790000D03*
D14*
X162767000Y-100076000D03*
X164592000Y-100076000D03*
D32*
X127407500Y-46228000D03*
X129132500Y-46228000D03*
D47*
X121787500Y-53173500D03*
X121787500Y-52223500D03*
X121787500Y-51273500D03*
X119512500Y-51273500D03*
X119512500Y-53173500D03*
D23*
X141337000Y-42418000D03*
X139587000Y-42418000D03*
D29*
X114300000Y-51308000D03*
D31*
X114300000Y-53848000D03*
D48*
X159985000Y-45497000D03*
X154985000Y-45497000D03*
D49*
X158785000Y-46597000D03*
X158135000Y-46597000D03*
X157485000Y-46597000D03*
X156835000Y-46597000D03*
X156185000Y-46597000D03*
D50*
X161360000Y-42747000D03*
D51*
X161210000Y-46547000D03*
X153760000Y-46547000D03*
D50*
X153610000Y-42747000D03*
D33*
X137818500Y-42418000D03*
X135993500Y-42418000D03*
D22*
X143510000Y-58266500D03*
X143510000Y-56541500D03*
D31*
X172720000Y-43180000D03*
D30*
X170180000Y-43180000D03*
X167640000Y-43180000D03*
D29*
X109220000Y-48260000D03*
D31*
X111760000Y-48260000D03*
D37*
X146050000Y-79401500D03*
X146050000Y-81126500D03*
D14*
X130151500Y-85090000D03*
X131976500Y-85090000D03*
D33*
X137886500Y-114270000D03*
X136061500Y-114270000D03*
D37*
X162560000Y-104801500D03*
X162560000Y-106526500D03*
D17*
X119075200Y-124460000D03*
X119075200Y-129235200D03*
D52*
X104129840Y-87978945D03*
X104140000Y-49182985D03*
X172135800Y-49193145D03*
D19*
X104617520Y-76142545D03*
D18*
X104617520Y-73602545D03*
X104617520Y-71062545D03*
X104617520Y-68522545D03*
X104617520Y-65982545D03*
X104617520Y-63442545D03*
X104617520Y-60902545D03*
D53*
X138399000Y-81718000D03*
D25*
X138399000Y-102718000D03*
M02*
