%TF.GenerationSoftware,KiCad,Pcbnew,7.0.7*%
%TF.CreationDate,2023-09-24T19:30:24+02:00*%
%TF.ProjectId,ardumate,61726475-6d61-4746-952e-6b696361645f,rev?*%
%TF.SameCoordinates,Original*%
%TF.FileFunction,Drillmap*%
%TF.FilePolarity,Positive*%
%FSLAX45Y45*%
G04 Gerber Fmt 4.5, Leading zero omitted, Abs format (unit mm)*
G04 Created by KiCad (PCBNEW 7.0.7) date 2023-09-24 19:30:24*
%MOMM*%
%LPD*%
G01*
G04 APERTURE LIST*
%ADD10C,0.100000*%
%ADD11C,0.200000*%
%ADD12C,0.080000*%
%ADD13C,0.110000*%
%ADD14C,0.160000*%
%ADD15C,0.300000*%
G04 APERTURE END LIST*
D10*
X17780000Y-13716000D02*
X17780000Y-4318000D01*
X10160000Y-13970000D02*
X17526000Y-13970000D01*
X17526000Y-13970000D02*
G75*
G03*
X17780000Y-13716000I0J254000D01*
G01*
X9906000Y-4318000D02*
X9906000Y-13716000D01*
X17526000Y-4064000D02*
X10160000Y-4064000D01*
X9906000Y-13716000D02*
G75*
G03*
X10160000Y-13970000I254000J0D01*
G01*
X17780000Y-4318000D02*
G75*
G03*
X17526000Y-4064000I-254000J0D01*
G01*
X10160000Y-4064000D02*
G75*
G03*
X9906000Y-4318000I0J-254000D01*
G01*
D11*
D12*
X15458500Y-4509700D02*
X15538500Y-4589700D01*
X15538500Y-4509700D02*
X15458500Y-4589700D01*
X15958500Y-4509700D02*
X16038500Y-4589700D01*
X16038500Y-4509700D02*
X15958500Y-4589700D01*
D13*
X13894900Y-8171800D02*
G75*
G03*
X13894900Y-8171800I-55000J0D01*
G01*
D14*
X13839900Y-10191800D02*
X13839900Y-10351800D01*
X13759900Y-10271800D02*
X13919900Y-10271800D01*
D15*
X10519051Y-8903962D02*
X10519051Y-8691828D01*
X10306917Y-8691828D01*
X10306917Y-8903962D01*
X10519051Y-8903962D01*
X10520067Y-5024366D02*
X10520067Y-4812232D01*
X10307933Y-4812232D01*
X10307933Y-5024366D01*
X10520067Y-5024366D01*
X17319647Y-5025382D02*
X17319647Y-4813248D01*
X17107513Y-4813248D01*
X17107513Y-5025382D01*
X17319647Y-5025382D01*
D11*
X10161777Y-14286484D02*
X10161777Y-14086484D01*
X10161777Y-14086484D02*
X10209396Y-14086484D01*
X10209396Y-14086484D02*
X10237967Y-14096008D01*
X10237967Y-14096008D02*
X10257015Y-14115055D01*
X10257015Y-14115055D02*
X10266539Y-14134103D01*
X10266539Y-14134103D02*
X10276063Y-14172198D01*
X10276063Y-14172198D02*
X10276063Y-14200769D01*
X10276063Y-14200769D02*
X10266539Y-14238865D01*
X10266539Y-14238865D02*
X10257015Y-14257912D01*
X10257015Y-14257912D02*
X10237967Y-14276960D01*
X10237967Y-14276960D02*
X10209396Y-14286484D01*
X10209396Y-14286484D02*
X10161777Y-14286484D01*
X10361777Y-14286484D02*
X10361777Y-14153150D01*
X10361777Y-14191246D02*
X10371301Y-14172198D01*
X10371301Y-14172198D02*
X10380824Y-14162674D01*
X10380824Y-14162674D02*
X10399872Y-14153150D01*
X10399872Y-14153150D02*
X10418920Y-14153150D01*
X10485586Y-14286484D02*
X10485586Y-14153150D01*
X10485586Y-14086484D02*
X10476063Y-14096008D01*
X10476063Y-14096008D02*
X10485586Y-14105531D01*
X10485586Y-14105531D02*
X10495110Y-14096008D01*
X10495110Y-14096008D02*
X10485586Y-14086484D01*
X10485586Y-14086484D02*
X10485586Y-14105531D01*
X10609396Y-14286484D02*
X10590348Y-14276960D01*
X10590348Y-14276960D02*
X10580824Y-14257912D01*
X10580824Y-14257912D02*
X10580824Y-14086484D01*
X10714158Y-14286484D02*
X10695110Y-14276960D01*
X10695110Y-14276960D02*
X10685586Y-14257912D01*
X10685586Y-14257912D02*
X10685586Y-14086484D01*
X10942729Y-14286484D02*
X10942729Y-14086484D01*
X10942729Y-14086484D02*
X11009396Y-14229341D01*
X11009396Y-14229341D02*
X11076063Y-14086484D01*
X11076063Y-14086484D02*
X11076063Y-14286484D01*
X11257015Y-14286484D02*
X11257015Y-14181722D01*
X11257015Y-14181722D02*
X11247491Y-14162674D01*
X11247491Y-14162674D02*
X11228443Y-14153150D01*
X11228443Y-14153150D02*
X11190348Y-14153150D01*
X11190348Y-14153150D02*
X11171301Y-14162674D01*
X11257015Y-14276960D02*
X11237967Y-14286484D01*
X11237967Y-14286484D02*
X11190348Y-14286484D01*
X11190348Y-14286484D02*
X11171301Y-14276960D01*
X11171301Y-14276960D02*
X11161777Y-14257912D01*
X11161777Y-14257912D02*
X11161777Y-14238865D01*
X11161777Y-14238865D02*
X11171301Y-14219817D01*
X11171301Y-14219817D02*
X11190348Y-14210293D01*
X11190348Y-14210293D02*
X11237967Y-14210293D01*
X11237967Y-14210293D02*
X11257015Y-14200769D01*
X11352253Y-14153150D02*
X11352253Y-14353150D01*
X11352253Y-14162674D02*
X11371301Y-14153150D01*
X11371301Y-14153150D02*
X11409396Y-14153150D01*
X11409396Y-14153150D02*
X11428443Y-14162674D01*
X11428443Y-14162674D02*
X11437967Y-14172198D01*
X11437967Y-14172198D02*
X11447491Y-14191246D01*
X11447491Y-14191246D02*
X11447491Y-14248388D01*
X11447491Y-14248388D02*
X11437967Y-14267436D01*
X11437967Y-14267436D02*
X11428443Y-14276960D01*
X11428443Y-14276960D02*
X11409396Y-14286484D01*
X11409396Y-14286484D02*
X11371301Y-14286484D01*
X11371301Y-14286484D02*
X11352253Y-14276960D01*
X11533205Y-14267436D02*
X11542729Y-14276960D01*
X11542729Y-14276960D02*
X11533205Y-14286484D01*
X11533205Y-14286484D02*
X11523682Y-14276960D01*
X11523682Y-14276960D02*
X11533205Y-14267436D01*
X11533205Y-14267436D02*
X11533205Y-14286484D01*
X11533205Y-14162674D02*
X11542729Y-14172198D01*
X11542729Y-14172198D02*
X11533205Y-14181722D01*
X11533205Y-14181722D02*
X11523682Y-14172198D01*
X11523682Y-14172198D02*
X11533205Y-14162674D01*
X11533205Y-14162674D02*
X11533205Y-14181722D01*
D12*
X9821000Y-14575000D02*
X9901000Y-14655000D01*
X9901000Y-14575000D02*
X9821000Y-14655000D01*
D11*
X10199872Y-14506484D02*
X10218920Y-14506484D01*
X10218920Y-14506484D02*
X10237967Y-14516008D01*
X10237967Y-14516008D02*
X10247491Y-14525531D01*
X10247491Y-14525531D02*
X10257015Y-14544579D01*
X10257015Y-14544579D02*
X10266539Y-14582674D01*
X10266539Y-14582674D02*
X10266539Y-14630293D01*
X10266539Y-14630293D02*
X10257015Y-14668388D01*
X10257015Y-14668388D02*
X10247491Y-14687436D01*
X10247491Y-14687436D02*
X10237967Y-14696960D01*
X10237967Y-14696960D02*
X10218920Y-14706484D01*
X10218920Y-14706484D02*
X10199872Y-14706484D01*
X10199872Y-14706484D02*
X10180824Y-14696960D01*
X10180824Y-14696960D02*
X10171301Y-14687436D01*
X10171301Y-14687436D02*
X10161777Y-14668388D01*
X10161777Y-14668388D02*
X10152253Y-14630293D01*
X10152253Y-14630293D02*
X10152253Y-14582674D01*
X10152253Y-14582674D02*
X10161777Y-14544579D01*
X10161777Y-14544579D02*
X10171301Y-14525531D01*
X10171301Y-14525531D02*
X10180824Y-14516008D01*
X10180824Y-14516008D02*
X10199872Y-14506484D01*
X10352253Y-14687436D02*
X10361777Y-14696960D01*
X10361777Y-14696960D02*
X10352253Y-14706484D01*
X10352253Y-14706484D02*
X10342729Y-14696960D01*
X10342729Y-14696960D02*
X10352253Y-14687436D01*
X10352253Y-14687436D02*
X10352253Y-14706484D01*
X10476063Y-14592198D02*
X10457015Y-14582674D01*
X10457015Y-14582674D02*
X10447491Y-14573150D01*
X10447491Y-14573150D02*
X10437967Y-14554103D01*
X10437967Y-14554103D02*
X10437967Y-14544579D01*
X10437967Y-14544579D02*
X10447491Y-14525531D01*
X10447491Y-14525531D02*
X10457015Y-14516008D01*
X10457015Y-14516008D02*
X10476063Y-14506484D01*
X10476063Y-14506484D02*
X10514158Y-14506484D01*
X10514158Y-14506484D02*
X10533205Y-14516008D01*
X10533205Y-14516008D02*
X10542729Y-14525531D01*
X10542729Y-14525531D02*
X10552253Y-14544579D01*
X10552253Y-14544579D02*
X10552253Y-14554103D01*
X10552253Y-14554103D02*
X10542729Y-14573150D01*
X10542729Y-14573150D02*
X10533205Y-14582674D01*
X10533205Y-14582674D02*
X10514158Y-14592198D01*
X10514158Y-14592198D02*
X10476063Y-14592198D01*
X10476063Y-14592198D02*
X10457015Y-14601722D01*
X10457015Y-14601722D02*
X10447491Y-14611246D01*
X10447491Y-14611246D02*
X10437967Y-14630293D01*
X10437967Y-14630293D02*
X10437967Y-14668388D01*
X10437967Y-14668388D02*
X10447491Y-14687436D01*
X10447491Y-14687436D02*
X10457015Y-14696960D01*
X10457015Y-14696960D02*
X10476063Y-14706484D01*
X10476063Y-14706484D02*
X10514158Y-14706484D01*
X10514158Y-14706484D02*
X10533205Y-14696960D01*
X10533205Y-14696960D02*
X10542729Y-14687436D01*
X10542729Y-14687436D02*
X10552253Y-14668388D01*
X10552253Y-14668388D02*
X10552253Y-14630293D01*
X10552253Y-14630293D02*
X10542729Y-14611246D01*
X10542729Y-14611246D02*
X10533205Y-14601722D01*
X10533205Y-14601722D02*
X10514158Y-14592198D01*
X10676063Y-14506484D02*
X10695110Y-14506484D01*
X10695110Y-14506484D02*
X10714158Y-14516008D01*
X10714158Y-14516008D02*
X10723682Y-14525531D01*
X10723682Y-14525531D02*
X10733205Y-14544579D01*
X10733205Y-14544579D02*
X10742729Y-14582674D01*
X10742729Y-14582674D02*
X10742729Y-14630293D01*
X10742729Y-14630293D02*
X10733205Y-14668388D01*
X10733205Y-14668388D02*
X10723682Y-14687436D01*
X10723682Y-14687436D02*
X10714158Y-14696960D01*
X10714158Y-14696960D02*
X10695110Y-14706484D01*
X10695110Y-14706484D02*
X10676063Y-14706484D01*
X10676063Y-14706484D02*
X10657015Y-14696960D01*
X10657015Y-14696960D02*
X10647491Y-14687436D01*
X10647491Y-14687436D02*
X10637967Y-14668388D01*
X10637967Y-14668388D02*
X10628444Y-14630293D01*
X10628444Y-14630293D02*
X10628444Y-14582674D01*
X10628444Y-14582674D02*
X10637967Y-14544579D01*
X10637967Y-14544579D02*
X10647491Y-14525531D01*
X10647491Y-14525531D02*
X10657015Y-14516008D01*
X10657015Y-14516008D02*
X10676063Y-14506484D01*
X10866539Y-14506484D02*
X10885586Y-14506484D01*
X10885586Y-14506484D02*
X10904634Y-14516008D01*
X10904634Y-14516008D02*
X10914158Y-14525531D01*
X10914158Y-14525531D02*
X10923682Y-14544579D01*
X10923682Y-14544579D02*
X10933205Y-14582674D01*
X10933205Y-14582674D02*
X10933205Y-14630293D01*
X10933205Y-14630293D02*
X10923682Y-14668388D01*
X10923682Y-14668388D02*
X10914158Y-14687436D01*
X10914158Y-14687436D02*
X10904634Y-14696960D01*
X10904634Y-14696960D02*
X10885586Y-14706484D01*
X10885586Y-14706484D02*
X10866539Y-14706484D01*
X10866539Y-14706484D02*
X10847491Y-14696960D01*
X10847491Y-14696960D02*
X10837967Y-14687436D01*
X10837967Y-14687436D02*
X10828444Y-14668388D01*
X10828444Y-14668388D02*
X10818920Y-14630293D01*
X10818920Y-14630293D02*
X10818920Y-14582674D01*
X10818920Y-14582674D02*
X10828444Y-14544579D01*
X10828444Y-14544579D02*
X10837967Y-14525531D01*
X10837967Y-14525531D02*
X10847491Y-14516008D01*
X10847491Y-14516008D02*
X10866539Y-14506484D01*
X11018920Y-14706484D02*
X11018920Y-14573150D01*
X11018920Y-14592198D02*
X11028444Y-14582674D01*
X11028444Y-14582674D02*
X11047491Y-14573150D01*
X11047491Y-14573150D02*
X11076063Y-14573150D01*
X11076063Y-14573150D02*
X11095110Y-14582674D01*
X11095110Y-14582674D02*
X11104634Y-14601722D01*
X11104634Y-14601722D02*
X11104634Y-14706484D01*
X11104634Y-14601722D02*
X11114158Y-14582674D01*
X11114158Y-14582674D02*
X11133205Y-14573150D01*
X11133205Y-14573150D02*
X11161777Y-14573150D01*
X11161777Y-14573150D02*
X11180825Y-14582674D01*
X11180825Y-14582674D02*
X11190348Y-14601722D01*
X11190348Y-14601722D02*
X11190348Y-14706484D01*
X11285586Y-14706484D02*
X11285586Y-14573150D01*
X11285586Y-14592198D02*
X11295110Y-14582674D01*
X11295110Y-14582674D02*
X11314158Y-14573150D01*
X11314158Y-14573150D02*
X11342729Y-14573150D01*
X11342729Y-14573150D02*
X11361777Y-14582674D01*
X11361777Y-14582674D02*
X11371301Y-14601722D01*
X11371301Y-14601722D02*
X11371301Y-14706484D01*
X11371301Y-14601722D02*
X11380824Y-14582674D01*
X11380824Y-14582674D02*
X11399872Y-14573150D01*
X11399872Y-14573150D02*
X11428443Y-14573150D01*
X11428443Y-14573150D02*
X11447491Y-14582674D01*
X11447491Y-14582674D02*
X11457015Y-14601722D01*
X11457015Y-14601722D02*
X11457015Y-14706484D01*
X11847491Y-14496960D02*
X11676063Y-14754103D01*
X12104634Y-14506484D02*
X12123682Y-14506484D01*
X12123682Y-14506484D02*
X12142729Y-14516008D01*
X12142729Y-14516008D02*
X12152253Y-14525531D01*
X12152253Y-14525531D02*
X12161777Y-14544579D01*
X12161777Y-14544579D02*
X12171301Y-14582674D01*
X12171301Y-14582674D02*
X12171301Y-14630293D01*
X12171301Y-14630293D02*
X12161777Y-14668388D01*
X12161777Y-14668388D02*
X12152253Y-14687436D01*
X12152253Y-14687436D02*
X12142729Y-14696960D01*
X12142729Y-14696960D02*
X12123682Y-14706484D01*
X12123682Y-14706484D02*
X12104634Y-14706484D01*
X12104634Y-14706484D02*
X12085586Y-14696960D01*
X12085586Y-14696960D02*
X12076063Y-14687436D01*
X12076063Y-14687436D02*
X12066539Y-14668388D01*
X12066539Y-14668388D02*
X12057015Y-14630293D01*
X12057015Y-14630293D02*
X12057015Y-14582674D01*
X12057015Y-14582674D02*
X12066539Y-14544579D01*
X12066539Y-14544579D02*
X12076063Y-14525531D01*
X12076063Y-14525531D02*
X12085586Y-14516008D01*
X12085586Y-14516008D02*
X12104634Y-14506484D01*
X12257015Y-14687436D02*
X12266539Y-14696960D01*
X12266539Y-14696960D02*
X12257015Y-14706484D01*
X12257015Y-14706484D02*
X12247491Y-14696960D01*
X12247491Y-14696960D02*
X12257015Y-14687436D01*
X12257015Y-14687436D02*
X12257015Y-14706484D01*
X12390348Y-14506484D02*
X12409396Y-14506484D01*
X12409396Y-14506484D02*
X12428444Y-14516008D01*
X12428444Y-14516008D02*
X12437967Y-14525531D01*
X12437967Y-14525531D02*
X12447491Y-14544579D01*
X12447491Y-14544579D02*
X12457015Y-14582674D01*
X12457015Y-14582674D02*
X12457015Y-14630293D01*
X12457015Y-14630293D02*
X12447491Y-14668388D01*
X12447491Y-14668388D02*
X12437967Y-14687436D01*
X12437967Y-14687436D02*
X12428444Y-14696960D01*
X12428444Y-14696960D02*
X12409396Y-14706484D01*
X12409396Y-14706484D02*
X12390348Y-14706484D01*
X12390348Y-14706484D02*
X12371301Y-14696960D01*
X12371301Y-14696960D02*
X12361777Y-14687436D01*
X12361777Y-14687436D02*
X12352253Y-14668388D01*
X12352253Y-14668388D02*
X12342729Y-14630293D01*
X12342729Y-14630293D02*
X12342729Y-14582674D01*
X12342729Y-14582674D02*
X12352253Y-14544579D01*
X12352253Y-14544579D02*
X12361777Y-14525531D01*
X12361777Y-14525531D02*
X12371301Y-14516008D01*
X12371301Y-14516008D02*
X12390348Y-14506484D01*
X12523682Y-14506484D02*
X12647491Y-14506484D01*
X12647491Y-14506484D02*
X12580825Y-14582674D01*
X12580825Y-14582674D02*
X12609396Y-14582674D01*
X12609396Y-14582674D02*
X12628444Y-14592198D01*
X12628444Y-14592198D02*
X12637967Y-14601722D01*
X12637967Y-14601722D02*
X12647491Y-14620769D01*
X12647491Y-14620769D02*
X12647491Y-14668388D01*
X12647491Y-14668388D02*
X12637967Y-14687436D01*
X12637967Y-14687436D02*
X12628444Y-14696960D01*
X12628444Y-14696960D02*
X12609396Y-14706484D01*
X12609396Y-14706484D02*
X12552253Y-14706484D01*
X12552253Y-14706484D02*
X12533206Y-14696960D01*
X12533206Y-14696960D02*
X12523682Y-14687436D01*
X12837967Y-14706484D02*
X12723682Y-14706484D01*
X12780825Y-14706484D02*
X12780825Y-14506484D01*
X12780825Y-14506484D02*
X12761777Y-14535055D01*
X12761777Y-14535055D02*
X12742729Y-14554103D01*
X12742729Y-14554103D02*
X12723682Y-14563627D01*
X13018920Y-14506484D02*
X12923682Y-14506484D01*
X12923682Y-14506484D02*
X12914158Y-14601722D01*
X12914158Y-14601722D02*
X12923682Y-14592198D01*
X12923682Y-14592198D02*
X12942729Y-14582674D01*
X12942729Y-14582674D02*
X12990348Y-14582674D01*
X12990348Y-14582674D02*
X13009396Y-14592198D01*
X13009396Y-14592198D02*
X13018920Y-14601722D01*
X13018920Y-14601722D02*
X13028444Y-14620769D01*
X13028444Y-14620769D02*
X13028444Y-14668388D01*
X13028444Y-14668388D02*
X13018920Y-14687436D01*
X13018920Y-14687436D02*
X13009396Y-14696960D01*
X13009396Y-14696960D02*
X12990348Y-14706484D01*
X12990348Y-14706484D02*
X12942729Y-14706484D01*
X12942729Y-14706484D02*
X12923682Y-14696960D01*
X12923682Y-14696960D02*
X12914158Y-14687436D01*
X13104634Y-14506484D02*
X13104634Y-14544579D01*
X13180825Y-14506484D02*
X13180825Y-14544579D01*
X13476063Y-14782674D02*
X13466539Y-14773150D01*
X13466539Y-14773150D02*
X13447491Y-14744579D01*
X13447491Y-14744579D02*
X13437968Y-14725531D01*
X13437968Y-14725531D02*
X13428444Y-14696960D01*
X13428444Y-14696960D02*
X13418920Y-14649341D01*
X13418920Y-14649341D02*
X13418920Y-14611246D01*
X13418920Y-14611246D02*
X13428444Y-14563627D01*
X13428444Y-14563627D02*
X13437968Y-14535055D01*
X13437968Y-14535055D02*
X13447491Y-14516008D01*
X13447491Y-14516008D02*
X13466539Y-14487436D01*
X13466539Y-14487436D02*
X13476063Y-14477912D01*
X13542729Y-14525531D02*
X13552253Y-14516008D01*
X13552253Y-14516008D02*
X13571301Y-14506484D01*
X13571301Y-14506484D02*
X13618920Y-14506484D01*
X13618920Y-14506484D02*
X13637968Y-14516008D01*
X13637968Y-14516008D02*
X13647491Y-14525531D01*
X13647491Y-14525531D02*
X13657015Y-14544579D01*
X13657015Y-14544579D02*
X13657015Y-14563627D01*
X13657015Y-14563627D02*
X13647491Y-14592198D01*
X13647491Y-14592198D02*
X13533206Y-14706484D01*
X13533206Y-14706484D02*
X13657015Y-14706484D01*
X13895110Y-14706484D02*
X13895110Y-14506484D01*
X13980825Y-14706484D02*
X13980825Y-14601722D01*
X13980825Y-14601722D02*
X13971301Y-14582674D01*
X13971301Y-14582674D02*
X13952253Y-14573150D01*
X13952253Y-14573150D02*
X13923682Y-14573150D01*
X13923682Y-14573150D02*
X13904634Y-14582674D01*
X13904634Y-14582674D02*
X13895110Y-14592198D01*
X14104634Y-14706484D02*
X14085587Y-14696960D01*
X14085587Y-14696960D02*
X14076063Y-14687436D01*
X14076063Y-14687436D02*
X14066539Y-14668388D01*
X14066539Y-14668388D02*
X14066539Y-14611246D01*
X14066539Y-14611246D02*
X14076063Y-14592198D01*
X14076063Y-14592198D02*
X14085587Y-14582674D01*
X14085587Y-14582674D02*
X14104634Y-14573150D01*
X14104634Y-14573150D02*
X14133206Y-14573150D01*
X14133206Y-14573150D02*
X14152253Y-14582674D01*
X14152253Y-14582674D02*
X14161777Y-14592198D01*
X14161777Y-14592198D02*
X14171301Y-14611246D01*
X14171301Y-14611246D02*
X14171301Y-14668388D01*
X14171301Y-14668388D02*
X14161777Y-14687436D01*
X14161777Y-14687436D02*
X14152253Y-14696960D01*
X14152253Y-14696960D02*
X14133206Y-14706484D01*
X14133206Y-14706484D02*
X14104634Y-14706484D01*
X14285587Y-14706484D02*
X14266539Y-14696960D01*
X14266539Y-14696960D02*
X14257015Y-14677912D01*
X14257015Y-14677912D02*
X14257015Y-14506484D01*
X14437968Y-14696960D02*
X14418920Y-14706484D01*
X14418920Y-14706484D02*
X14380825Y-14706484D01*
X14380825Y-14706484D02*
X14361777Y-14696960D01*
X14361777Y-14696960D02*
X14352253Y-14677912D01*
X14352253Y-14677912D02*
X14352253Y-14601722D01*
X14352253Y-14601722D02*
X14361777Y-14582674D01*
X14361777Y-14582674D02*
X14380825Y-14573150D01*
X14380825Y-14573150D02*
X14418920Y-14573150D01*
X14418920Y-14573150D02*
X14437968Y-14582674D01*
X14437968Y-14582674D02*
X14447491Y-14601722D01*
X14447491Y-14601722D02*
X14447491Y-14620769D01*
X14447491Y-14620769D02*
X14352253Y-14639817D01*
X14523682Y-14696960D02*
X14542730Y-14706484D01*
X14542730Y-14706484D02*
X14580825Y-14706484D01*
X14580825Y-14706484D02*
X14599872Y-14696960D01*
X14599872Y-14696960D02*
X14609396Y-14677912D01*
X14609396Y-14677912D02*
X14609396Y-14668388D01*
X14609396Y-14668388D02*
X14599872Y-14649341D01*
X14599872Y-14649341D02*
X14580825Y-14639817D01*
X14580825Y-14639817D02*
X14552253Y-14639817D01*
X14552253Y-14639817D02*
X14533206Y-14630293D01*
X14533206Y-14630293D02*
X14523682Y-14611246D01*
X14523682Y-14611246D02*
X14523682Y-14601722D01*
X14523682Y-14601722D02*
X14533206Y-14582674D01*
X14533206Y-14582674D02*
X14552253Y-14573150D01*
X14552253Y-14573150D02*
X14580825Y-14573150D01*
X14580825Y-14573150D02*
X14599872Y-14582674D01*
X14676063Y-14782674D02*
X14685587Y-14773150D01*
X14685587Y-14773150D02*
X14704634Y-14744579D01*
X14704634Y-14744579D02*
X14714158Y-14725531D01*
X14714158Y-14725531D02*
X14723682Y-14696960D01*
X14723682Y-14696960D02*
X14733206Y-14649341D01*
X14733206Y-14649341D02*
X14733206Y-14611246D01*
X14733206Y-14611246D02*
X14723682Y-14563627D01*
X14723682Y-14563627D02*
X14714158Y-14535055D01*
X14714158Y-14535055D02*
X14704634Y-14516008D01*
X14704634Y-14516008D02*
X14685587Y-14487436D01*
X14685587Y-14487436D02*
X14676063Y-14477912D01*
X15037968Y-14782674D02*
X15028444Y-14773150D01*
X15028444Y-14773150D02*
X15009396Y-14744579D01*
X15009396Y-14744579D02*
X14999872Y-14725531D01*
X14999872Y-14725531D02*
X14990349Y-14696960D01*
X14990349Y-14696960D02*
X14980825Y-14649341D01*
X14980825Y-14649341D02*
X14980825Y-14611246D01*
X14980825Y-14611246D02*
X14990349Y-14563627D01*
X14990349Y-14563627D02*
X14999872Y-14535055D01*
X14999872Y-14535055D02*
X15009396Y-14516008D01*
X15009396Y-14516008D02*
X15028444Y-14487436D01*
X15028444Y-14487436D02*
X15037968Y-14477912D01*
X15114158Y-14573150D02*
X15114158Y-14706484D01*
X15114158Y-14592198D02*
X15123682Y-14582674D01*
X15123682Y-14582674D02*
X15142730Y-14573150D01*
X15142730Y-14573150D02*
X15171301Y-14573150D01*
X15171301Y-14573150D02*
X15190349Y-14582674D01*
X15190349Y-14582674D02*
X15199872Y-14601722D01*
X15199872Y-14601722D02*
X15199872Y-14706484D01*
X15323682Y-14706484D02*
X15304634Y-14696960D01*
X15304634Y-14696960D02*
X15295111Y-14687436D01*
X15295111Y-14687436D02*
X15285587Y-14668388D01*
X15285587Y-14668388D02*
X15285587Y-14611246D01*
X15285587Y-14611246D02*
X15295111Y-14592198D01*
X15295111Y-14592198D02*
X15304634Y-14582674D01*
X15304634Y-14582674D02*
X15323682Y-14573150D01*
X15323682Y-14573150D02*
X15352253Y-14573150D01*
X15352253Y-14573150D02*
X15371301Y-14582674D01*
X15371301Y-14582674D02*
X15380825Y-14592198D01*
X15380825Y-14592198D02*
X15390349Y-14611246D01*
X15390349Y-14611246D02*
X15390349Y-14668388D01*
X15390349Y-14668388D02*
X15380825Y-14687436D01*
X15380825Y-14687436D02*
X15371301Y-14696960D01*
X15371301Y-14696960D02*
X15352253Y-14706484D01*
X15352253Y-14706484D02*
X15323682Y-14706484D01*
X15447492Y-14573150D02*
X15523682Y-14573150D01*
X15476063Y-14506484D02*
X15476063Y-14677912D01*
X15476063Y-14677912D02*
X15485587Y-14696960D01*
X15485587Y-14696960D02*
X15504634Y-14706484D01*
X15504634Y-14706484D02*
X15523682Y-14706484D01*
X15742730Y-14573150D02*
X15742730Y-14773150D01*
X15742730Y-14582674D02*
X15761777Y-14573150D01*
X15761777Y-14573150D02*
X15799873Y-14573150D01*
X15799873Y-14573150D02*
X15818920Y-14582674D01*
X15818920Y-14582674D02*
X15828444Y-14592198D01*
X15828444Y-14592198D02*
X15837968Y-14611246D01*
X15837968Y-14611246D02*
X15837968Y-14668388D01*
X15837968Y-14668388D02*
X15828444Y-14687436D01*
X15828444Y-14687436D02*
X15818920Y-14696960D01*
X15818920Y-14696960D02*
X15799873Y-14706484D01*
X15799873Y-14706484D02*
X15761777Y-14706484D01*
X15761777Y-14706484D02*
X15742730Y-14696960D01*
X15952253Y-14706484D02*
X15933206Y-14696960D01*
X15933206Y-14696960D02*
X15923682Y-14677912D01*
X15923682Y-14677912D02*
X15923682Y-14506484D01*
X16114158Y-14706484D02*
X16114158Y-14601722D01*
X16114158Y-14601722D02*
X16104634Y-14582674D01*
X16104634Y-14582674D02*
X16085587Y-14573150D01*
X16085587Y-14573150D02*
X16047492Y-14573150D01*
X16047492Y-14573150D02*
X16028444Y-14582674D01*
X16114158Y-14696960D02*
X16095111Y-14706484D01*
X16095111Y-14706484D02*
X16047492Y-14706484D01*
X16047492Y-14706484D02*
X16028444Y-14696960D01*
X16028444Y-14696960D02*
X16018920Y-14677912D01*
X16018920Y-14677912D02*
X16018920Y-14658865D01*
X16018920Y-14658865D02*
X16028444Y-14639817D01*
X16028444Y-14639817D02*
X16047492Y-14630293D01*
X16047492Y-14630293D02*
X16095111Y-14630293D01*
X16095111Y-14630293D02*
X16114158Y-14620769D01*
X16180825Y-14573150D02*
X16257015Y-14573150D01*
X16209396Y-14506484D02*
X16209396Y-14677912D01*
X16209396Y-14677912D02*
X16218920Y-14696960D01*
X16218920Y-14696960D02*
X16237968Y-14706484D01*
X16237968Y-14706484D02*
X16257015Y-14706484D01*
X16399873Y-14696960D02*
X16380825Y-14706484D01*
X16380825Y-14706484D02*
X16342730Y-14706484D01*
X16342730Y-14706484D02*
X16323682Y-14696960D01*
X16323682Y-14696960D02*
X16314158Y-14677912D01*
X16314158Y-14677912D02*
X16314158Y-14601722D01*
X16314158Y-14601722D02*
X16323682Y-14582674D01*
X16323682Y-14582674D02*
X16342730Y-14573150D01*
X16342730Y-14573150D02*
X16380825Y-14573150D01*
X16380825Y-14573150D02*
X16399873Y-14582674D01*
X16399873Y-14582674D02*
X16409396Y-14601722D01*
X16409396Y-14601722D02*
X16409396Y-14620769D01*
X16409396Y-14620769D02*
X16314158Y-14639817D01*
X16580825Y-14706484D02*
X16580825Y-14506484D01*
X16580825Y-14696960D02*
X16561777Y-14706484D01*
X16561777Y-14706484D02*
X16523682Y-14706484D01*
X16523682Y-14706484D02*
X16504634Y-14696960D01*
X16504634Y-14696960D02*
X16495111Y-14687436D01*
X16495111Y-14687436D02*
X16485587Y-14668388D01*
X16485587Y-14668388D02*
X16485587Y-14611246D01*
X16485587Y-14611246D02*
X16495111Y-14592198D01*
X16495111Y-14592198D02*
X16504634Y-14582674D01*
X16504634Y-14582674D02*
X16523682Y-14573150D01*
X16523682Y-14573150D02*
X16561777Y-14573150D01*
X16561777Y-14573150D02*
X16580825Y-14582674D01*
X16657015Y-14782674D02*
X16666539Y-14773150D01*
X16666539Y-14773150D02*
X16685587Y-14744579D01*
X16685587Y-14744579D02*
X16695111Y-14725531D01*
X16695111Y-14725531D02*
X16704634Y-14696960D01*
X16704634Y-14696960D02*
X16714158Y-14649341D01*
X16714158Y-14649341D02*
X16714158Y-14611246D01*
X16714158Y-14611246D02*
X16704634Y-14563627D01*
X16704634Y-14563627D02*
X16695111Y-14535055D01*
X16695111Y-14535055D02*
X16685587Y-14516008D01*
X16685587Y-14516008D02*
X16666539Y-14487436D01*
X16666539Y-14487436D02*
X16657015Y-14477912D01*
D13*
X9901000Y-14879000D02*
G75*
G03*
X9901000Y-14879000I-55000J0D01*
G01*
D11*
X10266539Y-14970484D02*
X10152253Y-14970484D01*
X10209396Y-14970484D02*
X10209396Y-14770484D01*
X10209396Y-14770484D02*
X10190348Y-14799055D01*
X10190348Y-14799055D02*
X10171301Y-14818103D01*
X10171301Y-14818103D02*
X10152253Y-14827627D01*
X10352253Y-14951436D02*
X10361777Y-14960960D01*
X10361777Y-14960960D02*
X10352253Y-14970484D01*
X10352253Y-14970484D02*
X10342729Y-14960960D01*
X10342729Y-14960960D02*
X10352253Y-14951436D01*
X10352253Y-14951436D02*
X10352253Y-14970484D01*
X10552253Y-14970484D02*
X10437967Y-14970484D01*
X10495110Y-14970484D02*
X10495110Y-14770484D01*
X10495110Y-14770484D02*
X10476063Y-14799055D01*
X10476063Y-14799055D02*
X10457015Y-14818103D01*
X10457015Y-14818103D02*
X10437967Y-14827627D01*
X10676063Y-14770484D02*
X10695110Y-14770484D01*
X10695110Y-14770484D02*
X10714158Y-14780008D01*
X10714158Y-14780008D02*
X10723682Y-14789531D01*
X10723682Y-14789531D02*
X10733205Y-14808579D01*
X10733205Y-14808579D02*
X10742729Y-14846674D01*
X10742729Y-14846674D02*
X10742729Y-14894293D01*
X10742729Y-14894293D02*
X10733205Y-14932388D01*
X10733205Y-14932388D02*
X10723682Y-14951436D01*
X10723682Y-14951436D02*
X10714158Y-14960960D01*
X10714158Y-14960960D02*
X10695110Y-14970484D01*
X10695110Y-14970484D02*
X10676063Y-14970484D01*
X10676063Y-14970484D02*
X10657015Y-14960960D01*
X10657015Y-14960960D02*
X10647491Y-14951436D01*
X10647491Y-14951436D02*
X10637967Y-14932388D01*
X10637967Y-14932388D02*
X10628444Y-14894293D01*
X10628444Y-14894293D02*
X10628444Y-14846674D01*
X10628444Y-14846674D02*
X10637967Y-14808579D01*
X10637967Y-14808579D02*
X10647491Y-14789531D01*
X10647491Y-14789531D02*
X10657015Y-14780008D01*
X10657015Y-14780008D02*
X10676063Y-14770484D01*
X10866539Y-14770484D02*
X10885586Y-14770484D01*
X10885586Y-14770484D02*
X10904634Y-14780008D01*
X10904634Y-14780008D02*
X10914158Y-14789531D01*
X10914158Y-14789531D02*
X10923682Y-14808579D01*
X10923682Y-14808579D02*
X10933205Y-14846674D01*
X10933205Y-14846674D02*
X10933205Y-14894293D01*
X10933205Y-14894293D02*
X10923682Y-14932388D01*
X10923682Y-14932388D02*
X10914158Y-14951436D01*
X10914158Y-14951436D02*
X10904634Y-14960960D01*
X10904634Y-14960960D02*
X10885586Y-14970484D01*
X10885586Y-14970484D02*
X10866539Y-14970484D01*
X10866539Y-14970484D02*
X10847491Y-14960960D01*
X10847491Y-14960960D02*
X10837967Y-14951436D01*
X10837967Y-14951436D02*
X10828444Y-14932388D01*
X10828444Y-14932388D02*
X10818920Y-14894293D01*
X10818920Y-14894293D02*
X10818920Y-14846674D01*
X10818920Y-14846674D02*
X10828444Y-14808579D01*
X10828444Y-14808579D02*
X10837967Y-14789531D01*
X10837967Y-14789531D02*
X10847491Y-14780008D01*
X10847491Y-14780008D02*
X10866539Y-14770484D01*
X11018920Y-14970484D02*
X11018920Y-14837150D01*
X11018920Y-14856198D02*
X11028444Y-14846674D01*
X11028444Y-14846674D02*
X11047491Y-14837150D01*
X11047491Y-14837150D02*
X11076063Y-14837150D01*
X11076063Y-14837150D02*
X11095110Y-14846674D01*
X11095110Y-14846674D02*
X11104634Y-14865722D01*
X11104634Y-14865722D02*
X11104634Y-14970484D01*
X11104634Y-14865722D02*
X11114158Y-14846674D01*
X11114158Y-14846674D02*
X11133205Y-14837150D01*
X11133205Y-14837150D02*
X11161777Y-14837150D01*
X11161777Y-14837150D02*
X11180825Y-14846674D01*
X11180825Y-14846674D02*
X11190348Y-14865722D01*
X11190348Y-14865722D02*
X11190348Y-14970484D01*
X11285586Y-14970484D02*
X11285586Y-14837150D01*
X11285586Y-14856198D02*
X11295110Y-14846674D01*
X11295110Y-14846674D02*
X11314158Y-14837150D01*
X11314158Y-14837150D02*
X11342729Y-14837150D01*
X11342729Y-14837150D02*
X11361777Y-14846674D01*
X11361777Y-14846674D02*
X11371301Y-14865722D01*
X11371301Y-14865722D02*
X11371301Y-14970484D01*
X11371301Y-14865722D02*
X11380824Y-14846674D01*
X11380824Y-14846674D02*
X11399872Y-14837150D01*
X11399872Y-14837150D02*
X11428443Y-14837150D01*
X11428443Y-14837150D02*
X11447491Y-14846674D01*
X11447491Y-14846674D02*
X11457015Y-14865722D01*
X11457015Y-14865722D02*
X11457015Y-14970484D01*
X11847491Y-14760960D02*
X11676063Y-15018103D01*
X12104634Y-14770484D02*
X12123682Y-14770484D01*
X12123682Y-14770484D02*
X12142729Y-14780008D01*
X12142729Y-14780008D02*
X12152253Y-14789531D01*
X12152253Y-14789531D02*
X12161777Y-14808579D01*
X12161777Y-14808579D02*
X12171301Y-14846674D01*
X12171301Y-14846674D02*
X12171301Y-14894293D01*
X12171301Y-14894293D02*
X12161777Y-14932388D01*
X12161777Y-14932388D02*
X12152253Y-14951436D01*
X12152253Y-14951436D02*
X12142729Y-14960960D01*
X12142729Y-14960960D02*
X12123682Y-14970484D01*
X12123682Y-14970484D02*
X12104634Y-14970484D01*
X12104634Y-14970484D02*
X12085586Y-14960960D01*
X12085586Y-14960960D02*
X12076063Y-14951436D01*
X12076063Y-14951436D02*
X12066539Y-14932388D01*
X12066539Y-14932388D02*
X12057015Y-14894293D01*
X12057015Y-14894293D02*
X12057015Y-14846674D01*
X12057015Y-14846674D02*
X12066539Y-14808579D01*
X12066539Y-14808579D02*
X12076063Y-14789531D01*
X12076063Y-14789531D02*
X12085586Y-14780008D01*
X12085586Y-14780008D02*
X12104634Y-14770484D01*
X12257015Y-14951436D02*
X12266539Y-14960960D01*
X12266539Y-14960960D02*
X12257015Y-14970484D01*
X12257015Y-14970484D02*
X12247491Y-14960960D01*
X12247491Y-14960960D02*
X12257015Y-14951436D01*
X12257015Y-14951436D02*
X12257015Y-14970484D01*
X12390348Y-14770484D02*
X12409396Y-14770484D01*
X12409396Y-14770484D02*
X12428444Y-14780008D01*
X12428444Y-14780008D02*
X12437967Y-14789531D01*
X12437967Y-14789531D02*
X12447491Y-14808579D01*
X12447491Y-14808579D02*
X12457015Y-14846674D01*
X12457015Y-14846674D02*
X12457015Y-14894293D01*
X12457015Y-14894293D02*
X12447491Y-14932388D01*
X12447491Y-14932388D02*
X12437967Y-14951436D01*
X12437967Y-14951436D02*
X12428444Y-14960960D01*
X12428444Y-14960960D02*
X12409396Y-14970484D01*
X12409396Y-14970484D02*
X12390348Y-14970484D01*
X12390348Y-14970484D02*
X12371301Y-14960960D01*
X12371301Y-14960960D02*
X12361777Y-14951436D01*
X12361777Y-14951436D02*
X12352253Y-14932388D01*
X12352253Y-14932388D02*
X12342729Y-14894293D01*
X12342729Y-14894293D02*
X12342729Y-14846674D01*
X12342729Y-14846674D02*
X12352253Y-14808579D01*
X12352253Y-14808579D02*
X12361777Y-14789531D01*
X12361777Y-14789531D02*
X12371301Y-14780008D01*
X12371301Y-14780008D02*
X12390348Y-14770484D01*
X12628444Y-14837150D02*
X12628444Y-14970484D01*
X12580825Y-14760960D02*
X12533206Y-14903817D01*
X12533206Y-14903817D02*
X12657015Y-14903817D01*
X12714158Y-14770484D02*
X12837967Y-14770484D01*
X12837967Y-14770484D02*
X12771301Y-14846674D01*
X12771301Y-14846674D02*
X12799872Y-14846674D01*
X12799872Y-14846674D02*
X12818920Y-14856198D01*
X12818920Y-14856198D02*
X12828444Y-14865722D01*
X12828444Y-14865722D02*
X12837967Y-14884769D01*
X12837967Y-14884769D02*
X12837967Y-14932388D01*
X12837967Y-14932388D02*
X12828444Y-14951436D01*
X12828444Y-14951436D02*
X12818920Y-14960960D01*
X12818920Y-14960960D02*
X12799872Y-14970484D01*
X12799872Y-14970484D02*
X12742729Y-14970484D01*
X12742729Y-14970484D02*
X12723682Y-14960960D01*
X12723682Y-14960960D02*
X12714158Y-14951436D01*
X12904634Y-14770484D02*
X13028444Y-14770484D01*
X13028444Y-14770484D02*
X12961777Y-14846674D01*
X12961777Y-14846674D02*
X12990348Y-14846674D01*
X12990348Y-14846674D02*
X13009396Y-14856198D01*
X13009396Y-14856198D02*
X13018920Y-14865722D01*
X13018920Y-14865722D02*
X13028444Y-14884769D01*
X13028444Y-14884769D02*
X13028444Y-14932388D01*
X13028444Y-14932388D02*
X13018920Y-14951436D01*
X13018920Y-14951436D02*
X13009396Y-14960960D01*
X13009396Y-14960960D02*
X12990348Y-14970484D01*
X12990348Y-14970484D02*
X12933206Y-14970484D01*
X12933206Y-14970484D02*
X12914158Y-14960960D01*
X12914158Y-14960960D02*
X12904634Y-14951436D01*
X13104634Y-14770484D02*
X13104634Y-14808579D01*
X13180825Y-14770484D02*
X13180825Y-14808579D01*
X13476063Y-15046674D02*
X13466539Y-15037150D01*
X13466539Y-15037150D02*
X13447491Y-15008579D01*
X13447491Y-15008579D02*
X13437968Y-14989531D01*
X13437968Y-14989531D02*
X13428444Y-14960960D01*
X13428444Y-14960960D02*
X13418920Y-14913341D01*
X13418920Y-14913341D02*
X13418920Y-14875246D01*
X13418920Y-14875246D02*
X13428444Y-14827627D01*
X13428444Y-14827627D02*
X13437968Y-14799055D01*
X13437968Y-14799055D02*
X13447491Y-14780008D01*
X13447491Y-14780008D02*
X13466539Y-14751436D01*
X13466539Y-14751436D02*
X13476063Y-14741912D01*
X13657015Y-14970484D02*
X13542729Y-14970484D01*
X13599872Y-14970484D02*
X13599872Y-14770484D01*
X13599872Y-14770484D02*
X13580825Y-14799055D01*
X13580825Y-14799055D02*
X13561777Y-14818103D01*
X13561777Y-14818103D02*
X13542729Y-14827627D01*
X13895110Y-14970484D02*
X13895110Y-14770484D01*
X13980825Y-14970484D02*
X13980825Y-14865722D01*
X13980825Y-14865722D02*
X13971301Y-14846674D01*
X13971301Y-14846674D02*
X13952253Y-14837150D01*
X13952253Y-14837150D02*
X13923682Y-14837150D01*
X13923682Y-14837150D02*
X13904634Y-14846674D01*
X13904634Y-14846674D02*
X13895110Y-14856198D01*
X14104634Y-14970484D02*
X14085587Y-14960960D01*
X14085587Y-14960960D02*
X14076063Y-14951436D01*
X14076063Y-14951436D02*
X14066539Y-14932388D01*
X14066539Y-14932388D02*
X14066539Y-14875246D01*
X14066539Y-14875246D02*
X14076063Y-14856198D01*
X14076063Y-14856198D02*
X14085587Y-14846674D01*
X14085587Y-14846674D02*
X14104634Y-14837150D01*
X14104634Y-14837150D02*
X14133206Y-14837150D01*
X14133206Y-14837150D02*
X14152253Y-14846674D01*
X14152253Y-14846674D02*
X14161777Y-14856198D01*
X14161777Y-14856198D02*
X14171301Y-14875246D01*
X14171301Y-14875246D02*
X14171301Y-14932388D01*
X14171301Y-14932388D02*
X14161777Y-14951436D01*
X14161777Y-14951436D02*
X14152253Y-14960960D01*
X14152253Y-14960960D02*
X14133206Y-14970484D01*
X14133206Y-14970484D02*
X14104634Y-14970484D01*
X14285587Y-14970484D02*
X14266539Y-14960960D01*
X14266539Y-14960960D02*
X14257015Y-14941912D01*
X14257015Y-14941912D02*
X14257015Y-14770484D01*
X14437968Y-14960960D02*
X14418920Y-14970484D01*
X14418920Y-14970484D02*
X14380825Y-14970484D01*
X14380825Y-14970484D02*
X14361777Y-14960960D01*
X14361777Y-14960960D02*
X14352253Y-14941912D01*
X14352253Y-14941912D02*
X14352253Y-14865722D01*
X14352253Y-14865722D02*
X14361777Y-14846674D01*
X14361777Y-14846674D02*
X14380825Y-14837150D01*
X14380825Y-14837150D02*
X14418920Y-14837150D01*
X14418920Y-14837150D02*
X14437968Y-14846674D01*
X14437968Y-14846674D02*
X14447491Y-14865722D01*
X14447491Y-14865722D02*
X14447491Y-14884769D01*
X14447491Y-14884769D02*
X14352253Y-14903817D01*
X14514158Y-15046674D02*
X14523682Y-15037150D01*
X14523682Y-15037150D02*
X14542730Y-15008579D01*
X14542730Y-15008579D02*
X14552253Y-14989531D01*
X14552253Y-14989531D02*
X14561777Y-14960960D01*
X14561777Y-14960960D02*
X14571301Y-14913341D01*
X14571301Y-14913341D02*
X14571301Y-14875246D01*
X14571301Y-14875246D02*
X14561777Y-14827627D01*
X14561777Y-14827627D02*
X14552253Y-14799055D01*
X14552253Y-14799055D02*
X14542730Y-14780008D01*
X14542730Y-14780008D02*
X14523682Y-14751436D01*
X14523682Y-14751436D02*
X14514158Y-14741912D01*
X14876063Y-15046674D02*
X14866539Y-15037150D01*
X14866539Y-15037150D02*
X14847491Y-15008579D01*
X14847491Y-15008579D02*
X14837968Y-14989531D01*
X14837968Y-14989531D02*
X14828444Y-14960960D01*
X14828444Y-14960960D02*
X14818920Y-14913341D01*
X14818920Y-14913341D02*
X14818920Y-14875246D01*
X14818920Y-14875246D02*
X14828444Y-14827627D01*
X14828444Y-14827627D02*
X14837968Y-14799055D01*
X14837968Y-14799055D02*
X14847491Y-14780008D01*
X14847491Y-14780008D02*
X14866539Y-14751436D01*
X14866539Y-14751436D02*
X14876063Y-14741912D01*
X14952253Y-14837150D02*
X14952253Y-14970484D01*
X14952253Y-14856198D02*
X14961777Y-14846674D01*
X14961777Y-14846674D02*
X14980825Y-14837150D01*
X14980825Y-14837150D02*
X15009396Y-14837150D01*
X15009396Y-14837150D02*
X15028444Y-14846674D01*
X15028444Y-14846674D02*
X15037968Y-14865722D01*
X15037968Y-14865722D02*
X15037968Y-14970484D01*
X15161777Y-14970484D02*
X15142730Y-14960960D01*
X15142730Y-14960960D02*
X15133206Y-14951436D01*
X15133206Y-14951436D02*
X15123682Y-14932388D01*
X15123682Y-14932388D02*
X15123682Y-14875246D01*
X15123682Y-14875246D02*
X15133206Y-14856198D01*
X15133206Y-14856198D02*
X15142730Y-14846674D01*
X15142730Y-14846674D02*
X15161777Y-14837150D01*
X15161777Y-14837150D02*
X15190349Y-14837150D01*
X15190349Y-14837150D02*
X15209396Y-14846674D01*
X15209396Y-14846674D02*
X15218920Y-14856198D01*
X15218920Y-14856198D02*
X15228444Y-14875246D01*
X15228444Y-14875246D02*
X15228444Y-14932388D01*
X15228444Y-14932388D02*
X15218920Y-14951436D01*
X15218920Y-14951436D02*
X15209396Y-14960960D01*
X15209396Y-14960960D02*
X15190349Y-14970484D01*
X15190349Y-14970484D02*
X15161777Y-14970484D01*
X15285587Y-14837150D02*
X15361777Y-14837150D01*
X15314158Y-14770484D02*
X15314158Y-14941912D01*
X15314158Y-14941912D02*
X15323682Y-14960960D01*
X15323682Y-14960960D02*
X15342730Y-14970484D01*
X15342730Y-14970484D02*
X15361777Y-14970484D01*
X15580825Y-14837150D02*
X15580825Y-15037150D01*
X15580825Y-14846674D02*
X15599872Y-14837150D01*
X15599872Y-14837150D02*
X15637968Y-14837150D01*
X15637968Y-14837150D02*
X15657015Y-14846674D01*
X15657015Y-14846674D02*
X15666539Y-14856198D01*
X15666539Y-14856198D02*
X15676063Y-14875246D01*
X15676063Y-14875246D02*
X15676063Y-14932388D01*
X15676063Y-14932388D02*
X15666539Y-14951436D01*
X15666539Y-14951436D02*
X15657015Y-14960960D01*
X15657015Y-14960960D02*
X15637968Y-14970484D01*
X15637968Y-14970484D02*
X15599872Y-14970484D01*
X15599872Y-14970484D02*
X15580825Y-14960960D01*
X15790349Y-14970484D02*
X15771301Y-14960960D01*
X15771301Y-14960960D02*
X15761777Y-14941912D01*
X15761777Y-14941912D02*
X15761777Y-14770484D01*
X15952253Y-14970484D02*
X15952253Y-14865722D01*
X15952253Y-14865722D02*
X15942730Y-14846674D01*
X15942730Y-14846674D02*
X15923682Y-14837150D01*
X15923682Y-14837150D02*
X15885587Y-14837150D01*
X15885587Y-14837150D02*
X15866539Y-14846674D01*
X15952253Y-14960960D02*
X15933206Y-14970484D01*
X15933206Y-14970484D02*
X15885587Y-14970484D01*
X15885587Y-14970484D02*
X15866539Y-14960960D01*
X15866539Y-14960960D02*
X15857015Y-14941912D01*
X15857015Y-14941912D02*
X15857015Y-14922865D01*
X15857015Y-14922865D02*
X15866539Y-14903817D01*
X15866539Y-14903817D02*
X15885587Y-14894293D01*
X15885587Y-14894293D02*
X15933206Y-14894293D01*
X15933206Y-14894293D02*
X15952253Y-14884769D01*
X16018920Y-14837150D02*
X16095111Y-14837150D01*
X16047492Y-14770484D02*
X16047492Y-14941912D01*
X16047492Y-14941912D02*
X16057015Y-14960960D01*
X16057015Y-14960960D02*
X16076063Y-14970484D01*
X16076063Y-14970484D02*
X16095111Y-14970484D01*
X16237968Y-14960960D02*
X16218920Y-14970484D01*
X16218920Y-14970484D02*
X16180825Y-14970484D01*
X16180825Y-14970484D02*
X16161777Y-14960960D01*
X16161777Y-14960960D02*
X16152253Y-14941912D01*
X16152253Y-14941912D02*
X16152253Y-14865722D01*
X16152253Y-14865722D02*
X16161777Y-14846674D01*
X16161777Y-14846674D02*
X16180825Y-14837150D01*
X16180825Y-14837150D02*
X16218920Y-14837150D01*
X16218920Y-14837150D02*
X16237968Y-14846674D01*
X16237968Y-14846674D02*
X16247492Y-14865722D01*
X16247492Y-14865722D02*
X16247492Y-14884769D01*
X16247492Y-14884769D02*
X16152253Y-14903817D01*
X16418920Y-14970484D02*
X16418920Y-14770484D01*
X16418920Y-14960960D02*
X16399873Y-14970484D01*
X16399873Y-14970484D02*
X16361777Y-14970484D01*
X16361777Y-14970484D02*
X16342730Y-14960960D01*
X16342730Y-14960960D02*
X16333206Y-14951436D01*
X16333206Y-14951436D02*
X16323682Y-14932388D01*
X16323682Y-14932388D02*
X16323682Y-14875246D01*
X16323682Y-14875246D02*
X16333206Y-14856198D01*
X16333206Y-14856198D02*
X16342730Y-14846674D01*
X16342730Y-14846674D02*
X16361777Y-14837150D01*
X16361777Y-14837150D02*
X16399873Y-14837150D01*
X16399873Y-14837150D02*
X16418920Y-14846674D01*
X16495111Y-15046674D02*
X16504634Y-15037150D01*
X16504634Y-15037150D02*
X16523682Y-15008579D01*
X16523682Y-15008579D02*
X16533206Y-14989531D01*
X16533206Y-14989531D02*
X16542730Y-14960960D01*
X16542730Y-14960960D02*
X16552253Y-14913341D01*
X16552253Y-14913341D02*
X16552253Y-14875246D01*
X16552253Y-14875246D02*
X16542730Y-14827627D01*
X16542730Y-14827627D02*
X16533206Y-14799055D01*
X16533206Y-14799055D02*
X16523682Y-14780008D01*
X16523682Y-14780008D02*
X16504634Y-14751436D01*
X16504634Y-14751436D02*
X16495111Y-14741912D01*
D14*
X9821000Y-15063000D02*
X9821000Y-15223000D01*
X9741000Y-15143000D02*
X9901000Y-15143000D01*
D11*
X10266539Y-15234484D02*
X10152253Y-15234484D01*
X10209396Y-15234484D02*
X10209396Y-15034484D01*
X10209396Y-15034484D02*
X10190348Y-15063055D01*
X10190348Y-15063055D02*
X10171301Y-15082103D01*
X10171301Y-15082103D02*
X10152253Y-15091627D01*
X10352253Y-15215436D02*
X10361777Y-15224960D01*
X10361777Y-15224960D02*
X10352253Y-15234484D01*
X10352253Y-15234484D02*
X10342729Y-15224960D01*
X10342729Y-15224960D02*
X10352253Y-15215436D01*
X10352253Y-15215436D02*
X10352253Y-15234484D01*
X10533205Y-15034484D02*
X10495110Y-15034484D01*
X10495110Y-15034484D02*
X10476063Y-15044008D01*
X10476063Y-15044008D02*
X10466539Y-15053531D01*
X10466539Y-15053531D02*
X10447491Y-15082103D01*
X10447491Y-15082103D02*
X10437967Y-15120198D01*
X10437967Y-15120198D02*
X10437967Y-15196388D01*
X10437967Y-15196388D02*
X10447491Y-15215436D01*
X10447491Y-15215436D02*
X10457015Y-15224960D01*
X10457015Y-15224960D02*
X10476063Y-15234484D01*
X10476063Y-15234484D02*
X10514158Y-15234484D01*
X10514158Y-15234484D02*
X10533205Y-15224960D01*
X10533205Y-15224960D02*
X10542729Y-15215436D01*
X10542729Y-15215436D02*
X10552253Y-15196388D01*
X10552253Y-15196388D02*
X10552253Y-15148769D01*
X10552253Y-15148769D02*
X10542729Y-15129722D01*
X10542729Y-15129722D02*
X10533205Y-15120198D01*
X10533205Y-15120198D02*
X10514158Y-15110674D01*
X10514158Y-15110674D02*
X10476063Y-15110674D01*
X10476063Y-15110674D02*
X10457015Y-15120198D01*
X10457015Y-15120198D02*
X10447491Y-15129722D01*
X10447491Y-15129722D02*
X10437967Y-15148769D01*
X10676063Y-15034484D02*
X10695110Y-15034484D01*
X10695110Y-15034484D02*
X10714158Y-15044008D01*
X10714158Y-15044008D02*
X10723682Y-15053531D01*
X10723682Y-15053531D02*
X10733205Y-15072579D01*
X10733205Y-15072579D02*
X10742729Y-15110674D01*
X10742729Y-15110674D02*
X10742729Y-15158293D01*
X10742729Y-15158293D02*
X10733205Y-15196388D01*
X10733205Y-15196388D02*
X10723682Y-15215436D01*
X10723682Y-15215436D02*
X10714158Y-15224960D01*
X10714158Y-15224960D02*
X10695110Y-15234484D01*
X10695110Y-15234484D02*
X10676063Y-15234484D01*
X10676063Y-15234484D02*
X10657015Y-15224960D01*
X10657015Y-15224960D02*
X10647491Y-15215436D01*
X10647491Y-15215436D02*
X10637967Y-15196388D01*
X10637967Y-15196388D02*
X10628444Y-15158293D01*
X10628444Y-15158293D02*
X10628444Y-15110674D01*
X10628444Y-15110674D02*
X10637967Y-15072579D01*
X10637967Y-15072579D02*
X10647491Y-15053531D01*
X10647491Y-15053531D02*
X10657015Y-15044008D01*
X10657015Y-15044008D02*
X10676063Y-15034484D01*
X10866539Y-15034484D02*
X10885586Y-15034484D01*
X10885586Y-15034484D02*
X10904634Y-15044008D01*
X10904634Y-15044008D02*
X10914158Y-15053531D01*
X10914158Y-15053531D02*
X10923682Y-15072579D01*
X10923682Y-15072579D02*
X10933205Y-15110674D01*
X10933205Y-15110674D02*
X10933205Y-15158293D01*
X10933205Y-15158293D02*
X10923682Y-15196388D01*
X10923682Y-15196388D02*
X10914158Y-15215436D01*
X10914158Y-15215436D02*
X10904634Y-15224960D01*
X10904634Y-15224960D02*
X10885586Y-15234484D01*
X10885586Y-15234484D02*
X10866539Y-15234484D01*
X10866539Y-15234484D02*
X10847491Y-15224960D01*
X10847491Y-15224960D02*
X10837967Y-15215436D01*
X10837967Y-15215436D02*
X10828444Y-15196388D01*
X10828444Y-15196388D02*
X10818920Y-15158293D01*
X10818920Y-15158293D02*
X10818920Y-15110674D01*
X10818920Y-15110674D02*
X10828444Y-15072579D01*
X10828444Y-15072579D02*
X10837967Y-15053531D01*
X10837967Y-15053531D02*
X10847491Y-15044008D01*
X10847491Y-15044008D02*
X10866539Y-15034484D01*
X11018920Y-15234484D02*
X11018920Y-15101150D01*
X11018920Y-15120198D02*
X11028444Y-15110674D01*
X11028444Y-15110674D02*
X11047491Y-15101150D01*
X11047491Y-15101150D02*
X11076063Y-15101150D01*
X11076063Y-15101150D02*
X11095110Y-15110674D01*
X11095110Y-15110674D02*
X11104634Y-15129722D01*
X11104634Y-15129722D02*
X11104634Y-15234484D01*
X11104634Y-15129722D02*
X11114158Y-15110674D01*
X11114158Y-15110674D02*
X11133205Y-15101150D01*
X11133205Y-15101150D02*
X11161777Y-15101150D01*
X11161777Y-15101150D02*
X11180825Y-15110674D01*
X11180825Y-15110674D02*
X11190348Y-15129722D01*
X11190348Y-15129722D02*
X11190348Y-15234484D01*
X11285586Y-15234484D02*
X11285586Y-15101150D01*
X11285586Y-15120198D02*
X11295110Y-15110674D01*
X11295110Y-15110674D02*
X11314158Y-15101150D01*
X11314158Y-15101150D02*
X11342729Y-15101150D01*
X11342729Y-15101150D02*
X11361777Y-15110674D01*
X11361777Y-15110674D02*
X11371301Y-15129722D01*
X11371301Y-15129722D02*
X11371301Y-15234484D01*
X11371301Y-15129722D02*
X11380824Y-15110674D01*
X11380824Y-15110674D02*
X11399872Y-15101150D01*
X11399872Y-15101150D02*
X11428443Y-15101150D01*
X11428443Y-15101150D02*
X11447491Y-15110674D01*
X11447491Y-15110674D02*
X11457015Y-15129722D01*
X11457015Y-15129722D02*
X11457015Y-15234484D01*
X11847491Y-15024960D02*
X11676063Y-15282103D01*
X12104634Y-15034484D02*
X12123682Y-15034484D01*
X12123682Y-15034484D02*
X12142729Y-15044008D01*
X12142729Y-15044008D02*
X12152253Y-15053531D01*
X12152253Y-15053531D02*
X12161777Y-15072579D01*
X12161777Y-15072579D02*
X12171301Y-15110674D01*
X12171301Y-15110674D02*
X12171301Y-15158293D01*
X12171301Y-15158293D02*
X12161777Y-15196388D01*
X12161777Y-15196388D02*
X12152253Y-15215436D01*
X12152253Y-15215436D02*
X12142729Y-15224960D01*
X12142729Y-15224960D02*
X12123682Y-15234484D01*
X12123682Y-15234484D02*
X12104634Y-15234484D01*
X12104634Y-15234484D02*
X12085586Y-15224960D01*
X12085586Y-15224960D02*
X12076063Y-15215436D01*
X12076063Y-15215436D02*
X12066539Y-15196388D01*
X12066539Y-15196388D02*
X12057015Y-15158293D01*
X12057015Y-15158293D02*
X12057015Y-15110674D01*
X12057015Y-15110674D02*
X12066539Y-15072579D01*
X12066539Y-15072579D02*
X12076063Y-15053531D01*
X12076063Y-15053531D02*
X12085586Y-15044008D01*
X12085586Y-15044008D02*
X12104634Y-15034484D01*
X12257015Y-15215436D02*
X12266539Y-15224960D01*
X12266539Y-15224960D02*
X12257015Y-15234484D01*
X12257015Y-15234484D02*
X12247491Y-15224960D01*
X12247491Y-15224960D02*
X12257015Y-15215436D01*
X12257015Y-15215436D02*
X12257015Y-15234484D01*
X12390348Y-15034484D02*
X12409396Y-15034484D01*
X12409396Y-15034484D02*
X12428444Y-15044008D01*
X12428444Y-15044008D02*
X12437967Y-15053531D01*
X12437967Y-15053531D02*
X12447491Y-15072579D01*
X12447491Y-15072579D02*
X12457015Y-15110674D01*
X12457015Y-15110674D02*
X12457015Y-15158293D01*
X12457015Y-15158293D02*
X12447491Y-15196388D01*
X12447491Y-15196388D02*
X12437967Y-15215436D01*
X12437967Y-15215436D02*
X12428444Y-15224960D01*
X12428444Y-15224960D02*
X12409396Y-15234484D01*
X12409396Y-15234484D02*
X12390348Y-15234484D01*
X12390348Y-15234484D02*
X12371301Y-15224960D01*
X12371301Y-15224960D02*
X12361777Y-15215436D01*
X12361777Y-15215436D02*
X12352253Y-15196388D01*
X12352253Y-15196388D02*
X12342729Y-15158293D01*
X12342729Y-15158293D02*
X12342729Y-15110674D01*
X12342729Y-15110674D02*
X12352253Y-15072579D01*
X12352253Y-15072579D02*
X12361777Y-15053531D01*
X12361777Y-15053531D02*
X12371301Y-15044008D01*
X12371301Y-15044008D02*
X12390348Y-15034484D01*
X12628444Y-15034484D02*
X12590348Y-15034484D01*
X12590348Y-15034484D02*
X12571301Y-15044008D01*
X12571301Y-15044008D02*
X12561777Y-15053531D01*
X12561777Y-15053531D02*
X12542729Y-15082103D01*
X12542729Y-15082103D02*
X12533206Y-15120198D01*
X12533206Y-15120198D02*
X12533206Y-15196388D01*
X12533206Y-15196388D02*
X12542729Y-15215436D01*
X12542729Y-15215436D02*
X12552253Y-15224960D01*
X12552253Y-15224960D02*
X12571301Y-15234484D01*
X12571301Y-15234484D02*
X12609396Y-15234484D01*
X12609396Y-15234484D02*
X12628444Y-15224960D01*
X12628444Y-15224960D02*
X12637967Y-15215436D01*
X12637967Y-15215436D02*
X12647491Y-15196388D01*
X12647491Y-15196388D02*
X12647491Y-15148769D01*
X12647491Y-15148769D02*
X12637967Y-15129722D01*
X12637967Y-15129722D02*
X12628444Y-15120198D01*
X12628444Y-15120198D02*
X12609396Y-15110674D01*
X12609396Y-15110674D02*
X12571301Y-15110674D01*
X12571301Y-15110674D02*
X12552253Y-15120198D01*
X12552253Y-15120198D02*
X12542729Y-15129722D01*
X12542729Y-15129722D02*
X12533206Y-15148769D01*
X12714158Y-15034484D02*
X12837967Y-15034484D01*
X12837967Y-15034484D02*
X12771301Y-15110674D01*
X12771301Y-15110674D02*
X12799872Y-15110674D01*
X12799872Y-15110674D02*
X12818920Y-15120198D01*
X12818920Y-15120198D02*
X12828444Y-15129722D01*
X12828444Y-15129722D02*
X12837967Y-15148769D01*
X12837967Y-15148769D02*
X12837967Y-15196388D01*
X12837967Y-15196388D02*
X12828444Y-15215436D01*
X12828444Y-15215436D02*
X12818920Y-15224960D01*
X12818920Y-15224960D02*
X12799872Y-15234484D01*
X12799872Y-15234484D02*
X12742729Y-15234484D01*
X12742729Y-15234484D02*
X12723682Y-15224960D01*
X12723682Y-15224960D02*
X12714158Y-15215436D01*
X12961777Y-15034484D02*
X12980825Y-15034484D01*
X12980825Y-15034484D02*
X12999872Y-15044008D01*
X12999872Y-15044008D02*
X13009396Y-15053531D01*
X13009396Y-15053531D02*
X13018920Y-15072579D01*
X13018920Y-15072579D02*
X13028444Y-15110674D01*
X13028444Y-15110674D02*
X13028444Y-15158293D01*
X13028444Y-15158293D02*
X13018920Y-15196388D01*
X13018920Y-15196388D02*
X13009396Y-15215436D01*
X13009396Y-15215436D02*
X12999872Y-15224960D01*
X12999872Y-15224960D02*
X12980825Y-15234484D01*
X12980825Y-15234484D02*
X12961777Y-15234484D01*
X12961777Y-15234484D02*
X12942729Y-15224960D01*
X12942729Y-15224960D02*
X12933206Y-15215436D01*
X12933206Y-15215436D02*
X12923682Y-15196388D01*
X12923682Y-15196388D02*
X12914158Y-15158293D01*
X12914158Y-15158293D02*
X12914158Y-15110674D01*
X12914158Y-15110674D02*
X12923682Y-15072579D01*
X12923682Y-15072579D02*
X12933206Y-15053531D01*
X12933206Y-15053531D02*
X12942729Y-15044008D01*
X12942729Y-15044008D02*
X12961777Y-15034484D01*
X13104634Y-15034484D02*
X13104634Y-15072579D01*
X13180825Y-15034484D02*
X13180825Y-15072579D01*
X13476063Y-15310674D02*
X13466539Y-15301150D01*
X13466539Y-15301150D02*
X13447491Y-15272579D01*
X13447491Y-15272579D02*
X13437968Y-15253531D01*
X13437968Y-15253531D02*
X13428444Y-15224960D01*
X13428444Y-15224960D02*
X13418920Y-15177341D01*
X13418920Y-15177341D02*
X13418920Y-15139246D01*
X13418920Y-15139246D02*
X13428444Y-15091627D01*
X13428444Y-15091627D02*
X13437968Y-15063055D01*
X13437968Y-15063055D02*
X13447491Y-15044008D01*
X13447491Y-15044008D02*
X13466539Y-15015436D01*
X13466539Y-15015436D02*
X13476063Y-15005912D01*
X13657015Y-15234484D02*
X13542729Y-15234484D01*
X13599872Y-15234484D02*
X13599872Y-15034484D01*
X13599872Y-15034484D02*
X13580825Y-15063055D01*
X13580825Y-15063055D02*
X13561777Y-15082103D01*
X13561777Y-15082103D02*
X13542729Y-15091627D01*
X13895110Y-15234484D02*
X13895110Y-15034484D01*
X13980825Y-15234484D02*
X13980825Y-15129722D01*
X13980825Y-15129722D02*
X13971301Y-15110674D01*
X13971301Y-15110674D02*
X13952253Y-15101150D01*
X13952253Y-15101150D02*
X13923682Y-15101150D01*
X13923682Y-15101150D02*
X13904634Y-15110674D01*
X13904634Y-15110674D02*
X13895110Y-15120198D01*
X14104634Y-15234484D02*
X14085587Y-15224960D01*
X14085587Y-15224960D02*
X14076063Y-15215436D01*
X14076063Y-15215436D02*
X14066539Y-15196388D01*
X14066539Y-15196388D02*
X14066539Y-15139246D01*
X14066539Y-15139246D02*
X14076063Y-15120198D01*
X14076063Y-15120198D02*
X14085587Y-15110674D01*
X14085587Y-15110674D02*
X14104634Y-15101150D01*
X14104634Y-15101150D02*
X14133206Y-15101150D01*
X14133206Y-15101150D02*
X14152253Y-15110674D01*
X14152253Y-15110674D02*
X14161777Y-15120198D01*
X14161777Y-15120198D02*
X14171301Y-15139246D01*
X14171301Y-15139246D02*
X14171301Y-15196388D01*
X14171301Y-15196388D02*
X14161777Y-15215436D01*
X14161777Y-15215436D02*
X14152253Y-15224960D01*
X14152253Y-15224960D02*
X14133206Y-15234484D01*
X14133206Y-15234484D02*
X14104634Y-15234484D01*
X14285587Y-15234484D02*
X14266539Y-15224960D01*
X14266539Y-15224960D02*
X14257015Y-15205912D01*
X14257015Y-15205912D02*
X14257015Y-15034484D01*
X14437968Y-15224960D02*
X14418920Y-15234484D01*
X14418920Y-15234484D02*
X14380825Y-15234484D01*
X14380825Y-15234484D02*
X14361777Y-15224960D01*
X14361777Y-15224960D02*
X14352253Y-15205912D01*
X14352253Y-15205912D02*
X14352253Y-15129722D01*
X14352253Y-15129722D02*
X14361777Y-15110674D01*
X14361777Y-15110674D02*
X14380825Y-15101150D01*
X14380825Y-15101150D02*
X14418920Y-15101150D01*
X14418920Y-15101150D02*
X14437968Y-15110674D01*
X14437968Y-15110674D02*
X14447491Y-15129722D01*
X14447491Y-15129722D02*
X14447491Y-15148769D01*
X14447491Y-15148769D02*
X14352253Y-15167817D01*
X14514158Y-15310674D02*
X14523682Y-15301150D01*
X14523682Y-15301150D02*
X14542730Y-15272579D01*
X14542730Y-15272579D02*
X14552253Y-15253531D01*
X14552253Y-15253531D02*
X14561777Y-15224960D01*
X14561777Y-15224960D02*
X14571301Y-15177341D01*
X14571301Y-15177341D02*
X14571301Y-15139246D01*
X14571301Y-15139246D02*
X14561777Y-15091627D01*
X14561777Y-15091627D02*
X14552253Y-15063055D01*
X14552253Y-15063055D02*
X14542730Y-15044008D01*
X14542730Y-15044008D02*
X14523682Y-15015436D01*
X14523682Y-15015436D02*
X14514158Y-15005912D01*
X14876063Y-15310674D02*
X14866539Y-15301150D01*
X14866539Y-15301150D02*
X14847491Y-15272579D01*
X14847491Y-15272579D02*
X14837968Y-15253531D01*
X14837968Y-15253531D02*
X14828444Y-15224960D01*
X14828444Y-15224960D02*
X14818920Y-15177341D01*
X14818920Y-15177341D02*
X14818920Y-15139246D01*
X14818920Y-15139246D02*
X14828444Y-15091627D01*
X14828444Y-15091627D02*
X14837968Y-15063055D01*
X14837968Y-15063055D02*
X14847491Y-15044008D01*
X14847491Y-15044008D02*
X14866539Y-15015436D01*
X14866539Y-15015436D02*
X14876063Y-15005912D01*
X14952253Y-15101150D02*
X14952253Y-15234484D01*
X14952253Y-15120198D02*
X14961777Y-15110674D01*
X14961777Y-15110674D02*
X14980825Y-15101150D01*
X14980825Y-15101150D02*
X15009396Y-15101150D01*
X15009396Y-15101150D02*
X15028444Y-15110674D01*
X15028444Y-15110674D02*
X15037968Y-15129722D01*
X15037968Y-15129722D02*
X15037968Y-15234484D01*
X15161777Y-15234484D02*
X15142730Y-15224960D01*
X15142730Y-15224960D02*
X15133206Y-15215436D01*
X15133206Y-15215436D02*
X15123682Y-15196388D01*
X15123682Y-15196388D02*
X15123682Y-15139246D01*
X15123682Y-15139246D02*
X15133206Y-15120198D01*
X15133206Y-15120198D02*
X15142730Y-15110674D01*
X15142730Y-15110674D02*
X15161777Y-15101150D01*
X15161777Y-15101150D02*
X15190349Y-15101150D01*
X15190349Y-15101150D02*
X15209396Y-15110674D01*
X15209396Y-15110674D02*
X15218920Y-15120198D01*
X15218920Y-15120198D02*
X15228444Y-15139246D01*
X15228444Y-15139246D02*
X15228444Y-15196388D01*
X15228444Y-15196388D02*
X15218920Y-15215436D01*
X15218920Y-15215436D02*
X15209396Y-15224960D01*
X15209396Y-15224960D02*
X15190349Y-15234484D01*
X15190349Y-15234484D02*
X15161777Y-15234484D01*
X15285587Y-15101150D02*
X15361777Y-15101150D01*
X15314158Y-15034484D02*
X15314158Y-15205912D01*
X15314158Y-15205912D02*
X15323682Y-15224960D01*
X15323682Y-15224960D02*
X15342730Y-15234484D01*
X15342730Y-15234484D02*
X15361777Y-15234484D01*
X15580825Y-15101150D02*
X15580825Y-15301150D01*
X15580825Y-15110674D02*
X15599872Y-15101150D01*
X15599872Y-15101150D02*
X15637968Y-15101150D01*
X15637968Y-15101150D02*
X15657015Y-15110674D01*
X15657015Y-15110674D02*
X15666539Y-15120198D01*
X15666539Y-15120198D02*
X15676063Y-15139246D01*
X15676063Y-15139246D02*
X15676063Y-15196388D01*
X15676063Y-15196388D02*
X15666539Y-15215436D01*
X15666539Y-15215436D02*
X15657015Y-15224960D01*
X15657015Y-15224960D02*
X15637968Y-15234484D01*
X15637968Y-15234484D02*
X15599872Y-15234484D01*
X15599872Y-15234484D02*
X15580825Y-15224960D01*
X15790349Y-15234484D02*
X15771301Y-15224960D01*
X15771301Y-15224960D02*
X15761777Y-15205912D01*
X15761777Y-15205912D02*
X15761777Y-15034484D01*
X15952253Y-15234484D02*
X15952253Y-15129722D01*
X15952253Y-15129722D02*
X15942730Y-15110674D01*
X15942730Y-15110674D02*
X15923682Y-15101150D01*
X15923682Y-15101150D02*
X15885587Y-15101150D01*
X15885587Y-15101150D02*
X15866539Y-15110674D01*
X15952253Y-15224960D02*
X15933206Y-15234484D01*
X15933206Y-15234484D02*
X15885587Y-15234484D01*
X15885587Y-15234484D02*
X15866539Y-15224960D01*
X15866539Y-15224960D02*
X15857015Y-15205912D01*
X15857015Y-15205912D02*
X15857015Y-15186865D01*
X15857015Y-15186865D02*
X15866539Y-15167817D01*
X15866539Y-15167817D02*
X15885587Y-15158293D01*
X15885587Y-15158293D02*
X15933206Y-15158293D01*
X15933206Y-15158293D02*
X15952253Y-15148769D01*
X16018920Y-15101150D02*
X16095111Y-15101150D01*
X16047492Y-15034484D02*
X16047492Y-15205912D01*
X16047492Y-15205912D02*
X16057015Y-15224960D01*
X16057015Y-15224960D02*
X16076063Y-15234484D01*
X16076063Y-15234484D02*
X16095111Y-15234484D01*
X16237968Y-15224960D02*
X16218920Y-15234484D01*
X16218920Y-15234484D02*
X16180825Y-15234484D01*
X16180825Y-15234484D02*
X16161777Y-15224960D01*
X16161777Y-15224960D02*
X16152253Y-15205912D01*
X16152253Y-15205912D02*
X16152253Y-15129722D01*
X16152253Y-15129722D02*
X16161777Y-15110674D01*
X16161777Y-15110674D02*
X16180825Y-15101150D01*
X16180825Y-15101150D02*
X16218920Y-15101150D01*
X16218920Y-15101150D02*
X16237968Y-15110674D01*
X16237968Y-15110674D02*
X16247492Y-15129722D01*
X16247492Y-15129722D02*
X16247492Y-15148769D01*
X16247492Y-15148769D02*
X16152253Y-15167817D01*
X16418920Y-15234484D02*
X16418920Y-15034484D01*
X16418920Y-15224960D02*
X16399873Y-15234484D01*
X16399873Y-15234484D02*
X16361777Y-15234484D01*
X16361777Y-15234484D02*
X16342730Y-15224960D01*
X16342730Y-15224960D02*
X16333206Y-15215436D01*
X16333206Y-15215436D02*
X16323682Y-15196388D01*
X16323682Y-15196388D02*
X16323682Y-15139246D01*
X16323682Y-15139246D02*
X16333206Y-15120198D01*
X16333206Y-15120198D02*
X16342730Y-15110674D01*
X16342730Y-15110674D02*
X16361777Y-15101150D01*
X16361777Y-15101150D02*
X16399873Y-15101150D01*
X16399873Y-15101150D02*
X16418920Y-15110674D01*
X16495111Y-15310674D02*
X16504634Y-15301150D01*
X16504634Y-15301150D02*
X16523682Y-15272579D01*
X16523682Y-15272579D02*
X16533206Y-15253531D01*
X16533206Y-15253531D02*
X16542730Y-15224960D01*
X16542730Y-15224960D02*
X16552253Y-15177341D01*
X16552253Y-15177341D02*
X16552253Y-15139246D01*
X16552253Y-15139246D02*
X16542730Y-15091627D01*
X16542730Y-15091627D02*
X16533206Y-15063055D01*
X16533206Y-15063055D02*
X16523682Y-15044008D01*
X16523682Y-15044008D02*
X16504634Y-15015436D01*
X16504634Y-15015436D02*
X16495111Y-15005912D01*
X9871711Y-15493711D02*
X9871711Y-15352289D01*
X9730289Y-15352289D01*
X9730289Y-15493711D01*
X9871711Y-15493711D01*
X10142729Y-15314484D02*
X10266539Y-15314484D01*
X10266539Y-15314484D02*
X10199872Y-15390674D01*
X10199872Y-15390674D02*
X10228444Y-15390674D01*
X10228444Y-15390674D02*
X10247491Y-15400198D01*
X10247491Y-15400198D02*
X10257015Y-15409722D01*
X10257015Y-15409722D02*
X10266539Y-15428769D01*
X10266539Y-15428769D02*
X10266539Y-15476388D01*
X10266539Y-15476388D02*
X10257015Y-15495436D01*
X10257015Y-15495436D02*
X10247491Y-15504960D01*
X10247491Y-15504960D02*
X10228444Y-15514484D01*
X10228444Y-15514484D02*
X10171301Y-15514484D01*
X10171301Y-15514484D02*
X10152253Y-15504960D01*
X10152253Y-15504960D02*
X10142729Y-15495436D01*
X10352253Y-15495436D02*
X10361777Y-15504960D01*
X10361777Y-15504960D02*
X10352253Y-15514484D01*
X10352253Y-15514484D02*
X10342729Y-15504960D01*
X10342729Y-15504960D02*
X10352253Y-15495436D01*
X10352253Y-15495436D02*
X10352253Y-15514484D01*
X10485586Y-15314484D02*
X10504634Y-15314484D01*
X10504634Y-15314484D02*
X10523682Y-15324008D01*
X10523682Y-15324008D02*
X10533205Y-15333531D01*
X10533205Y-15333531D02*
X10542729Y-15352579D01*
X10542729Y-15352579D02*
X10552253Y-15390674D01*
X10552253Y-15390674D02*
X10552253Y-15438293D01*
X10552253Y-15438293D02*
X10542729Y-15476388D01*
X10542729Y-15476388D02*
X10533205Y-15495436D01*
X10533205Y-15495436D02*
X10523682Y-15504960D01*
X10523682Y-15504960D02*
X10504634Y-15514484D01*
X10504634Y-15514484D02*
X10485586Y-15514484D01*
X10485586Y-15514484D02*
X10466539Y-15504960D01*
X10466539Y-15504960D02*
X10457015Y-15495436D01*
X10457015Y-15495436D02*
X10447491Y-15476388D01*
X10447491Y-15476388D02*
X10437967Y-15438293D01*
X10437967Y-15438293D02*
X10437967Y-15390674D01*
X10437967Y-15390674D02*
X10447491Y-15352579D01*
X10447491Y-15352579D02*
X10457015Y-15333531D01*
X10457015Y-15333531D02*
X10466539Y-15324008D01*
X10466539Y-15324008D02*
X10485586Y-15314484D01*
X10676063Y-15314484D02*
X10695110Y-15314484D01*
X10695110Y-15314484D02*
X10714158Y-15324008D01*
X10714158Y-15324008D02*
X10723682Y-15333531D01*
X10723682Y-15333531D02*
X10733205Y-15352579D01*
X10733205Y-15352579D02*
X10742729Y-15390674D01*
X10742729Y-15390674D02*
X10742729Y-15438293D01*
X10742729Y-15438293D02*
X10733205Y-15476388D01*
X10733205Y-15476388D02*
X10723682Y-15495436D01*
X10723682Y-15495436D02*
X10714158Y-15504960D01*
X10714158Y-15504960D02*
X10695110Y-15514484D01*
X10695110Y-15514484D02*
X10676063Y-15514484D01*
X10676063Y-15514484D02*
X10657015Y-15504960D01*
X10657015Y-15504960D02*
X10647491Y-15495436D01*
X10647491Y-15495436D02*
X10637967Y-15476388D01*
X10637967Y-15476388D02*
X10628444Y-15438293D01*
X10628444Y-15438293D02*
X10628444Y-15390674D01*
X10628444Y-15390674D02*
X10637967Y-15352579D01*
X10637967Y-15352579D02*
X10647491Y-15333531D01*
X10647491Y-15333531D02*
X10657015Y-15324008D01*
X10657015Y-15324008D02*
X10676063Y-15314484D01*
X10866539Y-15314484D02*
X10885586Y-15314484D01*
X10885586Y-15314484D02*
X10904634Y-15324008D01*
X10904634Y-15324008D02*
X10914158Y-15333531D01*
X10914158Y-15333531D02*
X10923682Y-15352579D01*
X10923682Y-15352579D02*
X10933205Y-15390674D01*
X10933205Y-15390674D02*
X10933205Y-15438293D01*
X10933205Y-15438293D02*
X10923682Y-15476388D01*
X10923682Y-15476388D02*
X10914158Y-15495436D01*
X10914158Y-15495436D02*
X10904634Y-15504960D01*
X10904634Y-15504960D02*
X10885586Y-15514484D01*
X10885586Y-15514484D02*
X10866539Y-15514484D01*
X10866539Y-15514484D02*
X10847491Y-15504960D01*
X10847491Y-15504960D02*
X10837967Y-15495436D01*
X10837967Y-15495436D02*
X10828444Y-15476388D01*
X10828444Y-15476388D02*
X10818920Y-15438293D01*
X10818920Y-15438293D02*
X10818920Y-15390674D01*
X10818920Y-15390674D02*
X10828444Y-15352579D01*
X10828444Y-15352579D02*
X10837967Y-15333531D01*
X10837967Y-15333531D02*
X10847491Y-15324008D01*
X10847491Y-15324008D02*
X10866539Y-15314484D01*
X11018920Y-15514484D02*
X11018920Y-15381150D01*
X11018920Y-15400198D02*
X11028444Y-15390674D01*
X11028444Y-15390674D02*
X11047491Y-15381150D01*
X11047491Y-15381150D02*
X11076063Y-15381150D01*
X11076063Y-15381150D02*
X11095110Y-15390674D01*
X11095110Y-15390674D02*
X11104634Y-15409722D01*
X11104634Y-15409722D02*
X11104634Y-15514484D01*
X11104634Y-15409722D02*
X11114158Y-15390674D01*
X11114158Y-15390674D02*
X11133205Y-15381150D01*
X11133205Y-15381150D02*
X11161777Y-15381150D01*
X11161777Y-15381150D02*
X11180825Y-15390674D01*
X11180825Y-15390674D02*
X11190348Y-15409722D01*
X11190348Y-15409722D02*
X11190348Y-15514484D01*
X11285586Y-15514484D02*
X11285586Y-15381150D01*
X11285586Y-15400198D02*
X11295110Y-15390674D01*
X11295110Y-15390674D02*
X11314158Y-15381150D01*
X11314158Y-15381150D02*
X11342729Y-15381150D01*
X11342729Y-15381150D02*
X11361777Y-15390674D01*
X11361777Y-15390674D02*
X11371301Y-15409722D01*
X11371301Y-15409722D02*
X11371301Y-15514484D01*
X11371301Y-15409722D02*
X11380824Y-15390674D01*
X11380824Y-15390674D02*
X11399872Y-15381150D01*
X11399872Y-15381150D02*
X11428443Y-15381150D01*
X11428443Y-15381150D02*
X11447491Y-15390674D01*
X11447491Y-15390674D02*
X11457015Y-15409722D01*
X11457015Y-15409722D02*
X11457015Y-15514484D01*
X11847491Y-15304960D02*
X11676063Y-15562103D01*
X12104634Y-15314484D02*
X12123682Y-15314484D01*
X12123682Y-15314484D02*
X12142729Y-15324008D01*
X12142729Y-15324008D02*
X12152253Y-15333531D01*
X12152253Y-15333531D02*
X12161777Y-15352579D01*
X12161777Y-15352579D02*
X12171301Y-15390674D01*
X12171301Y-15390674D02*
X12171301Y-15438293D01*
X12171301Y-15438293D02*
X12161777Y-15476388D01*
X12161777Y-15476388D02*
X12152253Y-15495436D01*
X12152253Y-15495436D02*
X12142729Y-15504960D01*
X12142729Y-15504960D02*
X12123682Y-15514484D01*
X12123682Y-15514484D02*
X12104634Y-15514484D01*
X12104634Y-15514484D02*
X12085586Y-15504960D01*
X12085586Y-15504960D02*
X12076063Y-15495436D01*
X12076063Y-15495436D02*
X12066539Y-15476388D01*
X12066539Y-15476388D02*
X12057015Y-15438293D01*
X12057015Y-15438293D02*
X12057015Y-15390674D01*
X12057015Y-15390674D02*
X12066539Y-15352579D01*
X12066539Y-15352579D02*
X12076063Y-15333531D01*
X12076063Y-15333531D02*
X12085586Y-15324008D01*
X12085586Y-15324008D02*
X12104634Y-15314484D01*
X12257015Y-15495436D02*
X12266539Y-15504960D01*
X12266539Y-15504960D02*
X12257015Y-15514484D01*
X12257015Y-15514484D02*
X12247491Y-15504960D01*
X12247491Y-15504960D02*
X12257015Y-15495436D01*
X12257015Y-15495436D02*
X12257015Y-15514484D01*
X12457015Y-15514484D02*
X12342729Y-15514484D01*
X12399872Y-15514484D02*
X12399872Y-15314484D01*
X12399872Y-15314484D02*
X12380825Y-15343055D01*
X12380825Y-15343055D02*
X12361777Y-15362103D01*
X12361777Y-15362103D02*
X12342729Y-15371627D01*
X12647491Y-15514484D02*
X12533206Y-15514484D01*
X12590348Y-15514484D02*
X12590348Y-15314484D01*
X12590348Y-15314484D02*
X12571301Y-15343055D01*
X12571301Y-15343055D02*
X12552253Y-15362103D01*
X12552253Y-15362103D02*
X12533206Y-15371627D01*
X12761777Y-15400198D02*
X12742729Y-15390674D01*
X12742729Y-15390674D02*
X12733206Y-15381150D01*
X12733206Y-15381150D02*
X12723682Y-15362103D01*
X12723682Y-15362103D02*
X12723682Y-15352579D01*
X12723682Y-15352579D02*
X12733206Y-15333531D01*
X12733206Y-15333531D02*
X12742729Y-15324008D01*
X12742729Y-15324008D02*
X12761777Y-15314484D01*
X12761777Y-15314484D02*
X12799872Y-15314484D01*
X12799872Y-15314484D02*
X12818920Y-15324008D01*
X12818920Y-15324008D02*
X12828444Y-15333531D01*
X12828444Y-15333531D02*
X12837967Y-15352579D01*
X12837967Y-15352579D02*
X12837967Y-15362103D01*
X12837967Y-15362103D02*
X12828444Y-15381150D01*
X12828444Y-15381150D02*
X12818920Y-15390674D01*
X12818920Y-15390674D02*
X12799872Y-15400198D01*
X12799872Y-15400198D02*
X12761777Y-15400198D01*
X12761777Y-15400198D02*
X12742729Y-15409722D01*
X12742729Y-15409722D02*
X12733206Y-15419246D01*
X12733206Y-15419246D02*
X12723682Y-15438293D01*
X12723682Y-15438293D02*
X12723682Y-15476388D01*
X12723682Y-15476388D02*
X12733206Y-15495436D01*
X12733206Y-15495436D02*
X12742729Y-15504960D01*
X12742729Y-15504960D02*
X12761777Y-15514484D01*
X12761777Y-15514484D02*
X12799872Y-15514484D01*
X12799872Y-15514484D02*
X12818920Y-15504960D01*
X12818920Y-15504960D02*
X12828444Y-15495436D01*
X12828444Y-15495436D02*
X12837967Y-15476388D01*
X12837967Y-15476388D02*
X12837967Y-15438293D01*
X12837967Y-15438293D02*
X12828444Y-15419246D01*
X12828444Y-15419246D02*
X12818920Y-15409722D01*
X12818920Y-15409722D02*
X12799872Y-15400198D01*
X13028444Y-15514484D02*
X12914158Y-15514484D01*
X12971301Y-15514484D02*
X12971301Y-15314484D01*
X12971301Y-15314484D02*
X12952253Y-15343055D01*
X12952253Y-15343055D02*
X12933206Y-15362103D01*
X12933206Y-15362103D02*
X12914158Y-15371627D01*
X13104634Y-15314484D02*
X13104634Y-15352579D01*
X13180825Y-15314484D02*
X13180825Y-15352579D01*
X13476063Y-15590674D02*
X13466539Y-15581150D01*
X13466539Y-15581150D02*
X13447491Y-15552579D01*
X13447491Y-15552579D02*
X13437968Y-15533531D01*
X13437968Y-15533531D02*
X13428444Y-15504960D01*
X13428444Y-15504960D02*
X13418920Y-15457341D01*
X13418920Y-15457341D02*
X13418920Y-15419246D01*
X13418920Y-15419246D02*
X13428444Y-15371627D01*
X13428444Y-15371627D02*
X13437968Y-15343055D01*
X13437968Y-15343055D02*
X13447491Y-15324008D01*
X13447491Y-15324008D02*
X13466539Y-15295436D01*
X13466539Y-15295436D02*
X13476063Y-15285912D01*
X13533206Y-15314484D02*
X13657015Y-15314484D01*
X13657015Y-15314484D02*
X13590348Y-15390674D01*
X13590348Y-15390674D02*
X13618920Y-15390674D01*
X13618920Y-15390674D02*
X13637968Y-15400198D01*
X13637968Y-15400198D02*
X13647491Y-15409722D01*
X13647491Y-15409722D02*
X13657015Y-15428769D01*
X13657015Y-15428769D02*
X13657015Y-15476388D01*
X13657015Y-15476388D02*
X13647491Y-15495436D01*
X13647491Y-15495436D02*
X13637968Y-15504960D01*
X13637968Y-15504960D02*
X13618920Y-15514484D01*
X13618920Y-15514484D02*
X13561777Y-15514484D01*
X13561777Y-15514484D02*
X13542729Y-15504960D01*
X13542729Y-15504960D02*
X13533206Y-15495436D01*
X13895110Y-15514484D02*
X13895110Y-15314484D01*
X13980825Y-15514484D02*
X13980825Y-15409722D01*
X13980825Y-15409722D02*
X13971301Y-15390674D01*
X13971301Y-15390674D02*
X13952253Y-15381150D01*
X13952253Y-15381150D02*
X13923682Y-15381150D01*
X13923682Y-15381150D02*
X13904634Y-15390674D01*
X13904634Y-15390674D02*
X13895110Y-15400198D01*
X14104634Y-15514484D02*
X14085587Y-15504960D01*
X14085587Y-15504960D02*
X14076063Y-15495436D01*
X14076063Y-15495436D02*
X14066539Y-15476388D01*
X14066539Y-15476388D02*
X14066539Y-15419246D01*
X14066539Y-15419246D02*
X14076063Y-15400198D01*
X14076063Y-15400198D02*
X14085587Y-15390674D01*
X14085587Y-15390674D02*
X14104634Y-15381150D01*
X14104634Y-15381150D02*
X14133206Y-15381150D01*
X14133206Y-15381150D02*
X14152253Y-15390674D01*
X14152253Y-15390674D02*
X14161777Y-15400198D01*
X14161777Y-15400198D02*
X14171301Y-15419246D01*
X14171301Y-15419246D02*
X14171301Y-15476388D01*
X14171301Y-15476388D02*
X14161777Y-15495436D01*
X14161777Y-15495436D02*
X14152253Y-15504960D01*
X14152253Y-15504960D02*
X14133206Y-15514484D01*
X14133206Y-15514484D02*
X14104634Y-15514484D01*
X14285587Y-15514484D02*
X14266539Y-15504960D01*
X14266539Y-15504960D02*
X14257015Y-15485912D01*
X14257015Y-15485912D02*
X14257015Y-15314484D01*
X14437968Y-15504960D02*
X14418920Y-15514484D01*
X14418920Y-15514484D02*
X14380825Y-15514484D01*
X14380825Y-15514484D02*
X14361777Y-15504960D01*
X14361777Y-15504960D02*
X14352253Y-15485912D01*
X14352253Y-15485912D02*
X14352253Y-15409722D01*
X14352253Y-15409722D02*
X14361777Y-15390674D01*
X14361777Y-15390674D02*
X14380825Y-15381150D01*
X14380825Y-15381150D02*
X14418920Y-15381150D01*
X14418920Y-15381150D02*
X14437968Y-15390674D01*
X14437968Y-15390674D02*
X14447491Y-15409722D01*
X14447491Y-15409722D02*
X14447491Y-15428769D01*
X14447491Y-15428769D02*
X14352253Y-15447817D01*
X14523682Y-15504960D02*
X14542730Y-15514484D01*
X14542730Y-15514484D02*
X14580825Y-15514484D01*
X14580825Y-15514484D02*
X14599872Y-15504960D01*
X14599872Y-15504960D02*
X14609396Y-15485912D01*
X14609396Y-15485912D02*
X14609396Y-15476388D01*
X14609396Y-15476388D02*
X14599872Y-15457341D01*
X14599872Y-15457341D02*
X14580825Y-15447817D01*
X14580825Y-15447817D02*
X14552253Y-15447817D01*
X14552253Y-15447817D02*
X14533206Y-15438293D01*
X14533206Y-15438293D02*
X14523682Y-15419246D01*
X14523682Y-15419246D02*
X14523682Y-15409722D01*
X14523682Y-15409722D02*
X14533206Y-15390674D01*
X14533206Y-15390674D02*
X14552253Y-15381150D01*
X14552253Y-15381150D02*
X14580825Y-15381150D01*
X14580825Y-15381150D02*
X14599872Y-15390674D01*
X14676063Y-15590674D02*
X14685587Y-15581150D01*
X14685587Y-15581150D02*
X14704634Y-15552579D01*
X14704634Y-15552579D02*
X14714158Y-15533531D01*
X14714158Y-15533531D02*
X14723682Y-15504960D01*
X14723682Y-15504960D02*
X14733206Y-15457341D01*
X14733206Y-15457341D02*
X14733206Y-15419246D01*
X14733206Y-15419246D02*
X14723682Y-15371627D01*
X14723682Y-15371627D02*
X14714158Y-15343055D01*
X14714158Y-15343055D02*
X14704634Y-15324008D01*
X14704634Y-15324008D02*
X14685587Y-15295436D01*
X14685587Y-15295436D02*
X14676063Y-15285912D01*
X15037968Y-15590674D02*
X15028444Y-15581150D01*
X15028444Y-15581150D02*
X15009396Y-15552579D01*
X15009396Y-15552579D02*
X14999872Y-15533531D01*
X14999872Y-15533531D02*
X14990349Y-15504960D01*
X14990349Y-15504960D02*
X14980825Y-15457341D01*
X14980825Y-15457341D02*
X14980825Y-15419246D01*
X14980825Y-15419246D02*
X14990349Y-15371627D01*
X14990349Y-15371627D02*
X14999872Y-15343055D01*
X14999872Y-15343055D02*
X15009396Y-15324008D01*
X15009396Y-15324008D02*
X15028444Y-15295436D01*
X15028444Y-15295436D02*
X15037968Y-15285912D01*
X15114158Y-15381150D02*
X15114158Y-15514484D01*
X15114158Y-15400198D02*
X15123682Y-15390674D01*
X15123682Y-15390674D02*
X15142730Y-15381150D01*
X15142730Y-15381150D02*
X15171301Y-15381150D01*
X15171301Y-15381150D02*
X15190349Y-15390674D01*
X15190349Y-15390674D02*
X15199872Y-15409722D01*
X15199872Y-15409722D02*
X15199872Y-15514484D01*
X15323682Y-15514484D02*
X15304634Y-15504960D01*
X15304634Y-15504960D02*
X15295111Y-15495436D01*
X15295111Y-15495436D02*
X15285587Y-15476388D01*
X15285587Y-15476388D02*
X15285587Y-15419246D01*
X15285587Y-15419246D02*
X15295111Y-15400198D01*
X15295111Y-15400198D02*
X15304634Y-15390674D01*
X15304634Y-15390674D02*
X15323682Y-15381150D01*
X15323682Y-15381150D02*
X15352253Y-15381150D01*
X15352253Y-15381150D02*
X15371301Y-15390674D01*
X15371301Y-15390674D02*
X15380825Y-15400198D01*
X15380825Y-15400198D02*
X15390349Y-15419246D01*
X15390349Y-15419246D02*
X15390349Y-15476388D01*
X15390349Y-15476388D02*
X15380825Y-15495436D01*
X15380825Y-15495436D02*
X15371301Y-15504960D01*
X15371301Y-15504960D02*
X15352253Y-15514484D01*
X15352253Y-15514484D02*
X15323682Y-15514484D01*
X15447492Y-15381150D02*
X15523682Y-15381150D01*
X15476063Y-15314484D02*
X15476063Y-15485912D01*
X15476063Y-15485912D02*
X15485587Y-15504960D01*
X15485587Y-15504960D02*
X15504634Y-15514484D01*
X15504634Y-15514484D02*
X15523682Y-15514484D01*
X15742730Y-15381150D02*
X15742730Y-15581150D01*
X15742730Y-15390674D02*
X15761777Y-15381150D01*
X15761777Y-15381150D02*
X15799873Y-15381150D01*
X15799873Y-15381150D02*
X15818920Y-15390674D01*
X15818920Y-15390674D02*
X15828444Y-15400198D01*
X15828444Y-15400198D02*
X15837968Y-15419246D01*
X15837968Y-15419246D02*
X15837968Y-15476388D01*
X15837968Y-15476388D02*
X15828444Y-15495436D01*
X15828444Y-15495436D02*
X15818920Y-15504960D01*
X15818920Y-15504960D02*
X15799873Y-15514484D01*
X15799873Y-15514484D02*
X15761777Y-15514484D01*
X15761777Y-15514484D02*
X15742730Y-15504960D01*
X15952253Y-15514484D02*
X15933206Y-15504960D01*
X15933206Y-15504960D02*
X15923682Y-15485912D01*
X15923682Y-15485912D02*
X15923682Y-15314484D01*
X16114158Y-15514484D02*
X16114158Y-15409722D01*
X16114158Y-15409722D02*
X16104634Y-15390674D01*
X16104634Y-15390674D02*
X16085587Y-15381150D01*
X16085587Y-15381150D02*
X16047492Y-15381150D01*
X16047492Y-15381150D02*
X16028444Y-15390674D01*
X16114158Y-15504960D02*
X16095111Y-15514484D01*
X16095111Y-15514484D02*
X16047492Y-15514484D01*
X16047492Y-15514484D02*
X16028444Y-15504960D01*
X16028444Y-15504960D02*
X16018920Y-15485912D01*
X16018920Y-15485912D02*
X16018920Y-15466865D01*
X16018920Y-15466865D02*
X16028444Y-15447817D01*
X16028444Y-15447817D02*
X16047492Y-15438293D01*
X16047492Y-15438293D02*
X16095111Y-15438293D01*
X16095111Y-15438293D02*
X16114158Y-15428769D01*
X16180825Y-15381150D02*
X16257015Y-15381150D01*
X16209396Y-15314484D02*
X16209396Y-15485912D01*
X16209396Y-15485912D02*
X16218920Y-15504960D01*
X16218920Y-15504960D02*
X16237968Y-15514484D01*
X16237968Y-15514484D02*
X16257015Y-15514484D01*
X16399873Y-15504960D02*
X16380825Y-15514484D01*
X16380825Y-15514484D02*
X16342730Y-15514484D01*
X16342730Y-15514484D02*
X16323682Y-15504960D01*
X16323682Y-15504960D02*
X16314158Y-15485912D01*
X16314158Y-15485912D02*
X16314158Y-15409722D01*
X16314158Y-15409722D02*
X16323682Y-15390674D01*
X16323682Y-15390674D02*
X16342730Y-15381150D01*
X16342730Y-15381150D02*
X16380825Y-15381150D01*
X16380825Y-15381150D02*
X16399873Y-15390674D01*
X16399873Y-15390674D02*
X16409396Y-15409722D01*
X16409396Y-15409722D02*
X16409396Y-15428769D01*
X16409396Y-15428769D02*
X16314158Y-15447817D01*
X16580825Y-15514484D02*
X16580825Y-15314484D01*
X16580825Y-15504960D02*
X16561777Y-15514484D01*
X16561777Y-15514484D02*
X16523682Y-15514484D01*
X16523682Y-15514484D02*
X16504634Y-15504960D01*
X16504634Y-15504960D02*
X16495111Y-15495436D01*
X16495111Y-15495436D02*
X16485587Y-15476388D01*
X16485587Y-15476388D02*
X16485587Y-15419246D01*
X16485587Y-15419246D02*
X16495111Y-15400198D01*
X16495111Y-15400198D02*
X16504634Y-15390674D01*
X16504634Y-15390674D02*
X16523682Y-15381150D01*
X16523682Y-15381150D02*
X16561777Y-15381150D01*
X16561777Y-15381150D02*
X16580825Y-15390674D01*
X16657015Y-15590674D02*
X16666539Y-15581150D01*
X16666539Y-15581150D02*
X16685587Y-15552579D01*
X16685587Y-15552579D02*
X16695111Y-15533531D01*
X16695111Y-15533531D02*
X16704634Y-15504960D01*
X16704634Y-15504960D02*
X16714158Y-15457341D01*
X16714158Y-15457341D02*
X16714158Y-15419246D01*
X16714158Y-15419246D02*
X16704634Y-15371627D01*
X16704634Y-15371627D02*
X16695111Y-15343055D01*
X16695111Y-15343055D02*
X16685587Y-15324008D01*
X16685587Y-15324008D02*
X16666539Y-15295436D01*
X16666539Y-15295436D02*
X16657015Y-15285912D01*
M02*
