G04 #@! TF.GenerationSoftware,KiCad,Pcbnew,7.0.7*
G04 #@! TF.CreationDate,2023-09-24T19:29:38+02:00*
G04 #@! TF.ProjectId,ardumate,61726475-6d61-4746-952e-6b696361645f,rev?*
G04 #@! TF.SameCoordinates,Original*
G04 #@! TF.FileFunction,Soldermask,Bot*
G04 #@! TF.FilePolarity,Negative*
%FSLAX46Y46*%
G04 Gerber Fmt 4.6, Leading zero omitted, Abs format (unit mm)*
G04 Created by KiCad (PCBNEW 7.0.7) date 2023-09-24 19:29:38*
%MOMM*%
%LPD*%
G01*
G04 APERTURE LIST*
G04 Aperture macros list*
%AMRoundRect*
0 Rectangle with rounded corners*
0 $1 Rounding radius*
0 $2 $3 $4 $5 $6 $7 $8 $9 X,Y pos of 4 corners*
0 Add a 4 corners polygon primitive as box body*
4,1,4,$2,$3,$4,$5,$6,$7,$8,$9,$2,$3,0*
0 Add four circle primitives for the rounded corners*
1,1,$1+$1,$2,$3*
1,1,$1+$1,$4,$5*
1,1,$1+$1,$6,$7*
1,1,$1+$1,$8,$9*
0 Add four rect primitives between the rounded corners*
20,1,$1+$1,$2,$3,$4,$5,0*
20,1,$1+$1,$4,$5,$6,$7,0*
20,1,$1+$1,$6,$7,$8,$9,0*
20,1,$1+$1,$8,$9,$2,$3,0*%
G04 Aperture macros list end*
%ADD10C,1.500000*%
%ADD11C,2.000000*%
%ADD12C,1.524000*%
%ADD13R,1.524000X1.524000*%
%ADD14RoundRect,0.725000X0.975000X-0.725000X0.975000X0.725000X-0.975000X0.725000X-0.975000X-0.725000X0*%
%ADD15C,1.600000*%
%ADD16O,1.600000X1.600000*%
%ADD17R,1.600000X1.600000*%
%ADD18C,1.700000*%
%ADD19O,1.700000X1.700000*%
%ADD20R,1.700000X1.700000*%
%ADD21C,1.000000*%
%ADD22R,1.000000X1.000000*%
%ADD23O,1.000000X1.000000*%
%ADD24O,0.800000X0.800000*%
%ADD25O,1.150000X1.800000*%
%ADD26O,1.450000X2.000000*%
%ADD27C,3.000000*%
%ADD28RoundRect,0.237500X0.237500X-0.300000X0.237500X0.300000X-0.237500X0.300000X-0.237500X-0.300000X0*%
%ADD29RoundRect,0.237500X0.250000X0.237500X-0.250000X0.237500X-0.250000X-0.237500X0.250000X-0.237500X0*%
%ADD30RoundRect,0.237500X0.237500X-0.250000X0.237500X0.250000X-0.237500X0.250000X-0.237500X-0.250000X0*%
%ADD31C,1.100000*%
%ADD32R,1.500000X1.000000*%
%ADD33R,1.500000X0.700000*%
%ADD34R,2.800000X1.500000*%
%ADD35RoundRect,0.237500X-0.237500X0.250000X-0.237500X-0.250000X0.237500X-0.250000X0.237500X0.250000X0*%
%ADD36RoundRect,0.150000X0.150000X-0.825000X0.150000X0.825000X-0.150000X0.825000X-0.150000X-0.825000X0*%
%ADD37RoundRect,0.150000X-0.150000X0.650000X-0.150000X-0.650000X0.150000X-0.650000X0.150000X0.650000X0*%
G04 APERTURE END LIST*
D10*
X150876000Y-53213000D03*
X167386000Y-81026000D03*
X172466000Y-59690000D03*
D11*
X113995200Y-119380000D03*
X109220000Y-119380000D03*
X154940000Y-116840000D03*
X154940000Y-112064800D03*
D12*
X174752000Y-102322000D03*
X174752000Y-99822000D03*
D13*
X174752000Y-97322000D03*
D14*
X172252000Y-94422000D03*
X172252000Y-105222000D03*
D15*
X118115000Y-76205000D03*
D16*
X120655000Y-76205000D03*
X123195000Y-76205000D03*
X125735000Y-76205000D03*
X128275000Y-76205000D03*
X130815000Y-76205000D03*
X133355000Y-76205000D03*
X135895000Y-76205000D03*
X138435000Y-76205000D03*
X140975000Y-76205000D03*
D17*
X143515000Y-76205000D03*
D16*
X146055000Y-76205000D03*
X148595000Y-76205000D03*
X151135000Y-76205000D03*
X153675000Y-76205000D03*
X156215000Y-76205000D03*
X158755000Y-76205000D03*
X161295000Y-76205000D03*
X163835000Y-76205000D03*
X166375000Y-76205000D03*
X166375000Y-60965000D03*
X163835000Y-60965000D03*
X161295000Y-60965000D03*
X158755000Y-60965000D03*
X156215000Y-60965000D03*
X153675000Y-60965000D03*
X151135000Y-60965000D03*
X148595000Y-60965000D03*
X146055000Y-60965000D03*
X143515000Y-60965000D03*
D17*
X140975000Y-60965000D03*
D16*
X138435000Y-60965000D03*
X135895000Y-60965000D03*
X133355000Y-60965000D03*
X130815000Y-60965000D03*
X128275000Y-60965000D03*
X125735000Y-60965000D03*
X123195000Y-60965000D03*
X120655000Y-60965000D03*
X118115000Y-60965000D03*
D18*
X121920000Y-98044000D03*
D19*
X121920000Y-95504000D03*
X124460000Y-98044000D03*
X124460000Y-95504000D03*
X127000000Y-98044000D03*
D20*
X127000000Y-95504000D03*
D10*
X148754000Y-68834000D03*
X143854000Y-68834000D03*
D18*
X109220000Y-43180000D03*
D19*
X111760000Y-43180000D03*
X114300000Y-43180000D03*
D11*
X163830000Y-116840000D03*
X163830000Y-112064800D03*
D10*
X171958000Y-81026000D03*
D11*
X124460000Y-119380000D03*
X129235200Y-119380000D03*
D18*
X172720000Y-64770000D03*
D20*
X172720000Y-67310000D03*
D19*
X172720000Y-69850000D03*
X172720000Y-72390000D03*
D21*
X143510000Y-86106000D03*
D22*
X143510000Y-87376000D03*
D23*
X143510000Y-88646000D03*
X143510000Y-89916000D03*
X143510000Y-91186000D03*
X143510000Y-92456000D03*
X143510000Y-93726000D03*
X143510000Y-94996000D03*
D11*
X154940000Y-121920000D03*
X154940000Y-126695200D03*
D10*
X163576000Y-81026000D03*
D11*
X163830000Y-121920000D03*
X163830000Y-126695200D03*
X119075200Y-109524800D03*
X119075200Y-114300000D03*
D18*
X114300000Y-51308000D03*
D20*
X114300000Y-53848000D03*
D24*
X159985000Y-45497000D03*
X154985000Y-45497000D03*
D25*
X161360000Y-42747000D03*
D26*
X161210000Y-46547000D03*
X153760000Y-46547000D03*
D25*
X153610000Y-42747000D03*
D20*
X172720000Y-43180000D03*
D19*
X170180000Y-43180000D03*
X167640000Y-43180000D03*
D18*
X109220000Y-48260000D03*
D20*
X111760000Y-48260000D03*
D11*
X119075200Y-124460000D03*
X119075200Y-129235200D03*
D27*
X104129840Y-87978945D03*
X104140000Y-49182985D03*
X172135800Y-49193145D03*
D13*
X104617520Y-76142545D03*
D12*
X104617520Y-73602545D03*
X104617520Y-71062545D03*
X104617520Y-68522545D03*
X104617520Y-65982545D03*
X104617520Y-63442545D03*
X104617520Y-60902545D03*
D10*
X144526000Y-53467000D03*
D28*
X139446000Y-46074500D03*
X139446000Y-44349500D03*
D29*
X140358500Y-72898000D03*
X138533500Y-72898000D03*
D30*
X166370000Y-72032500D03*
X166370000Y-70207500D03*
D31*
X138399000Y-81718000D03*
D15*
X138399000Y-102718000D03*
D32*
X135599000Y-100093000D03*
X135599000Y-97593000D03*
X135599000Y-95093000D03*
X135599000Y-92593000D03*
X135599000Y-90093000D03*
X135599000Y-87593000D03*
X135599000Y-85163000D03*
X135599000Y-83463000D03*
X135599000Y-102593000D03*
D33*
X135599000Y-82163000D03*
X135599000Y-80963000D03*
D34*
X158899000Y-79568000D03*
X137399000Y-79568000D03*
X137399000Y-104668000D03*
X158899000Y-106868000D03*
D35*
X166370000Y-66143500D03*
X166370000Y-67968500D03*
D29*
X129841000Y-57404000D03*
X128016000Y-57404000D03*
D10*
X137204000Y-51816000D03*
D29*
X110386500Y-57912000D03*
X108561500Y-57912000D03*
X129841000Y-55118000D03*
X128016000Y-55118000D03*
D10*
X136906000Y-54483000D03*
D36*
X163703000Y-71563000D03*
X162433000Y-71563000D03*
X161163000Y-71563000D03*
X159893000Y-71563000D03*
X159893000Y-66613000D03*
X161163000Y-66613000D03*
X162433000Y-66613000D03*
X163703000Y-66613000D03*
D37*
X107315000Y-96476000D03*
X108585000Y-96476000D03*
X109855000Y-96476000D03*
X111125000Y-96476000D03*
X111125000Y-103676000D03*
X109855000Y-103676000D03*
X108585000Y-103676000D03*
X107315000Y-103676000D03*
M02*
